<?xml version="1.0" encoding="UTF-8"?>
<svg id="_Слой_1" data-name="Слой 1" xmlns="http://www.w3.org/2000/svg" viewBox="0 0 198.56 199.59">
  <path d="M143.36,191.52c14.51,13.43,30.99,8.89,44.62-4.75,13.63-13.63,13.62-30.96,2.61-41.97l-68.97-59.56-39.27,39.27,61.01,67Z"/>
  <polygon points="74.65 116.07 112.96 77.77 106.79 72.44 69.18 110.06 74.65 116.07"/>
  <path d="M60.98,102.1l37.23-37.23c2.1-20.97-11.32-43.2-32.53-50.23-12.92-4.28-29.38-.73-41.17-7.27-5.88-3.26-12.8-12.66-18.23-3.41C-5.87,24.68.76,66.27,16.26,84.13c11.34,13.06,28.59,19.84,44.73,17.97Z"/>
</svg>