<?xml version="1.0" encoding="UTF-8"?>
<svg id="_Слой_1" data-name="Слой 1" xmlns="http://www.w3.org/2000/svg" viewBox="0 0 200 200">
  <path d="M182.27,158.66c10.04-17.82,11.44-39.29,4.22-58.14l-38.16,38.84c8.36-10.65,13.37-24.15,13.37-38.84s-5-28.19-13.37-38.84l38.16,38.84c7.58-19.79,5.65-42.49-5.81-60.8l17.45,17.77c4.49-15.22.83-32.4-10.98-44.42-11.81-12.02-28.69-15.75-43.64-11.18l16.76,17.06c-17.99-11.66-40.29-13.63-59.73-5.91l38.16,38.84c-10.46-8.51-23.73-13.61-38.16-13.61s-27.7,5.09-38.16,13.61L100.55,13.04c-20.7-8.22-44.64-5.45-63.17,8.29L56.48,1.89c-14.95-4.57-31.83-.85-43.64,11.18C1.02,25.09-2.63,42.27,1.86,57.49l20.89-21.26c-13.51,18.86-16.22,43.22-8.15,64.29l38.16-38.84c-8.36,10.65-13.37,24.15-13.37,38.84s5,28.19,13.37,38.84L14.59,100.53c-7.61,19.86-5.63,42.64,5.92,60.98L1.86,142.51c-4.49,15.22-.83,32.4,10.98,44.42,11.81,12.02,28.69,15.75,43.64,11.18l-15.84-16.12c18.02,11.76,40.4,13.77,59.91,6.03l-38.16-38.84c10.46,8.51,23.73,13.61,38.16,13.61s27.7-5.09,38.16-13.61l-38.16,38.84c18.51,7.35,39.61,5.92,57.12-4.3l-14.14,14.4c14.95,4.57,31.83.85,43.64-11.18,11.81-12.02,15.47-29.2,10.98-44.42l-15.87,16.15Z"/>
</svg>