<?xml version="1.0" encoding="UTF-8"?>
<svg id="_Слой_1" data-name="Слой 1" xmlns="http://www.w3.org/2000/svg" viewBox="0 0 200 200">
  <polygon points="68.3 200 94.7 200 94.7 152.4 55.5 152.4 68.3 200"/>
  <polygon points="105.2 152.4 105.2 200 134.6 200 147.3 152.4 105.2 152.4"/>
  <path d="M26.8,152.4l10.5,40.1c1.2,4.4,5.1,7.5,9.7,7.5h10.4l-12.8-47.5h-17.9l.1-.1Z"/>
  <path d="M145.4,200h7.7c4.4,0,8.3-2.9,9.6-7.2l11.9-40.4h-16.4l-12.8,47.5v.1Z"/>
  <path d="M184.2,78.8C181.8,34.9,145.5,0,101,0S20.9,34.2,17.8,77.5C7.1,83.6,0,95,0,108.1s9.4,27.8,22.6,32.9h155.4v-.3c12.9-5.3,22-17.9,22-32.6s-6.3-23-15.8-29.4v.1ZM55.5,50.1c-4.1,0-7.5-3.3-7.5-7.5s3.3-7.5,7.5-7.5,7.5,3.3,7.5,7.5-3.3,7.5-7.5,7.5ZM99.9,63.7c-4.1,0-7.5-3.3-7.5-7.5s3.3-7.5,7.5-7.5,7.5,3.3,7.5,7.5-3.3,7.5-7.5,7.5ZM99.9,26.4c-4.1,0-7.5-3.3-7.5-7.5s3.3-7.5,7.5-7.5,7.5,3.3,7.5,7.5-3.3,7.5-7.5,7.5ZM145.4,50.1c-4.1,0-7.5-3.3-7.5-7.5s3.3-7.5,7.5-7.5,7.5,3.3,7.5,7.5-3.3,7.5-7.5,7.5Z"/>
</svg>