<?xml version="1.0" encoding="UTF-8"?>
<svg id="_Слой_1" data-name="Слой 1" xmlns="http://www.w3.org/2000/svg" viewBox="0 0 200 200">
  <path d="M37.3,192.5c1.2,4.4,5.1,7.5,9.7,7.5h106.1c4.4,0,8.3-2.9,9.6-7.2l11.9-40.4H26.8l10.5,40.1Z"/>
  <path d="M184.2,78.8C181.8,34.9,145.5,0,101,0S20.9,34.2,17.8,77.5C7.1,83.6,0,95,0,108.1s9.4,27.8,22.6,32.9h155.4v-.3c12.9-5.3,22-17.9,22-32.6s-6.3-23-15.8-29.4v.1ZM55.7,50.1c-4.1,0-7.5-3.3-7.5-7.5s3.3-7.5,7.5-7.5,7.5,3.3,7.5,7.5-3.3,7.5-7.5,7.5ZM100.1,63.7c-4.1,0-7.5-3.3-7.5-7.5s3.3-7.5,7.5-7.5,7.5,3.3,7.5,7.5-3.3,7.5-7.5,7.5ZM100.1,26.4c-4.1,0-7.5-3.3-7.5-7.5s3.3-7.5,7.5-7.5,7.5,3.3,7.5,7.5-3.3,7.5-7.5,7.5ZM145.6,50.1c-4.1,0-7.5-3.3-7.5-7.5s3.3-7.5,7.5-7.5,7.5,3.3,7.5,7.5-3.3,7.5-7.5,7.5Z"/>
</svg>