<?xml version="1.0" encoding="UTF-8"?>
<svg id="_Слой_1" data-name="Слой 1" xmlns="http://www.w3.org/2000/svg" viewBox="0 0 200.41 180.87">
  <path d="M198.15,76.12c-6.6-23.9-23.79-47.48-44.63-59.96C127.34.6,93.45-5.21,64.87,5.37,19.22,22.76-9.02,67.38,2.62,116.1c15.71,61.16,95.13,85.83,142.69,43.92,15.04-13.67,26.37-30.57,26.42-51.9-.04-19.23-5.58-39.46-18.27-54.22-12.63-14.09-29.7-23.58-48.47-24.68-17.19-.72-36.79,3.15-50.13,14.06-18.61,16.14-32.35,41.79-22.61,66.89,8.96,27.09,33.1,44.93,61.9,42.41,46.13-3.21,65.47-65.24,23.32-88.7-22.4-12.79-55.67.13-57.23,27.41-1.62,21.87,22.15,40.67,42,28.09,4.53-2.43,8.12-7.79,9.23-13.18,1.75-8.54-9.21-13.6-14.75-6.87-.57.69-1.14,1.34-1.73,1.87-4.51,5.5-11.25,4.33-14.99-1.82-.24-.4-.44-.82-.6-1.26-6.55-17.58,16.76-27.24,30.58-19.09,23.57,12.56,14.65,48.97-9.62,55.63-14.21,4.51-30.44.24-40.77-10.6-18.92-20.36-17.63-42.37,0-62.6,9.76-11.64,23.96-15.81,38.43-16.32,33.93-1.35,56.85,28.35,57.38,60.02.81,14.13-5.66,26.84-15.17,37.25-22.68,26.01-66.12,29.64-94.04,9.04-28.88-18.49-36.61-61.31-22.44-91.08.12-.25.25-.5.39-.75,12.34-21.2,34.64-38.33,58.58-42.71,33.29-5.01,69.52,8.86,88.18,38.54,7.57,10.79,11.06,24.47,15.68,36.42,3.68,9.35,12.17,3.89,12.79,1.71,2.25-7.88.34-11.59-1.17-17.25l-.06-.22Z"/>
</svg>