<?xml version="1.0" encoding="UTF-8"?>
<svg id="_Слой_1" data-name="Слой 1" xmlns="http://www.w3.org/2000/svg" viewBox="0 0 199.99 200">
  <path d="M188.66.62c-46.52,5.17-83.36,42.17-88.36,88.78V10c0-5.52-4.48-10-10-10H10.55C4.55,0-.04,5.24.62,11.2c5.13,46.14,41.54,82.84,87.48,88.4H10c-5.52,0-10,4.48-10,10v79.75c0,6,5.25,10.59,11.21,9.93,46.53-5.17,83.48-42.17,88.49-88.78v79.5c0,5.52,4.48,10,10,10h79.75c6,0,10.59-5.25,9.93-11.21-5.17-46.53-42.17-83.48-88.78-88.49h79.39c5.53,0,10.01-4.49,10-10.01l-.11-79.75c0-6-5.25-10.58-11.21-9.92Z"/>
</svg>