<?xml version="1.0" encoding="UTF-8"?>
<svg id="_Слой_1" data-name="Слой 1" xmlns="http://www.w3.org/2000/svg" viewBox="0 0 85.04 85.04">
  <defs>
    <style>
      .cls-1 {
        fill: #fff;
      }
    </style>
  </defs>
  <path class="cls-1" d="M70.75,18.2c-.36-4-3.29-2.09-5.82-2.14-9.35-.2-12.81-3.05-20.3-7.24-2.9-1.62-4.14.8-6.64,2.2-4.75,2.64-10.37,4.74-15.87,5.04-1.61.09-6.56-.75-7.38.08-.37.52-.37,1.13-.42,1.73-.87,10.41-.68,25.65,3.71,35.14,3.78,8.16,14.62,20.05,23.05,23.41,1.48.59,1.94.36,3.34-.24,9.16-3.88,19.73-15.55,23.39-24.72,3.44-8.6,3.78-24,2.94-33.26ZM63.2,49.83c-3,7.5-11.64,17.04-19.13,20.21-.67.28-1.08.46-1.55.47V14.54c.5-.06,1.06.05,1.72.42,6.12,3.43,8.95,5.76,16.6,5.92,2.07.04,4.46-1.52,4.76,1.75.69,7.57.41,20.16-2.41,27.2Z"/>
</svg>