<?xml version="1.0" encoding="UTF-8"?>
<svg id="_Слой_1" data-name="Слой 1" xmlns="http://www.w3.org/2000/svg" viewBox="0 0 85.04 85.04">
  <defs>
    <style>
      .cls-1 {
        fill: #fff;
      }
    </style>
  </defs>
  <path class="cls-1" d="M10.2,57.78c-.32-1.14-3.13.85-3.8-.14-.45-1.07-.13-5.65,1.04-5.91,2.72,1.28,4.59,2.42,7.78,1.87.55-.09,4.84-2.22,4.84-.42v24c0,1.5-7.13,1.32-8.36,1.13-.61-.1-1.09-.34-1.5-.8v-19.72Z"/>
  <path class="cls-1" d="M74.96,57.62v19.56c0,1.49-7.86,1.44-8.87.98-.17-.08-.99-.91-.99-.98v-24.16c.88.06,1.56.65,2.48.67,1.11.03,4.4-.22,5.55-.37,1.4-.19,3.78-2.03,4.24-1.91,1.29.33,1.85,4.83,1.15,5.99s-2.4-.13-3.56.22Z"/>
  <path class="cls-1" d="M63.21,24.17c-.76.81-.27,3.67-2.88,4.19-2.87.57-3.21-1.15-4.66-1.57-1.29-.37-2.87.49-3.9-.7-1.38-1.59-.24-3.41-.48-5.1-.11-.78-.86-1.63-.83-2.33.04-1.06,1.82-2.38,2.09-3.69.22-1.09,0-2.27.07-3.38,1.62-.73,4.14.9,5.1.85.88-.04,1.64-.92,3.22-.45s1.72,2.78,2.52,3.72c.56.65,1.82.99,2.32,1.63,1.21,1.54.8,4.63-.69,5.9-.53.46-1.57.61-1.87.92ZM57.78,17.57c-3.8.58-.77,6.58,1.92,3.26,1.17-1.44-.42-3.49-1.92-3.26Z"/>
  <path class="cls-1" d="M30.35,25.83c-1.15.99-1.06,2.89-3.88,2.88-1.56,0-1.87-1.35-2.69-1.59-1.39-.41-3.33.56-4.2-1.39-.6-1.36,0-2.64-.17-3.75-.2-1.3-2.48-1.84-1.58-4.88.42-1.41,2.61-1.41,3.4-2.19,1.16-1.13.61-3.08,3.64-3.29,2.55-.18,2.68,1.38,3.94,2.25,1.01.7,3.13.66,3.82,2.09.75,1.54.06,2.78.3,3.95.21,1.02,1.49,1.74,1.21,3.29-.39,2.15-2.85,1.82-3.8,2.64ZM25.82,17.65c-2.4-.09-3.24,4.14,0,4.15,2.98,0,2.57-4.06,0-4.15Z"/>
  <path class="cls-1" d="M8.35,37.68c1.52-1.43,2.88-.58,4.24-.83.76-.14,1.32-.88,2.39-.95,3.49-.25,4.09,2.29,5.61,4.59.59.89,1.61,1.26,1.77,2.52.23,1.78-.99,2.33-1.48,3.74-.64,1.82.33,2.96-2.51,3.41-2.01.32-1.93.48-3.62.98s-5.43-.95-6.7-2.06c-1.05-.92-1.91-3.06-1.81-4.45s1.11-1.82,1.28-2.71c.29-1.49-.96-2.57.82-4.25ZM14.06,41.24c-1.77.27-2.68,3.11-.82,3.98,3.92,1.83,4.11-4.48.82-3.98Z"/>
  <path class="cls-1" d="M47.27,8.07c.39.41.67,2.06,1,2.78.46.97,1.3,1.15,1.4,2.57.14,1.92-1,2.15-1.27,3.35-.32,1.47.38,2.57-1.08,3.85s-2.05.37-3.39.52-2.73,2.04-4.38,1.06l-4.45-4.12c-.45-.87.2-1.68.09-2.67-.17-1.52-2.34-2.16-1.4-4.06.52-1.05,1.78-.74,2.57-1.38,1.41-1.13.88-4.04,4.19-3.23.6.15,1.04.76,1.43.83.68.12,1.74-.64,2.82-.51.36.04,2.27.79,2.47,1.01ZM42,11.98c-2.38.36-2.53,4.18.55,3.89,2.81-.27,1.77-4.24-.55-3.89Z"/>
  <path class="cls-1" d="M65.21,37.68c2.19-2.26,3.42-.95,5.63-1.08.78-.05,1.45-.55,2.03-.58.62-.04,2.75.88,3.1,1.36.53.74.21,1.88.46,2.83.29,1.1,1.52,1.87,1.75,2.85.8,3.44-1.74,4.56-3.04,7.34-1.62,1.31-6.11,1.02-8.01.43-1.66-.51-1.37-1.71-2.21-2.72-.74-.89-1.81-.84-2.09-2.51-.49-2.82.68-2.58,1.15-4.07.44-1.39-.09-2.48,1.24-3.86ZM70.27,41.24c-2.44.37-2.59,4.81.89,4.22,2.62-.44,1.49-4.59-.89-4.22Z"/>
  <path class="cls-1" d="M73.9,34.2c-.92.91-3.86-.54-4.97-.48-1.38.08-3.75,2.24-5.15,1.39-.26-.16-1.24-2.86-1.3-3.33-.27-1.96.95-1.74,1.46-2.78,1.61-3.27,1.35-2.31,3.64-4.91,1.22-1.38.78-2.94,3.25-1.95,5.99,2.42,1.58,3.62,1.53,5.39-.03,1.18,3.32,4.91,1.55,6.66Z"/>
  <path class="cls-1" d="M16.04,22.19c.69,1.49,1.12,3.68,2.05,5.03,1.61,2.32,5.16,1.93,4.02,5.33-1.12,3.33-3.41,1.46-5.82,1.39-1.82-.06-3.49.78-5.21.04-1.82-2.11,1.59-4.66,1.75-6.47.15-1.62-1.87-2.34-1.16-3.75.33-.66,3.67-2.32,4.37-1.57Z"/>
</svg>