<?xml version="1.0" encoding="UTF-8"?>
<svg id="_Слой_1" data-name="Слой 1" xmlns="http://www.w3.org/2000/svg" viewBox="0 0 85.04 85.04">
  <defs>
    <style>
      .cls-1 {
        fill: #fff;
      }
    </style>
  </defs>
  <path class="cls-1" d="M62.4,49.12v-22.64l-24.5,9.31-.3.93c.07,6.84-.04,13.69,0,20.53,0,1.34.41,2.46.31,3.96-.42,6.3-6.22,11.08-12.4,11.18-3.45.06-7.32-2.43-7.76-6-.96-7.84,8.68-12.61,15.27-9.92v-31.36c0-.78,1.8-1.53,2.45-1.83,8.57-3.95,18.55-6.49,27.22-10.41,2.67-.72,4.07.4,4.3,3.05-.88,12.83,1.14,27.15,0,39.8-.4,4.47-4.87,8-8.95,9.1-10.93,2.94-14.96-9.12-5.96-14.53,3.47-2.09,6.45-1.78,10.31-1.16Z"/>
</svg>