<?xml version="1.0" encoding="UTF-8"?>
<svg id="_Слой_1" data-name="Слой 1" xmlns="http://www.w3.org/2000/svg" viewBox="0 0 85.04 85.04">
  <defs>
    <style>
      .cls-1 {
        fill: #fff;
      }
    </style>
  </defs>
  <path class="cls-1" d="M37.78,21.83c-10.16-.13-20.26,1.04-30.43,1.21-3.74-.87-3.66-6.9.28-7.33,2.1-.23,5.69.52,7.95.63,7.28.35,14.64.79,21.89.75.85-2.07,3.95-1.92,4.89,0,9.19.17,18.47-1.13,27.68-1.39,1.72-.05,3.72-.32,4.72,1.43,1.22,2.14.24,5.29-2.27,5.91l-29.81-1.21v5.35l.51.41c5.28.01,9.9,3.69,12.56,8.01l16.1-.06c1.46-.44,3.28-6.92,5.93-7.53,2.16-.5,4.45.14,4.6,2.61.07,1.21-1.72,7.76-2.21,9.26-.84,2.52-1.14,2.42-3.76,2.97-6.66,1.39-13.83,1.68-20.5,3.21-1.53,7.27-6.35,13.53-14.15,14.31l1.27,7.3c.51.32,6.1-.15,7.44.06,3.02.47,2.29,4.62-.57,4.59-10.03-.9-22.01,1.14-31.81-.05-1.31-.16-3.31-.98-4.44-1.68-1.66-1.02-7.11-6.19-3.41-7.34,2.62-.81,4.23,2.78,6.32,3.81,1.07.52,4.83,1.29,5.26.13.23-.62,1.21-6.28.98-6.52-5.17-.23-10.34.14-14.54-3.36s-4.29-8.08-2.24-12.97c3.29-7.86,11.28-13.24,19.83-13.36-.1-1.28.85-3.66,2.31-3.66h9.64v-5.51ZM30.13,36.22c-.68-.96-8.74.26-10.16.69-4.75,1.45-9.57,6.01-10.64,10.93,3.53-.44,7.39-.01,10.86-.31,6.63-.57,9.21-5.19,9.95-11.31ZM33.19,46.61c3.13.35,10.58-1.32,10.42-5.34-.11-2.79-5.46-4.98-7.93-4.4l-2.49,9.75ZM37.48,60.69h-10.4l-.92,7.04h12.54l-1.22-7.04Z"/>
</svg>