<svg viewBox="0 0 59 20" fill="none" xmlns="http://www.w3.org/2000/svg">
<path d="M6.6285 15.1576L8.49129 10.5435H10.3L10.7917 11.6291H9.36797L7.34174 16.406H5.91662L3.89038 11.6291H2.46526L2.95831 10.5435H4.8211L6.6285 15.1576Z" fill="black"/>
<path fill-rule="evenodd" clip-rule="evenodd" d="M9.86103 9.45653H8.43726L7.9442 8.20816H5.26011L4.76706 9.45653H3.39733L5.91662 3.59402H7.34174L9.86103 9.45653ZM5.69778 7.06875H7.56057L6.6285 4.8424L5.69778 7.06875Z" fill="black"/>
<path fill-rule="evenodd" clip-rule="evenodd" d="M6.6285 0.5C10.2989 0.5 13.257 4.78854 13.257 10C13.257 15.2115 10.2989 19.5 6.6285 19.5C2.95837 19.4996 0 15.2112 0 10C3.35551e-06 4.78877 2.95837 0.500379 6.6285 0.5ZM6.6285 1.20624C3.34185 1.20664 0.713239 5.16878 0.713236 10C0.713236 14.8312 3.39662 18.7934 6.6285 18.7938C9.86064 18.7938 12.5451 14.8315 12.5451 10C12.5451 5.16854 9.91542 1.20624 6.6285 1.20624Z" fill="black"/>
<path fill-rule="evenodd" clip-rule="evenodd" d="M21.4754 11.7918L20.3786 11.7367L19.9963 10.8139H18.0241L17.6404 11.7918H16.6543L18.6265 7.34048H19.5032L21.4754 11.7918ZM18.3523 9.94619H19.6667L19.0102 8.37093L18.3523 9.94619Z" fill="black"/>
<path fill-rule="evenodd" clip-rule="evenodd" d="M55.111 11.7918L54.1249 11.7367L53.7412 10.8139H51.769L51.3854 11.7918H50.3993L52.3715 7.34048H53.1388L55.111 11.7918ZM52.0973 9.94619H53.413L52.7551 8.37093L52.0973 9.94619Z" fill="black"/>
<path d="M57.1926 7.12256C58.0694 7.17685 58.7261 7.66612 58.8906 8.42608L57.9599 8.58886C57.9052 8.1546 57.5211 7.88266 57.0832 7.88261C56.6448 7.88261 56.3713 8.15467 56.3713 8.42608C56.3714 8.64306 56.4806 8.80631 56.809 8.86059L57.7951 9.07717C58.5073 9.24008 59 9.67504 59 10.3807C58.9996 11.2489 58.2878 11.7918 57.1926 11.7918C56.2616 11.7918 55.4397 11.3569 55.3298 10.4883L56.3159 10.2717C56.4253 10.7601 56.8091 10.9766 57.302 10.9766C57.7945 10.9766 58.1232 10.7059 58.1233 10.4345C58.1233 10.1631 58.014 10.0548 57.5762 9.94619L56.6442 9.78342C56.0965 9.67478 55.4946 9.40258 55.4946 8.47989C55.4947 7.66567 56.1518 7.12256 57.1926 7.12256Z" fill="black"/>
<path d="M22.7898 10.9228H25.0902V11.7367H21.8577V7.28533H22.7898V10.9228Z" fill="black"/>
<path d="M29.1441 8.10054H26.6248V9.07717H28.9252V9.89104H26.6248V10.9228H29.1441V11.7367H25.7481V7.28533H29.1441V8.10054Z" fill="black"/>
<path d="M31.7741 8.86059L32.8143 7.28533H33.9098L32.486 9.51168L33.9098 11.7367H32.8143L31.7741 10.109L30.7326 11.7367H29.6371L31.0622 9.51168L29.6371 7.28533H30.7326L31.7741 8.86059Z" fill="black"/>
<path d="M38.0744 10.4883L39.4428 7.28533H40.4842L38.512 11.7367H37.6353L35.7185 7.28533H36.7046L38.0744 10.4883Z" fill="black"/>
<path d="M41.908 11.7367H40.9773V7.28533H41.908V11.7367Z" fill="black"/>
<path d="M43.8262 10.9228H46.1266V11.7367H42.8941V7.28533H43.8262V10.9228Z" fill="black"/>
<path d="M47.6598 10.9228H49.9616V11.7367H46.7291V7.28533H47.6598V10.9228Z" fill="black"/>
</svg>
