<svg viewBox="0 0 81 20" fill="none" xmlns="http://www.w3.org/2000/svg">
<path fill-rule="evenodd" clip-rule="evenodd" d="M66.3314 5.02678C66.747 5.02678 67.1158 5.15046 67.4382 5.39785C67.7612 5.64578 68.0293 6.00124 68.2478 6.46178C68.4662 6.92264 68.6295 7.47405 68.739 8.11565C68.8485 8.75747 68.9042 9.47276 68.9043 10.2609V10.4609C68.9043 11.2109 68.8485 11.9049 68.739 12.5439C68.6294 13.1826 68.4663 13.7412 68.2478 14.218C68.0294 14.6942 67.7615 15.0646 67.4442 15.3283C67.1275 15.5922 66.7572 15.7241 66.339 15.7241C65.9398 15.7239 65.5932 15.5921 65.3035 15.3283C65.1064 15.1505 64.9352 14.9231 64.782 14.65V19.5H62.8732V5.21811H64.6531L64.7168 6.20232C64.8833 5.88007 65.0778 5.61819 65.3005 5.41814C65.5897 5.1575 65.932 5.02678 66.3314 5.02678ZM65.8447 7.34307C65.6151 7.34312 65.4215 7.40133 65.2626 7.51556C65.1042 7.62979 64.9748 7.79626 64.879 8.01564C64.8419 8.09819 64.8113 8.1886 64.782 8.28525V12.425C64.8643 12.704 64.9788 12.9287 65.1261 13.0976C65.3063 13.3036 65.5495 13.4077 65.8554 13.4078C66.0712 13.4078 66.2514 13.3325 66.3966 13.1831C66.5411 13.0336 66.6568 12.8227 66.7438 12.5497C66.8314 12.2763 66.8935 11.9609 66.9348 11.6046C66.973 11.2489 66.9924 10.8678 66.9924 10.4609V10.2609C66.9924 9.8413 66.9715 9.45537 66.9333 9.10276C66.892 8.74988 66.8263 8.44167 66.7362 8.17798C66.6461 7.91432 66.5276 7.70979 66.3799 7.5634C66.2353 7.41746 66.0551 7.34307 65.8447 7.34307Z" fill="black"/>
<path fill-rule="evenodd" clip-rule="evenodd" d="M14.2789 0.5C14.2789 0.5 21.9592 0.500297 23.8744 0.984132C24.9307 1.25044 25.7631 2.03493 26.0454 3.03082C26.555 4.82407 26.5579 8.55271 26.5579 8.60269C26.5579 8.60269 26.5583 12.3691 26.0454 14.1745C25.7631 15.1705 24.9308 15.9564 23.8744 16.2227C21.9592 16.7065 14.2789 16.7054 14.2789 16.7054C14.216 16.7054 6.59274 16.7044 4.68502 16.2227C3.62841 15.9565 2.79636 15.1706 2.51396 14.1745C2.00106 12.3692 2 8.60269 2 8.60269C2.00002 8.55272 2.00436 4.82407 2.51396 3.03082C2.79643 2.03487 3.6285 1.25031 4.68502 0.984132C6.59253 0.502339 14.216 0.500008 14.2789 0.5ZM11.8229 12.0757L18.2041 8.60269L11.8229 5.13114V12.0757Z" fill="black"/>
<path fill-rule="evenodd" clip-rule="evenodd" d="M46.6645 5.02678C47.1757 5.02678 47.6308 5.15864 48.0244 5.42249C48.4177 5.68573 48.7482 6.05307 49.016 6.52266C49.2838 6.99306 49.4888 7.54822 49.6254 8.18668C49.7648 8.82564 49.8331 9.52339 49.8332 10.2798V10.4798C49.8332 11.2299 49.7649 11.9255 49.6254 12.5642C49.4888 13.2026 49.2837 13.759 49.016 14.2325C48.7481 14.7056 48.4167 15.0721 48.026 15.3327C47.6352 15.5931 47.1848 15.724 46.6766 15.7241C46.1709 15.7241 45.7194 15.5933 45.3258 15.3327C44.9323 15.0722 44.599 14.7055 44.3312 14.2325C44.0606 13.759 43.8581 13.2026 43.7187 12.5642C43.582 11.9255 43.511 11.2299 43.511 10.4798V10.2798C43.511 9.52339 43.5821 8.82564 43.7187 8.18668C43.8581 7.54825 44.0606 6.99305 44.3312 6.52266C44.5989 6.0531 44.9291 5.6857 45.3197 5.42249C45.7104 5.15875 46.159 5.02688 46.6645 5.02678ZM46.6645 7.34307C46.4351 7.34321 46.2407 7.41988 46.0823 7.57209C45.9238 7.72479 45.7956 7.93806 45.6972 8.21132C45.6016 8.48457 45.5302 8.79774 45.4865 9.1506C45.4455 9.50305 45.4243 9.87932 45.4243 10.2798V10.4798C45.4243 10.8868 45.4455 11.2687 45.4865 11.6249C45.5302 11.9804 45.6017 12.2915 45.6972 12.5584C45.7956 12.8253 45.9241 13.0335 46.0853 13.1831C46.2466 13.3327 46.4443 13.4078 46.6766 13.4078C46.9086 13.4076 47.1023 13.3324 47.2634 13.1831C47.4219 13.0335 47.5512 12.8254 47.6469 12.5584C47.7452 12.2915 47.8167 11.9804 47.8577 11.6249C47.9014 11.2687 47.9229 10.8868 47.9229 10.4798V10.2798C47.9228 9.87934 47.9014 9.50304 47.8577 9.1506C47.8167 8.79778 47.7452 8.48455 47.6469 8.21132C47.5512 7.93807 47.42 7.72479 47.2588 7.57209C47.1002 7.41975 46.8996 7.34307 46.6645 7.34307Z" fill="black"/>
<path fill-rule="evenodd" clip-rule="evenodd" d="M58.9889 5.02678C59.4563 5.02684 59.875 5.14539 60.2412 5.38335C60.6074 5.62169 60.9164 5.96203 61.1706 6.4038C61.4221 6.8457 61.6155 7.37678 61.7467 7.9968C61.8779 8.61643 61.9468 9.3106 61.9468 10.0797V11.3002H57.7927C57.8098 11.4802 57.835 11.6518 57.87 11.8148C57.9384 12.1452 58.0393 12.4289 58.1733 12.6642C58.3098 12.8992 58.4718 13.0832 58.663 13.2164C58.8543 13.3501 59.0732 13.4164 59.3164 13.4165C59.6198 13.4165 59.9072 13.3267 60.1806 13.1454C60.454 12.9641 60.689 12.6792 60.8886 12.2917L61.7801 13.8847C61.6461 14.1896 61.4566 14.4832 61.2161 14.7659C60.9728 15.0487 60.6832 15.2793 60.3443 15.4574C60.0055 15.6353 59.6228 15.724 59.1966 15.7241C58.6717 15.7241 58.1979 15.5933 57.7851 15.3327C57.3699 15.0721 57.0168 14.7116 56.7299 14.2514C56.4429 13.7905 56.2253 13.2577 56.075 12.654C55.9219 12.0504 55.8476 11.4055 55.8475 10.719V10.3566C55.8475 9.58743 55.9159 8.87869 56.0553 8.23016C56.1947 7.58195 56.3965 7.01717 56.6617 6.53715C56.9295 6.05775 57.2579 5.68582 57.6487 5.42249C58.0396 5.15864 58.4887 5.02678 58.9889 5.02678ZM58.9753 7.34307C58.7431 7.34307 58.5518 7.42005 58.3961 7.57209C58.2403 7.7248 58.1164 7.93918 58.0262 8.21567C57.9333 8.49199 57.8671 8.81305 57.8261 9.17814C57.8185 9.24549 57.8155 9.31475 57.8094 9.38396H60.076V9.15494C60.076 8.79241 60.0322 8.47443 59.9501 8.20117C59.8655 7.92818 59.7458 7.71721 59.5847 7.56774C59.4235 7.41868 59.2211 7.34315 58.9753 7.34307Z" fill="black"/>
<path fill-rule="evenodd" clip-rule="evenodd" d="M34.9071 4.06431H30.9895V6.57194H32.2554C32.9632 6.57194 33.5785 6.75546 34.1005 7.1242C34.6227 7.49272 35.0255 8.00964 35.3043 8.67371C35.5858 9.3377 35.7273 10.1149 35.7273 11.0045C35.7273 11.6721 35.646 12.2823 35.4847 12.8352C35.3262 13.3882 35.0935 13.8664 34.7873 14.2702C34.4867 14.6734 34.1203 14.9843 33.6942 15.2037C33.2705 15.4231 32.7885 15.5327 32.2554 15.5327H28.9867V1.6509H34.9071V4.06431ZM30.9895 13.1309H32.2554C32.5807 13.1309 32.8542 13.0332 33.0756 12.8396C33.2943 12.6456 33.4609 12.3867 33.5729 12.0626C33.685 11.7386 33.7397 11.3799 33.7397 10.9857C33.7397 10.5981 33.685 10.2526 33.5729 9.95072C33.4609 9.64915 33.2942 9.41097 33.0756 9.23612C32.8542 9.06125 32.5807 8.97376 32.2554 8.97376H30.9895V13.1309Z" fill="black"/>
<path d="M42.5407 15.5327H40.6319V7.53441H39.2341L39.131 10.4711C39.1063 11.2146 39.0541 11.8658 38.9748 12.425C38.8928 12.9843 38.7889 13.4617 38.6549 13.8557C38.5237 14.2497 38.3649 14.5703 38.1819 14.8181C37.9987 15.066 37.7908 15.2471 37.5557 15.3617C37.321 15.4757 37.0672 15.5326 36.7916 15.5327H36.2094L36.1791 13.2164L36.405 13.1787C36.5253 13.1597 36.6319 13.1018 36.7249 13.0063C36.8177 12.9111 36.8974 12.7753 36.9629 12.5975C37.0313 12.4194 37.0896 12.1901 37.1388 11.9104C37.188 11.6308 37.2254 11.3013 37.2555 10.9233C37.2883 10.5455 37.307 10.1086 37.3207 9.61298L37.445 5.21811H42.5407V15.5327Z" fill="black"/>
<path d="M55.3973 7.53441H52.7198V15.5327H50.8126V5.21811H55.3973V7.53441Z" fill="black"/>
<path fill-rule="evenodd" clip-rule="evenodd" d="M71.9547 8.16349H73.1023C73.7202 8.16349 74.2512 8.31887 74.6912 8.63023C75.1312 8.94154 75.4701 9.37712 75.7055 9.93622C75.9402 10.4955 76.0603 11.1444 76.0603 11.8814C76.0603 12.409 75.9925 12.8972 75.8617 13.3454C75.7302 13.7933 75.5352 14.1795 75.281 14.5036C75.0268 14.8276 74.7148 15.0808 74.3486 15.2617C73.9825 15.4428 73.5666 15.5327 73.1023 15.5327H70.0353V5.21811H71.9547V8.16349ZM71.9547 13.2353H73.1023C73.3532 13.2353 73.5586 13.1733 73.7088 13.0497C73.862 12.9257 73.9746 12.7593 74.0454 12.5497C74.1167 12.3398 74.153 12.1129 74.153 11.8713C74.1529 11.6111 74.1166 11.3752 74.0454 11.1625C73.9746 10.9495 73.8622 10.7808 73.7088 10.6566C73.5586 10.533 73.3532 10.4711 73.1023 10.4711H71.9547V13.2353Z" fill="black"/>
<path d="M79 15.5327H77.0806V5.21811H79V15.5327Z" fill="black"/>
</svg>
