<svg viewBox="0 0 122 20" fill="none" xmlns="http://www.w3.org/2000/svg">
<path d="M77.2283 8.28369C77.5401 8.23734 77.6511 8.33224 77.8621 8.37739C77.9841 8.40364 78.1199 8.40503 78.2354 8.35884C78.2543 8.35095 78.2558 8.34549 78.2754 8.34028C78.2743 8.37169 78.2597 8.39328 78.2456 8.4145C78.2266 8.44315 78.2116 8.44427 78.1972 8.46367C78.2915 8.5085 78.4647 8.48193 78.5593 8.67705C78.5682 8.69566 78.5753 8.71529 78.5658 8.7355C78.5364 8.72762 78.5541 8.71972 78.5183 8.71138C78.4824 8.70287 78.3699 8.72251 78.3201 8.72251C78.3497 8.76716 78.3702 8.74819 78.4439 8.87744C78.5421 9.04811 78.6112 9.17079 78.7492 9.30234C78.8396 9.38853 78.892 9.43955 79.0321 9.47212V9.4916C78.993 9.4916 78.9641 9.50132 78.9241 9.50737C78.8917 9.51199 78.8542 9.51109 78.8125 9.51108C78.8349 9.54433 78.8656 9.57584 78.886 9.61221C78.908 9.65241 78.9231 9.68725 78.9372 9.7356C78.9806 9.88182 78.9549 9.93473 78.9549 10.0547L78.9241 10.0009C78.8948 9.95814 78.8529 9.90502 78.7994 9.89238C78.8989 10.0406 78.9591 10.2874 78.8972 10.4694C78.8846 10.5076 78.8558 10.5994 78.8357 10.6346C78.8214 10.6594 78.8289 10.6395 78.8171 10.6605C78.8081 10.6757 78.8003 10.7094 78.7957 10.7301C78.772 10.8356 78.8167 10.9102 78.8636 10.9992C78.794 10.9829 78.7449 10.9506 78.6896 10.9212C78.6895 11.0493 78.6587 11.0795 78.6337 11.1764C78.6006 11.3056 78.6904 11.4256 78.5928 11.374C78.6443 11.5966 78.4934 11.7129 78.362 11.861C78.2864 11.9451 78.2168 12.038 78.2168 12.157C78.1943 12.1487 78.2145 12.1649 78.1972 12.1375C78.1641 12.0844 78.1451 12.0323 78.1451 11.9622L78.1125 12.0132C78.081 12.066 78.0572 12.1213 78.0418 12.182C78.0323 12.2187 78.0118 12.3477 78.0166 12.3954C78.0188 12.4258 78.0279 12.4272 78.0287 12.4604C78.0128 12.4481 77.9952 12.4166 77.9822 12.3973C77.9338 12.3258 77.8798 12.2833 77.8798 12.169C77.8304 12.2258 77.7341 12.3299 77.6974 12.388C77.633 12.4896 77.6473 12.6301 77.7514 12.6542C77.7258 12.6921 77.649 12.6835 77.608 12.6812C77.501 12.6751 77.5297 12.6556 77.4721 12.6422C77.477 12.6965 77.5486 12.8917 77.5801 12.9483C77.6271 13.0325 77.692 13.1096 77.7495 13.1868C77.8704 13.3488 77.9745 13.4908 78.0818 13.6692C78.1084 13.7143 78.1337 13.7535 78.1581 13.8C78.1814 13.845 78.2083 13.8846 78.2316 13.9327C78.2552 13.9818 78.2734 14.0288 78.294 14.0774C78.3144 14.1231 78.3338 14.1746 78.3517 14.2212C78.4088 14.3743 78.4583 14.5308 78.4969 14.6916C78.5088 14.7434 78.5151 14.803 78.5295 14.8585C78.6281 15.2512 78.7126 15.557 78.9204 15.905L78.9986 16.0266C79.0997 16.1553 79.3064 16.334 79.4445 16.4023C79.5307 16.4451 79.6279 16.5019 79.7293 16.5248C79.7578 16.5311 79.8829 16.545 79.9164 16.5405C80.0445 16.5229 80.1194 16.5193 80.2421 16.4589C80.3761 16.3929 80.5048 16.3167 80.5958 16.1963C80.6109 16.1764 80.6045 16.1855 80.621 16.1704C80.6421 16.1507 80.7443 15.9834 80.7615 15.9551C80.8158 15.8651 80.8501 15.7778 80.8881 15.675C80.9041 15.6337 80.9308 15.5603 80.9346 15.5135C80.9368 15.4767 80.9436 15.461 80.9495 15.4254C80.987 15.1974 80.9671 15.0049 80.9225 14.7825C80.9052 14.6939 80.8526 14.5614 80.8164 14.481L80.7429 14.3529C80.7289 14.3294 80.7198 14.3099 80.7038 14.2889C80.6299 14.1894 80.5018 14.0392 80.3967 13.9753C80.2437 13.8821 80.2282 13.8793 80.0532 13.8139L79.8922 13.7685C79.7935 13.7511 79.5113 13.739 79.4379 13.7861C79.3932 13.815 79.4413 13.8744 79.357 14.0087C79.2267 14.2141 78.9371 14.242 78.7212 14.1609C78.7116 14.1575 78.692 14.1546 78.7036 14.1331C78.7151 14.1145 78.7669 14.1237 78.792 14.1238V14.1099C78.6521 14.1095 78.4338 13.954 78.3694 13.8343C78.3493 13.7964 78.3401 13.7851 78.3266 13.7416C78.313 13.6966 78.3122 13.664 78.3182 13.6172C78.3217 13.5899 78.3201 13.5758 78.3247 13.5634L78.3284 13.556L78.334 13.543C78.3395 13.5322 78.3385 13.5325 78.3461 13.5217C78.3635 13.534 78.3716 13.554 78.3824 13.5755C78.403 13.6164 78.4694 13.6861 78.5099 13.7128C78.5735 13.7546 78.6918 13.8065 78.7734 13.8065C78.7392 13.7768 78.6114 13.6615 78.6375 13.6061C78.6679 13.5921 78.7204 13.6223 78.7529 13.633C78.7977 13.6479 78.8199 13.655 78.8795 13.6618C78.9175 13.666 78.9746 13.648 79.0126 13.6451C79.1225 13.6367 79.2324 13.662 79.2993 13.6534C79.4153 13.6382 79.4616 13.6357 79.5822 13.6321C79.6149 13.631 79.618 13.6252 79.653 13.6247C79.8563 13.622 80.0491 13.6488 80.2226 13.7351L80.2217 13.736C80.3763 13.8127 80.5148 13.9064 80.6452 14.018L80.7122 14.0867C80.751 14.1263 80.7855 14.1695 80.8146 14.2175C80.836 14.253 80.8536 14.2738 80.8741 14.3065C80.9365 14.4038 81.0209 14.6192 81.0538 14.7342C81.1204 14.9659 81.0922 14.9245 81.1227 15.1257C81.1321 15.1929 81.1237 15.2702 81.1217 15.34L81.1022 15.5479C81.091 15.6911 81.0105 15.884 80.9467 16.0062C80.9131 16.071 80.8673 16.133 80.8304 16.1945C80.7639 16.3063 80.6836 16.3605 80.62 16.4431C80.5749 16.5017 80.5144 16.5423 80.4544 16.5823C80.3709 16.6379 80.2431 16.6909 80.1472 16.7279C80.0526 16.7649 79.8563 16.7749 79.7414 16.7585C79.6959 16.7517 79.659 16.7453 79.6157 16.7354C79.5674 16.7241 79.5345 16.7181 79.491 16.7047C79.3025 16.6449 79.097 16.5346 78.9381 16.4162L78.8125 16.3151C78.7626 16.2735 78.7087 16.2113 78.6607 16.1639C78.5673 16.0724 78.4763 15.9136 78.4225 15.7928C78.3952 15.7316 78.3326 15.6522 78.3182 15.5924C78.2747 15.6423 78.2453 15.7107 78.2149 15.7677C78.2692 15.7677 78.2973 15.7734 78.3378 15.8002C78.3515 15.8096 78.3554 15.8093 78.3573 15.8317C78.3044 15.8328 78.2454 15.8696 78.2344 15.9097C78.2678 15.9125 78.3186 15.9406 78.3415 15.9579C78.3686 15.9784 78.3932 16.0084 78.4122 16.0368C78.4336 16.0688 78.4456 16.1101 78.4662 16.1379C78.486 16.1638 78.5161 16.1925 78.5518 16.201C78.5494 16.228 78.5501 16.2208 78.5295 16.2316L78.4243 16.2678C78.3779 16.2767 78.3105 16.2845 78.2866 16.3179C78.3389 16.33 78.3747 16.379 78.4076 16.4162C78.4222 16.4333 78.4604 16.5018 78.4066 16.47C78.3646 16.4446 78.3299 16.4229 78.2735 16.4273C78.2332 16.4307 78.1804 16.4562 78.1553 16.4774C78.1113 16.5153 78.1062 16.5408 78.132 16.6018C78.1706 16.6947 78.2145 16.7272 78.2959 16.7873C78.3161 16.8027 78.3207 16.811 78.3415 16.8253C78.4366 16.8905 78.5561 16.8987 78.6626 16.9376C78.7918 16.9845 78.7869 17.1679 78.8404 17.2771C78.8512 17.299 78.8545 17.3173 78.8776 17.3245C78.9015 17.3318 78.9381 17.3265 78.953 17.3208C79.0614 17.2779 79.0794 17.133 79.0889 17.1129C79.1305 17.1141 79.1319 17.1374 79.1438 17.1742C79.1728 17.2611 79.1632 17.3691 79.1205 17.4497C79.1899 17.4497 79.2547 17.4726 79.2825 17.5137C79.2584 17.5202 79.2265 17.5457 79.2118 17.5657L79.1531 17.6306C79.1726 17.6596 79.1925 17.6675 79.2136 17.7058C79.272 17.8114 79.26 17.9257 79.2499 18.0444H79.2378C79.2313 18.0176 79.2177 18.0057 79.1922 17.9989C79.1922 18.1445 79.1052 18.3567 79.1392 18.4665C79.1504 18.503 79.1795 18.5578 79.2183 18.5686V18.588C79.1759 18.5981 79.1386 18.5898 79.1066 18.5704C79.0786 18.5534 79.0612 18.5212 79.0368 18.5036C79.0338 18.5382 79.0084 18.5996 78.994 18.6289C78.9834 18.65 78.9748 18.6657 78.967 18.6854C78.9594 18.7056 78.9548 18.7252 78.9465 18.743C78.9126 18.7422 78.9107 18.7363 78.9018 18.7105L78.8813 18.6585C78.8707 18.705 78.8348 18.7646 78.8087 18.7996C78.7789 18.8395 78.7367 18.8649 78.7017 18.8998C78.6892 18.9121 78.6835 18.9166 78.671 18.9276C78.6626 18.9355 78.6541 18.9454 78.6468 18.9545C78.6128 18.9961 78.6023 19.0468 78.5798 19.0946C78.5328 19.1917 78.496 19.2775 78.3927 19.3274C78.3247 19.3603 78.2301 19.3503 78.1581 19.359C78.0706 19.3697 78.1042 19.4573 78.0399 19.5C77.9682 19.462 77.9809 19.4012 77.9952 19.3386C77.9719 19.3039 77.955 19.3002 77.9496 19.2412C77.9151 19.2412 77.8512 19.2374 77.8286 19.2495C77.7996 19.265 77.8009 19.2971 77.7681 19.3191C77.7255 19.3075 77.7365 19.2623 77.7365 19.2087C77.7109 19.1956 77.7004 19.1936 77.6974 19.1567C77.6765 19.1667 77.6613 19.1632 77.6322 19.1632C77.6219 19.1377 77.6406 19.1622 77.6257 19.1308C77.601 19.1374 77.5951 19.1504 77.5857 19.1744C77.5748 19.2009 77.577 19.2079 77.5419 19.2087C77.536 19.1849 77.5323 19.1907 77.5298 19.1632C77.5244 19.1068 77.5394 19.081 77.5503 19.0306C77.5544 19.0119 77.5514 18.9649 77.555 18.9369C77.5658 18.8597 77.6081 18.7806 77.6629 18.7281C77.6995 18.693 77.7536 18.6684 77.8016 18.6604C77.869 18.6494 77.934 18.656 77.9924 18.6678C78.0534 18.68 78.1014 18.7037 78.1488 18.6437C78.1645 18.624 78.2024 18.5155 78.2084 18.4897C78.2308 18.3976 78.2339 18.2947 78.2344 18.1993C78.2344 18.1563 78.2285 18.1376 78.2279 18.1028C78.2263 18.0353 78.2267 17.9731 78.1981 17.9182C78.1833 17.8903 78.1785 17.8711 78.1618 17.8449C78.0792 17.7191 77.9524 17.6305 77.8472 17.5249L77.6192 17.3319C77.5991 17.3193 77.5802 17.3001 77.5615 17.2874C77.5503 17.3356 77.5126 17.3903 77.4572 17.3903C77.4429 17.3283 77.4421 17.2729 77.3949 17.202C77.3895 17.1948 77.3848 17.1889 77.38 17.1834C77.38 17.2333 77.3688 17.324 77.3279 17.3514C77.3087 17.3223 77.303 17.2902 77.2832 17.2595C77.2291 17.174 77.115 17.1285 77.0952 17.0545H77.0821C77.0794 17.0842 77.0449 17.1363 77.0319 17.099C77.0283 17.0877 77.0319 17.0508 77.03 17.035C77.0132 16.8856 76.8465 16.8502 76.7861 16.7289C76.768 16.6919 76.7396 16.5853 76.7387 16.5368C76.693 16.5895 76.7125 16.6101 76.7126 16.6723C76.6729 16.6686 76.6456 16.6346 76.6223 16.6073C76.6223 16.6701 76.6158 16.6872 76.6028 16.7437H76.5897C76.5612 16.6223 76.4159 16.6114 76.3254 16.6797C76.235 16.7472 76.1961 16.8395 76.1811 16.9562C76.1727 17.0216 76.1653 17.0934 76.196 17.1436C76.278 17.2798 76.491 17.4418 76.5376 17.2419C76.5906 17.2808 76.5423 17.4202 76.5013 17.4571C76.4798 17.4768 76.4634 17.4724 76.4473 17.4942C76.4877 17.5047 76.5261 17.5745 76.5395 17.6158C76.5541 17.6641 76.5509 17.7461 76.5627 17.7995C76.5717 17.8362 76.5847 17.8445 76.5972 17.87C76.6031 17.8814 76.6069 17.8936 76.5925 17.9024C76.579 17.9108 76.573 17.9029 76.5572 17.8969C76.4876 17.8706 76.4853 17.8869 76.4026 17.8431C76.4108 17.9397 76.4513 17.9934 76.4604 18.0769C76.4658 18.1279 76.4598 18.1731 76.4455 18.2095C76.4343 18.2389 76.4081 18.2732 76.3831 18.2902C76.3831 18.2508 76.3766 18.2429 76.3766 18.2058L76.3663 18.2271C76.3634 18.2356 76.3628 18.2388 76.3598 18.2466C76.3462 18.2781 76.2342 18.4812 76.2211 18.4906C76.2003 18.4403 76.2297 18.3294 76.1895 18.2708C76.1656 18.3701 76.133 18.4282 76.0648 18.4953C76.0266 18.533 75.9789 18.5615 75.9345 18.5908C75.8703 18.6338 75.8523 18.6716 75.8498 18.6363C75.8449 18.5744 75.8525 18.5318 75.8526 18.4841C75.7713 18.5388 75.7735 18.599 75.7427 18.6196C75.7427 18.5563 75.7487 18.4735 75.7688 18.4322C75.7538 18.4361 75.7314 18.452 75.7213 18.4628L75.6217 18.5769C75.5992 18.6058 75.5845 18.631 75.5631 18.6604C75.5431 18.6887 75.5277 18.7183 75.5082 18.7476C75.4697 18.8046 75.4527 18.8791 75.3993 18.9229C75.3042 19.0007 75.2791 18.9895 75.2392 19.0157C75.1988 19.0422 75.242 19.0494 75.2187 19.1502C75.1855 19.1502 75.1761 19.1422 75.1582 19.1261C75.1428 19.1118 75.1309 19.0993 75.1163 19.0844C75.0965 19.0644 75.0955 19.0534 75.08 19.0361C75.0634 19.0176 75.0447 19.0177 75.0148 19.0241C74.8955 19.0503 74.9161 19.093 74.7458 19.0788C74.7358 19.1203 74.7285 19.1716 74.6881 19.1827C74.6602 19.1622 74.6522 19.1069 74.6463 19.0612C74.6381 18.9957 74.6243 19.0122 74.583 18.9703C74.5729 18.9593 74.5784 18.9606 74.5588 18.9554C74.5506 18.9531 74.5373 18.9512 74.5262 18.9489C74.4678 18.9371 74.4228 18.8967 74.3763 18.8654C74.3413 18.8844 74.299 18.9109 74.2469 18.9109C74.1927 18.8293 74.2629 18.8107 74.2637 18.756C74.2648 18.7026 74.2348 18.7003 74.2693 18.5769C74.3044 18.4528 74.3731 18.4182 74.5094 18.3969C74.6188 18.3801 74.7213 18.3985 74.797 18.3802C74.8735 18.3616 74.9613 18.3316 75.0232 18.2902C75.0648 18.2627 75.1049 18.2317 75.1358 18.1947L75.2271 18.0722C75.322 17.9293 75.3658 17.7376 75.3313 17.5675C75.3072 17.4514 75.2841 17.3451 75.2392 17.24C75.1962 17.1376 75.14 17.0542 75.1144 16.9441C75.057 16.9824 75.0474 17.0464 75.0307 17.0563C75.0111 17.0679 75.0011 17.062 74.9981 17.0415C74.9954 17.0217 75.007 17.0194 75.0027 16.9849C74.9962 16.9351 74.9657 16.8966 74.9655 16.8411C74.9129 16.8535 74.8557 16.9014 74.8036 16.8736C74.8071 16.8289 74.84 16.8158 74.852 16.7725C74.8763 16.6811 74.8252 16.5906 74.8548 16.5034C74.8662 16.4689 74.8998 16.4439 74.9078 16.4144C74.878 16.4062 74.7849 16.3032 74.8166 16.2715C74.8541 16.2539 74.8797 16.2983 74.9516 16.2316C74.9966 16.1896 74.9957 16.1769 75.0111 16.1101C74.9678 16.1111 74.8803 16.1344 74.8427 16.1166C74.8462 16.0812 74.8491 16.1026 74.8715 16.0739C74.8924 16.0468 74.9035 16.0094 74.919 15.9792C74.9276 15.9628 74.9347 15.9511 74.9441 15.9329C74.9682 15.8849 74.9992 15.8465 75.0307 15.8067C75.113 15.7053 75.3381 15.6218 75.3927 15.5404C75.3459 15.5444 75.3088 15.5729 75.2578 15.5729C75.2662 15.5357 75.3017 15.5107 75.3332 15.4931C75.4508 15.4289 75.3967 15.4499 75.5333 15.3966C75.5542 15.3883 75.5692 15.384 75.5901 15.3753C75.613 15.366 75.6214 15.3578 75.6385 15.353C75.6299 15.3484 75.5068 15.2981 75.4905 15.2361C75.5173 15.2383 75.5539 15.25 75.5817 15.2547C75.6575 15.2679 75.8073 15.282 75.8647 15.2352C75.9062 15.2011 75.9472 15.1749 75.9912 15.1415C76.1128 15.0501 76.1136 15.0443 76.2193 14.9374L76.4008 14.7361C76.411 14.7268 76.4222 14.7196 76.4287 14.7129C76.4537 14.6868 76.4728 14.5869 76.4799 14.5496C76.4859 14.5149 76.4969 14.4917 76.4855 14.4615C76.4654 14.409 76.4333 14.2791 76.3915 14.2314C76.3721 14.209 76.3615 14.1924 76.3431 14.1702C76.3242 14.1476 76.3061 14.1407 76.2854 14.1191C76.2169 14.0498 76.086 14.0118 75.995 13.9753C75.9514 13.9579 75.9446 13.95 75.9177 13.9679C75.9052 13.976 75.8984 13.9805 75.8851 13.9883C75.812 14.0335 75.8205 14.0209 75.846 13.9549C75.8745 13.8812 75.7561 13.9051 75.6971 13.7944C75.6526 13.8183 75.6145 13.8263 75.564 13.8417C75.5311 13.852 75.2812 13.8764 75.2485 13.8677C75.2026 13.8559 75.1571 13.8379 75.1172 13.8297C74.8919 13.7846 74.7094 13.6311 74.5941 13.6868C74.5744 13.696 74.5585 13.7116 74.5401 13.7239C74.5181 13.7386 74.5076 13.7462 74.488 13.762C74.3531 13.8699 74.3502 13.7925 74.3214 13.9457C74.3128 13.9959 74.3197 14.053 74.3102 14.108C74.2877 14.2324 74.2799 14.2157 74.2218 14.2917C74.1813 14.344 74.1603 14.3906 74.1073 14.4374C74.0767 14.465 74.0728 14.5204 74.0533 14.557C74.0171 14.5562 74.0194 14.5492 74.0059 14.5208C73.9956 14.5001 73.9882 14.485 73.9798 14.4624C73.9567 14.3954 73.9329 14.1262 73.8272 14.1173C73.8272 14.1914 73.8236 14.2469 73.8206 14.3186C73.8176 14.3872 73.7911 14.4215 73.7453 14.4503C73.6747 14.495 73.7168 14.4494 73.6671 14.5784C73.6625 14.5914 73.6573 14.6047 73.6522 14.6155C73.6457 14.6297 73.6352 14.6396 73.6317 14.647C73.6159 14.6815 73.6429 14.6928 73.6066 14.7185C73.5745 14.741 73.5284 14.7516 73.4958 14.7537C73.493 14.7537 73.4911 14.7537 73.4893 14.7537L73.4865 14.7546C73.4662 14.7602 73.4037 14.8059 73.2929 14.8242L73.1542 14.8418C73.0996 14.8434 73.0083 14.8661 72.9857 14.8354C72.9613 14.8532 72.9779 14.8616 72.9224 14.8548C72.8834 14.8499 72.8159 14.8513 72.7772 14.8372L72.7502 14.8326C72.6534 14.8383 72.6117 14.7959 72.5967 14.7927C72.5736 14.7885 72.5725 14.7986 72.5334 14.7834L72.4291 14.7259C72.4132 14.7141 72.3972 14.7088 72.3826 14.6953C72.3413 14.6588 72.333 14.572 72.3081 14.5236C72.2747 14.4595 72.2529 14.5704 72.2243 14.3733C72.2197 14.3398 72.2181 14.2494 72.2225 14.2147C72.2325 14.1325 72.2488 14.2025 72.2225 14.0913C72.2013 14.0017 72.2013 13.893 72.2095 13.7935C72.2173 13.692 72.2108 13.5907 72.2262 13.4874C72.2333 13.4369 72.231 13.3878 72.2383 13.3371C72.2448 13.2891 72.2575 13.2537 72.2616 13.2053C72.2127 13.1925 72.2401 13.099 72.242 13.0625C72.245 13.0037 72.2449 12.9255 72.3035 12.8973C72.3361 12.8813 72.318 12.8882 72.3286 12.8259C72.3369 12.78 72.3311 12.7167 72.3714 12.7006C72.3994 12.6899 72.4369 12.69 72.4719 12.6839C72.524 12.6753 72.5161 12.6695 72.5529 12.6941C72.5852 12.6511 72.7236 12.6769 72.7791 12.6422C72.8046 12.6514 72.7802 12.6436 72.8052 12.6617C72.8342 12.6404 72.8 12.6451 72.8424 12.6338C72.8589 12.6296 72.8739 12.63 72.8964 12.6292C72.9554 12.6265 72.939 12.6103 72.9867 12.6422C72.9897 12.613 72.9833 12.6249 73.023 12.6199L73.1738 12.6162C73.1803 12.6387 73.176 12.631 73.1933 12.6422C73.2034 12.6267 73.2009 12.6351 73.2063 12.6162C73.2487 12.6162 73.4003 12.6299 73.4139 12.6812H73.4269C73.4337 12.6657 73.4461 12.6661 73.4632 12.6682C73.6201 12.6892 73.5824 12.7229 73.5824 12.8815C73.6125 12.8877 73.6212 12.8765 73.6382 12.9159C73.6591 12.9647 73.6626 13.0232 73.6857 13.0689C73.697 13.0922 73.7052 13.1118 73.7052 13.1469C73.7623 13.1088 73.803 13.0425 73.8495 12.9929C73.8779 12.9623 73.8911 12.9467 73.9147 12.9103C73.9266 12.8917 73.9348 12.8807 73.9454 12.863C73.9538 12.8488 73.9618 12.8311 73.9705 12.8166C73.989 12.787 74.017 12.7644 74.0468 12.7442C74.0881 12.7164 74.1031 12.7141 74.1557 12.735C74.3683 12.8194 74.293 12.9752 74.3428 13.0263C74.4096 13.0938 74.5532 13.1025 74.6472 13.1237C74.7363 13.1442 74.815 13.1371 74.8585 13.1376C74.9294 13.1386 74.9862 13.1274 75.0642 13.1274C75.0592 13.0728 75.026 13.0332 74.9981 12.9994C74.979 12.9766 74.9303 12.907 74.9274 12.875C74.9174 12.8818 74.9171 12.8848 74.9059 12.8917C74.8704 12.9151 74.809 12.9823 74.7728 12.9854L74.7905 12.9391C74.8267 12.8098 74.7895 12.7086 74.7645 12.5791C74.7495 12.5017 74.7412 12.4478 74.7542 12.3583C74.7583 12.3263 74.7676 12.2903 74.7766 12.2581C74.7866 12.2258 74.7984 12.2012 74.8054 12.17C74.7715 12.1928 74.7563 12.203 74.7133 12.2201L74.6109 12.26C74.6164 12.2387 74.6299 12.2327 74.6453 12.2173C74.7333 12.1314 74.7924 11.9837 74.7924 11.8592C74.7609 11.8427 74.7293 11.8302 74.6984 11.81C74.6699 11.7909 74.6405 11.7727 74.6155 11.7506C74.6003 11.7372 74.595 11.7302 74.582 11.7135L74.4815 11.6068C74.5151 11.5992 74.5366 11.6001 74.5783 11.6003C74.6013 11.6003 74.66 11.613 74.6509 11.5818C74.6246 11.4943 74.4571 11.4571 74.3661 11.373C74.3441 11.3535 74.3141 11.3319 74.3065 11.3025C74.3296 11.2867 74.3429 11.2954 74.3698 11.2812C74.3824 11.2746 74.3804 11.2742 74.3847 11.2701C74.3548 11.2701 74.334 11.2745 74.313 11.2645C74.3155 11.2336 74.3169 11.2441 74.3382 11.2311C74.3787 11.2064 74.3912 11.1765 74.3912 11.1216L74.2851 11.0335C74.1877 10.953 74.1425 10.6477 73.9966 10.5205C73.9167 10.5736 73.8498 10.6467 73.7378 10.6698C73.6985 10.6779 73.6423 10.6884 73.5973 10.68C73.5312 10.668 73.541 10.6587 73.453 10.7598L73.4418 10.7515L73.426 10.7348C73.4208 10.7243 73.4202 10.7093 73.4232 10.6912C73.4411 10.5628 73.4637 10.6389 73.4437 10.5232C73.4358 10.4765 73.4459 10.4728 73.4465 10.436C73.3995 10.4675 73.3735 10.4802 73.2985 10.4611C73.2427 10.4467 73.2156 10.435 73.1747 10.4036C73.1567 10.3901 73.1438 10.3768 73.1272 10.36C73.1065 10.3391 73.1063 10.3314 73.0928 10.3043C73.0708 10.2597 73.0442 10.2337 73.0192 10.1967C72.9979 10.2069 72.9347 10.215 72.9094 10.2032C72.8825 10.1764 72.9167 10.1182 72.9662 10.0854C73.0247 10.0467 72.9886 10.0665 73.0248 10.0213C73.0457 9.99479 73.1005 9.95897 73.1356 9.95083C73.1285 9.92049 73.1114 9.89061 73.1281 9.85435C73.0839 9.84391 73.0714 9.83754 73.0388 9.81538V9.77642C73.1376 9.7103 73.1197 9.7603 73.184 9.74302L73.1942 9.73931L73.2017 9.73745C73.2038 9.73644 73.2156 9.73023 73.2212 9.72725C73.3127 9.68078 73.4295 9.67876 73.5284 9.73931C73.5575 9.7569 73.577 9.77551 73.6028 9.79497C73.7211 9.88268 73.9721 9.69993 74.2469 9.83672C74.2874 9.85669 74.3846 9.94364 74.4257 9.98145L74.5234 10.0714C74.5579 10.0985 74.5595 10.1092 74.5867 10.1373L74.8454 10.3961C74.9225 10.4737 75.2347 10.7398 75.3118 10.6782C75.3552 10.6425 75.4719 10.5051 75.5398 10.4583L75.6534 10.3841C75.6303 10.3822 75.5042 10.356 75.4588 10.3776C75.4612 10.3511 75.4561 10.3629 75.4747 10.3488L75.6534 10.2227C75.7593 10.1673 75.8941 10.1809 75.94 10.1596C76.1085 10.0803 76.2037 10.0967 76.3757 10.141C76.4451 10.1591 76.4554 10.1447 76.5274 10.1447L76.4883 10.1392C76.4943 10.1178 76.4884 10.1278 76.5069 10.1178C76.5311 10.1047 76.5491 10.1095 76.5721 10.0742C76.3232 10.0742 76.3514 9.99184 76.183 9.99629C76.1487 9.99744 76.1161 10.0092 76.0936 10.0223C76.0396 10.0533 75.9748 10.0812 75.9047 10.0668C75.8628 10.058 75.9073 10.0258 75.9186 10.0093C75.8771 10.019 75.7647 10.0434 75.7371 10.0028C75.755 9.97904 75.7955 9.98212 75.8181 9.94897C75.8567 9.89273 75.8437 9.81336 75.9037 9.76157C75.9185 9.74912 75.927 9.74714 75.9428 9.73652C75.9594 9.72629 75.9664 9.72068 75.9838 9.71147C75.9838 9.65323 75.9399 9.62472 75.9736 9.57231C75.9822 9.55817 75.9818 9.56223 75.9912 9.54541C76.0146 9.50415 76.0241 9.4981 76.0806 9.4981C76.0806 9.43849 76.0849 9.36265 76.1588 9.36265C76.1776 9.40344 76.1773 9.47337 76.1932 9.52129C76.2103 9.57052 76.2546 9.58699 76.2947 9.61313C76.4626 9.72243 76.6212 9.72374 76.6177 9.4981C76.6163 9.44251 76.6054 9.38955 76.5702 9.35151C76.4461 9.21417 76.4232 9.25969 76.3263 9.21328L76.3189 9.22627C76.3189 9.22627 76.3075 9.23409 76.304 9.23647C76.2644 9.26688 76.279 9.31695 76.2165 9.31719C76.2 9.29181 76.1805 9.25297 76.1774 9.21421C76.1495 9.215 76.1505 9.21964 76.1197 9.2207C75.9097 9.227 76.0195 9.14048 75.9559 9.07319C75.9084 9.02308 75.9152 8.9983 75.9103 8.94238C75.9092 8.92638 75.9002 8.91923 75.8926 8.89692C75.8705 8.83416 75.8106 8.79187 75.927 8.75127C75.996 8.72737 76.0321 8.69744 76.088 8.65942C76.2429 8.5538 76.3054 8.58513 76.4808 8.60747C76.5325 8.61398 76.7078 8.65676 76.7573 8.62231C76.7708 8.61259 76.7681 8.60196 76.7768 8.58335C76.7907 8.5516 76.8698 8.47885 76.8978 8.45254C76.9193 8.43229 76.9445 8.41902 76.9714 8.40244C77.0521 8.35304 77.1304 8.29843 77.2283 8.28369Z" fill="black"/>
<path d="M28.7045 6.22227C29.6434 6.22229 30.5216 6.36661 31.3396 6.65366C32.1573 6.94083 32.9364 7.44831 33.6768 8.177L32.5496 9.50273C32.2182 9.23769 31.9058 9.01148 31.6132 8.82363C31.3203 8.63578 31.0245 8.48393 30.7262 8.36812C30.4279 8.25234 30.1155 8.16938 29.7898 8.11948C29.4639 8.06987 29.1021 8.04528 28.7045 8.04526C28.3507 8.04526 28.0184 8.10031 27.7095 8.2104C27.4003 8.32093 27.1298 8.46989 26.8979 8.65757C26.6658 8.84537 26.483 9.0643 26.3506 9.31255C26.2181 9.56103 26.1514 9.81754 26.1514 10.0826C26.1514 10.2703 26.1905 10.4497 26.2677 10.6207C26.3453 10.7922 26.4826 10.9445 26.6819 11.0771C26.8803 11.2095 27.1487 11.3147 27.4861 11.3916C27.823 11.4688 28.2567 11.5076 28.7874 11.5076C29.8699 11.5076 30.7627 11.5904 31.4643 11.7562C32.1658 11.9217 32.7206 12.162 33.1295 12.4771C33.5381 12.7918 33.8233 13.1779 33.9839 13.6358C34.144 14.0944 34.2241 14.6111 34.2241 15.1851C34.2241 15.8038 34.0842 16.3648 33.8024 16.8671C33.5207 17.3699 33.1332 17.7949 32.6417 18.1427C32.15 18.4903 31.5669 18.7583 30.8928 18.9461C30.2189 19.134 29.489 19.2282 28.7045 19.2282C28.2295 19.2282 27.7572 19.1687 27.2879 19.0519C26.818 18.935 26.3623 18.7682 25.9205 18.5509C25.4785 18.3335 25.0605 18.0667 24.6686 17.7494C24.2763 17.4321 23.9252 17.0743 23.6159 16.6769L24.9088 15.4671C25.0744 15.666 25.2735 15.879 25.5054 16.1054C25.7375 16.3321 26.0118 16.5414 26.3264 16.7344C26.6412 16.9278 26.9948 17.0882 27.3875 17.215C27.7794 17.3421 28.2186 17.4052 28.7045 17.4052C29.1575 17.4052 29.6061 17.3617 30.0476 17.2734C30.4896 17.1854 30.8819 17.0507 31.2242 16.8689C31.5667 16.6874 31.8437 16.4563 32.0535 16.1759C32.2631 15.8952 32.3681 15.5626 32.3681 15.1777C32.3681 14.7048 32.2603 14.3417 32.0451 14.0885C31.8294 13.8355 31.5497 13.6516 31.2074 13.5365C30.8648 13.4209 30.4724 13.3514 30.0309 13.3296C29.5888 13.3075 29.1466 13.2972 28.7045 13.2972C27.2128 13.2972 26.0796 13.0313 25.3062 12.5012C24.5328 11.971 24.1465 11.1708 24.1465 10.0993C24.1465 9.60258 24.2594 9.11954 24.4862 8.65015C24.7123 8.1806 25.0274 7.76614 25.4309 7.40698C25.8341 7.04811 26.3147 6.76082 26.8727 6.54512C27.4307 6.32975 28.0419 6.22227 28.7045 6.22227Z" fill="black"/>
<path d="M71.7422 3.94561C72.8337 3.94561 73.8528 4.14869 74.797 4.55513C75.7408 4.96176 76.5656 5.52136 77.272 6.23062L75.9233 7.81797C75.3839 7.27601 74.7542 6.85023 74.0347 6.54048C73.3152 6.23074 72.5196 6.07568 71.7227 6.07568C70.926 6.07572 70.1811 6.21089 69.4878 6.4811C68.7939 6.75142 68.1934 7.13524 67.6858 7.63149C67.1783 8.12756 66.7801 8.71339 66.4907 9.38955C66.2016 10.0658 66.0579 10.8102 66.0579 11.6217C66.0579 12.3949 66.2121 13.1134 66.5205 13.7768C66.8286 14.4403 67.246 15.0098 67.7724 15.4866C68.2989 15.9631 68.9024 16.3367 69.5837 16.6073C70.2645 16.8776 70.9837 17.0136 71.7422 17.0137C71.8001 17.0137 72.027 17.0081 72.027 17.0081V19.1354C72.027 19.1354 71.8251 19.1428 71.7227 19.1428C70.6307 19.1428 69.6157 18.9427 68.6781 18.5426C67.7407 18.143 66.9249 17.5935 66.231 16.8968C65.538 16.1998 64.9918 15.3772 64.5938 14.429C64.1954 13.4803 63.9962 12.4375 63.9962 11.3795C63.9962 10.3216 64.2047 9.33695 64.6226 8.42749C65.0396 7.51766 65.6048 6.73097 66.3176 6.06641C67.0306 5.40141 67.8564 4.88154 68.7944 4.50688C69.7314 4.13261 70.7139 3.94564 71.7422 3.94561Z" fill="black"/>
<path d="M108.576 8.1937H101.529V12.0327C101.913 11.8091 102.303 11.6719 102.699 11.6217C103.093 11.5715 103.5 11.5456 103.918 11.5456H106.68V13.4076H103.918C103.511 13.4076 103.107 13.4393 102.707 13.5013C102.306 13.5632 101.913 13.6951 101.529 13.8974V17.099H109.322V18.961H99.6825V6.33081H108.576V8.1937Z" fill="black"/>
<path d="M115.614 16.8958L119.967 6.33081H122L116.698 18.961H114.513L109.295 6.33081H111.294L115.614 16.8958Z" fill="black"/>
<path d="M89.9865 16.5999H98.8365V18.9508H87.6568L87.6559 18.9499V3.01138H89.9865V16.5999Z" fill="black"/>
<path d="M22.3221 8.40986H15.4268V12.1653C15.8022 11.947 16.1833 11.8128 16.5699 11.7636C16.9563 11.7145 17.355 11.6894 17.7641 11.6894H20.4652V13.5124H17.7641C17.3663 13.5124 16.9704 13.5427 16.5782 13.6033C16.1861 13.6638 15.8024 13.7933 15.4268 13.9911V17.1241H23.0518V18.9461H13.6202V6.58687H22.3221V8.40986Z" fill="black"/>
<path d="M37.7862 15.815L44.0681 6.58687H46.2396L42.1786 12.4019L44.3994 15.7325C44.786 16.3067 45.1373 16.6878 45.4521 16.8754C45.767 17.0633 46.057 17.1464 46.3224 17.1241L46.8362 17.1074V18.9461H46.1903C45.9028 18.9461 45.6291 18.9301 45.3693 18.897C45.1097 18.8639 44.8531 18.7837 44.5986 18.6567C44.3447 18.5301 44.0849 18.3363 43.8195 18.0769C43.5546 17.8173 43.2777 17.4554 42.9902 16.9914L41.1175 13.993L37.7853 18.9461H35.9795V6.58687H37.7862V15.815Z" fill="black"/>
<path d="M49.3307 6.58594C49.6845 7.55803 50.1541 8.50803 50.7399 9.43594C51.3255 10.3639 52.0025 11.2251 52.7709 12.0206C53.5387 11.2254 54.2155 10.3638 54.801 9.43594C55.3867 8.50832 55.8561 7.5582 56.2102 6.58594H58.2821C57.6854 7.97758 57.0025 9.24303 56.2344 10.3804C55.4666 11.5181 54.6125 12.5892 53.6738 13.594V18.9452H51.8671V13.594C50.9276 12.5891 50.0734 11.5182 49.3056 10.3804C48.5372 9.24306 47.8555 7.97781 47.2588 6.58594H49.3307Z" fill="black"/>
<path d="M7.63058 3.89458C8.70573 3.89458 9.70955 4.09507 10.6398 4.49575C11.5695 4.89605 12.3826 5.44571 13.0785 6.14434L11.7502 7.7085C11.219 7.17443 10.5983 6.75465 9.8896 6.44956C9.18099 6.1441 8.39652 5.99219 7.61197 5.99219C6.82746 5.9922 6.09372 6.12598 5.41066 6.39204C4.72719 6.65845 4.13533 7.03612 3.63565 7.5248C3.13569 8.01375 2.74288 8.5909 2.45821 9.25688C2.1736 9.92332 2.031 10.6563 2.03098 11.4556C2.03098 12.2173 2.18323 12.9247 2.48706 13.5783C2.79093 14.232 3.20239 14.7932 3.72128 15.263C4.23988 15.7325 4.83453 16.1007 5.5056 16.367C6.17584 16.6334 6.88457 16.7669 7.63152 16.7669C7.68869 16.7669 7.9075 16.7623 7.91168 16.7623V18.8571C7.91168 18.8571 7.71272 18.8645 7.61197 18.8645C6.53646 18.8645 5.53633 18.6675 4.61298 18.2735C3.6891 17.88 2.88565 17.3389 2.20224 16.6528C1.51905 15.966 0.98045 15.1554 0.588257 14.2212C0.195805 13.2864 0 12.2594 0 11.2172C2.23867e-05 10.1751 0.205838 9.20569 0.617111 8.30967C1.0282 7.4133 1.58492 6.63783 2.28694 5.98291C2.98959 5.3282 3.80281 4.81635 4.72653 4.44751C5.65011 4.07896 6.61818 3.89462 7.63058 3.89458Z" fill="black"/>
<path d="M75.2569 15.5803L75.2513 15.5729H75.2578L75.2569 15.5803Z" fill="black"/>
<path d="M73.4511 10.7682L73.4455 10.7598H73.453L73.4511 10.7682Z" fill="black"/>
<path d="M69.7848 0.5C69.7848 0.65501 69.8054 0.816393 69.8434 0.984277C69.882 1.15201 69.9518 1.31024 70.0547 1.45835C70.1574 1.60702 70.3088 1.72632 70.508 1.81646C70.7068 1.90672 70.9606 1.95189 71.2694 1.9519C71.5775 1.9519 71.8313 1.90682 72.0307 1.81646C72.2295 1.72612 72.3802 1.60668 72.4831 1.45835C72.5855 1.30994 72.6565 1.15186 72.6953 0.984277C72.7339 0.816393 72.753 0.65501 72.753 0.5H74.9692C74.9304 0.796866 74.8464 1.10971 74.7179 1.43887C74.5894 1.76775 74.3845 2.07132 74.1017 2.34897C73.8192 2.62643 73.4491 2.85569 72.9932 3.03643C72.5374 3.21709 71.9627 3.30729 71.2694 3.30732C70.5759 3.30732 69.9996 3.21721 69.5437 3.03643C69.0882 2.85574 68.7189 2.62654 68.437 2.34897C68.1539 2.07129 67.9484 1.76779 67.8199 1.43887C67.6913 1.10969 67.6075 0.79688 67.5695 0.5H69.7848Z" fill="black"/>
<path d="M5.70386 0.5C5.70386 0.652641 5.72254 0.811605 5.76064 0.976855C5.79847 1.14192 5.86781 1.29733 5.96913 1.44351C6.07029 1.58963 6.21959 1.70815 6.41591 1.79697C6.61194 1.88614 6.86181 1.93057 7.16519 1.93057C7.46878 1.93057 7.71879 1.88627 7.91541 1.79697C8.11119 1.70816 8.2598 1.58982 8.36125 1.44351C8.46204 1.29731 8.53168 1.14172 8.56975 0.976855C8.6076 0.811604 8.62746 0.652641 8.62746 0.5H10.8102C10.7723 0.79241 10.6893 1.10106 10.5626 1.42495C10.4362 1.74872 10.2336 2.04755 9.95569 2.32114C9.67736 2.59432 9.3136 2.82052 8.86481 2.99839C8.41555 3.17651 7.84864 3.26558 7.16519 3.26558C6.4817 3.26558 5.91549 3.17651 5.46651 2.99839C5.01728 2.8205 4.65282 2.59439 4.37469 2.32114C4.09658 2.04759 3.8942 1.74897 3.76782 1.42495C3.6414 1.10078 3.55929 0.792397 3.52116 0.5H5.70386Z" fill="black"/>
</svg>
