<svg width="98" height="20" viewBox="0 0 98 20" fill="none" xmlns="http://www.w3.org/2000/svg">
<g clip-path="url(#clip0_2462_191)">
<path d="M8.74489 12.5981L7.57429 14.626H9.91544V19H0L4.95774 10.4111L8.74489 12.5981Z" fill="black"/>
<path d="M21.9346 19H12.0191V14.626H14.3603L13.214 12.6402L17.0012 10.4532L21.9346 19Z" fill="black"/>
<path d="M31.1427 19H28.348V11.0755H31.1427V19Z" fill="black"/>
<path d="M40.9041 15.6606V11.0755H43.7093V19H41.4274L35.053 14.6347V19H32.2478V11.0755H34.5087L40.9041 15.6606Z" fill="black"/>
<path d="M50.752 15.9432L54.2271 11.0755H57.3463L51.7255 19H49.7891L44.2101 11.0755H47.3503L50.752 15.9432Z" fill="black"/>
<path d="M67.2819 15.87H61.3994V17.1052L67.7216 17.0948V19H58.5524V13.9647H67.2819V15.87Z" fill="black"/>
<path d="M73.15 11.065C73.3733 11.065 73.6385 11.079 73.9455 11.1069C74.2595 11.1278 74.584 11.1697 74.919 11.2325C75.2609 11.2953 75.5993 11.3826 75.9343 11.4942C76.2692 11.5989 76.5693 11.7315 76.8344 11.892C77.0996 12.0525 77.3125 12.2444 77.4729 12.4678C77.6404 12.6841 77.7242 12.9389 77.7242 13.232V13.6926H75.055C75.0341 13.5041 74.9434 13.3611 74.7829 13.2634C74.6224 13.1587 74.4375 13.0819 74.2281 13.0331C74.0258 12.9772 73.8234 12.9458 73.6211 12.9388C73.4187 12.9249 73.2617 12.9179 73.15 12.9179C73.0872 12.9179 72.993 12.9214 72.8674 12.9284C72.7488 12.9354 72.6162 12.9493 72.4697 12.9703C72.3301 12.9912 72.1836 13.0156 72.03 13.0435C71.8835 13.0715 71.7474 13.1098 71.6218 13.1587C71.5032 13.2006 71.4055 13.2494 71.3287 13.3052C71.259 13.3611 71.2276 13.4239 71.2346 13.4937C71.2485 13.6053 71.3567 13.6961 71.559 13.7659C71.7614 13.8356 72.0266 13.8985 72.3545 13.9543C72.6825 14.0101 73.0524 14.0659 73.4641 14.1218C73.8827 14.1706 74.3084 14.2334 74.741 14.3102C75.1737 14.387 75.5958 14.4847 76.0075 14.6033C76.4192 14.715 76.7856 14.8615 77.1066 15.043C77.4276 15.2175 77.6858 15.4338 77.8812 15.692C78.0765 15.9433 78.1742 16.2468 78.1742 16.6028C78.1742 16.9447 78.0835 17.2448 77.9021 17.503C77.7206 17.7543 77.4834 17.9706 77.1903 18.1521C76.8972 18.3265 76.5658 18.4696 76.196 18.5813C75.8261 18.6929 75.4563 18.7802 75.0864 18.843C74.7166 18.9058 74.3607 18.9476 74.0188 18.9686C73.6769 18.9895 73.3873 19 73.15 19C72.9407 19 72.672 18.9895 72.3441 18.9686C72.0231 18.9476 71.6812 18.9093 71.3183 18.8534C70.9624 18.7976 70.6031 18.7208 70.2402 18.6231C69.8773 18.5254 69.5493 18.3963 69.2563 18.2358C68.9702 18.0753 68.7364 17.8834 68.555 17.6601C68.3735 17.4298 68.2828 17.1611 68.2828 16.854V16.2992H71.0252C71.109 16.4946 71.2415 16.6481 71.423 16.7598C71.6044 16.8714 71.7998 16.9552 72.0091 17.011C72.2254 17.0668 72.4348 17.1052 72.6372 17.1262C72.8465 17.1401 73.0174 17.1471 73.15 17.1471H73.4641C73.6106 17.1401 73.7746 17.1297 73.956 17.1157C74.1374 17.0948 74.3188 17.0738 74.5003 17.0529C74.6887 17.025 74.8527 16.9901 74.9923 16.9482C75.1318 16.9063 75.2365 16.8575 75.3062 16.8016C75.376 16.7388 75.383 16.6656 75.3272 16.5818C75.2574 16.4702 75.1039 16.3794 74.8666 16.3096C74.6364 16.2398 74.3537 16.1771 74.0188 16.1212C73.6908 16.0654 73.3245 16.0096 72.9198 15.9537C72.522 15.8979 72.1173 15.8316 71.7056 15.7548C71.2939 15.678 70.8961 15.5838 70.5123 15.4722C70.1285 15.3605 69.7866 15.2175 69.4866 15.043C69.1935 14.8685 68.9562 14.6591 68.7748 14.4149C68.5934 14.1636 68.5027 13.8635 68.5027 13.5146C68.5027 13.1936 68.5829 12.9109 68.7434 12.6667C68.9039 12.4224 69.1132 12.2095 69.3714 12.0281C69.6366 11.8467 69.9332 11.6931 70.2611 11.5675C70.5961 11.4419 70.9345 11.3442 71.2764 11.2744C71.6253 11.1976 71.9603 11.1453 72.2813 11.1174C72.6092 11.0825 72.8988 11.065 73.15 11.065Z" fill="black"/>
<path d="M87.765 12.9912H84.6458V19H81.8406V12.9912H78.7215V11.0755H87.765V12.9912Z" fill="black"/>
<path d="M67.7216 13.0016H58.5524V11.0755H67.7216V13.0016Z" fill="black"/>
<path d="M15.9493 8.63095L12.1622 10.8179L10.9673 8.74791L9.79673 10.7758L6.00959 8.58886L10.9673 0L15.9493 8.63095Z" fill="black"/>
<path d="M37.4753 4.87825H31.5928V6.11351L37.9149 6.10302V8.00828H28.7457V2.97302H37.4753V4.87825Z" fill="black"/>
<path d="M45.9811 5.23418L50.3249 0.0837689H52.8161V8.00828H49.99V4.32343L46.8499 8.00828H45.1019L42.2025 4.5956V8.00828H39.3764V0.0837689H41.6059L45.9811 5.23418Z" fill="black"/>
<path d="M63.1612 1.99944H60.0421V8.00828H57.2369V1.99944H54.1177V0.0837689H63.1612V1.99944Z" fill="black"/>
<path d="M73.2412 4.87825H67.3587V6.11351L73.6808 6.10302V8.00828H64.5117V2.97302H73.2412V4.87825Z" fill="black"/>
<path d="M80.5747 0C80.9166 1.68258e-07 81.283 0.0209637 81.6737 0.0628361C82.0645 0.0977309 82.4588 0.160506 82.8565 0.251231C83.2543 0.334977 83.645 0.450162 84.0288 0.596717C84.4196 0.736293 84.779 0.910749 85.1069 1.12011C85.4419 1.3225 85.7385 1.56327 85.9967 1.84243C86.2618 2.1146 86.4677 2.42867 86.6142 2.78459H83.4008C83.2334 2.64501 83.0449 2.51939 82.8356 2.40772C82.6262 2.29606 82.4064 2.20184 82.1762 2.12507C81.9459 2.04831 81.7121 1.989 81.4749 1.94713C81.2446 1.90525 81.0213 1.88429 80.805 1.88429C80.5049 1.88429 80.1665 1.92969 79.7897 2.02041C79.4198 2.11113 79.0675 2.24721 78.7325 2.42866C78.4045 2.61011 78.1254 2.83693 77.8951 3.1091C77.6718 3.3743 77.5602 3.68834 77.5602 4.05123C77.5602 4.42111 77.6718 4.73868 77.8951 5.00388C78.1254 5.26209 78.4046 5.47494 78.7325 5.64243C79.0675 5.80294 79.4233 5.92159 79.8002 5.99836C80.177 6.07512 80.5119 6.11351 80.805 6.11351C81.0492 6.11351 81.3109 6.08907 81.59 6.04022C81.8761 5.99137 82.1517 5.91811 82.4169 5.82041C82.689 5.71573 82.9438 5.5901 83.181 5.44355C83.4183 5.29001 83.6102 5.11205 83.7567 4.90966L86.6665 5.13996C86.5339 5.4889 86.342 5.80294 86.0908 6.08209C85.8466 6.35427 85.5605 6.59854 85.2325 6.81489C84.9116 7.02425 84.5627 7.20568 84.1859 7.35922C83.816 7.51275 83.4357 7.63838 83.0449 7.73608C82.6542 7.82681 82.2669 7.8966 81.8831 7.94545C81.4993 7.98732 81.1399 8.00828 80.805 8.00828C80.4212 8.00828 80.0025 7.97688 79.5489 7.91407C79.1023 7.85126 78.6522 7.75353 78.1987 7.62093C77.7521 7.48834 77.3194 7.31735 76.9008 7.10799C76.4821 6.89862 76.1122 6.6474 75.7913 6.35429C75.4703 6.06118 75.2121 5.72268 75.0167 5.33884C74.8283 4.95501 74.7341 4.52579 74.7341 4.05123C74.7341 3.57668 74.8213 3.14749 74.9958 2.76366C75.1772 2.37982 75.4179 2.03785 75.718 1.73776C76.025 1.43767 76.3739 1.17944 76.7647 0.963097C77.1624 0.739773 77.5776 0.558309 78.0103 0.418731C78.4429 0.279156 78.879 0.17449 79.3186 0.104702C79.7652 0.034913 80.1839 0 80.5747 0Z" fill="black"/>
<path d="M90.4846 3.22425H95.1948V0.0837689H98V8.00828H95.1948V5.10855H90.4846V8.00828H87.69V0.0837689H90.4846V3.22425Z" fill="black"/>
<path d="M37.9149 2.00993H28.7457V0.0837689H37.9149V2.00993Z" fill="black"/>
<path d="M73.6808 2.00993H64.5117V0.0837689H73.6808V2.00993Z" fill="black"/>
</g>
<defs>
<clipPath id="clip0_2462_191">
<rect width="98" height="20" fill="white"/>
</clipPath>
</defs>
</svg>
