<svg width="21" height="20" viewBox="0 0 21 20" fill="none" xmlns="http://www.w3.org/2000/svg">
<path fill-rule="evenodd" clip-rule="evenodd" d="M9.51643 9.28501L11.3414 18.0976L7.90767 18.7231L7.50548 16.2344L3.68912 14.1015L1.88371 15.591L1.0553 13.3078L5.73388 9.91499L5.19644 9.44785L7.51705 7.78926L9.51643 9.28501ZM5.00336 13.0364L7.18426 14.2465L6.75804 11.6154L5.00336 13.0364Z" fill="black"/>
<path d="M18.0087 6.38337L12.8274 8.64702L13.024 9.41225L18.7303 7.48761L20.0455 9.38467L19.1423 12.8211L11.9305 17.9419L11.4108 14.9984L16.2691 11.9767L16.0574 11.1847L11.5879 13.266L10.2861 9.29391L11.1234 7.34969L16.8404 4.66516L18.0087 6.38337Z" fill="black"/>
<path d="M7.91301 3.65168L4.89213 4.9321L4.7293 6.02122L7.47167 5.01752L7.46989 6.75086L4.42587 8.0384L4.13224 9.98618L0.772348 12.475L0 9.07057L2.71301 2.81971L7.58378 1.28125L7.91301 3.65168Z" fill="black"/>
<path d="M16.3528 4.27276L9.47194 7.00801L8.70404 3.95955L12.4199 2.0616L16.3528 4.27276Z" fill="black"/>
<path d="M11.8691 1.69233L8.61951 3.36338L8.17639 1.21273L10.0637 0.5L11.8691 1.69233Z" fill="black"/>
</svg>
