<svg width="43" height="20" viewBox="0 0 43 20" fill="none" xmlns="http://www.w3.org/2000/svg">
<path fill-rule="evenodd" clip-rule="evenodd" d="M24.7679 11.0524C25.6326 10.8399 26.4937 10.8418 27.3584 11.0543C29.2767 11.5245 30.546 13.1768 30.5423 15.1973C30.5404 17.1765 29.3292 18.8312 27.4071 19.3271L27.4108 19.3252C26.4959 19.5613 25.6365 19.5498 24.7697 19.3413C22.8476 18.8749 21.5821 17.2159 21.5821 15.1973C21.5822 13.1769 22.8477 11.5227 24.7679 11.0524ZM26.1183 13.4875C25.1207 13.458 24.4076 14.196 24.4094 15.1954C24.4113 16.1948 25.1088 16.9564 26.1679 16.8995C27.1309 16.8464 27.7187 16.0984 27.7206 15.1973C27.7245 14.2413 27.062 13.517 26.1183 13.4875Z" fill="black"/>
<path d="M5.24042 12.835C5.67765 10.8537 8.44603 10.5657 10.0986 11.1914C11.158 11.5928 11.8474 12.5377 11.8301 13.7183H9.27787C9.19119 13.4782 9.11609 13.2242 9.01208 13.1121C8.87537 12.9685 8.51948 12.9098 8.29799 12.9352C8.04185 12.9647 7.81406 13.1691 7.78512 13.3835C7.76201 13.5606 7.94711 13.9073 8.14357 13.9585L9.54554 14.3282C10.2255 14.5073 10.9175 14.7453 11.4164 15.2588C12.0209 15.8823 12.1076 16.7636 11.8843 17.6192H11.8862C11.37 19.5867 8.5226 19.7922 6.8642 19.2117C5.74904 18.8221 5.052 17.7866 5.12905 16.6121H7.71399C7.80068 16.8265 7.89342 17.1123 8.00318 17.2343C8.14212 17.3856 8.51926 17.4548 8.74254 17.4272C8.98317 17.3978 9.23376 17.2008 9.2629 17.0121C9.44202 15.9122 7.15535 16.3974 5.85905 15.2247C5.19289 14.6228 5.04409 13.7241 5.24042 12.835Z" fill="black"/>
<path d="M15.8769 13.8242H17.7571L17.7664 11.0694L20.5573 11.0637L20.561 19.2921L17.772 19.3356L17.7552 16.4333L15.8731 16.4314L15.8656 19.3233L13.0748 19.329L13.0729 11.0798L15.86 11.058L15.8769 13.8242Z" fill="black"/>
<path fill-rule="evenodd" clip-rule="evenodd" d="M35.4623 11.0694C36.1134 11.0695 36.7529 11.2623 37.3154 11.5337C38.2976 12.0983 38.7729 13.0922 38.7922 14.2214C38.8191 15.7481 37.8889 17.0255 36.3402 17.3147H36.3383C35.6931 17.4347 35.1422 17.427 34.4048 17.4329L34.372 19.3252H31.5886V11.0637L35.4623 11.0694ZM34.3318 13.3674L34.3271 15.1803C34.7646 15.2098 35.1946 15.2369 35.6223 15.0205L35.6205 15.0186C35.8956 14.8787 36.0113 14.4494 35.992 14.1996C35.9764 13.9832 35.8147 13.6037 35.5933 13.5111C35.1793 13.3361 34.7862 13.3419 34.3318 13.3674Z" fill="black"/>
<path d="M3.21702 0.623353C5.40697 0.143301 7.94976 1.05447 8.57782 3.53133H5.76733C5.05464 2.70134 3.73921 2.64236 3.04201 3.50391C2.46609 4.21418 2.45058 5.38547 3.04575 6.1036C3.77965 6.98876 5.32224 6.96476 5.90397 5.86907L3.95919 5.82557V5.82746L3.95544 4.11388H8.70698C8.81866 5.27261 8.65479 6.3784 8.01161 7.3188C6.6479 9.31384 3.83364 9.58155 1.91519 8.44039C0.601644 7.65927 -0.0169804 6.22482 0.000354226 4.70398C0.0235903 2.69144 1.28724 1.04838 3.21702 0.623353Z" fill="black"/>
<path fill-rule="evenodd" clip-rule="evenodd" d="M17.5287 8.91323L14.6106 8.94254L14.2503 7.91553H14.2521L11.8928 7.90324L11.5137 8.93403L8.60871 8.92836L11.6017 0.682931L14.5217 0.666854L17.5287 8.91323ZM12.3392 6.01092L13.8057 5.99484L13.0654 3.74222L12.3392 6.01092Z" fill="black"/>
<path fill-rule="evenodd" clip-rule="evenodd" d="M34.7679 8.91323L31.8498 8.94254L31.4894 7.91553H31.4913L29.1319 7.90324L28.752 8.93403L25.8479 8.92836L28.8409 0.682931L31.7609 0.666854L34.7679 8.91323ZM29.5783 6.01092L31.044 5.99484L30.3046 3.74222L29.5783 6.01092Z" fill="black"/>
<path fill-rule="evenodd" clip-rule="evenodd" d="M39.6598 0.672528C40.1449 0.672528 40.6517 0.807049 41.0964 0.948668C42.0962 1.35988 42.7152 2.23321 42.8212 3.32518C42.9273 4.41701 42.5763 5.49722 41.6598 6.16223L42.9963 8.92836H43L39.9359 8.93498L39.0131 6.8157C38.8417 6.74881 38.5352 6.73695 38.3233 6.76841L38.3121 8.93687L35.54 8.92458L35.5437 0.668746L39.6598 0.672528ZM40.0416 3.6713C40.003 2.7607 38.9458 2.82926 38.2737 2.88827L38.2794 4.6236C38.755 4.6433 39.1923 4.67134 39.6121 4.51201H39.6139C39.9568 4.38215 40.053 3.95461 40.0416 3.6713Z" fill="black"/>
<path fill-rule="evenodd" clip-rule="evenodd" d="M22.9915 0.679148C23.702 0.679258 24.3452 0.965943 24.8689 1.40449C25.7107 2.40398 25.6006 3.90585 24.4468 4.73614H24.4496C25.2294 5.18669 25.6764 5.8873 25.6495 6.71546C25.6224 7.5869 25.1386 8.27924 24.3355 8.65695C23.8906 8.81235 23.3919 8.93399 22.897 8.93403L18.3008 8.92836V0.670637L22.9915 0.679148ZM21.0056 6.97836C21.4985 6.98425 21.9278 6.99239 22.4515 6.92162V6.92351C22.7962 6.87825 22.8874 6.39457 22.8259 6.13481C22.7796 5.93609 22.4922 5.67993 22.2437 5.67993H20.9953L21.0056 6.97836ZM22.6846 3.18711C22.6304 2.39079 21.597 2.62609 21.0018 2.60456L20.9971 3.84814C21.4593 3.87566 21.8277 3.89409 22.3823 3.78005H22.3804C22.5403 3.7466 22.6942 3.3504 22.6846 3.18711Z" fill="black"/>
</svg>
