<svg width="45" height="20" viewBox="0 0 45 20" fill="none" xmlns="http://www.w3.org/2000/svg">
<path d="M21.5922 15.9316V10.4895H22.9306V19L17.0346 13.1526V18.5947H15.6962V10.0843L21.5922 15.9316Z" fill="black"/>
<path fill-rule="evenodd" clip-rule="evenodd" d="M10.4045 10.344C11.0113 10.344 11.5681 10.4519 12.075 10.6677C12.5819 10.8758 13.0236 11.1688 13.3999 11.5465C13.784 11.9165 14.0796 12.3559 14.287 12.8647C14.4944 13.3735 14.5981 13.9324 14.5981 14.5414C14.5981 15.1427 14.4944 15.7016 14.287 16.2181C14.0796 16.7345 13.7878 17.1817 13.4114 17.5594C13.0351 17.9371 12.5935 18.2339 12.0866 18.4498C11.5796 18.6579 11.019 18.762 10.4045 18.762C9.80543 18.762 9.24862 18.6579 8.734 18.4498C8.2271 18.2339 7.78544 17.9371 7.40914 17.5594C7.03278 17.1817 6.74094 16.7345 6.53355 16.2181C6.32616 15.7016 6.22249 15.1427 6.22249 14.5414C6.22249 13.9324 6.32616 13.3735 6.53355 12.8647C6.74094 12.3559 7.03278 11.9165 7.40914 11.5465C7.79316 11.1688 8.2386 10.8758 8.74556 10.6677C9.26011 10.4519 9.8131 10.344 10.4045 10.344ZM10.4045 11.6622C9.87457 11.6622 9.40221 11.7855 8.98748 12.0322C8.58042 12.2788 8.25781 12.6219 8.01971 13.0613C7.78162 13.493 7.66256 13.9864 7.66256 14.5414C7.66256 15.0964 7.78162 15.5898 8.01971 16.0215C8.25781 16.4532 8.58042 16.7962 8.98748 17.0506C9.40221 17.2973 9.87456 17.4206 10.4045 17.4206C10.9422 17.4206 11.4145 17.2973 11.8215 17.0506C12.2363 16.7962 12.5589 16.4532 12.7893 16.0215C13.0274 15.5898 13.1465 15.0964 13.1465 14.5414C13.1465 13.9864 13.0312 13.493 12.8009 13.0613C12.5704 12.6219 12.2478 12.2788 11.8331 12.0322C11.426 11.7855 10.9498 11.6622 10.4045 11.6622Z" fill="black"/>
<path fill-rule="evenodd" clip-rule="evenodd" d="M2.42936 10.4954C2.94366 10.4954 3.39263 10.5687 3.77641 10.7151C4.16024 10.8616 4.45957 11.0851 4.67448 11.3857C4.89706 11.6863 5.00838 12.0679 5.00838 12.5303C5.00838 12.9312 4.89706 13.2742 4.67448 13.5594C4.45957 13.8368 4.16024 14.0488 3.77641 14.1953C3.76866 14.1982 3.76089 14.2012 3.75309 14.204C4.07321 14.2889 4.35732 14.4131 4.6054 14.5768C4.87403 14.7541 5.08512 14.9815 5.23866 15.259C5.39215 15.5365 5.46891 15.8679 5.46891 16.2533C5.46891 16.7852 5.3461 17.2245 5.1005 17.5714C4.85489 17.9182 4.51328 18.1764 4.07578 18.346C3.64595 18.5079 3.14319 18.5888 2.56753 18.5888H0V10.4954H2.42936ZM1.3586 17.4558H2.48691C2.79394 17.4558 3.06646 17.4057 3.30441 17.3055C3.54235 17.2052 3.73041 17.0588 3.86852 16.8661C4.0067 16.6657 4.07578 16.4152 4.07578 16.1146C4.07578 15.891 4.03738 15.6983 3.96064 15.5365C3.88389 15.3746 3.77258 15.2397 3.62675 15.1318C3.48092 15.0162 3.31205 14.9352 3.12016 14.889C2.92828 14.8351 2.71719 14.8081 2.48691 14.8081H1.3586V17.4558ZM1.3586 13.7444H2.33725C2.59057 13.7444 2.81315 13.702 3.00503 13.6172C3.19692 13.5324 3.34658 13.4129 3.45406 13.2588C3.56149 13.0969 3.61526 12.9042 3.61526 12.6807C3.61526 12.3415 3.49629 12.0795 3.25834 11.8944C3.02805 11.7095 2.72102 11.617 2.33725 11.617H1.3586V13.7444Z" fill="black"/>
<path fill-rule="evenodd" clip-rule="evenodd" d="M27.0882 10.4954C27.9113 10.4954 28.6342 10.665 29.2572 11.0042C29.8802 11.3356 30.3648 11.8058 30.7109 12.4148C31.0647 13.016 31.2416 13.7251 31.2416 14.5421C31.2416 15.3592 31.0647 16.0722 30.7109 16.6811C30.3648 17.2823 29.8802 17.7525 29.2572 18.0917C28.6342 18.4231 27.9113 18.5888 27.0882 18.5888H24.4809V10.4954H27.0882ZM25.8768 17.3055H27.0537C27.4536 17.3055 27.8228 17.2476 28.1612 17.132C28.4996 17.0087 28.7919 16.8352 29.038 16.6117C29.2918 16.3805 29.488 16.0915 29.6264 15.7446C29.7725 15.3977 29.8456 14.9969 29.8456 14.5421C29.8456 14.0874 29.7725 13.6866 29.6264 13.3397C29.488 12.9928 29.2918 12.7038 29.038 12.4726C28.7919 12.2413 28.4996 12.0679 28.1612 11.9523C27.8228 11.8366 27.4536 11.7789 27.0537 11.7789H25.8768V17.3055Z" fill="black"/>
<path fill-rule="evenodd" clip-rule="evenodd" d="M38.6698 18.5888H37.1241L36.198 16.5068H33.2219L32.3022 18.5888H30.7679L34.7131 10.041L38.6698 18.5888ZM33.617 15.3501H35.8163L34.7131 12.7823L33.617 15.3501Z" fill="black"/>
<path fill-rule="evenodd" clip-rule="evenodd" d="M41.6115 10.4954C42.2032 10.4954 42.7141 10.5995 43.1444 10.8077C43.5747 11.0158 43.9089 11.3086 44.1471 11.6863C44.393 12.0563 44.5159 12.4957 44.5159 13.0044C44.5159 13.5131 44.393 13.9563 44.1471 14.334C43.9089 14.7117 43.5747 15.0046 43.1444 15.2127C43.0103 15.2776 42.8683 15.3324 42.7185 15.377L45 18.5888H43.3519L41.3218 15.5249H40.482V18.5888H39.122V10.4954H41.6115ZM40.482 14.3919H41.5539C41.8689 14.3919 42.1417 14.3417 42.3722 14.2415C42.6027 14.1336 42.7832 13.9795 42.9138 13.7791C43.0445 13.5709 43.1098 13.3243 43.1098 13.0391C43.1098 12.7462 43.0445 12.4995 42.9138 12.2991C42.7833 12.0987 42.6027 11.9446 42.3722 11.8366C42.1417 11.7287 41.8689 11.6748 41.5539 11.6748H40.482V14.3919Z" fill="black"/>
<path fill-rule="evenodd" clip-rule="evenodd" d="M8.68202 0C9.28881 0 9.84564 0.10817 10.3525 0.324623C10.8594 0.533242 11.3011 0.826938 11.6774 1.20564C12.0615 1.57663 12.3572 2.01718 12.5645 2.52727C12.7719 3.03735 12.8756 3.59768 12.8756 4.20822C12.8756 4.81109 12.7719 5.37141 12.5645 5.88921C12.3572 6.40701 12.0653 6.8553 11.689 7.234C11.3126 7.6127 10.871 7.91025 10.3641 8.12665C9.85713 8.33533 9.29647 8.43964 8.68202 8.43964C8.08295 8.43964 7.52613 8.33533 7.01151 8.12665C6.50462 7.91025 6.06296 7.6127 5.68666 7.234C5.3103 6.8553 5.01845 6.40701 4.81106 5.88921C4.60367 5.37141 4.50001 4.81109 4.50001 4.20822C4.50001 3.59768 4.60367 3.03735 4.81106 2.52727C5.01845 2.01719 5.3103 1.57663 5.68666 1.20564C6.07068 0.826937 6.51611 0.533242 7.02307 0.324623C7.53763 0.108172 8.09061 8.11623e-07 8.68202 0ZM8.68202 1.32158C8.15208 1.32158 7.67972 1.44524 7.265 1.69256C6.85794 1.93989 6.53532 2.28381 6.29723 2.72431C6.05913 3.1571 5.94007 3.65176 5.94007 4.20822C5.94008 4.76467 6.05913 5.25932 6.29723 5.6921C6.53532 6.12495 6.85793 6.46887 7.265 6.72392C7.67972 6.97124 8.15208 7.0949 8.68202 7.0949C9.21968 7.0949 9.692 6.97124 10.0991 6.72392C10.5138 6.46887 10.8364 6.12495 11.0668 5.6921C11.3049 5.25932 11.424 4.76467 11.424 4.20822C11.424 3.65176 11.3088 3.1571 11.0784 2.72431C10.8479 2.2838 10.5253 1.93989 10.1106 1.69256C9.70355 1.44524 9.22734 1.32158 8.68202 1.32158Z" fill="black"/>
<path fill-rule="evenodd" clip-rule="evenodd" d="M22.7742 0C23.3794 0 23.9348 0.10817 24.4404 0.324623C24.946 0.533242 25.3865 0.826939 25.7619 1.20564C26.1449 1.57663 26.4399 2.01718 26.6467 2.52727C26.8535 3.03735 26.9569 3.59768 26.9569 4.20822C26.9569 4.81109 26.8535 5.37141 26.6467 5.88921C26.4399 6.40701 26.1487 6.85529 25.7734 7.234C25.398 7.6127 24.9575 7.91026 24.4519 8.12665C23.9463 8.33533 23.387 8.43964 22.7742 8.43964C22.1767 8.43964 21.6212 8.33532 21.108 8.12665C20.6023 7.91025 20.1619 7.6127 19.7865 7.234C19.4111 6.8553 19.12 6.40701 18.9131 5.88921C18.7063 5.37141 18.6029 4.81109 18.6029 4.20822C18.6029 3.59768 18.7063 3.03735 18.9131 2.52727C19.12 2.01719 19.4111 1.57663 19.7865 1.20564C20.1695 0.826937 20.6139 0.533242 21.1195 0.324623C21.6327 0.108172 22.1843 8.80675e-07 22.7742 0ZM22.7742 1.32158C22.2456 1.32158 21.7745 1.44524 21.3607 1.69256C20.9547 1.93989 20.633 2.2838 20.3955 2.72431C20.158 3.1571 20.0393 3.65176 20.0393 4.20822C20.0393 4.76467 20.158 5.25932 20.3955 5.6921C20.633 6.12495 20.9547 6.46887 21.3607 6.72392C21.7745 6.97124 22.2456 7.0949 22.7742 7.0949C23.3104 7.0949 23.7816 6.97124 24.1876 6.72392C24.6012 6.46887 24.923 6.12495 25.1529 5.6921C25.3904 5.25932 25.5091 4.76467 25.5091 4.20822C25.5091 3.65176 25.3942 3.1571 25.1643 2.72431C24.9345 2.2838 24.6128 1.93989 24.1991 1.69256C23.7931 1.44524 23.3181 1.32158 22.7742 1.32158Z" fill="black"/>
<path fill-rule="evenodd" clip-rule="evenodd" d="M33.5754 0C34.0206 9.96364e-07 34.3967 0.0926457 34.7038 0.277978C35.0185 0.455544 35.2565 0.687129 35.4176 0.972811C35.5789 1.25078 35.6595 1.55189 35.6595 1.87613C35.6595 2.10007 35.6173 2.30853 35.5328 2.50151C35.456 2.69456 35.3409 2.87984 35.1874 3.05741C35.0338 3.23503 34.8458 3.40875 34.6232 3.5786C34.463 3.70082 34.2849 3.825 34.089 3.95121L35.8304 5.91585C35.9406 5.80172 36.0486 5.68277 36.1546 5.55899C36.4386 5.21922 36.7073 4.86408 36.9606 4.49347L37.8587 5.11887C37.5747 5.51261 37.2676 5.90641 36.9375 6.30015C36.8136 6.44857 36.6851 6.59181 36.5521 6.72996L37.9163 8.26897H36.454L35.7401 7.4615C35.3946 7.72155 35.0223 7.93668 34.6232 8.10681C34.1703 8.2998 33.679 8.39636 33.1493 8.39636C32.6811 8.39636 32.2435 8.30757 31.8367 8.12995C31.4299 7.94467 31.0998 7.68218 30.8465 7.34247C30.5931 6.99499 30.4665 6.58968 30.4665 6.12643C30.4665 5.77901 30.5318 5.47405 30.6622 5.2115C30.7928 4.94901 30.9578 4.72511 31.1574 4.53978C31.3646 4.3468 31.5872 4.18466 31.8252 4.05341C32.0406 3.93157 32.2471 3.82453 32.4448 3.73233C32.3325 3.60595 32.2104 3.4736 32.0785 3.33537C31.8943 3.13462 31.7331 2.9146 31.5949 2.67524C31.4644 2.43593 31.3992 2.17337 31.3992 1.88774C31.3992 1.53255 31.4875 1.21218 31.664 0.926498C31.8482 0.640817 32.1015 0.416927 32.4239 0.254781C32.754 0.0849254 33.1378 0 33.5754 0ZM33.1225 4.50062C32.9069 4.60827 32.7009 4.72555 32.5045 4.85251C32.2973 4.99146 32.1245 5.15747 31.9864 5.35052C31.8559 5.53579 31.7906 5.76354 31.7906 6.0338C31.7906 6.28087 31.8521 6.5009 31.9749 6.69389C32.1054 6.87922 32.2819 7.02589 32.5045 7.134C32.7272 7.24206 32.9843 7.29614 33.276 7.29614C33.6291 7.29614 33.9707 7.21893 34.3008 7.06449C34.5447 6.95035 34.7824 6.80879 35.0137 6.63986L33.1225 4.50062ZM33.5639 1.05389C33.2721 1.05389 33.0457 1.13882 32.8845 1.30867C32.731 1.47082 32.6542 1.67929 32.6542 1.93407C32.6542 2.18114 32.754 2.42431 32.9536 2.66367C33.1047 2.83255 33.2701 3.01987 33.4497 3.22565C33.7169 3.05579 33.9354 2.88006 34.105 2.69842C34.3507 2.43592 34.4735 2.18499 34.4735 1.94562C34.4735 1.77577 34.4351 1.62519 34.3583 1.49394C34.2892 1.3627 34.1856 1.2585 34.0475 1.18128C33.9169 1.09635 33.7558 1.05389 33.5639 1.05389Z" fill="black"/>
<path d="M1.36011 7.03767H4.5646V8.26652H0V0.151486H1.36011V7.03767Z" fill="black"/>
<path d="M15.8196 3.61777L17.6953 0.151486H19.2488L16.5216 4.8466V8.26652H15.1407V4.85823L12.4019 0.151486H13.9554L15.8196 3.61777Z" fill="black"/>
</svg>
