<svg width="44" height="20" viewBox="0 0 44 20" fill="none" xmlns="http://www.w3.org/2000/svg">
<g clip-path="url(#clip0_2462_213)">
<path d="M1.03233 4.63529C2.19986 1.77214 6.07113 -0.295689 9.10669 0.0346747C12.1054 0.365039 11.7858 3.69316 10.5692 5.63863C9.94238 6.64196 8.51678 7.97565 7.27552 8.07353C6.52584 8.13471 5.67786 7.49845 5.61641 6.73984C5.59183 6.36053 5.84991 5.67533 6.3415 5.78545C6.39066 5.78545 6.43982 5.84664 6.48898 5.85888C6.55043 5.85887 6.72249 5.78545 6.79622 5.74875C7.87772 5.29602 9.72118 3.55856 9.80721 2.34723C9.85637 1.6865 9.43851 1.60084 8.87318 1.62531C6.83308 1.7232 3.09701 3.6075 2.55626 5.72428C2.23673 6.99679 3.28136 8.0613 4.12936 8.85662C6.09571 10.6797 9.53683 12.5151 9.31561 15.623C9.15585 17.8743 6.43982 18.8776 4.51033 19H3.3428L2.51939 18.8899C1.5608 18.6819 0.553052 18.2903 0.172068 17.3115C0.11062 17.1524 0.0737293 16.9811 0.0245704 16.8098C0.0245704 16.6875 0.0122807 16.5406 0.0245704 16.4183L0 16.3938C0.0245794 16.1246 0.208928 15.7575 0.405563 15.574C0.749673 15.2681 1.21668 15.3171 1.64682 15.366C1.60995 15.7086 1.7943 15.831 2.05238 15.9778C3.17075 16.6263 6.15716 17.0301 7.20179 16.1736C7.41071 16.0023 7.55818 15.8065 7.48444 15.5251C7.25093 14.7175 5.48123 13.6041 4.793 13.0779C2.02781 10.9489 -0.516171 8.44059 1.03233 4.63529Z" fill="black"/>
<path fill-rule="evenodd" clip-rule="evenodd" d="M25.5874 5.91958C26.0912 5.69933 26.4477 6.21324 26.5828 6.64149C26.8041 7.42457 26.5829 8.20767 26.3125 8.95404C25.7963 10.4101 24.383 13.2243 22.9205 13.885C22.5395 14.0563 21.9496 14.1297 21.6424 13.7994C21.1877 13.3344 21.3966 11.9396 21.5072 11.34C21.6055 10.8139 21.753 10.3122 21.839 9.78606C21.4703 10.0308 21.0525 10.1776 20.6346 10.3122C20.1922 11.548 19.4425 12.9673 18.3119 13.7137C17.046 14.558 15.5221 13.8972 15.35 12.3923C14.7232 13.1631 13.8998 13.9462 12.8675 14.0808C11.8843 14.2154 10.8028 13.885 10.299 12.9918C9.11914 10.8995 11.5525 7.28997 13.8507 7.15538C15.0551 7.08196 15.7556 8.01188 15.3132 9.13756C15.1288 9.61475 14.5389 9.99406 14.035 9.81053C13.7524 9.70041 13.9613 9.60252 14.0473 9.46793C14.2685 9.13757 14.5635 8.40343 14.5512 8.02412C14.5512 7.5714 14.0473 7.81612 13.8384 7.97518C12.9167 8.64815 11.8229 11.0219 12.0933 12.1353C12.2407 12.7226 12.8429 12.8817 13.3837 12.7471C14.1456 12.5636 15.0919 11.5602 15.4852 10.8995C15.6941 10.5569 15.817 10.1164 16.0137 9.74936C16.6159 8.59921 17.8694 7.21656 19.2582 7.10644C20.4503 7.00856 21.1999 8.02412 20.8681 9.13756C21.286 9.07638 21.6792 8.92957 22.0725 8.78274C22.1217 8.46461 22.2323 8.08531 22.1954 7.75494C22.1708 7.498 22.0357 7.42456 22.22 7.16761C22.306 7.0575 22.4412 6.97184 22.5764 6.93514C23.154 6.76385 23.6087 7.22881 23.6579 7.77941C23.7193 8.42791 23.2646 9.74935 23.1294 10.459C23.0434 10.9362 22.8959 11.7438 23.0188 12.1965C23.154 12.6982 23.4735 12.2699 23.621 12.0619C24.4936 10.8628 25.8086 7.8773 25.698 6.40901C25.6857 6.23771 25.6365 6.07864 25.5874 5.91958ZM20.1922 8.62367C20.3642 7.63258 19.8481 7.54692 19.1721 8.10976C18.361 8.79496 17.1566 10.7282 17.1689 11.7927C17.1689 12.3678 17.6482 12.588 18.1398 12.3433C18.6928 12.0619 19.2336 11.2788 19.5408 10.7405C19.5777 10.6793 19.7743 10.3367 19.7497 10.3V10.3122C19.209 10.1409 19.4056 9.44346 19.8358 9.24769C19.8849 9.22322 19.9464 9.24769 19.9833 9.21099C20.0447 9.17428 20.1676 8.72156 20.1922 8.62367Z" fill="black"/>
<path fill-rule="evenodd" clip-rule="evenodd" d="M33.7599 0.633564C34.5464 0.498972 35.0257 1.23312 35.1363 1.90609C35.247 2.55458 35.1118 3.11742 34.952 3.75367C34.4235 5.8215 33.551 7.82816 32.8504 9.83481C32.6415 10.4221 32.1868 11.6579 32.2728 12.2452C32.2728 12.2697 32.3097 12.3676 32.3343 12.3798L32.3466 12.4288C32.4203 12.5022 32.5678 12.4533 32.6538 12.4165C33.0471 12.233 34.1409 10.7647 34.3375 10.3365C34.5833 9.82257 34.7676 9.01502 34.9643 8.45218C35.3084 7.48556 35.6771 6.51894 35.9966 5.54008C36.5251 3.97391 37.0535 2.33432 37.1641 0.670268C37.8278 0.535676 38.3071 1.08628 38.4791 1.66136C38.7249 2.49339 38.4914 3.28872 38.2825 4.09627C37.7418 6.06622 36.9306 7.93828 36.267 9.87152C36.0581 10.4588 35.6034 11.6946 35.6894 12.2819C35.7263 12.5144 35.8983 12.4777 36.0704 12.3921C36.3776 12.2452 37.2379 11.1685 37.3977 10.8504C37.5083 10.6301 37.5697 10.3365 37.668 10.0918C38.2211 8.75807 39.4378 7.35096 40.9617 7.17966C42.5716 7.00836 43.223 8.40324 42.2521 9.62681C41.6007 10.4466 40.5684 10.8626 39.5115 10.6424C39.364 11.2909 39.1182 12.4777 39.9785 12.7347C40.8388 12.9916 41.7974 12.1229 42.3013 11.4989C42.9035 10.777 43.3336 9.93269 43.7023 9.0762C44.2676 9.10067 43.8743 9.896 43.7637 10.2019C43.0755 12.0739 41.5762 14.4109 39.2288 14.0684C38.1842 13.9215 37.4837 13.0895 37.287 12.0862C36.7463 12.9304 35.714 14.1785 34.5833 14.0317C33.6493 13.9093 33.7845 12.8203 33.8705 12.1351C33.3543 12.8448 32.6292 13.7992 31.7198 13.9949C29.6674 14.4477 30.5646 11.5478 30.8595 10.5445C31.4986 8.35429 32.408 6.24976 33.0594 4.05957C33.3175 3.19084 33.6124 2.19974 33.7107 1.2943C33.7353 1.07406 33.723 0.841571 33.7599 0.633564ZM41.9571 7.86487C41.613 7.52227 41.0354 8.03616 40.8019 8.29311C40.3349 8.79478 40.0277 9.46774 39.745 10.0795C40.5684 10.1407 41.6007 9.76138 41.9694 8.9783C42.1046 8.69688 42.2029 8.10958 41.9694 7.86487H41.9571Z" fill="black"/>
<path fill-rule="evenodd" clip-rule="evenodd" d="M25.9367 12.7064C25.9001 12.7533 25.7234 12.9806 25.7344 12.9916L26.0785 12.7591C26.3243 12.9549 26.6193 13.0651 26.8773 13.2486C26.9142 13.2731 26.9511 13.2853 26.9511 13.3465C26.693 13.4688 26.4841 13.5545 26.2014 13.6401C26.2014 13.6357 26.2012 13.6315 26.2008 13.6277C25.4637 13.8722 24.7265 13.9823 23.9403 13.97L24.5916 13.603C24.8251 13.4317 25.0586 13.2481 25.2676 13.0401C25.2728 13.0431 25.2782 13.046 25.2835 13.049C25.4181 12.9145 25.5881 12.7211 25.7098 12.5756L25.9367 12.7064ZM26.1905 13.5959C26.1916 13.6046 26.1914 13.6149 26.1893 13.6274H26.2008C26.1994 13.6139 26.1958 13.6039 26.1905 13.5959Z" fill="black"/>
<path d="M29.2983 11.3889L29.3106 11.4012C29.0525 11.7071 28.8313 11.9518 28.5363 12.221L28.536 12.2208C28.2081 12.5231 27.9401 12.7417 27.5659 12.9831V12.9917C27.357 13.1263 27.1726 13.2241 26.9514 13.3342C26.9514 13.2731 26.9145 13.2608 26.8777 13.2364C26.6196 13.0651 26.3123 12.9427 26.0788 12.7469C26.1981 12.6044 26.3406 12.4734 26.4613 12.3315L26.4596 12.3305C26.7054 12.0613 27.0003 11.7309 27.2093 11.4617V11.4502L27.209 11.4501C27.2091 11.45 27.2092 11.4499 27.2093 11.4498V11.4495L27.2094 11.4496C27.357 11.2534 27.627 10.7402 27.7621 10.4957L29.2983 11.3889Z" fill="black"/>
<path d="M25.9433 12.7102L25.9367 12.7064C25.941 12.701 25.9433 12.698 25.9433 12.698V12.7102Z" fill="black"/>
<path d="M27.6272 9.39486H27.6395C27.5535 9.76193 27.4674 9.98216 27.3445 10.3248L27.3402 10.3225C27.1831 10.7189 27.0968 10.8905 26.8896 11.2665L26.8898 11.2666C26.6819 11.6319 26.5348 11.8638 26.279 12.2157L26.2879 12.2208C26.1772 12.3799 26.0666 12.5389 25.9438 12.698L25.7102 12.5634C25.8072 12.4427 25.964 12.2266 26.0508 12.0916L26.0418 12.0864C26.2138 11.8172 26.4595 11.3768 26.5947 11.0831L26.5946 11.0831C26.7298 10.7894 26.8896 10.4224 26.9879 10.1287L27.002 10.1362C27.0758 9.91403 27.1851 9.45421 27.2339 9.21132L27.6272 9.39486Z" fill="black"/>
<path d="M30.6007 9.08798L30.613 9.07575C30.5516 9.23467 30.527 9.34474 30.4534 9.52799V9.52844C30.3436 9.78368 30.2458 9.99061 30.112 10.2332L30.1221 10.2391H30.1098C29.9758 10.4695 29.8659 10.6518 29.7204 10.8695L29.7286 10.8743H29.7173C29.717 10.8746 29.7168 10.875 29.7165 10.8754L29.7158 10.875C29.5809 11.0704 29.4704 11.2171 29.3231 11.4004L27.7868 10.5072C27.8841 10.3257 27.9933 10.1202 28.0789 9.92631L28.0697 9.92098C28.1795 9.6902 28.2772 9.45942 28.3627 9.21667L28.3519 9.21033C28.4379 8.96561 28.5116 8.72089 28.5608 8.46394L28.5629 8.46513C28.5985 8.29854 28.6223 8.15411 28.6343 7.97454L30.6007 9.08798Z" fill="black"/>
<path d="M27.3939 7.25323C27.566 7.26547 27.6889 7.46123 27.8732 7.46124V7.77938L27.8731 7.7793C27.8485 8.13391 27.7994 8.48852 27.738 8.83091C27.7375 8.83091 27.7371 8.83089 27.7367 8.83089C27.7411 8.83115 27.7455 8.83128 27.75 8.83128C27.7254 9.02705 27.6885 9.19836 27.6394 9.38189L27.2461 9.19836C27.2828 9.01592 27.3315 8.82138 27.3563 8.65081C27.3524 8.64958 27.3486 8.64842 27.3447 8.64737C27.3933 8.28467 27.4058 7.91003 27.3942 7.54705L27.3939 7.5469V7.53613C27.3939 7.5354 27.3939 7.53467 27.3938 7.53393L27.3939 7.53395V7.25323Z" fill="black"/>
<path d="M30.9578 7.69349C30.9212 7.97286 30.8846 8.13165 30.824 8.39729L30.8344 8.40315V8.41538C30.7606 8.6968 30.7115 8.81916 30.6254 9.0761L28.6591 7.96267C28.6834 7.70798 28.6957 7.45328 28.6839 7.19859L28.6719 7.19184C28.6596 6.89818 28.5982 6.60453 28.5368 6.32311L30.9578 7.69349Z" fill="black"/>
<path d="M30.9947 6.51922V6.50699C31.0191 6.73812 31.0314 6.95715 31.0195 7.18815V7.19206C31.0195 7.36336 30.9826 7.52243 30.9703 7.69373L28.5492 6.32334C28.5123 6.17651 28.4509 5.71155 28.242 5.73602C28.1559 5.74827 28.0699 6.01745 28.0454 6.1031C27.8733 6.05415 27.7135 5.93178 27.566 5.8339C27.6766 5.57695 27.7012 5.54024 27.8856 5.33224L27.8925 5.33633C28.0365 5.16934 28.1471 5.04936 28.3647 4.95305L30.9947 6.51922Z" fill="black"/>
<path d="M27.5539 5.84598C27.7014 5.94387 27.8612 6.05398 28.0332 6.11516C27.9602 6.34557 27.9474 6.47984 27.9233 6.72045L27.9333 6.72578C27.9095 6.96662 27.8974 7.20765 27.8853 7.46053C27.701 7.46053 27.5781 7.26476 27.406 7.25252C27.3938 6.9486 27.3331 6.76546 27.3805 6.43909L27.3696 6.4333C27.4065 6.21305 27.4679 6.05399 27.5539 5.84598Z" fill="black"/>
<path d="M27.9345 6.7264L27.9333 6.72578C27.9337 6.7219 27.9341 6.71802 27.9345 6.71414V6.7264Z" fill="black"/>
<path d="M28.3646 4.94097C29.016 4.62284 29.9131 4.83083 30.4539 5.28355C30.884 5.63839 30.9455 5.96877 30.9946 6.4949V6.50714L28.3646 4.94097Z" fill="black"/>
<path d="M29.9748 2.40819C30.11 2.2736 30.3066 2.28583 30.2821 2.49383C30.2452 2.75078 29.9871 3.15457 29.9011 3.41152C29.8396 3.63176 29.8273 4.08447 29.9379 4.29248C29.9748 4.36589 30.1223 4.47603 30.1837 4.54944C30.2452 4.61064 30.5647 4.98992 30.5155 5.05109C29.7782 4.59838 28.9548 4.40261 28.1436 4.83085C28.0699 4.86756 27.9593 4.97769 27.9101 4.98992C27.8118 5.02662 27.9101 4.83087 27.9224 4.79415C28.2419 4.24354 28.8564 4.28025 29.2128 3.852C29.5201 3.47269 29.643 2.72632 29.9748 2.40819Z" fill="black"/>
</g>
<defs>
<clipPath id="clip0_2462_213">
<rect width="44" height="20" fill="white"/>
</clipPath>
</defs>
</svg>
