<svg width="52" height="20" viewBox="0 0 52 20" fill="none" xmlns="http://www.w3.org/2000/svg">
<path d="M0.634304 0.5C2.4221 0.500048 3.7217 1.12111 4.53246 2.36289C5.32235 3.6047 5.71702 5.61636 5.71705 8.3978V19.5C1.90739 19.4998 0 14.7502 0 10.0009V0.5H0.634304Z" fill="black"/>
<path d="M12.5236 10.0009C12.5236 14.7502 10.707 19.4997 7.07891 19.5V8.3978C7.07893 5.61627 7.45486 3.60469 8.20717 2.36289C8.97939 1.12106 10.2169 0.5 11.9197 0.5H12.5236V10.0009Z" fill="black"/>
<path d="M17.8325 6.74272C19.4112 6.74278 20.6909 8.02419 20.6911 9.60479V16.6379C20.691 18.2186 19.4112 19.4999 17.8325 19.5C16.2538 19.5 14.9741 18.2186 14.974 16.6379V9.60479C14.9742 8.02416 16.2539 6.74272 17.8325 6.74272Z" fill="black"/>
<path d="M26 6.74272C27.5787 6.74273 28.8584 8.0229 28.8585 9.602V16.6407C28.8584 18.2199 27.5787 19.5 26 19.5C24.4212 19.5 23.1416 18.2199 23.1415 16.6407V9.602C23.1416 8.0229 24.4213 6.74272 26 6.74272Z" fill="black"/>
<path d="M40.974 6.74272C42.5526 6.74282 43.8324 8.02422 43.8325 9.60479V16.6379C43.8324 18.2186 42.5526 19.4999 40.974 19.5C39.3953 19.5 38.1156 18.2186 38.1155 16.6379V9.60479C38.1157 8.02416 39.3953 6.74272 40.974 6.74272Z" fill="black"/>
<path d="M52 11.6022C52 14.3838 51.6045 16.3953 50.8145 17.6371C50.0037 18.8789 48.7042 19.5 46.9163 19.5H46.283V8.3978C46.283 5.61639 46.6776 3.6047 47.4675 2.36289C48.2783 1.12112 49.5779 0.500053 51.3657 0.5H52V11.6022Z" fill="black"/>
<path d="M35.6641 6.74736V9.62983C35.6641 12.048 34.2844 13.2573 31.5259 13.2573H29.948L29.9489 13.2536V10.3702C29.9489 7.95201 31.3279 6.74278 34.0862 6.74272H35.6651L35.6641 6.74736Z" fill="black"/>
<path d="M17.8501 0.5C18.821 0.5 19.5371 0.699451 19.9986 1.09746C20.46 1.48695 20.691 2.13425 20.6911 3.04014C20.6911 3.93773 20.4752 4.59834 20.0438 5.02178C19.6184 5.44509 18.9204 5.65721 17.9498 5.65728C15.9662 5.65728 14.9741 4.78078 14.974 3.02808C14.974 2.13059 15.2107 1.48701 15.684 1.09746C16.1574 0.6995 16.8794 0.500049 17.8501 0.5Z" fill="black"/>
<path d="M40.9915 0.5C41.9624 0.5 42.6786 0.699451 43.1401 1.09746C43.6012 1.48695 43.8325 2.13425 43.8325 3.04014C43.8325 3.93772 43.6167 4.59834 43.1853 5.02178C42.7598 5.44515 42.0612 5.65728 41.0903 5.65728C39.107 5.65719 38.1156 4.7807 38.1155 3.02808C38.1155 2.13059 38.3522 1.48701 38.8255 1.09746C39.2986 0.699483 40.0208 0.500033 40.9915 0.5Z" fill="black"/>
</svg>
