<?xml version="1.0" encoding="UTF-8"?>
<svg id="_Слой_1" data-name="Слой 1" xmlns="http://www.w3.org/2000/svg" viewBox="0 0 175.86 185.04">
  <path d="M51.43,4.91c11.01,8.87,26.84,41.9,19.39,55.42-3.18,5.76-14.36,10.54-16.89,14.48-2.79,4.35,4.18,15.82,6.91,19.88,5.59,8.31,32.1,36.4,41.54,36.67,2.58.07,13.33-12.58,19.4-14.91,15.04-5.78,37.6,4.33,47.73,15.83,12.33,14,4.95,30.04-7.07,41.33-38.4,36.05-103.5-22.11-128.55-51.82C13.9,98.08-8.89,59.98,3.54,28.31,10.24,11.24,33.31-9.68,51.43,4.91Z"/>
  <path d="M136.3,68.3c-3.04,1.58-9.21,5.79-12.18,3.07-.89-.82-3.8-6.37-4.59-7.84-8.26-15.48-22.57-47.57-2.97-59.93,8.6-5.42,17.93-2.51,21.83,6.89,1.32,3.18,1.05,6.77,2.3,9.77,1.72.17,2.73-1.39,4.24-2.13,17.34-8.53,35.23,6.08,26.55,24.24-4.48,9.38-25.71,21.04-35.17,25.94Z"/>
</svg>