<?xml version="1.0" encoding="UTF-8"?>
<svg id="_Слой_1" data-name="Слой 1" xmlns="http://www.w3.org/2000/svg" viewBox="0 0 200.18 181.08">
  <path d="M186.16,43.93c11.17-1.47,16.54,3.46,12.87,14.61-5.24,15.92-29.4,39-41.93,50.76-8.74,8.19-18,15.98-27.32,23.49l-1.97-.33c-5.93-5.47-13.06-11.26-16.67-18.45l.81-2.61c8.52-9.23,16.76-18.84,25.41-27.94,10.58-11.11,34.15-37.6,48.79-39.53Z"/>
  <path d="M95.12,124.47c9.17-.04,22.11,12.06,23.03,21.08,2.57,25.36-31.45,40.68-53.17,33.93-16.95-5.27-.88-13.19,2.22-20.16,2.51-5.63,2.86-13.53,5.67-19.69,3.76-8.25,13-15.12,22.25-15.16Z"/>
  <path d="M168.65,119.99c6.22,6.08-5.09,22.13-9.42,27.29-4.28,5.12-19.05,18.56-25.32,19.37-2.42.31-4.58-2.49-5.08-4.66-1.21-5.32.18-10.38,3.31-14.68,3.34-4.57,22.7-20.51,28.06-24.41,1.93-1.4,6.33-4.98,8.44-2.91Z"/>
  <path d="M77.74.24l7.61-.24c25.65.36,54.4,14.76,69.02,35.91,5.44,7.88,4.83,8.1-1.21,15.25-16.41,19.4-39.07,36.52-55.56,56.37-17.78,3.57-33.02,9.94-39.95,28.26-3.93,10.39-1.53,27.48-17.57,24.86-10.32-1.68-22.91-16.77-27.91-25.43C-18.92,81.3,11.89,3.08,77.74.24ZM104.81,29.05c-16.42,2.65-18.16,26.33-1.88,28.56,24.47,3.36,22.65-31.92,1.88-28.56ZM47.62,53.89c14.69,13.78,35.64-7.93,19.84-21.14-14.33-11.98-32.71,9.06-19.84,21.14ZM32.22,71.89c-16.04,2.69-15.09,31.27,6.58,27.55,16.38-2.81,13.69-30.96-6.58-27.55Z"/>
</svg>