<?xml version="1.0" encoding="UTF-8"?>
<svg id="_Слой_1" data-name="Слой 1" xmlns="http://www.w3.org/2000/svg" viewBox="0 0 181.91 198.91">
  <path d="M154.39,113.97l.97-5.74c-3.49-2.72-21.39-7.94-22.79-10.48-2.26-4.12,4.12-21.03,6.05-25.9,4.35-10.99,18.88-40.71,26.74-48.43,4.2-4.12,10.83-4.81,14.16.6,5.07,8.26.78,32.11-.88,42.06-4.33,26.07-12.04,55.32-30.84,74.64.58,5.02,3.66,9.03,4.19,14.5,1.96,20.28-14.38,36.92-32.86,42.29-21.08,6.12-9.79-9.35-9.4-18.09.18-4.03-1.5-6.82-1.78-10.39-.96-12.42.05-19.97,9.91-28.09,4-3.3,7.19-4.14,11.58-6.53-1.9-5.68-6.41-21.54-.39-25.48,4.86-3.18,22.89,8.17,25.34,5.04Z"/>
  <path d="M96.43,173.53c-5.44,6.94-35.64,8.76-44.21,8.02-33.53-2.88-63.97-32.03-47.71-66.69,4.91-10.48,22.91-23.77,23.96-32.2,2.47-19.84-15.83-10.97-23.2-21.77-6.77-9.93-.25-24.58,6.41-33.05C36.72-4.01,96.81-9.37,127.82,16.1c25.91,21.27,9.58,34.15-.16,56.88-7.65,17.84-11.18,36.71-10.35,56.17-9.81,5.54-18.26,14.41-19.64,26.15-.56,4.8,1.35,14.93-1.23,18.22ZM51.47,48.2c1.71-1.55,2.46-4.66,4.85-5.95,6.42-3.46,17.13,2.1,17.61-9.86.19-4.73-1.7-8.09-6.01-9.97-13.17-5.75-37.76,5.98-34.1,22.01,1.46,6.41,13.07,7.91,17.65,3.76ZM99.93,31.44c-14.13,2.37-13.67,22.56,4.51,23.58,20.1,1.13,16.93-27.18-4.51-23.58ZM76.61,67.73c-5.7,1.44-13.26,10-9.64,16.13,2.76,4.67,7.2,4.23,11.02,6.27,7.33,3.92,14.9,15.03,22.54,4.12,3.72-5.31,2.83-13.72-.86-18.89-4.6-6.43-15.56-9.51-23.06-7.62ZM46.3,139.8c2.72-2.72,3.1-7.73,5.89-10.96,2.82-3.27,8.86-4.38,10.18-7.1,3.13-6.43.52-12.55-6.77-13.54-14.47-1.96-34.46,12.4-29.31,28.45,2.73,8.5,14.35,8.82,20.02,3.14ZM87.86,134.25c-1.04-1.04-5.21-1.9-6.88-1.75-8.29.71-19.75,14.97-10.42,19.49,11.26,5.46,21.54-13.52,17.3-17.74Z"/>
</svg>