<?xml version="1.0" encoding="UTF-8"?>
<svg id="_Слой_1" data-name="Слой 1" xmlns="http://www.w3.org/2000/svg" viewBox="0 0 168.34 199.59">
  <path d="M125.8,38.28c-2.34-3.71,11.44-20.43,15.13-21.61,4.1-1.31,8.91,1.33,7.03,6.19-.81,2.09-9.33,13.37-11.21,15.15-4.66,4.4-5.78,2.53-10.95.27Z"/>
  <path d="M97.38.3c5.52-1.57,7.31,3.34,7.04,7.9-.15,2.55-3.66,15.98-4.73,18.26-3.18,6.77-9.87-.97-9.76-6.28.08-3.74,3.69-18.8,7.45-19.88Z"/>
  <path d="M17.48,30.05c1.82-.53,2.59-.05,4.13.64,1.85.83,13.58,10.71,14.8,12.39,4.39,6.03-2.1,11.04-7.97,7.97-1.98-1.03-10.97-9.37-12.43-11.37-2.38-3.27-3.51-8.18,1.46-9.63Z"/>
  <path d="M57.44,4.56c2.08-.42,2.97-.35,4.51,1.08,3.74,3.45,12.46,30.04-.24,24.06-4.11-1.93-8.76-18.74-7.31-23.03.39-1.15,1.92-1.88,3.04-2.1Z"/>
  <path d="M20.9,76.86c.55.55,1.01,2.04,1.02,2.83.17,10.64-20.92,5.66-21.88.68-.46-2.42,3.07-6.6,5.52-6.96,1.94-.28,14.05,2.15,15.34,3.44Z"/>
  <path d="M148.03,69.6c-1.32-.99-2.42-4.32-1.86-5.98,1.21-3.57,25.09-13.08,21.87-1.18-.94,3.49-16.82,9.56-20.01,7.17Z"/>
  <g>
    <path d="M109.78,159.36c-.52.58-1.06,1.53-.71,2.32,3.57,2.73,7,8.96,4.98,13.41-.64,1.4-3.06,1.18-4.56,3.13-5.26,6.81-3.59,13.72-14.69,19.3-6.83,3.44-17.25,3.35-17.59-6.1-3.03.75-4.31,2.8-7.85,2.39-11.61-1.36-11.07-13.3,1.57-15.05,4.5-.62,20.37-.66,23.27-3.09,3.93-3.29-2.87-3.93-5.53-3.87-2.5.05-6.61.65-9.1,1.15-6.91,1.37-15.94,7.81-21.44-.28-5.03-7.39,12.24-10.27,10.59-11.84-4.64-.51-12.42-6.18-13.42-10.81-.48-2.18.1-4.44-.23-6.57-.84-5.44-12.01-15.67-15.6-20.95-19.37-28.49-6.66-72.49,27.08-82.42,45.17-13.29,91.76,22.27,72.74,70.19-4.73,11.9-19.37,22.5-21.07,32.48-.59,3.49.53,6.6-1.16,9.89-1.43,2.78-5.53,4.79-7.28,6.73ZM77.86,49.67c-20.48,2.77-36.88,24.96-35.48,45.24,1.38,19.95,13.16,22.18,20.24,35.86,4.19,8.11,2.96,19.52,15.01,20.71,3.32.33,6.12-.88,9.32-.92,4.92-.07,10.56,1.77,15.16.71,5.06-1.17,4.85-10.63,6.14-15.11,5.96-20.66,27.98-26.24,22.3-52.92-5.13-24.11-29.22-36.75-52.69-33.57Z"/>
    <path d="M99.31,145.08c-5.2,3.8-8.73-.5-9.35-5.95-1.35-11.84,1.71-23.75,7.8-33.85,3.18-5.28,8.78-9.27,9.2-15.87-2.16-1.99-9.38,9.61-15.88,6.95-1.63-.67-2.98-2.65-4.94-2.66-4.93-.02-5.42,8.84-14.79,1.13-1.4-1.15-2.42-5.21-4.32-2.46,5.37,9.61,12.8,18.1,15.03,29.16,1.28,6.34.93,12.72,1.81,19.08-1.04,3.99-3.33,5.21-7.08,6.28-5.76-.02-3.43-13.94-3.83-17.95-1.43-14.48-16.26-23.28-16.21-37.41.02-7.1,4.6-14.86,12.42-14.45,4.62.24,5.05,4.62,8.48,6.44,2.56,0,5.04-9.61,11.7-8.43,5.45.97,5.54,8.54,7.01,9.22,4.57-9.08,17.49-9.79,19.78,1.47,3.65,17.94-16.81,27.62-16.81,44.86v14.45Z"/>
  </g>
</svg>