<?xml version="1.0" encoding="UTF-8"?>
<svg id="_Слой_1" data-name="Слой 1" xmlns="http://www.w3.org/2000/svg" viewBox="0 0 197.84 197.73">
  <path d="M93.56,43.44c37.74-2.95,68.39,31.68,57.49,68.91-4.53,15.49-17.67,24.77-23.69,39.28-1.21,2.92-1.49,9.61-4.69,10.57-8.51-1.2-42.95,2.63-48.39-.86-1.93-1.24-6.04-13.76-8.36-17.4-4.1-6.45-10.33-11.87-14.32-19.07-19.16-34.57,1.94-78.31,41.96-81.43Z"/>
  <path d="M80.13,173.08c5.02-1.1,31.31-.91,36.92-.12,7.41,1.04,8.32,4.62,5.16,10.71-7.53,14.54-26.59,18.66-39.4,8.26-5.24-4.26-12.59-16.67-2.68-18.85Z"/>
  <path d="M7.63,91.07c4.95-.82,22.14-1.66,23.9,4.26,3.82,12.87-15.4,11.73-23.19,10.8-10.59-1.27-11.37-13.28-.7-15.06Z"/>
  <path d="M173.66,91.07c5.43-.98,21.73-1.77,23.69,4.5,3.67,11.71-14.1,11.22-21.09,10.57-12.55-1.18-12.87-13.23-2.6-15.07Z"/>
  <path d="M96.34.43c3.51-.83,7.56-.76,9.09,2.9,1.14,2.73,1.24,18.74.52,21.96-1.61,7.21-12.7,7.75-14.06-.8-.86-5.42-1.78-22.58,4.44-24.06Z"/>
  <path d="M160.31,27.17c5.66-1.52,10.94,2.56,9.37,8.36-.88,3.27-13.47,16.46-16.51,17.02-4.8.88-9.78-5.02-8.66-9.62.68-2.8,12.93-14.98,15.8-15.75Z"/>
  <path d="M32.42,27.13c1.17-.26,2.37-.41,3.56-.21,1.99.33,13.89,12.41,14.91,14.72,2.94,6.71-2.39,13.14-9.21,10.16-3.16-1.38-14.39-13.75-14.71-16.85-.35-3.47,1.99-7.06,5.46-7.83Z"/>
</svg>