<?xml version="1.0" encoding="UTF-8"?>
<svg id="_Слой_1" data-name="Слой 1" xmlns="http://www.w3.org/2000/svg" viewBox="0 0 173.53 193.82">
  <path d="M34.97,117.42l-1.08,2.06c1.85,5.7,3.53,6.95,9.45,7.81,21.5,3.12,49.32-2.66,70.64.33,9.58,1.34,9.61,13.14,8.71,20.73-1.21,10.27-11.84,7.07-12.26,9.23-.42,8.1,8.76,25.16,6.73,31.83-1.62,5.33-11.36,5.62-14.25,1.97-4.72-5.97-5.95-27.36-9.58-35.02l-49.79.03c-3,1.99-5.74,29.99-9.6,35-2.34,3.05-12.64,3.17-14.19.02-2.59-5.28,6.44-28.66,6.66-35.87-11.93-3.89-15.05-10.29-18-21.72C-.26,100.26.85,66.23,0,31.79,2.52,13.31,12.88,2.21,31.88.82c12.87-.94,38.13-1.3,50.63.15,16.16,1.88,25.78,14.14,27.01,29.75,1.93,24.54-2.55,52.22-1.09,76.09.23,3.82,3.15,8.23.54,10.61H34.97Z"/>
  <path d="M155.11,110.33v68.92c4.41.07,9.69-1.06,12.64,3.06,3.82,5.34-.23,10.47-6.03,11.15-4.03.47-30.64.47-32.95-.55-3.65-1.61-3.81-7.12-2.31-10.38,2.2-4.77,9.39-3,13.44-3.28v-68.92c-28.72,3.21-18.22-13.41-15.34-31.04,1.15-7.02-1.01-21.23,8.96-23.48,4.03-.91,18.55-.68,23.15-.26,5.31.48,8.28,2.99,10.39,7.86,1.98,4.58,5.46,26.22,6.21,32.3,1.75,14.22-5.76,15.47-18.17,14.62Z"/>
</svg>