<?xml version="1.0" encoding="UTF-8"?>
<svg id="_Слой_1" data-name="Слой 1" xmlns="http://www.w3.org/2000/svg" viewBox="0 0 183.04 200.33">
  <path d="M131.18,112.9c-6.09.98-11.75-1.83-17.67-2.22-11.94-.78-28.31-.62-40.33,0-5.45.28-17.51,4.53-21.3.69-2.26-2.29-4.52-13.73-6.27-17.87-7.74-18.3-10.47-22.72-10.95-44.24-.4-17.98,4.18-35.51,21.9-43.74,15.49-7.19,69.72-7.53,85.08,0,21.47,10.53,25.4,38.42,20.36,59.44-2.99,12.47-6.6,9.82-14.63,16.41-10.62,8.71-14.76,17.95-16.18,31.53Z"/>
  <path d="M47.58,124.3c22.35-3.25,45.45-6.19,68.17-4.35,6.22.5,18.23,6.45,21.53-.35,5.79-11.91,2.94-22.91,17.08-32.36,10.71-7.15,26.23-.97,28.39,11.7,2.16,12.67-8.86,48.17-16.47,58.87-3.43,4.83-12.42,9.56-14.08,12.4-3.76,6.43,5.05,21.61-2.54,27.31-16.33,12.27-16.76-18.94-19.44-27.64l-82.85-.49c-1.23,7.76-1.16,28.24-11.01,29.81-17.94,2.86-8.67-18.99-8.74-28.98-.67-2.38-13.62-11.16-15.83-15.54-3.27-6.49-10.37-35.87-11.26-43.68-1.4-12.29-.96-25.89,13.44-29.6,24.9-6.42,25.13,28.78,33.61,42.92Z"/>
</svg>