<?xml version="1.0" encoding="UTF-8"?>
<svg id="_Слой_1" data-name="Слой 1" xmlns="http://www.w3.org/2000/svg" viewBox="0 0 181.36 199.17">
  <path d="M102.97,182.97c-6.29,5.77-18.36,19.9-27.28,15.29-2.68-1.38-13.27-12.82-16.12-15.86C29.66,150.58-25.57,82.78,13.49,40.35c17.15-18.62,41.45-17.68,56.91,2.36,5.23,6.78,6.92,15.58,11.88,21.97,4.25-.7,5.66-5.12,8.8-7.88,36.12-31.76,88.6-8.29,79.54,40.98-4.68,25.44-48.09,67.25-67.65,85.18Z"/>
  <path d="M174.59,2.91c5.56-.72,7.76,3.3,6.36,8.33-1.31,4.69-14.15,18.21-18.63,19.92-4.94,1.89-11.42-.56-11.02-6.25.38-5.5,17.51-21.25,23.29-22Z"/>
  <path d="M132.23.04c8.57-1.24,12.82,28.55,1.66,29.14-11.9.63-12.71-27.54-1.66-29.14Z"/>
</svg>