<?xml version="1.0" encoding="UTF-8"?>
<svg id="_Слой_1" data-name="Слой 1" xmlns="http://www.w3.org/2000/svg" viewBox="0 0 200 155.65">
  <path d="M80.32,142.72c-4.91,4.5-14.32,15.53-21.28,11.93-2.09-1.08-10.35-10-12.57-12.37C23.14,117.46-19.95,64.57,10.52,31.48c13.37-14.52,32.33-13.79,44.4,1.84,4.08,5.29,5.39,12.15,9.27,17.14,3.32-.55,4.41-3.99,6.86-6.14,28.18-24.77,69.11-6.46,62.04,31.96-3.65,19.84-37.51,52.46-52.77,66.44Z"/>
  <path d="M181.59,88.46c-12.17,12.23-27.94,20.75-40.84,32.16-11,9.73-19.84,21.63-28.83,33.16-4.45,2.67-10.19,3.29-9.14-3.62,1.53-10.06,24.33-33.19,32.51-40.15,16.67-14.17,46.55-28.51,52.8-50.64,6.6-23.34-14.88-35.68-35.76-28.43-3.12,1.08-12.23,6.55-13.96,6.3-6.6-.97-3.01-7.4.57-10.15,17.11-13.15,48.82-10.9,58.16,10.8,8.21,19.08-2.19,37.2-15.5,50.57Z"/>
  <path d="M136.19,2.27c4.34-.56,6.05,2.58,4.96,6.5-1.02,3.66-11.04,14.2-14.53,15.54-3.86,1.48-8.91-.44-8.6-4.88.3-4.29,13.66-16.58,18.17-17.16Z"/>
  <path d="M103.14.03c6.68-.96,10,22.27,1.29,22.73-9.28.49-9.91-21.48-1.29-22.73Z"/>
</svg>