<?xml version="1.0" encoding="UTF-8"?>
<svg id="_Слой_1" data-name="Слой 1" xmlns="http://www.w3.org/2000/svg" viewBox="0 0 165.99 196.58">
  <path d="M127.93,130.22c-.88,1.15,11.77,4.61,12.97,5.15,12.05,5.47,23.87,18.75,24.96,32.36.81,10.08-1.92,16.55-11.34,20.66-25.82,11.28-107.89,9.79-135.54,2.26-14.26-3.88-21.52-10.3-18.15-26.1,3.67-17.21,22.14-31.8,39.42-32.67-2.27-2.98-7.07-3.42-10.39-5.2-3.96-2.12-10.45-7.22-12.15-11.45-3.45-8.58,5.38-22.4,7.14-32.04,3.15-17.25.46-33.11,7.17-50.15,18.34-46.54,85.26-42.38,102.23,2.76,6.9,18.35,2.87,37.51,9.91,56.68,2.35,6.4,6.45,10.38,5.75,17.96-.77,8.3-14.35,17.53-21.97,19.76ZM95.87,36.65c-1.17-.24-1.07-.17-1.74.54-2.89,3.06-5.34,6.77-8.8,9.56-5.93,4.77-16.08,9.81-23.35,12.06-4.89,1.51-14.56,1.3-15.66,6.26-3.5,15.86,6.22,37.26,21.01,44.39,27.82,13.42,51.21-10.52,53-37.84.84-12.83-4.28-10.41-12.19-17.29-5.21-4.54-10.12-11.05-12.26-17.67ZM103.34,121.9c-1.27-.74-8.64,3.13-10.81,3.69-10.69,2.77-18.87.69-28.94-2.84-4.35,3.41-7.49,8.57-13.18,10.06,1.34,8.3,11.2,15.73,18.76,18.63,19,7.29,38.83.07,47.78-18.28-5.36-2.43-10.77-5.85-13.61-11.25Z"/>
</svg>