<?xml version="1.0" encoding="UTF-8"?>
<svg id="_Слой_1" data-name="Слой 1" xmlns="http://www.w3.org/2000/svg" viewBox="0 0 183.23 198.29">
  <path d="M125.37,153.36c10.92-.97,38.06-.02,43.62-2.98,6.89-3.67,14.37-12.14,14.23-21.35-.14-9.73-8.65-11.77-11.12-26.59-1-6,1.19-6.97-.58-12.17-3.12-9.18-11.58-17.53-15.67-26.73-10.65-23.93-12.41-53.67-44.54-60.66-11.77-2.56-16.73,2.02-25.03,1.44-3.8-.26-7.88-3.71-13.84-4.16C40.45-2.28,17.69,26.02,15.7,56.01c-.78,11.82.89,16.42-3.43,28.37-5.74,15.84-23,46.18-2.52,59.2,7.4,4.71,13.51,2.28,20.9-.57,5.26,5.92,8.82,12,16.33,15.54,6.55,3.09,9.19,2.41,16.06.66-.87,1.07.03,3.83-.09,3.99-.97,1.27-25.5,9.29-29.82,11.36-6.15,2.95-17.21,9.55-18.18,16.94-1.17,8.89,10.9,5.27,15.84,5.19,14.01-.23,30.44,1.32,45.2,1.39,1.84.18,4.13.16,6.93-.09.01,0,.04,0,.06,0,.27,0,.54-.03.81-.04,8.38-.28,67.27-.6,71.11-.53,4.04.07,9.84,2.56,13.46-1.15,4.57-4.7-.43-9.93-4.18-13.02-8.69-7.14-18.95-6.56-28.93-5.41,2.61-6.62-15.25-23.98-9.85-24.46ZM127.16,178.75c-2.28.22-4.53.36-6.7.33-10.53-.13-19.85,1.08-27.52,2.95-9.37-1.02-23.4-2.91-25.43-7.34-1.55-3.38,4.71-10.59,5.25-15.14.4-3.39-.84-6.03-.75-9.3h18.35c1.29,0,6.81-1.57,8.52-2.08,4.6-1.35,9.53-4.04,13.89-6.08-.63,4.42,6.81,29.77,14.38,36.66ZM122.39,112.14c-8.42,24.51-35.64,37.63-58.8,23.28-18.4-11.4-25.81-47.92-23.41-67.97,1.17-9.78,13.97-11.77,21.12-15.58,5.43-2.89,11.15-7.59,13.56-13.35,1.01-2.41,2.11-11.77,4.09-12.23,1.58-.37,6.16,8.81,7.4,10.52,8.17,11.27,9.63,8.26,20.95,12.49,14.39,5.38,11.39,18.16,20.11,24.74,5.38,4.06,10.14-5.33,14.08,3.87,3.02,7.04-.11,14.88-7.48,17.3-2.29.75-7.33.3-8.58,2.83-1.22,2.45-1.75,10.38-3.03,14.1Z"/>
  <path d="M67.11,104.98c0,6.27,24.95,9.95,18.79-2.48-15.54.61-10.03-5.82-9.78-16.24.24-10.15,1.87-22.24-10.28-25.67-4.29-1.21-17.48-.58-17.51,5.25-.02,4.79,5.32,1.49,6.78,1.46,1.04-.02,11.37,2.79,11.81,3.22,1.6,1.55,1.69,10.54-.62,12.46-5.42,3.22-11.61-7.05-15.3-3.47-1.89,1.84.09,5.03,1.43,6.72,3.77,4.76,9.1,5.46,14.68,3.67v15.09Z"/>
  <path d="M96.1,116.76c-4.07-.54-30.51.12-32.25,2.5,4.96,13.47,28.6,11.66,35.92,1.17.03-2.57-1.32-3.36-3.67-3.67Z"/>
  <path d="M107.29,59.09c-6.79-1.24-30.14,1.11-18.45,11.14,4.9-2.88,9.93-5.56,15.81-4.42,2.55.5,7.44,4.28,9.35.43.46-.93.8-3.14.28-3.96-.21-.32-6.08-3.02-6.99-3.19Z"/>
  <path d="M99.24,80.1c-4.3.43-7.53-5.12-12.45-.7,2.59,11.09,19.61,11.91,23.54,1.08-2.5-5.93-7.74-.71-11.09-.38Z"/>
</svg>