<?xml version="1.0" encoding="UTF-8"?>
<svg id="_Слой_1" data-name="Слой 1" xmlns="http://www.w3.org/2000/svg" viewBox="0 0 163.61 200.07">
  <path d="M157.21,96.47h0c.2,0,.4.1.7.2.3,0,.6.1.9.2h0c1.7.3,2.8-.4,3.3-.9.5-.4,1.3-1.4,1.2-2.9v-1.6c0-5,.2-18.1.2-29.8v-22c-.3-3.6-3.3-3.8-3.6-3.8h-25.1c-9.2,0-18.6.1-23.9.1.6-5.7-.2-11.8-2.3-16.8-2.8-7.1-7.9-12.8-14.3-16.1-9.5-4.9-20.3-3.9-28.9,2.7-9.1,7-13.9,18.8-12.6,30.1-5.3.2-14.2,0-22.8,0-14.3-.2-23.2-.2-26,.4-1,.2-1.8.7-2.5,1.5-.5.6-1.6,2-1.5,3.9v51.2c0,1,.2,2.1,1,2.9,1.6,1.7,3.7,1.2,4.6,1h.4c11.1-2.6,24.3,3.6,28.3,13.2,4.2,9.9,0,17.2-3,20.8-5.9,7.1-15.9,10.6-25.1,8.7h0c-.2,0-.4-.1-.7-.2-.3,0-.6-.1-.9-.2h0c-1.7-.3-2.8.4-3.3.9-.5.4-1.3,1.4-1.2,2.9H.11v52.8H.11c-.1,2.7,1.9,3.9,3.3,4,3.5.3,27.8.4,56.3.4,42.7,0,94.6-.3,99.3-.5h0c.8,0,2-.3,3.1-1.5.5-.6,1.6-2,1.5-3.9v-51.2c0-1-.2-2.1-1-2.9-1.6-1.7-3.7-1.2-4.6-1h-.4c-11.1,2.6-24.3-3.6-28.3-13.2-4.2-9.9,0-17.2,3-20.8,5.9-7.1,15.9-10.6,25.1-8.7l-.2.1Z"/>
</svg>