<?xml version="1.0" encoding="UTF-8"?>
<svg id="_Слой_1" data-name="Слой 1" xmlns="http://www.w3.org/2000/svg" viewBox="0 0 200.17 187.31">
  <path d="M24.29.24l148.64-.24c16.95,2.99,26.12,14.49,26.33,31.8.5,41.54.53,84.88.91,126.34-1.29,15.42-12.73,26.57-27.25,29.13l-145.33.05c-13.41-1.66-25.44-13.18-26.29-27.22C-1.38,115.67,1.07,67.67.17,22.67,1.67,9.33,11.37,2.38,24.29.24ZM132.14,32.51c-21.42,3.76-24.36,37.77-2.24,45.24,35.79,12.08,42.47-52.3,2.24-45.24ZM67.07,74.02c-1.49.25-3.81,1.27-5.16,2.05-4.6,2.63-27.26,31.56-32.03,37.89-2.09,2.78-6.4,7.75-7.36,10.83-1.35,4.28-1.23,24.49-.69,29.74.56,5.4,3.02,9.22,8,11.09l141.52-.28c4.04-1.7,6.86-5.32,7.39-9.88.57-4.92.54-19.85-.42-24.52-1.19-5.81-16.75-22.94-22.39-23.87-7.82-1.29-10.48,1.67-15.97,6.42-4.05,3.51-9.06,11.53-14.96,9.91-2.51-.69-18.49-16.07-21.64-19.13-9.03-8.79-17.3-18.41-25.82-27.71-3.24-2.35-6.55-3.2-10.49-2.55Z"/>
</svg>