<?xml version="1.0" encoding="UTF-8"?>
<svg id="_Слой_1" data-name="Слой 1" xmlns="http://www.w3.org/2000/svg" viewBox="0 0 200.01 193.08">
  <path d="M29.52,13.54l-8.46,78.89,1.29,3.74c11.05-14.13,20.59-30.74,32.88-43.85,13.61-14.52,18.01-8.57,27.26,5.65,9.13,14.03,14.87,29.96,22.91,44.58,9.41-4.31,14.75-18.93,27.24-16.3,7.49,1.58,16.03,16.01,18.48,22.84,1.74,4.85,2.02,6.48-.01,11.27-3.61,8.52-12.69,26.06-17.69,33.75-1.09,1.68-2.31,3.35-4.14,4.3l-112.7-.71c-1.47.34-1.87,6.25-1.03,7.68,1.07,1.54,14.76.62,17.8.75,27.68,1.21,57.33-1.11,84.34.84,7.72.56,14.31,1.96,10.09,11-2.71,5.8-8.7,3.33-13.46,3.33-36.25.04-72.43-.63-108.65-1.82-3.57-1.12-5.48-4.21-5.67-7.83L15.55,4.18C16.35,1.23,22.23.17,24.86.01h150.2c9.98-.07,8.36,11.05,7.96,18.15-1.36,24.12-5.92,48.26-7.76,72.36-.64,2.93-11.48,13.9-14.05,9.76l8.32-86.75H29.52Z"/>
  <path d="M131.29,29.88c31.83-1.24,22.36,46.85-7.32,37.23-19.81-6.42-12.74-36.45,7.32-37.23Z"/>
  <path d="M159.72,185.07c-1.53,1.33-2.58,2.94-4.61,4.24-5.48,3.48-16.08,7.33-16.85-2.4-1.97-24.95,22.86-69.69,39.26-88.2,8.56-9.66,24.07-22.17,22.35,1.26-1.93,26.21-20.21,67.81-40.15,85.1ZM180.48,118.96c-1.83,1.09-3.63,2.15-4.93,3.92-3.51,4.77-18.81,35.57-19.34,40.6-.57,5.41,2.53,3.66,4.74.47,3.99-5.76,10.52-20.09,13.51-26.97,2.38-5.46,5.31-12.29,6.02-18.01ZM154.34,175.47c-2.61-1.88-5.77,5.11-8.44,4.23,1.95,8.46,11.52-2.01,8.44-4.23Z"/>
</svg>