<?xml version="1.0" encoding="UTF-8"?>
<svg id="_Слой_1" data-name="Слой 1" xmlns="http://www.w3.org/2000/svg" viewBox="0 0 197.19 200">
  <path d="M187.11,82.96c-.78-.25-1.72-.19-2.57-.08-3.48.47-6.68.05-9.51-1.08-4.39-1.73-7.97-5.3-9.86-9.52-3.29-6.83-1.51-15.66,4.15-20.77,1.1-1.15,2.75-2.03,3.43-3.23.97-2,1.09-4.38,1.06-6.61-.15-12.16-13.2-21.48-24.39-16.74-1.07.68-1.69,1.99-2.6,3.04-.87,1.07-1.87,2.06-2.89,2.88-4.93,4.08-12.18,4.74-17.97,2.27-7.28-2.84-12.24-10.67-11.21-18.52.15-1.72.79-3.4-.02-4.9-2.12-4.02-5.8-7.19-10.11-8.69-8.73-3.2-19.25,1.51-22.51,9.96-.5,2.44.58,5.36.04,7.88-.71,6.23-4.99,11.89-10.68,14.45-6.75,3.34-16.12,1.35-21.08-4.46-.95-.95-1.59-2.48-2.51-3.23-2.31-1.38-5.31-1.47-7.97-1.36-11.59.61-20.2,13.82-15.67,24.77.58.97,1.84,1.62,2.86,2.47,1.32,1.06,2.54,2.35,3.48,3.66,4.21,5.71,4.11,13.94.44,19.89-4.03,6.83-11.73,10.03-19.74,8.32-.94-.1-1.75.07-2.52.55C3.49,87.19-.04,93.17,0,99.95c0,6.67,3.69,12.9,9.15,16.05.79.46,1.61.6,2.54.51,7.9-1.5,15.66,1.74,19.71,8.44,4.61,7.11,3.25,17.21-3.13,22.87-.99,1.1-2.74,1.94-3.56,2.86-1.25,2.03-1.28,4.67-1.3,7.03.14,12.35,13.57,21.68,24.81,16.59,1.06-.7,1.68-2,2.58-3.04.9-1.11,1.95-2.13,3.02-2.97,5.11-4.13,12.69-4.63,18.55-1.84,5.66,2.59,10.26,8.16,10.31,14.64.16,6.16-2.61,7.04,2.31,12.66,8.41,10.03,24.92,7.51,30.19-4.25.83-1.6.34-3.29.19-5.08-.1-1.25-.08-2.47.05-3.64.59-6.47,5.17-12.47,11.09-14.94,8.79-3.91,18.45-.04,23.28,8.07,11.16,4.95,24.35-4.74,24.34-16.88-.15-9.42-2.25-6.66-6.92-12.62-3.86-5.1-4.41-12.94-1.65-18.43,3.49-7.36,11.4-11.73,19.69-10.29.66.11,1.39.23,2.02.13,2.38-.58,4.32-2.77,5.9-4.59,7.31-8.71,4.21-23.65-5.99-28.26l-.08-.03ZM98.56,135.37c-25.7.12-43.52-26.47-33.22-49.97,5.24-12.28,17.56-20.87,30.9-21.62,21.86-1.61,40.56,17.25,38.41,38.96-1.6,18.4-17.43,32.67-36,32.62h-.1Z"/>
</svg>