<?xml version="1.0" encoding="UTF-8"?>
<svg id="_Слой_1" data-name="Слой 1" xmlns="http://www.w3.org/2000/svg" viewBox="0 0 198.46 184.04">
  <path d="M165.65.13c18.76-1.99,37.74,18.97,31.64,37.46-1.83,5.55-14.01,18.16-19.23,20.74-4.84,2.39-7.8,1.68-12.45,2.54-5.83,1.08-20.21,18.63-26.04,23.1-2.57,1.97-4.63,3.42-8.13,2.35-1.63-.5-20.97-20.4-21.28-22.09-.2-1.08-.1-1.72.22-2.75,1.07-3.49,17.29-17.21,20.91-21.61,5.94-7.22,3.79-9.33,6.42-16.89,3.49-10.01,17.32-21.72,27.95-22.85Z"/>
  <path d="M68.1,115.01c2.63-.13,15.97,13.39,16.11,16.11-1.03,4.21-5.61,6.35-8.05,10.21-4.91,7.78-6.22,11.39-13.18,18.46-4.09,4.15-19.84,20.21-23.47,22.34-14.03,8.22-32.59-11.79-22.31-26.47,2.59-3.69,26.91-28.16,30.39-30.41,2.49-1.61,5.64-1.9,8.31-3.35,2.78-1.5,9.91-6.78,12.2-6.89Z"/>
  <path d="M86.16,113.68c-7.52-7.54-22.23-26.78-33.27-27.11-2.53-.07-5.58,1.39-8.27,1.57C18.48,89.94-6.46,63.43,1.51,37.55c7.34-23.82,20.99,7.75,29.14,9.63,7.53,1.73,16.66-5.26,16.12-12.72-.49-6.78-17.26-16.49-19.6-22.95C23.59,1.61,43.61,1.09,49.53,1.66c18.14,1.74,33.99,18.04,35.49,36.13.72,8.66-3.31,15.7,2.15,23.66l88.67,87.88c15.96,18.28-9.84,41.2-27.94,26.27-20.17-16.63-42.69-42.82-61.74-61.93ZM153.63,154.23c-7.05,7.04,3.91,16.44,10.5,10.92,7.46-6.24-3.3-18.1-10.5-10.92Z"/>
</svg>