<?xml version="1.0" encoding="UTF-8"?>
<svg id="_Слой_1" data-name="Слой 1" xmlns="http://www.w3.org/2000/svg" viewBox="0 0 187.67 200.06">
  <path d="M40.87,1.7c29.63-3.54,67.6-.27,98.61-1.32,12.94-.44,22.71,5.62,32.17,14.46,6.51,6.08,11.34,13.89,13.38,22.88,3.64,16,2.89,67.16,1.47,85.01-2.36,29.91-28.46,43.31-55.5,44.69-11.77.6-30.59-1.98-41.08.18-10.4,2.14-30.5,25.88-41.71,30.97-19.34,8.78-11.05-23.88-13.5-33.17-16.57-6.56-29.41-19.66-33.47-37.25.97-27.33-2.81-58.07-.48-85.03C2.54,22.63,20.39,4.15,40.87,1.7ZM138.97,79.63c6.27-6.97,3.8-12.05-5.16-13.29-12.12-1.67-20.27,2.04-27.91-10.39-2.55-4.15-9.37-27.63-17.7-18.47-3.13,3.45-6.58,15.32-9.94,20.24-8.58,12.59-21.79,5.71-33.32,11.85-6.38,8.34,15.69,19.39,18.54,26.81,3.97,10.32-6.05,22.11-1.52,32.46,5.57,5.55,23.38-9.4,31.69-9.4,7.95,0,23.25,13.45,29.97,10.13,5.54-2.73-2.41-25-.78-32.2,1.44-6.36,11.98-13.12,16.14-17.74Z"/>
</svg>