<?xml version="1.0" encoding="UTF-8"?>
<svg id="_Слой_1" data-name="Слой 1" xmlns="http://www.w3.org/2000/svg" viewBox="0 0 193.44 199.59">
  <path d="M187.63,87.57c-5.73,6.49-15.62,11.21-19.89,19.18.01,4.02,17.78,21.9,20.91,27.81,11.85,22.38-32.06,6.92-37.54,13.47-.42.5-.88.95-1.07,1.6-1.76,6.13,5.71,24.69,5.19,32.56-.3,4.54-2.65,6.84-7.1,7.15-12.19.84-22.75-15.46-33.25-19.94-5.95-.21-10.58,18.79-14.24,23.82-3.27,4.5-7.98,7.64-13.72,5.86-8.03-2.5-9.69-25.8-16.49-31.36-3.81-1.3-10.09,5.56-13.28,7.7-4.33,2.9-10.62,7.9-15.77,8.18-19.54,1.09-3.82-28.4-2.82-37.42.94-8.48-8.77-5.5-14.02-6.05-9.09-.95-30.89-2.22-21.21-16.76,3.68-5.52,22.1-16.37,21.45-23.4-.37-4.05-18.81-16.62-22.34-21.89-2.65-3.97-4.03-8.7.47-11.81,6.52-4.51,31.93-1.63,34.24-4.29,4.32-4.99-8.09-28.32-3.77-37.87,6.56-14.5,27.92,8.33,35.92,11.02,1.67.56,2.88.85,4.64.32,6.67-2,11.91-33.04,20.74-35.06,15.85-3.63,18.22,18.94,23.69,29.07,2.18,4.04,3.05,6.66,8.08,4.45,8.39-3.69,20.94-20.2,29.93-19.28,1.14.12,3.65,1.57,4.55,2.38,10,9.06-1.62,29.41-2.17,40.44-.11,2.18.2,4.33,2.35,5.42,7.69,3.89,35.04.13,32.09,15.66-.35,1.87-4.17,7.42-5.59,9.03ZM70.78,70.31c-4.78,1.41-5.81,17.23-1.6,20.75,10.17,8.48,14.92-24.67,1.6-20.75ZM121.27,89.39c3.65-3.11,2.53-17.62-2.14-19.05-16.4-5.01-10.11,29.46,2.14,19.05ZM124.77,103.96c-2.21.77-4.8,8.26-6.41,10.43-8.46,11.42-33.9,13.17-43.82,3.19-1.98-1.99-9.37-15.44-12.17-6.05-3.86,12.9,18.49,23.07,28.7,24.06,14.31,1.39,31.04-7.88,37.92-20.32,2.77-5.01,3.99-14.18-4.22-11.31Z"/>
</svg>