<?xml version="1.0" encoding="UTF-8"?>
<svg id="_Паттерн" data-name="Паттерн" xmlns="http://www.w3.org/2000/svg" xmlns:xlink="http://www.w3.org/1999/xlink" viewBox="0 0 4950 4950">
  <defs>
    <style>
      .cls-1 {
        fill: none;
      }

      .cls-2 {
        fill: url(#_Паттерн_НУД);
      }

      .cls-3 {
        fill: #1a1a1a;
      }
    </style>
    <pattern id="_Паттерн_НУД" data-name="Паттерн НУД" x="0" y="0" width="460" height="460" patternTransform="translate(4636.66 -1286.01) scale(.99)" patternUnits="userSpaceOnUse" viewBox="0 0 460 460">
      <g>
        <rect class="cls-1" width="460" height="460"/>
        <path class="cls-3" d="M802.36,985.19c16.11-7.73,27.73-24.24,30.3-43.07.72-5.13.78-10.34.19-15.55,5.25,0,11.46.02,18.32.04,23.87.07,53.57.15,66.65-.3,1.61-.05,3.15-.56,4.47-1.48,2.68-1.85,4.32-4.82,4.31-7.79.09-5.26.05-18.91.01-33.35-.04-13.23-.07-26.91-.01-34.7v-.1c-.04-4.28-.01-7.95,0-11.19.02-3.73.04-6.94-.03-10.14-.05-2.45-1.17-4.75-3.06-6.3-1.89-1.55-4.36-2.21-6.77-1.79-3.89.68-8.06,1.27-12.25.99-28.5-1.92-41.05-20.99-40.85-39.03.21-18.18,13.21-37.09,41.78-38.39,3.46-.11,7.04.2,10.94.95,2.35.45,4.78-.12,6.68-1.57,1.9-1.45,3.09-3.64,3.27-6.02.7-9.09.46-38.78.27-62.63-.08-9.75-.15-18.52-.14-24.37,20.62,2.67,41.82-6.25,54.1-23.21,11.72-16.18,12.57-35.98,2.28-52.95-9.93-16.4-28.7-26.57-48.96-26.57h-.14c-2.47-.1-4.88.12-7.15.43,0-12.39,0-37.7,0-56.94,0-13.25,0-24.01,0-26.64.22-2.7-1.08-5.49-3.6-7.67-1.17-1.01-2.6-1.67-4.14-1.91-5.28-.82-27.85-.75-59.14-.57-14.09.08-27.39.16-32.49.01h-.08c-.34,0-.68,0-1,0-.21,0-.42,0-.63,0h-.27s-.02,0-.02,0h-.02c-2.66,0-4.27,1.41-5.01,2.28-1.39,1.63-1.86,3.66-1.38,6.02l.09.39c3.9,14.59-.44,31.39-11.05,42.82-8.82,9.49-20.54,13.67-32.16,11.47l-.13-.02c-11.71-1.97-22.15-10.12-27.94-21.85-4.53-9.01-5.89-19.94-3.85-30.76.44-2.32-.13-4.74-1.55-6.62-1.42-1.88-3.58-3.08-5.92-3.3-10.59-.97-40.35-.67-64.26-.42-9.11.09-17.34.18-22.86.17,1.13-10-.29-20.79-4.01-29.75-5.03-12.55-14.04-22.64-25.34-28.41-16.72-8.65-35.78-6.84-50.97,4.84-16.1,12.38-24.63,33.23-22.17,53.18-9.35.33-25.02.15-40.25-.03-25.27-.3-41-.43-46.01.67-1.71.38-3.24,1.26-4.41,2.57-.91,1-2.88,3.59-2.59,6.81.13,3.5.07,25.47,0,44.9-.06,18.79-.12,38.21-.03,45.51-.16,1.84.43,3.64,1.7,5.04,2.76,3.04,6.51,2.2,8.12,1.85l.64-.12c19.63-4.48,42.98,6.48,49.99,23.49,7.34,17.45-.15,30.46-5.27,36.67-10.34,12.55-28.13,18.71-44.25,15.34l-.16-.03c-.39-.07-.78-.16-1.16-.24-.54-.11-1.08-.23-1.61-.32h-.05c-2.96-.51-4.9.75-5.79,1.55-.85.76-2.22,2.42-2.16,5.1v.06c-.05,6.39-.03,32.81,0,56.11.01,12.62.02,24.69.02,32.17-12.86-1.35-25.21,1.07-35.97,7.11-11.26,6.32-19.89,16.17-24.29,27.75-4.04,10.64-4.22,21.77-.51,32.18,4.01,11.26,12.52,21.1,24.6,28.46l.2.12c10.35,5.81,23.42,8.32,35.83,7.01.51,12.63.29,37.76.13,56.77-.15,17.43-.19,24.75,0,27.26,0,.11,0,.23.02.36.16,2.34,1.44,4.36,1.73,4.78.31.46.66.88,1.08,1.28,1.92,1.86,4.1,2.87,6.48,2.97h.24c5.1.05,74.81.07,89.22-.03,2.53-.02,4.88-1.15,6.47-3.12,1.59-1.98,2.2-4.54,1.68-7.03-2.86-13.57.99-28.79,10.06-39.71,7.45-8.97,17.27-13.8,27.71-13.54h.15s.15,0,.15,0c.27,0,.54,0,.8,0,10.09,0,19.6,4.78,26.86,13.51,9.1,10.96,12.97,26.19,10.09,39.77-.53,2.49.08,5.05,1.67,7.03,1.58,1.97,3.94,3.11,6.47,3.13,8.71.06,37.35.04,60.37.02,10.25,0,19.66,0,25.85-.02-1.19,9.08-.13,18.38,3.14,27.2,3.72,10.06,10,18.82,18.17,25.34,9.03,7.21,19.49,10.9,30.04,10.9,6.92,0,13.89-1.59,20.49-4.81ZM704.67,913.79c-19.57.02-43.21.04-55.15,0,1.78-15.88-3.22-32.84-13.61-45.34-9.74-11.72-22.72-18.13-36.66-18.13-.33,0-.66,0-.99.01-14.35-.28-27.72,6.16-37.68,18.16-10.35,12.47-15.34,29.4-13.57,45.27-19.05.06-67.78.05-80.92.02-.06-4.52.03-14.28.11-23.79.2-23.26.45-52.2-.45-62.65-.2-2.36-1.4-4.54-3.29-5.96-1.89-1.43-4.32-2-6.66-1.55-10.88,2.09-22.82.29-31.99-4.82-18.22-11.15-25.2-28.01-18.7-45.13,6.06-15.94,24.66-30.9,51.19-26.08,2.46.45,4.97-.21,6.88-1.81,1.91-1.59,3.01-3.93,3.02-6.42.01-5.95,0-21.16-.02-37.27-.02-18.05-.03-37.96-.02-48.95,19.62,2.51,39.74-5.25,52.29-20.47,11.83-14.35,14.45-32.49,7.2-49.71-4.62-11.2-14.01-20.6-26.46-26.47-10.56-4.98-22.11-6.87-33.05-5.47-.02-9.3.02-24.27.07-38.86.06-20.93.1-35.49.04-42.16,7.55-.44,25.31-.23,40.04-.05,18.57.22,37.77.45,46.27-.28,2.4-.21,4.6-1.44,6.03-3.38,1.44-1.95,1.96-4.44,1.44-6.81-3.67-16.64,3.01-34.86,16.62-45.32,11.32-8.71,24.92-10.03,37.34-3.61,8.46,4.32,15.5,12.27,19.33,21.82l.03.08c3.37,8.11,4.33,18.59,2.5,27.36l-.12.56v.33c-.26,2.31.45,4.62,1.94,6.39,1.54,1.82,3.78,2.9,6.17,2.96,4.75.12,15.68,0,28.32-.12,19.57-.2,45.47-.47,58.31.08-1.34,11.95.63,23.85,5.7,33.94,7.57,15.34,21.47,26.09,37.19,28.75,16.01,3.01,31.98-2.57,43.84-15.34,11.96-12.88,17.58-30.46,15.49-47.34,6.54.03,16.29-.02,27.11-.09,18.18-.11,44.46-.26,54.03.18,0,4.61,0,13.45,0,23.82,0,22.51,0,53.34,0,62.06,0,2.44,1.07,4.76,2.92,6.35,1.85,1.59,4.3,2.3,6.72,1.94.61-.09,1.23-.19,1.86-.29,2.84-.45,5.53-.88,7.98-.77h.41s.08,0,.12,0c15.86,0,30.45,7.81,38.08,20.41,7.65,12.62,7.03,26.77-1.7,38.83-10.39,14.35-29,21.3-46.32,17.27l-.68-.16h-.44c-2.2-.2-4.4.5-6.1,1.95-1.83,1.56-2.9,3.84-2.95,6.24-.1,4.89,0,16.47.1,29.87.16,20.3.36,44.86,0,56.79-3.03-.36-5.95-.49-8.84-.4h-.08c-16.34.73-30.17,6.5-40.01,16.68-8.89,9.2-13.86,21.39-14.01,34.33-.26,23.28,16.13,49.46,52.77,51.93,3.56.24,7.01.02,10.2-.38,0,1.51-.01,3.09-.02,4.78-.02,3.27-.04,6.97,0,11.33-.06,7.87-.02,21.55.01,34.78.03,12.01.06,23.47.02,29.91-14.18.33-40.86.26-62.65.2-10.07-.03-18.76-.05-25.05-.03h-.05c-2.81-.19-4.56,1.2-5.38,2.08-1.44,1.55-2.03,3.67-1.65,5.85.02.11.04.23.06.36l.05.25c1.37,6.04,1.65,12.1.82,18.03-2,14.64-10.88,27.4-23.21,33.31-12.35,6.02-25.83,4.36-36.99-4.57-13.31-10.64-19.68-28.78-15.83-45.13l.1-.44c.38-1.72.62-3.06.31-4.59l-.3-1.47-.92-1.19c-1.21-1.56-3.06-2.47-5.09-2.51-.87-.01-3.94-.02-8.56-.02-6.09,0-14.87,0-24.84.02ZM462.93,560.75h.02s-.02,0-.02,0ZM648.41,458.43s0-.03,0-.04c0,.01,0,.03,0,.04Z"/>
        <path class="cls-3" d="M342.36,985.19c16.11-7.73,27.73-24.24,30.3-43.07.72-5.13.78-10.34.19-15.55,5.25,0,11.46.02,18.32.04,23.87.07,53.57.15,66.65-.3,1.61-.05,3.15-.56,4.47-1.48,2.68-1.85,4.32-4.82,4.31-7.79.09-5.26.05-18.91.01-33.35-.04-13.23-.07-26.91-.01-34.7v-.1c-.04-4.28-.01-7.95,0-11.19.02-3.73.04-6.94-.03-10.14-.05-2.45-1.17-4.75-3.06-6.3-1.89-1.55-4.36-2.21-6.77-1.79-3.89.68-8.06,1.27-12.25.99-28.5-1.92-41.05-20.99-40.85-39.03.21-18.18,13.21-37.09,41.78-38.39,3.46-.11,7.04.2,10.94.95,2.35.45,4.78-.12,6.68-1.57,1.9-1.45,3.09-3.64,3.27-6.02.7-9.09.46-38.78.27-62.63-.08-9.75-.15-18.52-.14-24.37,20.62,2.67,41.82-6.25,54.1-23.21,11.72-16.18,12.57-35.98,2.28-52.95-9.93-16.4-28.7-26.57-48.96-26.57h-.14c-2.47-.1-4.88.12-7.15.43,0-12.39,0-37.7,0-56.94,0-13.25,0-24.01,0-26.64.22-2.7-1.08-5.49-3.6-7.67-1.17-1.01-2.6-1.67-4.14-1.91-5.28-.82-27.85-.75-59.14-.57-14.09.08-27.39.16-32.49.01h-.08c-.34,0-.68,0-1,0-.21,0-.42,0-.63,0h-.27s-.02,0-.02,0h-.02c-2.66,0-4.27,1.41-5.01,2.28-1.39,1.63-1.86,3.66-1.38,6.02l.09.39c3.9,14.59-.44,31.39-11.05,42.82-8.82,9.49-20.54,13.67-32.16,11.47l-.13-.02c-11.71-1.97-22.15-10.12-27.94-21.85-4.53-9.01-5.89-19.94-3.85-30.76.44-2.32-.13-4.74-1.55-6.62-1.42-1.88-3.58-3.08-5.92-3.3-10.59-.97-40.35-.67-64.26-.42-9.11.09-17.34.18-22.86.17,1.13-10-.29-20.79-4.01-29.75-5.03-12.55-14.04-22.64-25.34-28.41-16.72-8.65-35.78-6.84-50.97,4.84-16.1,12.38-24.63,33.23-22.17,53.18-9.35.33-25.02.15-40.25-.03-25.27-.3-41-.43-46.01.67-1.71.38-3.24,1.26-4.41,2.57-.91,1-2.88,3.59-2.59,6.81.13,3.5.07,25.47,0,44.9-.06,18.79-.12,38.21-.03,45.51-.16,1.84.43,3.64,1.7,5.04,2.76,3.04,6.51,2.2,8.12,1.85l.64-.12c19.63-4.48,42.98,6.48,49.99,23.49,7.34,17.45-.15,30.46-5.27,36.67-10.34,12.55-28.13,18.71-44.25,15.34l-.16-.03c-.39-.07-.78-.16-1.16-.24-.54-.11-1.08-.23-1.61-.32h-.05c-2.96-.51-4.9.75-5.79,1.55-.85.76-2.22,2.42-2.16,5.1v.06c-.05,6.39-.03,32.81,0,56.11.01,12.62.02,24.69.02,32.17-12.86-1.35-25.21,1.07-35.97,7.11-11.26,6.32-19.89,16.17-24.29,27.75-4.04,10.64-4.22,21.77-.51,32.18,4.01,11.26,12.52,21.1,24.6,28.46l.2.12c10.35,5.81,23.42,8.32,35.83,7.01.51,12.63.29,37.76.13,56.77-.15,17.43-.19,24.75,0,27.26,0,.11,0,.23.02.36.16,2.34,1.44,4.36,1.73,4.78.31.46.66.88,1.08,1.28,1.92,1.86,4.1,2.87,6.48,2.97h.24c5.1.05,74.81.07,89.22-.03,2.53-.02,4.88-1.15,6.47-3.12,1.59-1.98,2.2-4.54,1.68-7.03-2.86-13.57.99-28.79,10.06-39.71,7.45-8.97,17.27-13.8,27.71-13.54h.15s.15,0,.15,0c.27,0,.54,0,.8,0,10.09,0,19.6,4.78,26.86,13.51,9.1,10.96,12.97,26.19,10.09,39.77-.53,2.49.08,5.05,1.67,7.03,1.58,1.97,3.94,3.11,6.47,3.13,8.71.06,37.35.04,60.37.02,10.25,0,19.66,0,25.85-.02-1.19,9.08-.13,18.38,3.14,27.2,3.72,10.06,10,18.82,18.17,25.34,9.03,7.21,19.49,10.9,30.04,10.9,6.92,0,13.89-1.59,20.49-4.81ZM244.67,913.79c-19.57.02-43.21.04-55.15,0,1.78-15.88-3.22-32.84-13.61-45.34-9.74-11.72-22.72-18.13-36.66-18.13-.33,0-.66,0-.99.01-14.35-.28-27.72,6.16-37.68,18.16-10.35,12.47-15.34,29.4-13.57,45.27-19.05.06-67.78.05-80.92.02-.06-4.52.03-14.28.11-23.79.2-23.26.45-52.2-.45-62.65-.2-2.36-1.4-4.54-3.29-5.96-1.89-1.43-4.32-2-6.66-1.55-10.88,2.09-22.82.29-31.99-4.82-18.22-11.15-25.2-28.01-18.7-45.13,6.06-15.94,24.66-30.9,51.19-26.08,2.46.45,4.97-.21,6.88-1.81,1.91-1.59,3.01-3.93,3.02-6.42.01-5.95,0-21.16-.02-37.27-.02-18.05-.03-37.96-.02-48.95,19.62,2.51,39.74-5.25,52.29-20.47,11.83-14.35,14.45-32.49,7.2-49.71-4.62-11.2-14.01-20.6-26.46-26.47-10.56-4.98-22.11-6.87-33.05-5.47-.02-9.3.02-24.27.07-38.86.06-20.93.1-35.49.04-42.16,7.55-.44,25.31-.23,40.04-.05,18.57.22,37.77.45,46.27-.28,2.4-.21,4.6-1.44,6.03-3.38,1.44-1.95,1.96-4.44,1.44-6.81-3.67-16.64,3.01-34.86,16.62-45.32,11.32-8.71,24.92-10.03,37.34-3.61,8.46,4.32,15.5,12.27,19.33,21.82l.03.08c3.37,8.11,4.33,18.59,2.5,27.36l-.12.56v.33c-.26,2.31.45,4.62,1.94,6.39,1.54,1.82,3.78,2.9,6.17,2.96,4.75.12,15.68,0,28.32-.12,19.57-.2,45.47-.47,58.31.08-1.34,11.95.63,23.85,5.7,33.94,7.57,15.34,21.47,26.09,37.19,28.75,16.01,3.01,31.98-2.57,43.84-15.34,11.96-12.88,17.58-30.46,15.49-47.34,6.54.03,16.29-.02,27.11-.09,18.18-.11,44.46-.26,54.03.18,0,4.61,0,13.45,0,23.82,0,22.51,0,53.34,0,62.06,0,2.44,1.07,4.76,2.92,6.35,1.85,1.59,4.3,2.3,6.72,1.94.61-.09,1.23-.19,1.86-.29,2.84-.45,5.53-.88,7.98-.77h.41s.08,0,.12,0c15.86,0,30.45,7.81,38.08,20.41,7.65,12.62,7.03,26.77-1.7,38.83-10.39,14.35-29,21.3-46.32,17.27l-.68-.16h-.44c-2.2-.2-4.4.5-6.1,1.95-1.83,1.56-2.9,3.84-2.95,6.24-.1,4.89,0,16.47.1,29.87.16,20.3.36,44.86,0,56.79-3.03-.36-5.95-.49-8.84-.4h-.08c-16.34.73-30.17,6.5-40.01,16.68-8.89,9.2-13.86,21.39-14.01,34.33-.26,23.28,16.13,49.46,52.77,51.93,3.56.24,7.01.02,10.2-.38,0,1.51-.01,3.09-.02,4.78-.02,3.27-.04,6.97,0,11.33-.06,7.87-.02,21.55.01,34.78.03,12.01.06,23.47.02,29.91-14.18.33-40.86.26-62.65.2-10.07-.03-18.76-.05-25.05-.03h-.05c-2.81-.19-4.56,1.2-5.38,2.08-1.44,1.55-2.03,3.67-1.65,5.85.02.11.04.23.06.36l.05.25c1.37,6.04,1.65,12.1.82,18.03-2,14.64-10.88,27.4-23.21,33.31-12.35,6.02-25.83,4.36-36.99-4.57-13.31-10.64-19.68-28.78-15.83-45.13l.1-.44c.38-1.72.62-3.06.31-4.59l-.3-1.47-.92-1.19c-1.21-1.56-3.06-2.47-5.09-2.51-.87-.01-3.94-.02-8.56-.02-6.09,0-14.87,0-24.84.02ZM2.93,560.75h.02s-.02,0-.02,0ZM188.41,458.43s0-.03,0-.04c0,.01,0,.03,0,.04Z"/>
        <path class="cls-3" d="M-117.64,985.19c16.11-7.73,27.73-24.24,30.3-43.07.72-5.13.78-10.34.19-15.55,5.25,0,11.46.02,18.32.04,23.87.07,53.57.15,66.65-.3,1.61-.05,3.15-.56,4.47-1.48,2.68-1.85,4.32-4.82,4.31-7.79.09-5.26.05-18.91.01-33.35-.04-13.23-.07-26.91-.01-34.7v-.1c-.04-4.28-.01-7.95,0-11.19.02-3.73.04-6.94-.03-10.14-.05-2.45-1.17-4.75-3.06-6.3-1.89-1.55-4.36-2.21-6.77-1.79-3.89.68-8.06,1.27-12.25.99-28.5-1.92-41.05-20.99-40.85-39.03.21-18.18,13.21-37.09,41.78-38.39,3.46-.11,7.04.2,10.94.95,2.35.45,4.78-.12,6.68-1.57,1.9-1.45,3.09-3.64,3.27-6.02.7-9.09.46-38.78.27-62.63-.08-9.75-.15-18.52-.14-24.37,20.62,2.67,41.82-6.25,54.1-23.21,11.72-16.18,12.57-35.98,2.28-52.95-9.93-16.4-28.7-26.57-48.96-26.57h-.14c-2.47-.1-4.88.12-7.15.43,0-12.39,0-37.7,0-56.94,0-13.25,0-24.01,0-26.64.22-2.7-1.08-5.49-3.6-7.67-1.17-1.01-2.6-1.67-4.14-1.91-5.28-.82-27.85-.75-59.14-.57-14.09.08-27.39.16-32.49.01h-.08c-.34,0-.68,0-1,0-.21,0-.42,0-.63,0h-.27s-.02,0-.02,0h-.02c-2.66,0-4.27,1.41-5.01,2.28-1.39,1.63-1.86,3.66-1.38,6.02l.09.39c3.9,14.59-.44,31.39-11.05,42.82-8.82,9.49-20.54,13.67-32.16,11.47l-.13-.02c-11.71-1.97-22.15-10.12-27.94-21.85-4.53-9.01-5.89-19.94-3.85-30.76.44-2.32-.13-4.74-1.55-6.62-1.42-1.88-3.58-3.08-5.92-3.3-10.59-.97-40.35-.67-64.26-.42-9.11.09-17.34.18-22.86.17,1.13-10-.29-20.79-4.01-29.75-5.03-12.55-14.04-22.64-25.34-28.41-16.72-8.65-35.78-6.84-50.97,4.84-16.1,12.38-24.63,33.23-22.17,53.18-9.35.33-25.02.15-40.25-.03-25.27-.3-41-.43-46.01.67-1.71.38-3.24,1.26-4.41,2.57-.91,1-2.88,3.59-2.59,6.81.13,3.5.07,25.47,0,44.9-.06,18.79-.12,38.21-.03,45.51-.16,1.84.43,3.64,1.7,5.04,2.76,3.04,6.51,2.2,8.12,1.85l.64-.12c19.63-4.48,42.98,6.48,49.99,23.49,7.34,17.45-.15,30.46-5.27,36.67-10.34,12.55-28.13,18.71-44.25,15.34l-.16-.03c-.39-.07-.78-.16-1.16-.24-.54-.11-1.08-.23-1.61-.32h-.05c-2.96-.51-4.9.75-5.79,1.55-.85.76-2.22,2.42-2.16,5.1v.06c-.05,6.39-.03,32.81,0,56.11.01,12.62.02,24.69.02,32.17-12.86-1.35-25.21,1.07-35.97,7.11-11.26,6.32-19.89,16.17-24.29,27.75-4.04,10.64-4.22,21.77-.51,32.18,4.01,11.26,12.52,21.1,24.6,28.46l.2.12c10.35,5.81,23.42,8.32,35.83,7.01.51,12.63.29,37.76.13,56.77-.15,17.43-.19,24.75,0,27.26,0,.11,0,.23.02.36.16,2.34,1.44,4.36,1.73,4.78.31.46.66.88,1.08,1.28,1.92,1.86,4.1,2.87,6.48,2.97h.24c5.1.05,74.81.07,89.22-.03,2.53-.02,4.88-1.15,6.47-3.12,1.59-1.98,2.2-4.54,1.68-7.03-2.86-13.57.99-28.79,10.06-39.71,7.45-8.97,17.27-13.8,27.71-13.54h.15s.15,0,.15,0c.27,0,.54,0,.8,0,10.09,0,19.6,4.78,26.86,13.51,9.1,10.96,12.97,26.19,10.09,39.77-.53,2.49.08,5.05,1.67,7.03,1.58,1.97,3.94,3.11,6.47,3.13,8.71.06,37.35.04,60.37.02,10.25,0,19.66,0,25.85-.02-1.19,9.08-.13,18.38,3.14,27.2,3.72,10.06,10,18.82,18.17,25.34,9.03,7.21,19.49,10.9,30.04,10.9,6.92,0,13.89-1.59,20.49-4.81ZM-215.33,913.79c-19.57.02-43.21.04-55.15,0,1.78-15.88-3.22-32.84-13.61-45.34-9.74-11.72-22.72-18.13-36.66-18.13-.33,0-.66,0-.99.01-14.35-.28-27.72,6.16-37.68,18.16-10.35,12.47-15.34,29.4-13.57,45.27-19.05.06-67.78.05-80.92.02-.06-4.52.03-14.28.11-23.79.2-23.26.45-52.2-.45-62.65-.2-2.36-1.4-4.54-3.29-5.96-1.89-1.43-4.32-2-6.66-1.55-10.88,2.09-22.82.29-31.99-4.82-18.22-11.15-25.2-28.01-18.7-45.13,6.06-15.94,24.66-30.9,51.19-26.08,2.46.45,4.97-.21,6.88-1.81,1.91-1.59,3.01-3.93,3.02-6.42.01-5.95,0-21.16-.02-37.27-.02-18.05-.03-37.96-.02-48.95,19.62,2.51,39.74-5.25,52.29-20.47,11.83-14.35,14.45-32.49,7.2-49.71-4.62-11.2-14.01-20.6-26.46-26.47-10.56-4.98-22.11-6.87-33.05-5.47-.02-9.3.02-24.27.07-38.86.06-20.93.1-35.49.04-42.16,7.55-.44,25.31-.23,40.04-.05,18.57.22,37.77.45,46.27-.28,2.4-.21,4.6-1.44,6.03-3.38,1.44-1.95,1.96-4.44,1.44-6.81-3.67-16.64,3.01-34.86,16.62-45.32,11.32-8.71,24.92-10.03,37.34-3.61,8.46,4.32,15.5,12.27,19.33,21.82l.03.08c3.37,8.11,4.33,18.59,2.5,27.36l-.12.56v.33c-.26,2.31.45,4.62,1.94,6.39,1.54,1.82,3.78,2.9,6.17,2.96,4.75.12,15.68,0,28.32-.12,19.57-.2,45.47-.47,58.31.08-1.34,11.95.63,23.85,5.7,33.94,7.57,15.34,21.47,26.09,37.19,28.75,16.01,3.01,31.98-2.57,43.84-15.34,11.96-12.88,17.58-30.46,15.49-47.34,6.54.03,16.29-.02,27.11-.09,18.18-.11,44.46-.26,54.03.18,0,4.61,0,13.45,0,23.82,0,22.51,0,53.34,0,62.06,0,2.44,1.07,4.76,2.92,6.35,1.85,1.59,4.3,2.3,6.72,1.94.61-.09,1.23-.19,1.86-.29,2.84-.45,5.53-.88,7.98-.77h.41s.08,0,.12,0c15.86,0,30.45,7.81,38.08,20.41,7.65,12.62,7.03,26.77-1.7,38.83-10.39,14.35-29,21.3-46.32,17.27l-.68-.16h-.44c-2.2-.2-4.4.5-6.1,1.95-1.83,1.56-2.9,3.84-2.95,6.24-.1,4.89,0,16.47.1,29.87.16,20.3.36,44.86,0,56.79-3.03-.36-5.95-.49-8.84-.4h-.08c-16.34.73-30.17,6.5-40.01,16.68-8.89,9.2-13.86,21.39-14.01,34.33-.26,23.28,16.13,49.46,52.77,51.93,3.56.24,7.01.02,10.2-.38,0,1.51-.01,3.09-.02,4.78-.02,3.27-.04,6.97,0,11.33-.06,7.87-.02,21.55.01,34.78.03,12.01.06,23.47.02,29.91-14.18.33-40.86.26-62.65.2-10.07-.03-18.76-.05-25.05-.03h-.05c-2.81-.19-4.56,1.2-5.38,2.08-1.44,1.55-2.03,3.67-1.65,5.85.02.11.04.23.06.36l.05.25c1.37,6.04,1.65,12.1.82,18.03-2,14.64-10.88,27.4-23.21,33.31-12.35,6.02-25.83,4.36-36.99-4.57-13.31-10.64-19.68-28.78-15.83-45.13l.1-.44c.38-1.72.62-3.06.31-4.59l-.3-1.47-.92-1.19c-1.21-1.56-3.06-2.47-5.09-2.51-.87-.01-3.94-.02-8.56-.02-6.09,0-14.87,0-24.84.02ZM-457.07,560.75h.02s-.02,0-.02,0ZM-271.59,458.43s0-.03,0-.04c0,.01,0,.03,0,.04Z"/>
        <path class="cls-3" d="M802.36,525.19c16.11-7.73,27.73-24.24,30.3-43.07.72-5.13.78-10.34.19-15.55,5.25,0,11.46.02,18.32.04,23.87.07,53.57.15,66.65-.3,1.61-.05,3.15-.56,4.47-1.48,2.68-1.85,4.32-4.82,4.31-7.79.09-5.26.05-18.91.01-33.35-.04-13.23-.07-26.91-.01-34.7v-.1c-.04-4.28-.01-7.95,0-11.19.02-3.73.04-6.94-.03-10.14-.05-2.45-1.17-4.75-3.06-6.3-1.89-1.55-4.36-2.21-6.77-1.79-3.89.68-8.06,1.27-12.25.99-28.5-1.92-41.05-20.99-40.85-39.03.21-18.18,13.21-37.09,41.78-38.39,3.46-.11,7.04.2,10.94.95,2.35.45,4.78-.12,6.68-1.57,1.9-1.45,3.09-3.64,3.27-6.02.7-9.09.46-38.78.27-62.63-.08-9.75-.15-18.52-.14-24.37,20.62,2.67,41.82-6.25,54.1-23.21,11.72-16.18,12.57-35.98,2.28-52.95-9.93-16.4-28.7-26.57-48.96-26.57h-.14c-2.47-.1-4.88.12-7.15.43,0-12.39,0-37.7,0-56.94,0-13.25,0-24.01,0-26.64.22-2.7-1.08-5.49-3.6-7.67-1.17-1.01-2.6-1.67-4.14-1.91-5.28-.82-27.85-.75-59.14-.57-14.09.08-27.39.16-32.49.01h-.08c-.34,0-.68,0-1,0-.21,0-.42,0-.63,0h-.27s-.02,0-.02,0h-.02c-2.66,0-4.27,1.41-5.01,2.28-1.39,1.63-1.86,3.66-1.38,6.02l.09.39c3.9,14.59-.44,31.39-11.05,42.82-8.82,9.49-20.54,13.67-32.16,11.47l-.13-.02c-11.71-1.97-22.15-10.12-27.94-21.85-4.53-9.01-5.89-19.94-3.85-30.76.44-2.32-.13-4.74-1.55-6.62-1.42-1.88-3.58-3.08-5.92-3.3-10.59-.97-40.35-.67-64.26-.42-9.11.09-17.34.18-22.86.17,1.13-10-.29-20.79-4.01-29.75-5.03-12.55-14.04-22.64-25.34-28.41-16.72-8.65-35.78-6.84-50.97,4.84-16.1,12.38-24.63,33.23-22.17,53.18-9.35.33-25.02.15-40.25-.03-25.27-.3-41-.43-46.01.67-1.71.38-3.24,1.26-4.41,2.57-.91,1-2.88,3.59-2.59,6.81.13,3.5.07,25.47,0,44.9-.06,18.79-.12,38.21-.03,45.51-.16,1.84.43,3.64,1.7,5.04,2.76,3.04,6.51,2.2,8.12,1.85l.64-.12c19.63-4.48,42.98,6.48,49.99,23.49,7.34,17.45-.15,30.46-5.27,36.67-10.34,12.55-28.13,18.71-44.25,15.34l-.16-.03c-.39-.07-.78-.16-1.16-.24-.54-.11-1.08-.23-1.61-.32h-.05c-2.96-.51-4.9.75-5.79,1.55-.85.76-2.22,2.42-2.16,5.1v.06c-.05,6.39-.03,32.81,0,56.11.01,12.62.02,24.69.02,32.17-12.86-1.35-25.21,1.07-35.97,7.11-11.26,6.32-19.89,16.17-24.29,27.75-4.04,10.64-4.22,21.77-.51,32.18,4.01,11.26,12.52,21.1,24.6,28.46l.2.12c10.35,5.81,23.42,8.32,35.83,7.01.51,12.63.29,37.76.13,56.77-.15,17.43-.19,24.75,0,27.26,0,.11,0,.23.02.36.16,2.34,1.44,4.36,1.73,4.78.31.46.66.88,1.08,1.28,1.92,1.86,4.1,2.87,6.48,2.97h.24c5.1.05,74.81.07,89.22-.03,2.53-.02,4.88-1.15,6.47-3.12,1.59-1.98,2.2-4.54,1.68-7.03-2.86-13.57.99-28.79,10.06-39.71,7.45-8.97,17.27-13.8,27.71-13.54h.15s.15,0,.15,0c.27,0,.54,0,.8,0,10.09,0,19.6,4.78,26.86,13.51,9.1,10.96,12.97,26.19,10.09,39.77-.53,2.49.08,5.05,1.67,7.03,1.58,1.97,3.94,3.11,6.47,3.13,8.71.06,37.35.04,60.37.02,10.25,0,19.66,0,25.85-.02-1.19,9.08-.13,18.38,3.14,27.2,3.72,10.06,10,18.82,18.17,25.34,9.03,7.21,19.49,10.9,30.04,10.9,6.92,0,13.89-1.59,20.49-4.81ZM704.67,453.79c-19.57.02-43.21.04-55.15,0,1.78-15.88-3.22-32.84-13.61-45.34-9.74-11.72-22.72-18.13-36.66-18.13-.33,0-.66,0-.99.01-14.35-.28-27.72,6.16-37.68,18.16-10.35,12.47-15.34,29.4-13.57,45.27-19.05.06-67.78.05-80.92.02-.06-4.52.03-14.28.11-23.79.2-23.26.45-52.2-.45-62.65-.2-2.36-1.4-4.54-3.29-5.96-1.89-1.43-4.32-2-6.66-1.55-10.88,2.09-22.82.29-31.99-4.82-18.22-11.15-25.2-28.01-18.7-45.13,6.06-15.94,24.66-30.9,51.19-26.08,2.46.45,4.97-.21,6.88-1.81,1.91-1.59,3.01-3.93,3.02-6.42.01-5.95,0-21.16-.02-37.27-.02-18.05-.03-37.96-.02-48.95,19.62,2.51,39.74-5.25,52.29-20.47,11.83-14.35,14.45-32.49,7.2-49.71-4.62-11.2-14.01-20.6-26.46-26.47-10.56-4.98-22.11-6.87-33.05-5.47-.02-9.3.02-24.27.07-38.86.06-20.93.1-35.49.04-42.16,7.55-.44,25.31-.23,40.04-.05,18.57.22,37.77.45,46.27-.28,2.4-.21,4.6-1.44,6.03-3.38,1.44-1.95,1.96-4.44,1.44-6.81-3.67-16.64,3.01-34.86,16.62-45.32,11.32-8.71,24.92-10.03,37.34-3.61,8.46,4.32,15.5,12.27,19.33,21.82l.03.08c3.37,8.11,4.33,18.59,2.5,27.36l-.12.56v.33c-.26,2.31.45,4.62,1.94,6.39,1.54,1.82,3.78,2.9,6.17,2.96,4.75.12,15.68,0,28.32-.12,19.57-.2,45.47-.47,58.31.08-1.34,11.95.63,23.85,5.7,33.94,7.57,15.34,21.47,26.09,37.19,28.75,16.01,3.01,31.98-2.57,43.84-15.34,11.96-12.88,17.58-30.46,15.49-47.34,6.54.03,16.29-.02,27.11-.09,18.18-.11,44.46-.26,54.03.18,0,4.61,0,13.45,0,23.82,0,22.51,0,53.34,0,62.06,0,2.44,1.07,4.76,2.92,6.35,1.85,1.59,4.3,2.3,6.72,1.94.61-.09,1.23-.19,1.86-.29,2.84-.45,5.53-.88,7.98-.77h.41s.08,0,.12,0c15.86,0,30.45,7.81,38.08,20.41,7.65,12.62,7.03,26.77-1.7,38.83-10.39,14.35-29,21.3-46.32,17.27l-.68-.16h-.44c-2.2-.2-4.4.5-6.1,1.95-1.83,1.56-2.9,3.84-2.95,6.24-.1,4.89,0,16.47.1,29.87.16,20.3.36,44.86,0,56.79-3.03-.36-5.95-.49-8.84-.4h-.08c-16.34.73-30.17,6.5-40.01,16.68-8.89,9.2-13.86,21.39-14.01,34.33-.26,23.28,16.13,49.46,52.77,51.93,3.56.24,7.01.02,10.2-.38,0,1.51-.01,3.09-.02,4.78-.02,3.27-.04,6.97,0,11.33-.06,7.87-.02,21.55.01,34.78.03,12.01.06,23.47.02,29.91-14.18.33-40.86.26-62.65.2-10.07-.03-18.76-.05-25.05-.03h-.05c-2.81-.19-4.56,1.2-5.38,2.08-1.44,1.55-2.03,3.67-1.65,5.85.02.11.04.23.06.36l.05.25c1.37,6.04,1.65,12.1.82,18.03-2,14.64-10.88,27.4-23.21,33.31-12.35,6.02-25.83,4.36-36.99-4.57-13.31-10.64-19.68-28.78-15.83-45.13l.1-.44c.38-1.72.62-3.06.31-4.59l-.3-1.47-.92-1.19c-1.21-1.56-3.06-2.47-5.09-2.51-.87-.01-3.94-.02-8.56-.02-6.09,0-14.87,0-24.84.02ZM462.93,100.75h.02s-.02,0-.02,0ZM648.41-1.57s0-.03,0-.04c0,.01,0,.03,0,.04Z"/>
        <path class="cls-3" d="M342.36,525.19c16.11-7.73,27.73-24.24,30.3-43.07.72-5.13.78-10.34.19-15.55,5.25,0,11.46.02,18.32.04,23.87.07,53.57.15,66.65-.3,1.61-.05,3.15-.56,4.47-1.48,2.68-1.85,4.32-4.82,4.31-7.79.09-5.26.05-18.91.01-33.35-.04-13.23-.07-26.91-.01-34.7v-.1c-.04-4.28-.01-7.95,0-11.19.02-3.73.04-6.94-.03-10.14-.05-2.45-1.17-4.75-3.06-6.3-1.89-1.55-4.36-2.21-6.77-1.79-3.89.68-8.06,1.27-12.25.99-28.5-1.92-41.05-20.99-40.85-39.03.21-18.18,13.21-37.09,41.78-38.39,3.46-.11,7.04.2,10.94.95,2.35.45,4.78-.12,6.68-1.57,1.9-1.45,3.09-3.64,3.27-6.02.7-9.09.46-38.78.27-62.63-.08-9.75-.15-18.52-.14-24.37,20.62,2.67,41.82-6.25,54.1-23.21,11.72-16.18,12.57-35.98,2.28-52.95-9.93-16.4-28.7-26.57-48.96-26.57h-.14c-2.47-.1-4.88.12-7.15.43,0-12.39,0-37.7,0-56.94,0-13.25,0-24.01,0-26.64.22-2.7-1.08-5.49-3.6-7.67-1.17-1.01-2.6-1.67-4.14-1.91-5.28-.82-27.85-.75-59.14-.57-14.09.08-27.39.16-32.49.01h-.08c-.34,0-.68,0-1,0-.21,0-.42,0-.63,0h-.27s-.02,0-.02,0h-.02c-2.66,0-4.27,1.41-5.01,2.28-1.39,1.63-1.86,3.66-1.38,6.02l.09.39c3.9,14.59-.44,31.39-11.05,42.82-8.82,9.49-20.54,13.67-32.16,11.47l-.13-.02c-11.71-1.97-22.15-10.12-27.94-21.85-4.53-9.01-5.89-19.94-3.85-30.76.44-2.32-.13-4.74-1.55-6.62-1.42-1.88-3.58-3.08-5.92-3.3-10.59-.97-40.35-.67-64.26-.42-9.11.09-17.34.18-22.86.17,1.13-10-.29-20.79-4.01-29.75-5.03-12.55-14.04-22.64-25.34-28.41-16.72-8.65-35.78-6.84-50.97,4.84-16.1,12.38-24.63,33.23-22.17,53.18-9.35.33-25.02.15-40.25-.03-25.27-.3-41-.43-46.01.67-1.71.38-3.24,1.26-4.41,2.57-.91,1-2.88,3.59-2.59,6.81.13,3.5.07,25.47,0,44.9-.06,18.79-.12,38.21-.03,45.51-.16,1.84.43,3.64,1.7,5.04,2.76,3.04,6.51,2.2,8.12,1.85l.64-.12c19.63-4.48,42.98,6.48,49.99,23.49,7.34,17.45-.15,30.46-5.27,36.67-10.34,12.55-28.13,18.71-44.25,15.34l-.16-.03c-.39-.07-.78-.16-1.16-.24-.54-.11-1.08-.23-1.61-.32h-.05c-2.96-.51-4.9.75-5.79,1.55-.85.76-2.22,2.42-2.16,5.1v.06c-.05,6.39-.03,32.81,0,56.11.01,12.62.02,24.69.02,32.17-12.86-1.35-25.21,1.07-35.97,7.11-11.26,6.32-19.89,16.17-24.29,27.75-4.04,10.64-4.22,21.77-.51,32.18,4.01,11.26,12.52,21.1,24.6,28.46l.2.12c10.35,5.81,23.42,8.32,35.83,7.01.51,12.63.29,37.76.13,56.77-.15,17.43-.19,24.75,0,27.26,0,.11,0,.23.02.36.16,2.34,1.44,4.36,1.73,4.78.31.46.66.88,1.08,1.28,1.92,1.86,4.1,2.87,6.48,2.97h.24c5.1.05,74.81.07,89.22-.03,2.53-.02,4.88-1.15,6.47-3.12,1.59-1.98,2.2-4.54,1.68-7.03-2.86-13.57.99-28.79,10.06-39.71,7.45-8.97,17.27-13.8,27.71-13.54h.15s.15,0,.15,0c.27,0,.54,0,.8,0,10.09,0,19.6,4.78,26.86,13.51,9.1,10.96,12.97,26.19,10.09,39.77-.53,2.49.08,5.05,1.67,7.03,1.58,1.97,3.94,3.11,6.47,3.13,8.71.06,37.35.04,60.37.02,10.25,0,19.66,0,25.85-.02-1.19,9.08-.13,18.38,3.14,27.2,3.72,10.06,10,18.82,18.17,25.34,9.03,7.21,19.49,10.9,30.04,10.9,6.92,0,13.89-1.59,20.49-4.81ZM244.67,453.79c-19.57.02-43.21.04-55.15,0,1.78-15.88-3.22-32.84-13.61-45.34-9.74-11.72-22.72-18.13-36.66-18.13-.33,0-.66,0-.99.01-14.35-.28-27.72,6.16-37.68,18.16-10.35,12.47-15.34,29.4-13.57,45.27-19.05.06-67.78.05-80.92.02-.06-4.52.03-14.28.11-23.79.2-23.26.45-52.2-.45-62.65-.2-2.36-1.4-4.54-3.29-5.96-1.89-1.43-4.32-2-6.66-1.55-10.88,2.09-22.82.29-31.99-4.82-18.22-11.15-25.2-28.01-18.7-45.13,6.06-15.94,24.66-30.9,51.19-26.08,2.46.45,4.97-.21,6.88-1.81,1.91-1.59,3.01-3.93,3.02-6.42.01-5.95,0-21.16-.02-37.27-.02-18.05-.03-37.96-.02-48.95,19.62,2.51,39.74-5.25,52.29-20.47,11.83-14.35,14.45-32.49,7.2-49.71-4.62-11.2-14.01-20.6-26.46-26.47-10.56-4.98-22.11-6.87-33.05-5.47-.02-9.3.02-24.27.07-38.86.06-20.93.1-35.49.04-42.16,7.55-.44,25.31-.23,40.04-.05,18.57.22,37.77.45,46.27-.28,2.4-.21,4.6-1.44,6.03-3.38,1.44-1.95,1.96-4.44,1.44-6.81-3.67-16.64,3.01-34.86,16.62-45.32,11.32-8.71,24.92-10.03,37.34-3.61,8.46,4.32,15.5,12.27,19.33,21.82l.03.08c3.37,8.11,4.33,18.59,2.5,27.36l-.12.56v.33c-.26,2.31.45,4.62,1.94,6.39,1.54,1.82,3.78,2.9,6.17,2.96,4.75.12,15.68,0,28.32-.12,19.57-.2,45.47-.47,58.31.08-1.34,11.95.63,23.85,5.7,33.94,7.57,15.34,21.47,26.09,37.19,28.75,16.01,3.01,31.98-2.57,43.84-15.34,11.96-12.88,17.58-30.46,15.49-47.34,6.54.03,16.29-.02,27.11-.09,18.18-.11,44.46-.26,54.03.18,0,4.61,0,13.45,0,23.82,0,22.51,0,53.34,0,62.06,0,2.44,1.07,4.76,2.92,6.35,1.85,1.59,4.3,2.3,6.72,1.94.61-.09,1.23-.19,1.86-.29,2.84-.45,5.53-.88,7.98-.77h.41s.08,0,.12,0c15.86,0,30.45,7.81,38.08,20.41,7.65,12.62,7.03,26.77-1.7,38.83-10.39,14.35-29,21.3-46.32,17.27l-.68-.16h-.44c-2.2-.2-4.4.5-6.1,1.95-1.83,1.56-2.9,3.84-2.95,6.24-.1,4.89,0,16.47.1,29.87.16,20.3.36,44.86,0,56.79-3.03-.36-5.95-.49-8.84-.4h-.08c-16.34.73-30.17,6.5-40.01,16.68-8.89,9.2-13.86,21.39-14.01,34.33-.26,23.28,16.13,49.46,52.77,51.93,3.56.24,7.01.02,10.2-.38,0,1.51-.01,3.09-.02,4.78-.02,3.27-.04,6.97,0,11.33-.06,7.87-.02,21.55.01,34.78.03,12.01.06,23.47.02,29.91-14.18.33-40.86.26-62.65.2-10.07-.03-18.76-.05-25.05-.03h-.05c-2.81-.19-4.56,1.2-5.38,2.08-1.44,1.55-2.03,3.67-1.65,5.85.02.11.04.23.06.36l.05.25c1.37,6.04,1.65,12.1.82,18.03-2,14.64-10.88,27.4-23.21,33.31-12.35,6.02-25.83,4.36-36.99-4.57-13.31-10.64-19.68-28.78-15.83-45.13l.1-.44c.38-1.72.62-3.06.31-4.59l-.3-1.47-.92-1.19c-1.21-1.56-3.06-2.47-5.09-2.51-.87-.01-3.94-.02-8.56-.02-6.09,0-14.87,0-24.84.02ZM2.93,100.75h.02s-.02,0-.02,0ZM188.41-1.57s0-.03,0-.04c0,.01,0,.03,0,.04Z"/>
        <path class="cls-3" d="M-117.64,525.19c16.11-7.73,27.73-24.24,30.3-43.07.72-5.13.78-10.34.19-15.55,5.25,0,11.46.02,18.32.04,23.87.07,53.57.15,66.65-.3,1.61-.05,3.15-.56,4.47-1.48,2.68-1.85,4.32-4.82,4.31-7.79.09-5.26.05-18.91.01-33.35-.04-13.23-.07-26.91-.01-34.7v-.1c-.04-4.28-.01-7.95,0-11.19.02-3.73.04-6.94-.03-10.14-.05-2.45-1.17-4.75-3.06-6.3-1.89-1.55-4.36-2.21-6.77-1.79-3.89.68-8.06,1.27-12.25.99-28.5-1.92-41.05-20.99-40.85-39.03.21-18.18,13.21-37.09,41.78-38.39,3.46-.11,7.04.2,10.94.95,2.35.45,4.78-.12,6.68-1.57,1.9-1.45,3.09-3.64,3.27-6.02.7-9.09.46-38.78.27-62.63-.08-9.75-.15-18.52-.14-24.37,20.62,2.67,41.82-6.25,54.1-23.21,11.72-16.18,12.57-35.98,2.28-52.95-9.93-16.4-28.7-26.57-48.96-26.57h-.14c-2.47-.1-4.88.12-7.15.43,0-12.39,0-37.7,0-56.94,0-13.25,0-24.01,0-26.64.22-2.7-1.08-5.49-3.6-7.67-1.17-1.01-2.6-1.67-4.14-1.91-5.28-.82-27.85-.75-59.14-.57-14.09.08-27.39.16-32.49.01h-.08c-.34,0-.68,0-1,0-.21,0-.42,0-.63,0h-.27s-.02,0-.02,0h-.02c-2.66,0-4.27,1.41-5.01,2.28-1.39,1.63-1.86,3.66-1.38,6.02l.09.39c3.9,14.59-.44,31.39-11.05,42.82-8.82,9.49-20.54,13.67-32.16,11.47l-.13-.02c-11.71-1.97-22.15-10.12-27.94-21.85-4.53-9.01-5.89-19.94-3.85-30.76.44-2.32-.13-4.74-1.55-6.62-1.42-1.88-3.58-3.08-5.92-3.3-10.59-.97-40.35-.67-64.26-.42-9.11.09-17.34.18-22.86.17,1.13-10-.29-20.79-4.01-29.75-5.03-12.55-14.04-22.64-25.34-28.41-16.72-8.65-35.78-6.84-50.97,4.84-16.1,12.38-24.63,33.23-22.17,53.18-9.35.33-25.02.15-40.25-.03-25.27-.3-41-.43-46.01.67-1.71.38-3.24,1.26-4.41,2.57-.91,1-2.88,3.59-2.59,6.81.13,3.5.07,25.47,0,44.9-.06,18.79-.12,38.21-.03,45.51-.16,1.84.43,3.64,1.7,5.04,2.76,3.04,6.51,2.2,8.12,1.85l.64-.12c19.63-4.48,42.98,6.48,49.99,23.49,7.34,17.45-.15,30.46-5.27,36.67-10.34,12.55-28.13,18.71-44.25,15.34l-.16-.03c-.39-.07-.78-.16-1.16-.24-.54-.11-1.08-.23-1.61-.32h-.05c-2.96-.51-4.9.75-5.79,1.55-.85.76-2.22,2.42-2.16,5.1v.06c-.05,6.39-.03,32.81,0,56.11.01,12.62.02,24.69.02,32.17-12.86-1.35-25.21,1.07-35.97,7.11-11.26,6.32-19.89,16.17-24.29,27.75-4.04,10.64-4.22,21.77-.51,32.18,4.01,11.26,12.52,21.1,24.6,28.46l.2.12c10.35,5.81,23.42,8.32,35.83,7.01.51,12.63.29,37.76.13,56.77-.15,17.43-.19,24.75,0,27.26,0,.11,0,.23.02.36.16,2.34,1.44,4.36,1.73,4.78.31.46.66.88,1.08,1.28,1.92,1.86,4.1,2.87,6.48,2.97h.24c5.1.05,74.81.07,89.22-.03,2.53-.02,4.88-1.15,6.47-3.12,1.59-1.98,2.2-4.54,1.68-7.03-2.86-13.57.99-28.79,10.06-39.71,7.45-8.97,17.27-13.8,27.71-13.54h.15s.15,0,.15,0c.27,0,.54,0,.8,0,10.09,0,19.6,4.78,26.86,13.51,9.1,10.96,12.97,26.19,10.09,39.77-.53,2.49.08,5.05,1.67,7.03,1.58,1.97,3.94,3.11,6.47,3.13,8.71.06,37.35.04,60.37.02,10.25,0,19.66,0,25.85-.02-1.19,9.08-.13,18.38,3.14,27.2,3.72,10.06,10,18.82,18.17,25.34,9.03,7.21,19.49,10.9,30.04,10.9,6.92,0,13.89-1.59,20.49-4.81ZM-215.33,453.79c-19.57.02-43.21.04-55.15,0,1.78-15.88-3.22-32.84-13.61-45.34-9.74-11.72-22.72-18.13-36.66-18.13-.33,0-.66,0-.99.01-14.35-.28-27.72,6.16-37.68,18.16-10.35,12.47-15.34,29.4-13.57,45.27-19.05.06-67.78.05-80.92.02-.06-4.52.03-14.28.11-23.79.2-23.26.45-52.2-.45-62.65-.2-2.36-1.4-4.54-3.29-5.96-1.89-1.43-4.32-2-6.66-1.55-10.88,2.09-22.82.29-31.99-4.82-18.22-11.15-25.2-28.01-18.7-45.13,6.06-15.94,24.66-30.9,51.19-26.08,2.46.45,4.97-.21,6.88-1.81,1.91-1.59,3.01-3.93,3.02-6.42.01-5.95,0-21.16-.02-37.27-.02-18.05-.03-37.96-.02-48.95,19.62,2.51,39.74-5.25,52.29-20.47,11.83-14.35,14.45-32.49,7.2-49.71-4.62-11.2-14.01-20.6-26.46-26.47-10.56-4.98-22.11-6.87-33.05-5.47-.02-9.3.02-24.27.07-38.86.06-20.93.1-35.49.04-42.16,7.55-.44,25.31-.23,40.04-.05,18.57.22,37.77.45,46.27-.28,2.4-.21,4.6-1.44,6.03-3.38,1.44-1.95,1.96-4.44,1.44-6.81-3.67-16.64,3.01-34.86,16.62-45.32,11.32-8.71,24.92-10.03,37.34-3.61,8.46,4.32,15.5,12.27,19.33,21.82l.03.08c3.37,8.11,4.33,18.59,2.5,27.36l-.12.56v.33c-.26,2.31.45,4.62,1.94,6.39,1.54,1.82,3.78,2.9,6.17,2.96,4.75.12,15.68,0,28.32-.12,19.57-.2,45.47-.47,58.31.08-1.34,11.95.63,23.85,5.7,33.94,7.57,15.34,21.47,26.09,37.19,28.75,16.01,3.01,31.98-2.57,43.84-15.34,11.96-12.88,17.58-30.46,15.49-47.34,6.54.03,16.29-.02,27.11-.09,18.18-.11,44.46-.26,54.03.18,0,4.61,0,13.45,0,23.82,0,22.51,0,53.34,0,62.06,0,2.44,1.07,4.76,2.92,6.35,1.85,1.59,4.3,2.3,6.72,1.94.61-.09,1.23-.19,1.86-.29,2.84-.45,5.53-.88,7.98-.77h.41s.08,0,.12,0c15.86,0,30.45,7.81,38.08,20.41,7.65,12.62,7.03,26.77-1.7,38.83-10.39,14.35-29,21.3-46.32,17.27l-.68-.16h-.44c-2.2-.2-4.4.5-6.1,1.95-1.83,1.56-2.9,3.84-2.95,6.24-.1,4.89,0,16.47.1,29.87.16,20.3.36,44.86,0,56.79-3.03-.36-5.95-.49-8.84-.4h-.08c-16.34.73-30.17,6.5-40.01,16.68-8.89,9.2-13.86,21.39-14.01,34.33-.26,23.28,16.13,49.46,52.77,51.93,3.56.24,7.01.02,10.2-.38,0,1.51-.01,3.09-.02,4.78-.02,3.27-.04,6.97,0,11.33-.06,7.87-.02,21.55.01,34.78.03,12.01.06,23.47.02,29.91-14.18.33-40.86.26-62.65.2-10.07-.03-18.76-.05-25.05-.03h-.05c-2.81-.19-4.56,1.2-5.38,2.08-1.44,1.55-2.03,3.67-1.65,5.85.02.11.04.23.06.36l.05.25c1.37,6.04,1.65,12.1.82,18.03-2,14.64-10.88,27.4-23.21,33.31-12.35,6.02-25.83,4.36-36.99-4.57-13.31-10.64-19.68-28.78-15.83-45.13l.1-.44c.38-1.72.62-3.06.31-4.59l-.3-1.47-.92-1.19c-1.21-1.56-3.06-2.47-5.09-2.51-.87-.01-3.94-.02-8.56-.02-6.09,0-14.87,0-24.84.02ZM-457.07,100.75h.02s-.02,0-.02,0ZM-271.59-1.57s0-.03,0-.04c0,.01,0,.03,0,.04Z"/>
        <path class="cls-3" d="M802.36,65.19c16.11-7.73,27.73-24.24,30.3-43.07.72-5.13.78-10.34.19-15.55,5.25,0,11.46.02,18.32.04,23.87.07,53.57.15,66.65-.3,1.61-.05,3.15-.56,4.47-1.48,2.68-1.85,4.32-4.82,4.31-7.79.09-5.26.05-18.91.01-33.35-.04-13.23-.07-26.91-.01-34.7v-.1c-.04-4.28-.01-7.95,0-11.19.02-3.73.04-6.94-.03-10.14-.05-2.45-1.17-4.75-3.06-6.3-1.89-1.55-4.36-2.21-6.77-1.79-3.89.68-8.06,1.27-12.25.99-28.5-1.92-41.05-20.99-40.85-39.03.21-18.18,13.21-37.09,41.78-38.39,3.46-.11,7.04.2,10.94.95,2.35.45,4.78-.12,6.68-1.57,1.9-1.45,3.09-3.64,3.27-6.02.7-9.09.46-38.78.27-62.63-.08-9.75-.15-18.52-.14-24.37,20.62,2.67,41.82-6.25,54.1-23.21,11.72-16.18,12.57-35.98,2.28-52.95-9.93-16.4-28.7-26.57-48.96-26.57h-.14c-2.47-.1-4.88.12-7.15.43,0-12.39,0-37.7,0-56.94,0-13.25,0-24.01,0-26.64.22-2.7-1.08-5.49-3.6-7.67-1.17-1.01-2.6-1.67-4.14-1.91-5.28-.82-27.85-.75-59.14-.57-14.09.08-27.39.16-32.49.01h-.08c-.34,0-.68,0-1,0-.21,0-.42,0-.63,0h-.27s-.02,0-.02,0h-.02c-2.66,0-4.27,1.41-5.01,2.28-1.39,1.63-1.86,3.66-1.38,6.02l.09.39c3.9,14.59-.44,31.39-11.05,42.82-8.82,9.49-20.54,13.67-32.16,11.47l-.13-.02c-11.71-1.97-22.15-10.12-27.94-21.85-4.53-9.01-5.89-19.94-3.85-30.76.44-2.32-.13-4.74-1.55-6.62-1.42-1.88-3.58-3.08-5.92-3.3-10.59-.97-40.35-.67-64.26-.42-9.11.09-17.34.18-22.86.17,1.13-10-.29-20.79-4.01-29.75-5.03-12.55-14.04-22.64-25.34-28.41-16.72-8.65-35.78-6.84-50.97,4.84-16.1,12.38-24.63,33.23-22.17,53.18-9.35.33-25.02.15-40.25-.03-25.27-.3-41-.43-46.01.67-1.71.38-3.24,1.26-4.41,2.57-.91,1-2.88,3.59-2.59,6.81.13,3.5.07,25.47,0,44.9-.06,18.79-.12,38.21-.03,45.51-.16,1.84.43,3.64,1.7,5.04,2.76,3.04,6.51,2.2,8.12,1.85l.64-.12c19.63-4.48,42.98,6.48,49.99,23.49,7.34,17.45-.15,30.46-5.27,36.67-10.34,12.55-28.13,18.71-44.25,15.34l-.16-.03c-.39-.07-.78-.16-1.16-.24-.54-.11-1.08-.23-1.61-.32h-.05c-2.96-.51-4.9.75-5.79,1.55-.85.76-2.22,2.42-2.16,5.1v.06c-.05,6.39-.03,32.81,0,56.11.01,12.62.02,24.69.02,32.17-12.86-1.35-25.21,1.07-35.97,7.11-11.26,6.32-19.89,16.17-24.29,27.75-4.04,10.64-4.22,21.77-.51,32.18,4.01,11.26,12.52,21.1,24.6,28.46l.2.12c10.35,5.81,23.42,8.32,35.83,7.01.51,12.63.29,37.76.13,56.77-.15,17.43-.19,24.75,0,27.26,0,.11,0,.23.02.36.16,2.34,1.44,4.36,1.73,4.78.31.46.66.88,1.08,1.28,1.92,1.86,4.1,2.87,6.48,2.97h.24c5.1.05,74.81.07,89.22-.03,2.53-.02,4.88-1.15,6.47-3.12,1.59-1.98,2.2-4.54,1.68-7.03-2.86-13.57.99-28.79,10.06-39.71,7.45-8.97,17.27-13.8,27.71-13.54h.15s.15,0,.15,0c.27,0,.54,0,.8,0,10.09,0,19.6,4.78,26.86,13.51,9.1,10.96,12.97,26.19,10.09,39.77-.53,2.49.08,5.05,1.67,7.03,1.58,1.97,3.94,3.11,6.47,3.13,8.71.06,37.35.04,60.37.02,10.25,0,19.66,0,25.85-.02-1.19,9.08-.13,18.38,3.14,27.2,3.72,10.06,10,18.82,18.17,25.34,9.03,7.21,19.49,10.9,30.04,10.9,6.92,0,13.89-1.59,20.49-4.81ZM704.67-6.21c-19.57.02-43.21.04-55.15,0,1.78-15.88-3.22-32.84-13.61-45.34-9.74-11.72-22.72-18.13-36.66-18.13-.33,0-.66,0-.99.01-14.35-.28-27.72,6.16-37.68,18.16-10.35,12.47-15.34,29.4-13.57,45.27-19.05.06-67.78.05-80.92.02-.06-4.52.03-14.28.11-23.79.2-23.26.45-52.2-.45-62.65-.2-2.36-1.4-4.54-3.29-5.96-1.89-1.43-4.32-2-6.66-1.55-10.88,2.09-22.82.29-31.99-4.82-18.22-11.15-25.2-28.01-18.7-45.13,6.06-15.94,24.66-30.9,51.19-26.08,2.46.45,4.97-.21,6.88-1.81,1.91-1.59,3.01-3.93,3.02-6.42.01-5.95,0-21.16-.02-37.27-.02-18.05-.03-37.96-.02-48.95,19.62,2.51,39.74-5.25,52.29-20.47,11.83-14.35,14.45-32.49,7.2-49.71-4.62-11.2-14.01-20.6-26.46-26.47-10.56-4.98-22.11-6.87-33.05-5.47-.02-9.3.02-24.27.07-38.86.06-20.93.1-35.49.04-42.16,7.55-.44,25.31-.23,40.04-.05,18.57.22,37.77.45,46.27-.28,2.4-.21,4.6-1.44,6.03-3.38,1.44-1.95,1.96-4.44,1.44-6.81-3.67-16.64,3.01-34.86,16.62-45.32,11.32-8.71,24.92-10.03,37.34-3.61,8.46,4.32,15.5,12.27,19.33,21.82l.03.08c3.37,8.11,4.33,18.59,2.5,27.36l-.12.56v.33c-.26,2.31.45,4.62,1.94,6.39,1.54,1.82,3.78,2.9,6.17,2.96,4.75.12,15.68,0,28.32-.12,19.57-.2,45.47-.47,58.31.08-1.34,11.95.63,23.85,5.7,33.94,7.57,15.34,21.47,26.09,37.19,28.75,16.01,3.01,31.98-2.57,43.84-15.34,11.96-12.88,17.58-30.46,15.49-47.34,6.54.03,16.29-.02,27.11-.09,18.18-.11,44.46-.26,54.03.18,0,4.61,0,13.45,0,23.82,0,22.51,0,53.34,0,62.06,0,2.44,1.07,4.76,2.92,6.35,1.85,1.59,4.3,2.3,6.72,1.94.61-.09,1.23-.19,1.86-.29,2.84-.45,5.53-.88,7.98-.77h.41s.08,0,.12,0c15.86,0,30.45,7.81,38.08,20.41,7.65,12.62,7.03,26.77-1.7,38.83-10.39,14.35-29,21.3-46.32,17.27l-.68-.16h-.44c-2.2-.2-4.4.5-6.1,1.95-1.83,1.56-2.9,3.84-2.95,6.24-.1,4.89,0,16.47.1,29.87.16,20.3.36,44.86,0,56.79-3.03-.36-5.95-.49-8.84-.4h-.08c-16.34.73-30.17,6.5-40.01,16.68-8.89,9.2-13.86,21.39-14.01,34.33-.26,23.28,16.13,49.46,52.77,51.93,3.56.24,7.01.02,10.2-.38,0,1.51-.01,3.09-.02,4.78-.02,3.27-.04,6.97,0,11.33-.06,7.87-.02,21.55.01,34.78.03,12.01.06,23.47.02,29.91-14.18.33-40.86.26-62.65.2-10.07-.03-18.76-.05-25.05-.03h-.05c-2.81-.19-4.56,1.2-5.38,2.08-1.44,1.55-2.03,3.67-1.65,5.85.02.11.04.23.06.36l.05.25c1.37,6.04,1.65,12.1.82,18.03-2,14.64-10.88,27.4-23.21,33.31-12.35,6.02-25.83,4.36-36.99-4.57-13.31-10.64-19.68-28.78-15.83-45.13l.1-.44c.38-1.72.62-3.06.31-4.59l-.3-1.47-.92-1.19c-1.21-1.56-3.06-2.47-5.09-2.51-.87-.01-3.94-.02-8.56-.02-6.09,0-14.87,0-24.84.02ZM462.93-359.25h.02s-.02,0-.02,0ZM648.41-461.57s0-.03,0-.04c0,.01,0,.03,0,.04Z"/>
        <path class="cls-3" d="M342.36,65.19c16.11-7.73,27.73-24.24,30.3-43.07.72-5.13.78-10.34.19-15.55,5.25,0,11.46.02,18.32.04,23.87.07,53.57.15,66.65-.3,1.61-.05,3.15-.56,4.47-1.48,2.68-1.85,4.32-4.82,4.31-7.79.09-5.26.05-18.91.01-33.35-.04-13.23-.07-26.91-.01-34.7v-.1c-.04-4.28-.01-7.95,0-11.19.02-3.73.04-6.94-.03-10.14-.05-2.45-1.17-4.75-3.06-6.3-1.89-1.55-4.36-2.21-6.77-1.79-3.89.68-8.06,1.27-12.25.99-28.5-1.92-41.05-20.99-40.85-39.03.21-18.18,13.21-37.09,41.78-38.39,3.46-.11,7.04.2,10.94.95,2.35.45,4.78-.12,6.68-1.57,1.9-1.45,3.09-3.64,3.27-6.02.7-9.09.46-38.78.27-62.63-.08-9.75-.15-18.52-.14-24.37,20.62,2.67,41.82-6.25,54.1-23.21,11.72-16.18,12.57-35.98,2.28-52.95-9.93-16.4-28.7-26.57-48.96-26.57h-.14c-2.47-.1-4.88.12-7.15.43,0-12.39,0-37.7,0-56.94,0-13.25,0-24.01,0-26.64.22-2.7-1.08-5.49-3.6-7.67-1.17-1.01-2.6-1.67-4.14-1.91-5.28-.82-27.85-.75-59.14-.57-14.09.08-27.39.16-32.49.01h-.08c-.34,0-.68,0-1,0-.21,0-.42,0-.63,0h-.27s-.02,0-.02,0h-.02c-2.66,0-4.27,1.41-5.01,2.28-1.39,1.63-1.86,3.66-1.38,6.02l.09.39c3.9,14.59-.44,31.39-11.05,42.82-8.82,9.49-20.54,13.67-32.16,11.47l-.13-.02c-11.71-1.97-22.15-10.12-27.94-21.85-4.53-9.01-5.89-19.94-3.85-30.76.44-2.32-.13-4.74-1.55-6.62-1.42-1.88-3.58-3.08-5.92-3.3-10.59-.97-40.35-.67-64.26-.42-9.11.09-17.34.18-22.86.17,1.13-10-.29-20.79-4.01-29.75-5.03-12.55-14.04-22.64-25.34-28.41-16.72-8.65-35.78-6.84-50.97,4.84-16.1,12.38-24.63,33.23-22.17,53.18-9.35.33-25.02.15-40.25-.03-25.27-.3-41-.43-46.01.67-1.71.38-3.24,1.26-4.41,2.57-.91,1-2.88,3.59-2.59,6.81.13,3.5.07,25.47,0,44.9-.06,18.79-.12,38.21-.03,45.51-.16,1.84.43,3.64,1.7,5.04,2.76,3.04,6.51,2.2,8.12,1.85l.64-.12c19.63-4.48,42.98,6.48,49.99,23.49,7.34,17.45-.15,30.46-5.27,36.67-10.34,12.55-28.13,18.71-44.25,15.34l-.16-.03c-.39-.07-.78-.16-1.16-.24-.54-.11-1.08-.23-1.61-.32h-.05c-2.96-.51-4.9.75-5.79,1.55-.85.76-2.22,2.42-2.16,5.1v.06c-.05,6.39-.03,32.81,0,56.11.01,12.62.02,24.69.02,32.17-12.86-1.35-25.21,1.07-35.97,7.11-11.26,6.32-19.89,16.17-24.29,27.75-4.04,10.64-4.22,21.77-.51,32.18,4.01,11.26,12.52,21.1,24.6,28.46l.2.12c10.35,5.81,23.42,8.32,35.83,7.01.51,12.63.29,37.76.13,56.77-.15,17.43-.19,24.75,0,27.26,0,.11,0,.23.02.36.16,2.34,1.44,4.36,1.73,4.78.31.46.66.88,1.08,1.28C-1.84,5.45.35,6.45,2.73,6.56h.24c5.1.05,74.81.07,89.22-.03,2.53-.02,4.88-1.15,6.47-3.12,1.59-1.98,2.2-4.54,1.68-7.03-2.86-13.57.99-28.79,10.06-39.71,7.45-8.97,17.27-13.8,27.71-13.54h.15s.15,0,.15,0c.27,0,.54,0,.8,0,10.09,0,19.6,4.78,26.86,13.51,9.1,10.96,12.97,26.19,10.09,39.77-.53,2.49.08,5.05,1.67,7.03,1.58,1.97,3.94,3.11,6.47,3.13,8.71.06,37.35.04,60.37.02,10.25,0,19.66,0,25.85-.02-1.19,9.08-.13,18.38,3.14,27.2,3.72,10.06,10,18.82,18.17,25.34,9.03,7.21,19.49,10.9,30.04,10.9,6.92,0,13.89-1.59,20.49-4.81ZM244.67-6.21c-19.57.02-43.21.04-55.15,0,1.78-15.88-3.22-32.84-13.61-45.34-9.74-11.72-22.72-18.13-36.66-18.13-.33,0-.66,0-.99.01-14.35-.28-27.72,6.16-37.68,18.16-10.35,12.47-15.34,29.4-13.57,45.27-19.05.06-67.78.05-80.92.02-.06-4.52.03-14.28.11-23.79.2-23.26.45-52.2-.45-62.65-.2-2.36-1.4-4.54-3.29-5.96-1.89-1.43-4.32-2-6.66-1.55-10.88,2.09-22.82.29-31.99-4.82-18.22-11.15-25.2-28.01-18.7-45.13,6.06-15.94,24.66-30.9,51.19-26.08,2.46.45,4.97-.21,6.88-1.81,1.91-1.59,3.01-3.93,3.02-6.42.01-5.95,0-21.16-.02-37.27-.02-18.05-.03-37.96-.02-48.95,19.62,2.51,39.74-5.25,52.29-20.47,11.83-14.35,14.45-32.49,7.2-49.71-4.62-11.2-14.01-20.6-26.46-26.47-10.56-4.98-22.11-6.87-33.05-5.47-.02-9.3.02-24.27.07-38.86.06-20.93.1-35.49.04-42.16,7.55-.44,25.31-.23,40.04-.05,18.57.22,37.77.45,46.27-.28,2.4-.21,4.6-1.44,6.03-3.38,1.44-1.95,1.96-4.44,1.44-6.81-3.67-16.64,3.01-34.86,16.62-45.32,11.32-8.71,24.92-10.03,37.34-3.61,8.46,4.32,15.5,12.27,19.33,21.82l.03.08c3.37,8.11,4.33,18.59,2.5,27.36l-.12.56v.33c-.26,2.31.45,4.62,1.94,6.39,1.54,1.82,3.78,2.9,6.17,2.96,4.75.12,15.68,0,28.32-.12,19.57-.2,45.47-.47,58.31.08-1.34,11.95.63,23.85,5.7,33.94,7.57,15.34,21.47,26.09,37.19,28.75,16.01,3.01,31.98-2.57,43.84-15.34,11.96-12.88,17.58-30.46,15.49-47.34,6.54.03,16.29-.02,27.11-.09,18.18-.11,44.46-.26,54.03.18,0,4.61,0,13.45,0,23.82,0,22.51,0,53.34,0,62.06,0,2.44,1.07,4.76,2.92,6.35,1.85,1.59,4.3,2.3,6.72,1.94.61-.09,1.23-.19,1.86-.29,2.84-.45,5.53-.88,7.98-.77h.41s.08,0,.12,0c15.86,0,30.45,7.81,38.08,20.41,7.65,12.62,7.03,26.77-1.7,38.83-10.39,14.35-29,21.3-46.32,17.27l-.68-.16h-.44c-2.2-.2-4.4.5-6.1,1.95-1.83,1.56-2.9,3.84-2.95,6.24-.1,4.89,0,16.47.1,29.87.16,20.3.36,44.86,0,56.79-3.03-.36-5.95-.49-8.84-.4h-.08c-16.34.73-30.17,6.5-40.01,16.68-8.89,9.2-13.86,21.39-14.01,34.33-.26,23.28,16.13,49.46,52.77,51.93,3.56.24,7.01.02,10.2-.38,0,1.51-.01,3.09-.02,4.78-.02,3.27-.04,6.97,0,11.33-.06,7.87-.02,21.55.01,34.78.03,12.01.06,23.47.02,29.91-14.18.33-40.86.26-62.65.2-10.07-.03-18.76-.05-25.05-.03h-.05c-2.81-.19-4.56,1.2-5.38,2.08-1.44,1.55-2.03,3.67-1.65,5.85.02.11.04.23.06.36l.05.25c1.37,6.04,1.65,12.1.82,18.03-2,14.64-10.88,27.4-23.21,33.31-12.35,6.02-25.83,4.36-36.99-4.57-13.31-10.64-19.68-28.78-15.83-45.13l.1-.44c.38-1.72.62-3.06.31-4.59l-.3-1.47-.92-1.19c-1.21-1.56-3.06-2.47-5.09-2.51-.87-.01-3.94-.02-8.56-.02-6.09,0-14.87,0-24.84.02ZM2.93-359.25h.02s-.02,0-.02,0ZM188.41-461.57s0-.03,0-.04c0,.01,0,.03,0,.04Z"/>
        <path class="cls-3" d="M-117.64,65.19c16.11-7.73,27.73-24.24,30.3-43.07.72-5.13.78-10.34.19-15.55,5.25,0,11.46.02,18.32.04,23.87.07,53.57.15,66.65-.3,1.61-.05,3.15-.56,4.47-1.48C4.96,2.98,6.6,0,6.6-2.96c.09-5.26.05-18.91.01-33.35-.04-13.23-.07-26.91-.01-34.7v-.1c-.04-4.28-.01-7.95,0-11.19.02-3.73.04-6.94-.03-10.14-.05-2.45-1.17-4.75-3.06-6.3-1.89-1.55-4.36-2.21-6.77-1.79-3.89.68-8.06,1.27-12.25.99-28.5-1.92-41.05-20.99-40.85-39.03.21-18.18,13.21-37.09,41.78-38.39,3.46-.11,7.04.2,10.94.95,2.35.45,4.78-.12,6.68-1.57,1.9-1.45,3.09-3.64,3.27-6.02.7-9.09.46-38.78.27-62.63-.08-9.75-.15-18.52-.14-24.37,20.62,2.67,41.82-6.25,54.1-23.21,11.72-16.18,12.57-35.98,2.28-52.95-9.93-16.4-28.7-26.57-48.96-26.57h-.14c-2.47-.1-4.88.12-7.15.43,0-12.39,0-37.7,0-56.94,0-13.25,0-24.01,0-26.64.22-2.7-1.08-5.49-3.6-7.67-1.17-1.01-2.6-1.67-4.14-1.91-5.28-.82-27.85-.75-59.14-.57-14.09.08-27.39.16-32.49.01h-.08c-.34,0-.68,0-1,0-.21,0-.42,0-.63,0h-.27s-.02,0-.02,0h-.02c-2.66,0-4.27,1.41-5.01,2.28-1.39,1.63-1.86,3.66-1.38,6.02l.09.39c3.9,14.59-.44,31.39-11.05,42.82-8.82,9.49-20.54,13.67-32.16,11.47l-.13-.02c-11.71-1.97-22.15-10.12-27.94-21.85-4.53-9.01-5.89-19.94-3.85-30.76.44-2.32-.13-4.74-1.55-6.62-1.42-1.88-3.58-3.08-5.92-3.3-10.59-.97-40.35-.67-64.26-.42-9.11.09-17.34.18-22.86.17,1.13-10-.29-20.79-4.01-29.75-5.03-12.55-14.04-22.64-25.34-28.41-16.72-8.65-35.78-6.84-50.97,4.84-16.1,12.38-24.63,33.23-22.17,53.18-9.35.33-25.02.15-40.25-.03-25.27-.3-41-.43-46.01.67-1.71.38-3.24,1.26-4.41,2.57-.91,1-2.88,3.59-2.59,6.81.13,3.5.07,25.47,0,44.9-.06,18.79-.12,38.21-.03,45.51-.16,1.84.43,3.64,1.7,5.04,2.76,3.04,6.51,2.2,8.12,1.85l.64-.12c19.63-4.48,42.98,6.48,49.99,23.49,7.34,17.45-.15,30.46-5.27,36.67-10.34,12.55-28.13,18.71-44.25,15.34l-.16-.03c-.39-.07-.78-.16-1.16-.24-.54-.11-1.08-.23-1.61-.32h-.05c-2.96-.51-4.9.75-5.79,1.55-.85.76-2.22,2.42-2.16,5.1v.06c-.05,6.39-.03,32.81,0,56.11.01,12.62.02,24.69.02,32.17-12.86-1.35-25.21,1.07-35.97,7.11-11.26,6.32-19.89,16.17-24.29,27.75-4.04,10.64-4.22,21.77-.51,32.18,4.01,11.26,12.52,21.1,24.6,28.46l.2.12c10.35,5.81,23.42,8.32,35.83,7.01.51,12.63.29,37.76.13,56.77-.15,17.43-.19,24.75,0,27.26,0,.11,0,.23.02.36.16,2.34,1.44,4.36,1.73,4.78.31.46.66.88,1.08,1.28,1.92,1.86,4.1,2.87,6.48,2.97h.24c5.1.05,74.81.07,89.22-.03,2.53-.02,4.88-1.15,6.47-3.12,1.59-1.98,2.2-4.54,1.68-7.03-2.86-13.57.99-28.79,10.06-39.71,7.45-8.97,17.27-13.8,27.71-13.54h.15s.15,0,.15,0c.27,0,.54,0,.8,0,10.09,0,19.6,4.78,26.86,13.51,9.1,10.96,12.97,26.19,10.09,39.77-.53,2.49.08,5.05,1.67,7.03,1.58,1.97,3.94,3.11,6.47,3.13,8.71.06,37.35.04,60.37.02,10.25,0,19.66,0,25.85-.02-1.19,9.08-.13,18.38,3.14,27.2,3.72,10.06,10,18.82,18.17,25.34,9.03,7.21,19.49,10.9,30.04,10.9,6.92,0,13.89-1.59,20.49-4.81ZM-215.33-6.21c-19.57.02-43.21.04-55.15,0,1.78-15.88-3.22-32.84-13.61-45.34-9.74-11.72-22.72-18.13-36.66-18.13-.33,0-.66,0-.99.01-14.35-.28-27.72,6.16-37.68,18.16-10.35,12.47-15.34,29.4-13.57,45.27-19.05.06-67.78.05-80.92.02-.06-4.52.03-14.28.11-23.79.2-23.26.45-52.2-.45-62.65-.2-2.36-1.4-4.54-3.29-5.96-1.89-1.43-4.32-2-6.66-1.55-10.88,2.09-22.82.29-31.99-4.82-18.22-11.15-25.2-28.01-18.7-45.13,6.06-15.94,24.66-30.9,51.19-26.08,2.46.45,4.97-.21,6.88-1.81,1.91-1.59,3.01-3.93,3.02-6.42.01-5.95,0-21.16-.02-37.27-.02-18.05-.03-37.96-.02-48.95,19.62,2.51,39.74-5.25,52.29-20.47,11.83-14.35,14.45-32.49,7.2-49.71-4.62-11.2-14.01-20.6-26.46-26.47-10.56-4.98-22.11-6.87-33.05-5.47-.02-9.3.02-24.27.07-38.86.06-20.93.1-35.49.04-42.16,7.55-.44,25.31-.23,40.04-.05,18.57.22,37.77.45,46.27-.28,2.4-.21,4.6-1.44,6.03-3.38,1.44-1.95,1.96-4.44,1.44-6.81-3.67-16.64,3.01-34.86,16.62-45.32,11.32-8.71,24.92-10.03,37.34-3.61,8.46,4.32,15.5,12.27,19.33,21.82l.03.08c3.37,8.11,4.33,18.59,2.5,27.36l-.12.56v.33c-.26,2.31.45,4.62,1.94,6.39,1.54,1.82,3.78,2.9,6.17,2.96,4.75.12,15.68,0,28.32-.12,19.57-.2,45.47-.47,58.31.08-1.34,11.95.63,23.85,5.7,33.94,7.57,15.34,21.47,26.09,37.19,28.75,16.01,3.01,31.98-2.57,43.84-15.34,11.96-12.88,17.58-30.46,15.49-47.34,6.54.03,16.29-.02,27.11-.09,18.18-.11,44.46-.26,54.03.18,0,4.61,0,13.45,0,23.82,0,22.51,0,53.34,0,62.06,0,2.44,1.07,4.76,2.92,6.35,1.85,1.59,4.3,2.3,6.72,1.94.61-.09,1.23-.19,1.86-.29,2.84-.45,5.53-.88,7.98-.77h.41s.08,0,.12,0c15.86,0,30.45,7.81,38.08,20.41,7.65,12.62,7.03,26.77-1.7,38.83-10.39,14.35-29,21.3-46.32,17.27l-.68-.16h-.44c-2.2-.2-4.4.5-6.1,1.95-1.83,1.56-2.9,3.84-2.95,6.24-.1,4.89,0,16.47.1,29.87.16,20.3.36,44.86,0,56.79-3.03-.36-5.95-.49-8.84-.4h-.08c-16.34.73-30.17,6.5-40.01,16.68-8.89,9.2-13.86,21.39-14.01,34.33-.26,23.28,16.13,49.46,52.77,51.93,3.56.24,7.01.02,10.2-.38,0,1.51-.01,3.09-.02,4.78-.02,3.27-.04,6.97,0,11.33-.06,7.87-.02,21.55.01,34.78.03,12.01.06,23.47.02,29.91-14.18.33-40.86.26-62.65.2-10.07-.03-18.76-.05-25.05-.03h-.05c-2.81-.19-4.56,1.2-5.38,2.08-1.44,1.55-2.03,3.67-1.65,5.85.02.11.04.23.06.36l.05.25c1.37,6.04,1.65,12.1.82,18.03-2,14.64-10.88,27.4-23.21,33.31-12.35,6.02-25.83,4.36-36.99-4.57-13.31-10.64-19.68-28.78-15.83-45.13l.1-.44c.38-1.72.62-3.06.31-4.59l-.3-1.47-.92-1.19c-1.21-1.56-3.06-2.47-5.09-2.51-.87-.01-3.94-.02-8.56-.02-6.09,0-14.87,0-24.84.02ZM-457.07-359.25h.02s-.02,0-.02,0ZM-271.59-461.57s0-.03,0-.04c0,.01,0,.03,0,.04Z"/>
      </g>
    </pattern>
  </defs>
  <rect class="cls-2" width="4950" height="4950"/>
</svg>