<svg width="124" height="58" viewBox="0 0 124 58" fill="none" xmlns="http://www.w3.org/2000/svg">
<path d="M11.7138 25.2286H17.3099L18.3377 27.8571H21.3071L16.0536 15.5143H13.0843L7.83078 27.8571H10.6859L11.7138 25.2286ZM14.5689 18.1429L16.5104 22.8286H12.6274L14.5689 18.1429Z" fill="black"/>
<path d="M22.2208 30.1429H18.452L14.5689 39.8571L10.8001 30.1429H6.91713L5.88928 32.4286H8.85864L13.0843 42.4857H16.0536L20.2792 32.4286H23.2486L22.2208 30.1429Z" fill="black"/>
<path d="M14.5689 9C6.91713 9 0.75 18.0286 0.75 29C0.75 39.9714 6.91713 49 14.5689 49C22.2208 49 28.3879 39.9714 28.3879 29C28.3879 18.0286 22.2208 9 14.5689 9ZM14.5689 47.5143C7.83078 47.5143 2.23468 39.1714 2.23468 29C2.23468 18.8286 7.71657 10.4857 14.5689 10.4857C21.4213 10.4857 26.9032 18.8286 26.9032 29C26.9032 39.1714 21.3071 47.5143 14.5689 47.5143Z" fill="black"/>
<path d="M43.2347 32.6571L42.4352 30.7143H38.3238L37.5244 32.7714H35.4687L39.5801 23.4H41.4074L45.5188 32.7714L43.2347 32.6571ZM40.3795 25.5714L39.0091 28.8857H41.75L40.3795 25.5714Z" fill="black"/>
<path d="M53.0564 32.6571H46.3182V23.2857H48.2598V30.9429H53.0564V32.6571Z" fill="black"/>
<path d="M61.5077 32.6571H54.4269V23.2857H61.5077V25H56.2542V27.0571H61.0508V28.7714H56.2542V30.9429H61.5077V32.6571Z" fill="black"/>
<path d="M71.4436 32.6571H69.1595L66.9896 29.2286L64.8196 32.6571H62.5355L65.5049 27.9714L62.5355 23.2857H64.8196L66.9896 26.6L69.1595 23.2857H71.4436L68.4742 27.9714L71.4436 32.6571Z" fill="black"/>
<path d="M81.0369 32.6571H79.2096L75.2124 23.2857H77.2681L80.1233 30.0286L82.9784 23.2857H85.1483L81.0369 32.6571Z" fill="black"/>
<path d="M88.1177 23.2857H86.1762V32.6571H88.1177V23.2857Z" fill="black"/>
<path d="M96.9116 32.6571H90.1734V23.2857H92.1149V30.9429H96.9116V32.6571Z" fill="black"/>
<path d="M104.906 32.6571H98.1678V23.2857H100.109V30.9429H104.906V32.6571Z" fill="black"/>
<path d="M113.586 32.6571L112.786 30.7143H108.675L107.875 32.7714H105.82L109.931 23.4H111.53L115.641 32.7714L113.586 32.6571ZM110.731 25.5714L109.36 28.8857H112.101L110.731 25.5714Z" fill="black"/>
<path d="M123.522 25.6857L121.58 26.0286C121.466 25.1143 120.666 24.5429 119.753 24.5429C118.839 24.5429 118.268 25.1143 118.268 25.6857C118.268 26.1429 118.497 26.4857 119.182 26.6L121.237 27.0571C122.722 27.4 123.75 28.3143 123.75 29.8C123.75 31.6286 122.265 32.7714 119.981 32.7714C118.04 32.7714 116.327 31.8571 116.098 30.0286L118.154 29.5714C118.382 30.6 119.182 31.0571 120.21 31.0571C121.237 31.0571 121.923 30.4857 121.923 29.9143C121.923 29.3429 121.694 29.1143 120.781 28.8857L118.839 28.5429C117.697 28.3143 116.441 27.7429 116.441 25.8C116.441 24.0857 117.811 22.9429 119.981 22.9429C121.809 23.0571 123.179 24.0857 123.522 25.6857Z" fill="black"/>
</svg>
