<svg width="124" height="50" viewBox="0 0 124 50" fill="none" xmlns="http://www.w3.org/2000/svg">
<path fill-rule="evenodd" clip-rule="evenodd" d="M39.0763 13.2621C39.8958 16.3029 39.8958 22.6474 39.8958 22.6474C39.8958 22.6474 39.8958 28.9919 39.0763 32.0324C38.6252 33.71 37.2957 35.0314 35.6079 35.4798C32.5486 36.2947 20.2814 36.2948 20.2814 36.2948C20.2814 36.2948 8.01425 36.2947 4.95496 35.4798C3.26709 35.0314 1.93766 33.71 1.48655 32.0324C0.666993 28.9919 0.666992 22.6474 0.666992 22.6474C0.666992 22.6474 0.666993 16.3029 1.48655 13.2621C1.93766 11.5844 3.26709 10.2633 4.95496 9.81493C8.01425 9 20.2814 9 20.2814 9C20.2814 9 32.5486 9 35.6079 9.81493C37.2957 10.2633 38.6252 11.5844 39.0763 13.2621ZM16.3583 28.4963L26.5501 22.6474L16.3583 16.7985V28.4963Z" fill="black"/>
<path d="M53.2334 10.9386V15.0017H46.9494V34.3197H43.7747V10.9386H53.2334ZM45.814 19.2251H48.9975C50.1285 19.2251 51.1111 19.5352 51.9452 20.1566C52.7793 20.7773 53.4212 21.6473 53.8666 22.7658C54.3164 23.8843 54.5435 25.1932 54.5435 26.6919C54.5435 27.8164 54.4124 28.8441 54.1548 29.7755C53.9015 30.7069 53.5304 31.5121 53.0413 32.1923C52.5609 32.8718 51.9757 33.3963 51.2945 33.7658C50.6176 34.1353 49.8491 34.3197 48.9975 34.3197H43.7834V10.9386H46.9756V30.2733H48.9975C49.5172 30.2733 49.9539 30.1096 50.3076 29.7835C50.6569 29.4568 50.9233 29.0205 51.1023 28.4746C51.2814 27.9287 51.3687 27.324 51.3687 26.6598C51.3687 26.007 51.2814 25.4264 51.1023 24.9179C50.9233 24.4095 50.6569 24.0079 50.3076 23.7132C49.9539 23.4186 49.5172 23.2716 48.9975 23.2716H45.814V19.2251Z" fill="black"/>
<path d="M63.2685 16.9447V20.8467H58.0544V16.9447H63.2685ZM65.4258 16.9447V34.3196H62.3777V16.9447H65.4258ZM57.2859 16.9447H60.2728L59.9803 25.7925C59.941 27.0453 59.858 28.1425 59.7313 29.0846C59.6003 30.0267 59.4344 30.8298 59.2204 31.4933C59.0108 32.1575 58.7575 32.698 58.4649 33.1156C58.1723 33.5332 57.8405 33.8379 57.4649 34.031C57.0894 34.2234 56.6832 34.3196 56.2422 34.3196H55.312L55.264 30.4176L55.6264 30.3534C55.8186 30.3213 55.9889 30.2251 56.1374 30.0641C56.2859 29.9037 56.4125 29.6739 56.5173 29.3739C56.6265 29.0739 56.7182 28.689 56.7968 28.2179C56.8754 27.7469 56.9365 27.1923 56.9846 26.5555C57.037 25.9188 57.0675 25.1825 57.0894 24.3473L57.2859 16.9447Z" fill="black"/>
<path d="M66.976 25.8086V25.4719C66.976 24.1977 67.0895 23.023 67.3078 21.9466C67.5305 20.8709 67.8537 19.9368 68.2861 19.1443C68.714 18.3526 69.2424 17.7338 69.8669 17.2902C70.4913 16.8458 71.2075 16.6234 72.0154 16.6234C72.832 16.6234 73.5569 16.8458 74.1857 17.2902C74.8145 17.7338 75.3429 18.3526 75.7709 19.1443C76.1988 19.9368 76.5264 20.8709 76.7447 21.9466C76.9674 23.023 77.0766 24.1977 77.0766 25.4719V25.8086C77.0766 27.0721 76.9674 28.2421 76.7447 29.3178C76.5264 30.3936 76.1988 31.3303 75.7709 32.1281C75.3429 32.9253 74.8145 33.544 74.1901 33.983C73.5656 34.4219 72.8451 34.6411 72.0328 34.6411C71.225 34.6411 70.5044 34.4219 69.8756 33.983C69.2467 33.544 68.714 32.9253 68.2861 32.1281C67.8537 31.3303 67.5305 30.3936 67.3078 29.3178C67.0895 28.2421 66.976 27.0721 66.976 25.8086ZM70.0328 25.4719V25.8086C70.0328 26.4942 70.0677 27.1363 70.1332 27.7363C70.2031 28.3356 70.3167 28.8601 70.4695 29.3098C70.6267 29.7595 70.8319 30.1096 71.0896 30.3615C71.3472 30.6134 71.6617 30.739 72.0328 30.739C72.404 30.739 72.7141 30.6134 72.9717 30.3615C73.225 30.1096 73.4302 29.7595 73.5831 29.3098C73.7403 28.8601 73.8538 28.3356 73.9193 27.7363C73.9892 27.1363 74.0241 26.4942 74.0241 25.8086V25.4719C74.0241 24.797 73.9892 24.1629 73.9193 23.5689C73.8538 22.9743 73.7403 22.4471 73.5831 21.9867C73.4302 21.5263 73.2206 21.1682 72.963 20.911C72.7097 20.6544 72.3909 20.5254 72.0154 20.5254C71.6485 20.5254 71.3385 20.6544 71.0852 20.911C70.8319 21.1682 70.6267 21.5263 70.4695 21.9867C70.3167 22.4471 70.2031 22.9743 70.1332 23.5689C70.0677 24.1629 70.0328 24.797 70.0328 25.4719Z" fill="black"/>
<path d="M85.9633 16.9447V20.8467H81.688V34.3196H78.64V16.9447H85.9633Z" fill="black"/>
<path d="M92.0332 34.6411C91.1947 34.6411 90.4393 34.4219 89.7799 33.983C89.1161 33.544 88.5528 32.9359 88.0943 32.1602C87.6358 31.3838 87.2864 30.4871 87.0462 29.4702C86.8017 28.4532 86.6837 27.3668 86.6837 26.2102V25.6002C86.6837 24.3046 86.7929 23.1112 87.0156 22.0188C87.2383 20.927 87.5615 19.9769 87.9851 19.1684C88.4131 18.3606 88.9371 17.7338 89.5616 17.2902C90.186 16.8458 90.9022 16.6234 91.7013 16.6234C92.4481 16.6234 93.1162 16.8245 93.7014 17.2254C94.2865 17.6269 94.78 18.1996 95.1861 18.9439C95.5879 19.6882 95.8979 20.5816 96.1075 21.6259C96.3171 22.6696 96.4263 23.8389 96.4263 25.1344V27.1897H87.9152V23.9625H93.4394V23.5769C93.4394 22.9662 93.3695 22.431 93.2384 21.9707C93.1031 21.5103 92.9109 21.1548 92.6533 20.9029C92.3956 20.6517 92.0725 20.5254 91.6795 20.5254C91.3083 20.5254 91.0026 20.6544 90.7537 20.911C90.5048 21.1682 90.3083 21.529 90.1642 21.9947C90.0157 22.4604 89.9109 23.0016 89.8454 23.617C89.7799 24.2324 89.7493 24.8939 89.7493 25.6002V26.2102C89.7493 26.885 89.8017 27.5004 89.9152 28.057C90.0244 28.6136 90.186 29.09 90.4 29.4862C90.6183 29.8824 90.876 30.1931 91.1816 30.4176C91.4873 30.6428 91.8367 30.7551 92.2253 30.7551C92.7101 30.7551 93.1686 30.6027 93.6053 30.2973C94.042 29.992 94.4175 29.5129 94.7363 28.8601L96.1599 31.5421C95.9459 32.056 95.6446 32.5511 95.2603 33.0275C94.8717 33.5039 94.4088 33.8914 93.8673 34.1914C93.3258 34.4914 92.7144 34.6411 92.0332 34.6411Z" fill="black"/>
<path d="M100.955 20.2849V41H97.9067V16.9448H100.75L100.955 20.2849ZM107.54 25.4398V25.7765C107.54 27.04 107.453 28.2093 107.278 29.2857C107.103 30.3615 106.841 31.3009 106.492 32.1041C106.143 32.9065 105.715 33.5306 105.208 33.9749C104.702 34.4193 104.112 34.6411 103.444 34.6411C102.806 34.6411 102.252 34.4193 101.789 33.9749C101.322 33.5306 100.933 32.9092 100.619 32.1121C100.3 31.3143 100.046 30.3989 99.8543 29.3659C99.6622 28.3329 99.5137 27.2271 99.4133 26.0498V25.3917C99.5137 24.1389 99.6665 22.9769 99.8587 21.9065C100.055 20.8361 100.308 19.9074 100.623 19.1203C100.933 18.3339 101.322 17.7205 101.785 17.2822C102.247 16.8432 102.793 16.6234 103.431 16.6234C104.095 16.6234 104.684 16.8325 105.199 17.2494C105.715 17.667 106.143 18.2644 106.492 19.0401C106.841 19.8165 107.103 20.7453 107.278 21.8263C107.453 22.9074 107.54 24.1122 107.54 25.4398ZM104.488 25.7765V25.4398C104.488 24.7329 104.453 24.0828 104.392 23.4888C104.326 22.8941 104.221 22.3749 104.077 21.9306C103.933 21.4863 103.745 21.1415 103.509 20.8949C103.278 20.6491 102.99 20.5254 102.654 20.5254C102.287 20.5254 101.977 20.6223 101.723 20.8148C101.47 21.0072 101.265 21.2885 101.112 21.658C100.955 22.0268 100.841 22.4791 100.771 23.015C100.706 23.5502 100.667 24.1603 100.662 24.8451V26.6117C100.667 27.4149 100.736 28.1292 100.872 28.7559C101.003 29.382 101.217 29.869 101.505 30.2172C101.793 30.5646 102.182 30.739 102.671 30.739C103.016 30.739 103.304 30.6134 103.536 30.3615C103.767 30.1096 103.951 29.7541 104.09 29.2938C104.23 28.8334 104.33 28.3036 104.396 27.7035C104.457 27.1042 104.488 26.4621 104.488 25.7765Z" fill="black"/>
<path d="M111.221 21.9065H114.248C115.235 21.9065 116.082 22.1691 116.785 22.6936C117.488 23.2181 118.029 23.9517 118.405 24.8938C118.78 25.8359 118.973 26.9277 118.973 28.1692C118.973 29.0578 118.863 29.8797 118.654 30.6347C118.444 31.389 118.134 32.0399 117.728 32.5858C117.322 33.1316 116.824 33.5572 116.239 33.8619C115.654 34.1673 114.99 34.3196 114.248 34.3196H109.348V16.9447H112.414V30.4496H114.248C114.649 30.4496 114.977 30.3454 115.217 30.1369C115.462 29.9278 115.641 29.6472 115.754 29.2937C115.868 28.9402 115.925 28.56 115.925 28.1531C115.925 27.7141 115.868 27.3159 115.754 26.9571C115.641 26.5983 115.462 26.315 115.217 26.1059C114.977 25.8974 114.649 25.7925 114.248 25.7925H111.221V21.9065ZM123.667 16.9447V34.3196H120.601V16.9447H123.667Z" fill="black"/>
</svg>
