<svg width="449" height="70" viewBox="0 0 449 70" fill="none" xmlns="http://www.w3.org/2000/svg">
<g clip-path="url(#clip0_2374_81)">
<path fill-rule="evenodd" clip-rule="evenodd" d="M125.957 54.1037C125.957 56.383 125.44 58.4487 124.403 60.2993C123.366 62.1519 121.941 63.7182 120.132 64.9996C118.322 66.2802 116.176 67.2676 113.695 67.9595C111.215 68.6516 108.53 68.9972 105.643 68.9972C103.894 68.9972 102.155 68.7813 100.427 68.3506C98.6972 67.9199 97.0208 67.3043 95.3945 66.5037C93.7672 65.7024 92.231 64.7181 90.7885 63.5486C89.3442 62.3794 88.0526 61.0621 86.9139 59.5976L91.6727 55.1423C92.2822 55.8749 93.0146 56.658 93.8679 57.4923C94.7221 58.3277 95.7301 59.1001 96.8881 59.8115C98.0471 60.524 99.3484 61.1144 100.794 61.5818C102.237 62.0504 103.854 62.2836 105.643 62.2836C107.31 62.2836 108.959 62.1219 110.584 61.7967C112.211 61.4725 113.655 60.977 114.915 60.3072C116.176 59.6383 117.194 58.7875 117.966 57.7546C118.738 56.7199 119.126 55.4945 119.126 54.0757C119.126 52.3333 118.728 50.9965 117.936 50.0636C117.142 49.1312 116.114 48.4518 114.854 48.0279C113.593 47.602 112.148 47.3484 110.523 47.2682C108.896 47.1868 107.269 47.1461 105.642 47.1461C100.152 47.1461 95.9817 46.1694 93.1355 44.2162C90.2884 42.2629 88.8652 39.3135 88.8652 35.3653C88.8652 33.535 89.2822 31.7551 90.1171 30.0254C90.9492 28.2955 92.109 26.7702 93.5942 25.447C95.0781 24.1248 96.8467 23.0678 98.9005 22.2731C100.954 21.4795 103.202 21.0825 105.641 21.0825C109.097 21.0825 112.33 21.6121 115.341 22.6699C118.351 23.728 121.217 25.5999 123.942 28.285L119.794 33.1682C118.574 32.1915 117.424 31.3583 116.347 30.6661C115.269 29.974 114.182 29.4144 113.084 28.9877C111.986 28.5609 110.836 28.2559 109.637 28.072C108.437 27.8891 107.105 27.7972 105.641 27.7972C104.339 27.7972 103.118 28.0013 101.981 28.4069C100.842 28.8144 99.8456 29.3632 98.9914 30.0554C98.1372 30.7473 97.4656 31.5518 96.9781 32.4664C96.4905 33.3821 96.2459 34.3278 96.2459 35.3045C96.2459 35.9964 96.388 36.6577 96.6723 37.2877C96.9579 37.9199 97.4656 38.4783 98.1992 38.967C98.9294 39.4548 99.9163 39.8431 101.158 40.1266C102.398 40.4112 103.994 40.5536 105.947 40.5536C109.931 40.5536 113.217 40.8583 115.799 41.4691C118.381 42.079 120.424 42.9636 121.929 44.1243C123.433 45.2839 124.48 46.7086 125.071 48.3958C125.66 50.0857 125.957 51.9888 125.957 54.1037ZM139.065 67.9586H132.415V22.426H139.065V56.4237L162.186 22.426H170.177L155.231 43.8504L163.406 56.1199C164.829 58.2356 166.12 59.6402 167.279 60.3313C168.438 61.0234 169.505 61.3292 170.482 61.2469L172.374 61.1859V67.9606H169.994C168.936 67.9606 167.93 67.8996 166.974 67.7777C166.018 67.6557 165.073 67.3603 164.136 66.892C163.201 66.4254 162.246 65.7121 161.269 64.7557C160.294 63.7993 159.276 62.4676 158.218 60.7582L151.325 49.7112L139.062 67.9606L139.065 67.9586ZM194.213 42.4449C197.039 39.515 199.53 36.3412 201.685 32.9223C203.841 29.5046 205.568 26.0054 206.871 22.4232H214.496C212.3 27.5503 209.788 32.2109 206.961 36.4011C204.135 40.5932 200.992 44.5403 197.537 48.2427V67.9577H190.887V48.2427C187.429 44.5403 184.288 40.5932 181.462 36.4011C178.634 32.2109 176.123 27.5513 173.927 22.4232H181.552C182.854 26.0046 184.582 29.5037 186.738 32.9223C188.893 36.3412 191.385 39.5139 194.213 42.4449ZM322.603 67.9731V9.25334H331.18V59.316H363.749V67.975H322.605L322.603 67.9731ZM373.662 61.1531H402.341V68.0137H366.866V21.4832H399.597V28.345H373.662V42.4874C375.073 41.6638 376.509 41.1585 377.966 40.9736C379.416 40.7888 380.916 40.6949 382.452 40.6949H392.617V47.5556H382.452C380.956 47.5556 379.469 47.6698 377.994 47.8982C376.52 48.1265 375.073 48.6126 373.662 49.3579V61.1531ZM429.487 68.0137H421.445L402.24 21.4812H409.598L425.496 60.405L441.518 21.4812H449L429.487 68.0137ZM276.974 55.5323L276.969 55.5594L276.95 55.5323H276.974ZM270.329 37.8007L270.324 37.8289L270.305 37.8007H270.329ZM295.243 48.7635C295.812 49.0462 296.32 49.3927 296.8 49.8041L297.047 50.0568C297.19 50.2029 297.317 50.3598 297.424 50.5367C297.503 50.6684 297.567 50.7439 297.643 50.8648C297.873 51.2232 298.184 52.0196 298.305 52.4436C298.55 53.2973 298.447 53.1425 298.559 53.8838C298.594 54.1317 298.561 54.4171 298.554 54.6748L298.484 55.4385C298.443 55.967 298.145 56.6792 297.91 57.1294C297.786 57.3685 297.617 57.5949 297.481 57.8215C297.236 58.2339 296.942 58.4343 296.708 58.739C296.542 58.9549 296.32 59.103 296.099 59.2502C295.792 59.4554 295.322 59.6518 294.969 59.7883C294.621 59.9248 293.898 59.9587 293.475 59.8986C293.307 59.8734 293.171 59.8502 293.011 59.8135C292.833 59.7719 292.713 59.7505 292.553 59.7012C291.859 59.4805 291.103 59.0739 290.518 58.6375L290.056 58.2667C289.872 58.1129 289.673 57.8823 289.496 57.7073C289.152 57.3705 288.817 56.7886 288.619 56.3434C288.519 56.1179 288.291 55.8257 288.238 55.6049C288.078 55.7887 287.969 56.0385 287.857 56.2485C288.057 56.2485 288.159 56.2708 288.308 56.3695C288.359 56.4045 288.374 56.4025 288.381 56.4867C288.186 56.4904 287.969 56.6252 287.929 56.7733C288.052 56.7838 288.24 56.8855 288.324 56.9494C288.424 57.0248 288.512 57.1351 288.582 57.2397C288.661 57.3578 288.705 57.5098 288.781 57.6124C288.854 57.7082 288.965 57.8156 289.097 57.8467C289.088 57.9462 289.092 57.9173 289.016 57.9569L288.626 58.0915C288.455 58.1245 288.208 58.1534 288.12 58.2763C288.313 58.3209 288.444 58.5029 288.565 58.6403C288.619 58.7033 288.76 58.9549 288.562 58.8378C288.407 58.744 288.28 58.6646 288.072 58.681C287.923 58.6935 287.728 58.7864 287.636 58.865C287.474 59.0043 287.456 59.0962 287.551 59.3208C287.693 59.6645 287.855 59.7824 288.155 60.0042C288.23 60.0613 288.247 60.0913 288.324 60.1444C288.674 60.3846 289.112 60.4155 289.504 60.5587C289.98 60.7311 289.962 61.4077 290.159 61.8102C290.199 61.8907 290.21 61.9583 290.295 61.9846C290.383 62.0117 290.518 61.9922 290.573 61.971C290.972 61.8133 291.037 61.28 291.072 61.2062C291.226 61.2102 291.23 61.2953 291.274 61.4309C291.381 61.7512 291.348 62.1482 291.191 62.4452C291.447 62.4452 291.684 62.5314 291.786 62.6835C291.697 62.7075 291.578 62.7996 291.524 62.8731L291.309 63.1122C291.381 63.2196 291.454 63.2487 291.532 63.39C291.747 63.7792 291.703 64.2001 291.666 64.6376H291.62C291.596 64.5389 291.548 64.4962 291.454 64.4711C291.454 65.0075 291.134 65.7867 291.259 66.1911C291.3 66.3257 291.405 66.5291 291.548 66.5687V66.6402C291.392 66.6772 291.256 66.6461 291.138 66.5744C291.035 66.5116 290.972 66.3954 290.882 66.3305C290.871 66.4582 290.777 66.6837 290.724 66.7914C290.685 66.8697 290.652 66.9268 290.623 67.0003C290.595 67.0749 290.58 67.1466 290.549 67.2123C290.424 67.2094 290.418 67.1862 290.385 67.0904L290.31 66.9016C290.271 67.0729 290.137 67.2908 290.041 67.4194C289.931 67.5666 289.778 67.6616 289.649 67.7902C289.603 67.8357 289.581 67.8493 289.535 67.8899C289.504 67.919 289.474 67.9577 289.447 67.9914C289.322 68.1446 289.283 68.3303 289.2 68.5064C289.027 68.8647 288.891 69.1812 288.51 69.365C288.26 69.4859 287.914 69.4483 287.649 69.4803C287.325 69.519 287.45 69.8423 287.213 70C286.948 69.8596 286.994 69.6351 287.047 69.4037C286.961 69.2759 286.9 69.2643 286.88 69.0467C286.753 69.0467 286.519 69.032 286.436 69.0767C286.328 69.1337 286.333 69.2508 286.212 69.3322C286.055 69.2895 286.094 69.1241 286.094 68.9266C286 68.8783 285.963 68.8715 285.952 68.7358C285.875 68.7726 285.82 68.7601 285.713 68.7601C285.674 68.6643 285.744 68.7562 285.689 68.64C285.597 68.6643 285.575 68.7118 285.54 68.8008C285.5 68.8986 285.509 68.9227 285.38 68.9255C285.358 68.8376 285.343 68.8608 285.334 68.759C285.314 68.551 285.369 68.4561 285.409 68.2703C285.424 68.2017 285.415 68.0293 285.428 67.9258C285.468 67.6412 285.623 67.3488 285.825 67.1552C285.96 67.0254 286.16 66.9347 286.337 66.9056C286.585 66.8649 286.821 66.8909 287.036 66.9344C287.261 66.9791 287.437 67.0681 287.612 66.8465C287.669 66.7778 287.809 66.3751 287.831 66.2793C287.914 65.9396 287.925 65.56 287.927 65.2078C287.927 65.049 287.905 64.9803 287.903 64.8515C287.897 64.6028 287.901 64.3753 287.796 64.1729C287.741 64.0695 287.724 63.9979 287.662 63.901C287.358 63.4375 286.891 63.1122 286.504 62.7231L285.665 62.0137C285.59 61.9671 285.52 61.8944 285.45 61.8472C285.409 62.0252 285.273 62.2285 285.069 62.2285C285.016 61.999 285.012 61.7949 284.837 61.5324C284.817 61.5055 284.8 61.486 284.782 61.4657C284.782 61.6497 284.743 61.9846 284.592 62.0852C284.521 61.9778 284.502 61.8597 284.429 61.7463C284.23 61.4298 283.807 61.2625 283.735 60.9886H283.687C283.678 61.098 283.549 61.2935 283.501 61.154C283.488 61.1124 283.501 60.9779 283.494 60.9199C283.433 60.368 282.82 60.2374 282.598 59.7892C282.531 59.6527 282.428 59.2598 282.425 59.0818C282.255 59.2773 282.329 59.3528 282.329 59.5831C282.182 59.5704 282.082 59.4447 281.996 59.344C281.996 59.5753 281.972 59.6363 281.924 59.8445H281.876C281.771 59.3972 281.236 59.3576 280.903 59.6092C280.57 59.8581 280.426 60.1967 280.371 60.6266C280.34 60.8685 280.314 61.1336 280.428 61.3187C280.73 61.8209 281.514 62.4181 281.685 61.6796C281.88 61.8229 281.7 62.3378 281.549 62.4733C281.47 62.5459 281.411 62.5295 281.352 62.6098C281.501 62.6485 281.643 62.907 281.692 63.0588C281.746 63.2371 281.731 63.5401 281.775 63.7365C281.808 63.8719 281.856 63.901 281.902 63.9949C281.924 64.0375 281.939 64.083 281.884 64.1158C281.834 64.1469 281.814 64.115 281.755 64.0927C281.499 63.996 281.49 64.0587 281.186 63.8971C281.216 64.2534 281.365 64.4499 281.398 64.7577C281.418 64.9464 281.396 65.112 281.343 65.2466C281.302 65.3548 281.208 65.4789 281.116 65.5417C281.116 65.3964 281.092 65.3684 281.092 65.2319L281.052 65.3122C281.041 65.3432 281.039 65.3529 281.028 65.382C280.978 65.4981 280.568 66.2454 280.52 66.2802C280.443 66.0944 280.551 65.6858 280.402 65.4701C280.314 65.837 280.194 66.0509 279.942 66.2985C279.801 66.4381 279.626 66.5435 279.462 66.6518C279.225 66.8106 279.16 66.9491 279.151 66.8165C279.133 66.5879 279.162 66.4322 279.162 66.2561C278.862 66.4582 278.871 66.6809 278.757 66.7564C278.757 66.5232 278.779 66.2174 278.853 66.0653C278.798 66.0798 278.717 66.1399 278.68 66.1795L278.314 66.5997C278.231 66.7061 278.176 66.7971 278.097 66.9056C278.023 67.0101 277.968 67.1195 277.896 67.2278C277.754 67.4378 277.69 67.7119 277.493 67.8735C277.143 68.1599 277.053 68.1203 276.906 68.217C276.757 68.3147 276.915 68.339 276.829 68.7107C276.707 68.7107 276.674 68.6816 276.608 68.6225C276.551 68.5694 276.507 68.523 276.453 68.4677C276.38 68.3942 276.376 68.3554 276.319 68.2916C276.258 68.2229 276.19 68.2237 276.08 68.2472C275.64 68.3438 275.717 68.5016 275.09 68.4493C275.053 68.6024 275.025 68.7901 274.876 68.8308C274.773 68.7553 274.746 68.553 274.724 68.3845C274.694 68.1415 274.643 68.2025 274.49 68.0468C274.453 68.0061 274.473 68.0129 274.4 67.9934C274.37 67.9847 274.321 67.9798 274.28 67.9713C274.065 67.9276 273.901 67.7777 273.73 67.6624C273.601 67.7322 273.445 67.8289 273.253 67.8289C273.053 67.5279 273.312 67.4601 273.314 67.2577C273.318 67.0613 273.207 67.0545 273.334 66.5997C273.463 66.1419 273.717 66.0139 274.219 65.9356C274.622 65.8737 275 65.9433 275.279 65.8757C275.561 65.807 275.883 65.6946 276.111 65.5417C276.264 65.4402 276.409 65.3277 276.523 65.1912L276.86 64.7413C277.21 64.2147 277.372 63.509 277.245 62.8819C277.156 62.4529 277.07 62.0609 276.904 61.6728C276.746 61.2953 276.54 60.9895 276.446 60.5839C276.234 60.7252 276.199 60.9615 276.137 60.9973C276.065 61.0398 276.03 61.0194 276.019 60.944C276.008 60.8694 276.052 60.8617 276.036 60.7331C276.012 60.5491 275.898 60.4078 275.898 60.2026C275.704 60.2481 275.495 60.4251 275.303 60.3225C275.316 60.158 275.436 60.1116 275.48 59.9519C275.57 59.6151 275.382 59.2821 275.491 58.9608C275.533 58.833 275.655 58.7401 275.684 58.6307C275.574 58.6007 275.233 58.2223 275.351 58.1061C275.489 58.0412 275.581 58.2037 275.846 57.9569C276.012 57.8021 276.008 57.7566 276.065 57.5098C275.905 57.5137 275.583 57.5997 275.445 57.533C275.458 57.4024 275.469 57.4836 275.552 57.3762C275.629 57.2764 275.671 57.1401 275.728 57.0288C275.76 56.9678 275.785 56.9251 275.82 56.8575C275.909 56.6803 276.023 56.5399 276.139 56.3929C276.442 56.0192 277.27 55.7132 277.471 55.4133C277.298 55.4277 277.162 55.5323 276.974 55.5323C277.005 55.3949 277.134 55.3028 277.25 55.2381C277.684 55.001 277.484 55.0784 277.988 54.8817C278.065 54.8509 278.119 54.8354 278.196 54.8034C278.281 54.7687 278.312 54.7387 278.376 54.7212C278.356 54.7085 277.889 54.5237 277.828 54.2924C277.927 54.3001 278.062 54.3427 278.165 54.36C278.444 54.4086 278.995 54.4589 279.206 54.2865C279.359 54.1607 279.51 54.0669 279.672 53.944C280.121 53.606 280.123 53.5848 280.513 53.1899L281.181 52.4495C281.219 52.4147 281.26 52.3876 281.284 52.3624C281.376 52.2664 281.444 51.8987 281.47 51.7613C281.492 51.6335 281.534 51.5493 281.492 51.438C281.418 51.2452 281.3 50.7671 281.146 50.591C281.074 50.5078 281.035 50.4477 280.967 50.3654C280.897 50.2812 280.831 50.2552 280.754 50.1747C280.502 49.9192 280.023 49.7798 279.688 49.6453C279.526 49.5806 279.501 49.5523 279.401 49.6193C279.355 49.6492 279.331 49.6648 279.282 49.6937C279.013 49.8601 279.044 49.8138 279.138 49.5707C279.243 49.2988 278.807 49.387 278.59 48.9783C278.426 49.0665 278.286 49.0965 278.1 49.1536C277.979 49.1914 277.059 49.2813 276.939 49.2494C276.77 49.2058 276.602 49.14 276.455 49.11C275.625 48.9436 274.954 48.3774 274.53 48.5844C274.457 48.6183 274.4 48.6754 274.332 48.7209C274.251 48.7751 274.214 48.8031 274.142 48.8613C273.645 49.2592 273.632 48.9707 273.526 49.5351C273.494 49.7208 273.52 49.9319 273.485 50.1351C273.402 50.5938 273.375 50.5319 273.161 50.8126C273.012 51.0053 272.935 51.1746 272.74 51.347C272.626 51.4487 272.613 51.6547 272.541 51.7902C272.407 51.7873 272.416 51.7602 272.366 51.6556C272.328 51.5793 272.302 51.5231 272.271 51.4399C272.186 51.193 272.098 50.2018 271.709 50.169C271.709 50.442 271.695 50.6452 271.684 50.9095C271.673 51.163 271.577 51.2879 271.408 51.3944C271.146 51.5609 271.303 51.3914 271.119 51.8687C271.102 51.917 271.084 51.9654 271.065 52.0052C271.041 52.0575 271.003 52.0931 270.99 52.1203C270.931 52.248 271.03 52.2887 270.896 52.3836C270.778 52.4668 270.609 52.5046 270.489 52.5122C270.478 52.5122 270.471 52.5133 270.464 52.5133L270.456 52.5162C270.383 52.5346 270.153 52.7058 269.742 52.7737L269.231 52.8395C269.03 52.8454 268.695 52.9285 268.612 52.8152C268.522 52.8811 268.583 52.9102 268.377 52.885C268.233 52.8666 267.985 52.8734 267.843 52.8211L267.744 52.8047C267.387 52.8259 267.234 52.6702 267.179 52.6586C267.094 52.6431 267.091 52.6778 266.947 52.6216L266.564 52.4097C266.505 52.3661 266.445 52.3477 266.391 52.2974C266.239 52.1629 266.209 51.8435 266.117 51.6655C265.994 51.4292 265.915 51.8387 265.81 51.1127C265.793 50.9897 265.788 50.6559 265.804 50.528C265.841 50.225 265.898 50.4836 265.801 50.0741C265.723 49.744 265.723 49.3432 265.753 48.9764C265.782 48.6019 265.76 48.2283 265.817 47.847C265.843 47.661 265.834 47.4821 265.861 47.2953C265.885 47.1181 265.931 46.9873 265.946 46.8083C265.766 46.7609 265.867 46.4183 265.874 46.2838C265.885 46.0668 265.885 45.7785 266.102 45.6748C266.222 45.6157 266.154 45.642 266.193 45.4125C266.224 45.2432 266.202 45.0089 266.351 44.9498C266.454 44.9103 266.59 44.9103 266.719 44.8879C266.912 44.856 266.881 44.8348 267.017 44.9258C267.135 44.7659 267.648 44.8628 267.852 44.7339C267.946 44.7678 267.854 44.7379 267.946 44.8046C268.053 44.7263 267.928 44.7466 268.084 44.7051C268.145 44.6895 268.198 44.6884 268.281 44.6856C268.5 44.676 268.438 44.616 268.614 44.7339C268.625 44.6265 268.601 44.672 268.747 44.6537L269.304 44.6392C269.328 44.7223 269.312 44.6924 269.376 44.7339C269.413 44.6768 269.404 44.7088 269.424 44.6392C269.58 44.6392 270.136 44.6884 270.186 44.8772H270.234C270.259 44.8201 270.305 44.8241 270.368 44.8317C270.946 44.9092 270.806 45.0312 270.806 45.6157C270.918 45.6391 270.949 45.5973 271.012 45.7437C271.089 45.9237 271.102 46.1374 271.187 46.3059C271.229 46.3921 271.26 46.4627 271.26 46.5924C271.47 46.4522 271.619 46.2101 271.79 46.0272C271.895 45.9139 271.943 45.8559 272.03 45.7214C272.074 45.6527 272.103 45.612 272.142 45.5462C272.173 45.4939 272.204 45.432 272.236 45.3786C272.304 45.2692 272.405 45.185 272.515 45.1106C272.668 45.0069 272.723 45.0002 272.918 45.0776C273.702 45.3893 273.421 45.9642 273.607 46.151C273.853 46.3999 274.381 46.4299 274.727 46.5082C275.055 46.5837 275.344 46.5577 275.504 46.5596C275.765 46.5633 275.973 46.5227 276.26 46.5227C276.242 46.3214 276.12 46.1762 276.017 46.0515C275.947 45.9681 275.769 45.7115 275.758 45.5936C275.721 45.6188 275.719 45.6275 275.677 45.6536C275.546 45.7397 275.322 45.9865 275.189 45.9981L275.255 45.8268C275.388 45.3506 275.25 44.9798 275.158 44.5027C275.103 44.2173 275.073 44.0197 275.121 43.6896C275.136 43.5715 275.169 43.4389 275.202 43.3199C275.239 43.2007 275.281 43.1099 275.307 42.9947C275.182 43.0789 275.127 43.1156 274.968 43.1786L274.593 43.3276C274.613 43.2482 274.661 43.225 274.718 43.1679C275.042 42.8514 275.261 42.3093 275.261 41.8506C275.145 41.7896 275.029 41.7441 274.915 41.6695C274.81 41.5988 274.703 41.5321 274.611 41.4507C274.554 41.4004 274.536 41.3744 274.488 41.3125L274.116 40.9205C274.24 40.8922 274.319 40.8962 274.473 40.8971C274.558 40.8971 274.775 40.9426 274.74 40.8264C274.643 40.5042 274.028 40.3686 273.693 40.0588C273.612 39.9864 273.502 39.909 273.474 39.8005C273.559 39.7423 273.605 39.7733 273.704 39.7211C273.752 39.6959 273.743 39.6959 273.759 39.6804C273.649 39.6804 273.575 39.6939 273.498 39.6572C273.507 39.543 273.511 39.5846 273.59 39.5362C273.739 39.4452 273.785 39.3358 273.785 39.1335L273.393 38.8093C273.034 38.5131 272.869 37.3855 272.331 36.9169C272.037 37.1125 271.792 37.3826 271.38 37.4677C271.235 37.4977 271.027 37.5375 270.861 37.5064C270.618 37.462 270.655 37.4251 270.331 37.7978C270.326 37.7939 270.32 37.791 270.316 37.7882L270.302 37.7794L270.289 37.7687L270.232 37.7059C270.213 37.6672 270.21 37.613 270.221 37.5462C270.287 37.0729 270.37 37.3544 270.296 36.9268C270.267 36.7544 270.305 36.7417 270.307 36.6063C270.134 36.7224 270.04 36.7679 269.764 36.6973C269.558 36.6441 269.457 36.6034 269.306 36.4873C269.24 36.4378 269.194 36.3884 269.133 36.3265C269.056 36.2491 269.054 36.2219 269.004 36.1213C268.923 35.9568 268.826 35.861 268.734 35.7245C268.655 35.7623 268.421 35.7923 268.329 35.7477C268.23 35.649 268.357 35.4371 268.539 35.3161C268.756 35.1728 268.62 35.2443 268.754 35.077C268.831 34.9792 269.034 34.8495 269.163 34.8195C269.137 34.7071 269.074 34.5968 269.137 34.4623C268.973 34.4236 268.927 34.4013 268.806 34.319V34.1757C269.17 33.9318 269.104 34.1158 269.341 34.0519L269.38 34.0412L269.407 34.0325C269.415 34.0287 269.459 34.0045 269.479 33.9938C269.816 33.8225 270.245 33.8168 270.609 34.0403C270.716 34.1051 270.786 34.1738 270.881 34.2455C271.316 34.5697 272.241 33.8942 273.253 34.3984C273.402 34.4719 273.759 34.7933 273.91 34.9326L274.271 35.2627C274.398 35.3625 274.403 35.4023 274.503 35.5057L275.456 36.4582C275.739 36.7437 276.891 37.728 277.173 37.4977C277.333 37.3662 277.76 36.8609 278.01 36.6885L278.428 36.4166C278.343 36.4098 277.881 36.3129 277.714 36.3923C277.723 36.2926 277.703 36.3381 277.773 36.2849L278.43 35.8212C278.82 35.6171 279.315 35.6665 279.484 35.588C280.104 35.2958 280.454 35.3568 281.087 35.5202C281.343 35.5871 281.381 35.5348 281.646 35.5348L281.501 35.5117C281.523 35.4331 281.501 35.4718 281.569 35.4351C281.659 35.3857 281.725 35.404 281.81 35.2726C280.894 35.2726 281 34.9685 280.38 34.9849C280.253 34.9888 280.132 35.0343 280.049 35.0827C279.85 35.1969 279.613 35.3006 279.355 35.2474C279.199 35.2155 279.363 35.0954 279.405 35.0343C279.252 35.0702 278.838 35.1601 278.737 35.0101C278.803 34.9221 278.954 34.9346 279.037 34.8108C279.179 34.6036 279.129 34.3123 279.35 34.1215C279.405 34.0751 279.436 34.0675 279.495 34.0277C279.556 33.99 279.58 33.9706 279.644 33.9367C279.644 33.7218 279.482 33.6164 279.607 33.4228C279.639 33.3705 279.639 33.3878 279.674 33.325C279.76 33.173 279.793 33.1507 280.001 33.1507C280.001 32.9311 280.016 32.6504 280.288 32.6504C280.358 32.8005 280.356 33.0597 280.415 33.2369C280.478 33.4189 280.643 33.4788 280.791 33.5757C281.409 33.9784 281.992 33.9822 281.979 33.1507C281.974 32.9455 281.933 32.7499 281.803 32.6097C281.346 32.1035 281.262 32.2737 280.905 32.1024L280.877 32.1499C280.877 32.1499 280.837 32.179 280.824 32.1877C280.678 32.3 280.732 32.4848 280.5 32.4848C280.439 32.391 280.369 32.2468 280.358 32.1035C280.255 32.1064 280.259 32.1248 280.145 32.1287C279.372 32.1519 279.777 31.8334 279.543 31.5855C279.368 31.4007 279.392 31.3097 279.374 31.1036C279.37 31.0446 279.339 31.0194 279.311 30.9372C279.23 30.7048 279.006 30.548 279.438 30.3979C279.692 30.3098 279.823 30.2004 280.029 30.0602C280.599 29.671 280.829 29.7863 281.475 29.8686C281.665 29.8926 282.309 30.0506 282.491 29.9237C282.541 29.8878 282.531 29.8491 282.563 29.7804C282.614 29.6634 282.905 29.3943 283.008 29.2974C283.087 29.2228 283.181 29.1756 283.28 29.1145C283.577 28.9325 283.864 28.7322 284.224 28.6779C285.373 28.5066 285.781 28.8571 286.558 29.0235C287.007 29.1202 287.507 29.125 287.932 28.9548C288.002 28.9257 288.006 28.9054 288.078 28.8862C288.074 29.0021 288.021 29.0806 287.969 29.1589C287.899 29.2646 287.844 29.2683 287.791 29.3401C288.138 29.5054 288.777 29.4059 289.125 30.1249C289.158 30.1936 289.184 30.2654 289.149 30.34C289.04 30.3109 289.106 30.2846 288.974 30.2538C288.843 30.2218 288.429 30.2925 288.245 30.2925C288.354 30.457 288.427 30.3872 288.698 30.8634C289.06 31.4928 289.314 31.9456 289.822 32.4306C290.155 32.7482 290.348 32.9368 290.864 33.0568V33.1286C290.72 33.1286 290.615 33.1614 290.468 33.1837C290.348 33.201 290.209 33.1992 290.054 33.1992C290.137 33.3222 290.251 33.4383 290.326 33.5729C290.407 33.721 290.464 33.8467 290.516 34.0248C290.676 34.564 290.58 34.7585 290.58 35.2008L290.466 35.0044C290.358 34.8467 290.205 34.6511 290.008 34.6045C290.374 35.1505 290.595 36.0585 290.367 36.7292C290.321 36.8697 290.216 37.2083 290.142 37.338C290.089 37.4301 290.118 37.3564 290.074 37.4349C290.041 37.4909 290.01 37.6119 289.993 37.6884C289.905 38.0776 290.072 38.3515 290.245 38.6796C289.988 38.6197 289.807 38.5015 289.603 38.393C289.603 38.8655 289.491 38.9758 289.399 39.333C289.276 39.8101 289.607 40.2535 289.246 40.0619C289.436 40.8826 288.88 41.3094 288.396 41.8554C288.118 42.1652 287.864 42.5068 287.864 42.9452C287.781 42.9144 287.855 42.9763 287.791 42.8746C287.669 42.679 287.601 42.4885 287.601 42.2299L287.478 42.4158C287.362 42.6103 287.277 42.8155 287.22 43.0393C287.185 43.1747 287.108 43.6509 287.126 43.8261C287.134 43.9383 287.169 43.9423 287.172 44.0652C287.113 44.0206 287.049 43.9025 287.001 43.8309C286.823 43.5676 286.624 43.4138 286.624 42.9927C286.442 43.2018 286.087 43.5842 285.952 43.7981C285.715 44.1726 285.766 44.6915 286.149 44.7805C286.055 44.9199 285.774 44.8851 285.623 44.8763C285.229 44.854 285.336 44.7825 285.124 44.7331C285.141 44.9315 285.404 45.6516 285.52 45.8607C285.693 46.1713 285.93 46.457 286.142 46.7416C286.587 47.3388 286.972 47.8605 287.367 48.5177C287.465 48.6841 287.559 48.8274 287.649 48.9987C287.735 49.1652 287.833 49.3124 287.919 49.4904C288.006 49.6716 288.072 49.8437 288.148 50.0229C288.223 50.1913 288.295 50.3799 288.361 50.5514C288.571 51.1155 288.751 51.6906 288.893 52.283C288.937 52.4746 288.963 52.6934 289.016 52.8986C289.379 54.3456 289.688 55.4713 290.453 56.7538L290.742 57.202C291.114 57.6763 291.872 58.3365 292.38 58.588C292.698 58.7458 293.057 58.954 293.431 59.0382C293.536 59.0614 293.994 59.1117 294.117 59.0953C294.59 59.0303 294.866 59.0187 295.319 58.7952C295.812 58.5522 296.283 58.2735 296.618 57.8301C296.675 57.7546 296.651 57.7905 296.712 57.7342C296.789 57.6636 297.166 57.0432 297.229 56.9397C297.429 56.6077 297.556 56.2863 297.696 55.9068C297.755 55.755 297.853 55.4868 297.867 55.3144C297.875 55.1779 297.899 55.12 297.921 54.9883C298.059 54.1481 297.985 53.4387 297.821 52.6188C297.757 52.2926 297.564 51.8048 297.431 51.5086L297.161 51.0381C297.109 50.951 297.074 50.8804 297.015 50.8029C296.743 50.4361 296.274 49.8796 295.887 49.6444C295.324 49.3008 295.267 49.292 294.623 49.051L294.029 48.8825C293.666 48.8187 292.628 48.7742 292.358 48.9475C292.192 49.0538 292.371 49.2717 292.06 49.7674C291.581 50.5251 290.516 50.6297 289.721 50.3307C289.686 50.318 289.612 50.3083 289.655 50.2281C289.697 50.1583 289.89 50.1913 289.982 50.1913V50.1427C289.467 50.1427 288.661 49.5679 288.424 49.1264C288.35 48.9862 288.319 48.9444 288.269 48.783C288.219 48.6174 288.216 48.4993 288.238 48.3269C288.251 48.2263 288.245 48.1751 288.262 48.1296L288.273 48.1005L288.295 48.0522C288.315 48.0123 288.311 48.0154 288.339 47.9756C288.403 48.0211 288.433 48.0946 288.473 48.174C288.549 48.3252 288.795 48.5826 288.944 48.6802C289.178 48.8342 289.612 49.0249 289.912 49.0249C289.787 48.9164 289.314 48.4897 289.41 48.2853C289.522 48.2322 289.715 48.3435 289.835 48.3831C290.001 48.4383 290.082 48.4654 290.302 48.4905C290.442 48.5061 290.652 48.4393 290.792 48.4286C291.197 48.3976 291.602 48.4905 291.848 48.4586C292.275 48.4026 292.444 48.3947 292.888 48.3812C293.009 48.3772 293.02 48.3571 293.149 48.3551C293.898 48.3453 294.608 48.4431 295.247 48.7616L295.243 48.7635ZM265.083 60.8202C265.083 60.8202 264.249 60.8385 264.036 60.8385C261.244 60.8385 258.598 60.34 256.092 59.344C253.584 58.347 251.363 56.9706 249.425 55.2149C247.487 53.4579 245.951 51.3586 244.817 48.9136C243.682 46.4695 243.113 43.8242 243.113 40.9756C243.113 37.9855 243.645 35.2435 244.709 32.7519C245.774 30.2606 247.237 28.1002 249.105 26.2725C250.973 24.4442 253.183 23.0328 255.737 22.0369C258.289 21.0409 261.031 20.5406 263.964 20.5406C266.897 20.5406 269.825 21.1116 272.473 22.2528C275.121 23.394 277.438 24.9631 279.423 26.9598L284.388 21.1116C281.788 18.4982 278.75 16.4393 275.276 14.9411C271.801 13.4437 268.053 12.6954 264.036 12.6954C260.251 12.6954 256.635 13.3847 253.186 14.7639C249.734 16.1442 246.696 18.0567 244.072 20.5067C241.448 22.9556 239.367 25.8545 237.832 29.2075C236.294 32.5583 235.526 36.1852 235.526 40.0831C235.526 43.981 236.259 47.8218 237.725 51.317C239.19 54.8111 241.201 57.8427 243.752 60.4107C246.306 62.9777 249.309 64.9996 252.759 66.4718C256.21 67.9459 259.945 68.6836 263.964 68.6836C264.341 68.6836 265.083 68.6556 265.083 68.6556V60.8202ZM262.295 5.34887C263.429 5.34887 264.362 5.18328 265.096 4.85034C265.828 4.51741 266.384 4.07794 266.763 3.53106C267.14 2.98419 267.4 2.40144 267.543 1.78391C267.685 1.16539 267.755 0.571091 267.755 0H275.912C275.769 1.09377 275.46 2.24656 274.987 3.45931C274.514 4.67119 273.759 5.78922 272.718 6.81231C271.678 7.83453 270.318 8.67847 268.64 9.34434C266.962 10.0104 264.846 10.3423 262.293 10.3423C259.741 10.3423 257.623 10.0104 255.945 9.34434C254.268 8.67847 252.907 7.83541 251.869 6.81231C250.827 5.78922 250.071 4.67119 249.598 3.45931C249.125 2.24656 248.818 1.09377 248.678 0H256.832C256.832 0.571091 256.905 1.16539 257.045 1.78391C257.187 2.40231 257.446 2.98506 257.825 3.53106C258.203 4.07881 258.758 4.51828 259.491 4.85034C260.223 5.18328 261.158 5.34887 262.295 5.34887ZM29.1178 59.9132C29.1178 59.9132 28.2964 59.9305 28.0855 59.9305C25.3361 59.9305 22.7279 59.4398 20.2609 58.4583C17.791 57.4768 15.6027 56.1207 13.694 54.3911C11.7843 52.6603 10.2712 50.5921 9.15285 48.1838C8.03452 45.7756 7.47631 43.1699 7.47631 40.3637C7.47631 37.4183 8.00065 34.7178 9.04838 32.2621C10.0961 29.8084 11.5395 27.6811 13.3796 25.8797C15.2186 24.0793 17.3963 22.6883 19.9117 21.7068C22.4259 20.7263 25.1271 20.2337 28.0148 20.2337C30.9026 20.2337 33.7895 20.795 36.3977 21.9207C39.0058 23.0447 41.2881 24.5895 43.2431 26.5571L48.1335 20.7961C45.5717 18.2214 42.5794 16.1945 39.1567 14.7195C35.733 13.2433 32.0413 12.5066 28.0844 12.5066C24.3579 12.5066 20.7949 13.1862 17.3954 14.5442C13.9958 15.9031 11.0036 17.7877 8.41761 20.1998C5.83361 22.6128 3.78362 25.4682 2.27056 28.7709C0.756532 32.0725 0 35.6451 0 39.485C0 43.3248 0.721703 47.1074 2.16608 50.5514C3.60948 53.9932 5.58981 56.9793 8.10417 59.5096C10.6195 62.0377 13.576 64.0299 16.9765 65.4798C20.3751 66.9316 24.0552 67.6585 28.0139 67.6585C28.3845 67.6585 29.1167 67.6305 29.1167 67.6305L29.1178 59.9132ZM26.3703 5.26947C27.4876 5.26947 28.4066 5.10672 29.1302 4.77772C29.8511 4.45047 30.3986 4.01691 30.7721 3.47769C31.1435 2.93869 31.4 2.36469 31.5402 1.7568C31.6795 1.14798 31.7502 0.562362 31.7502 0H39.7836C39.6443 1.0773 39.3405 2.21375 38.8742 3.40703C38.409 4.60053 37.663 5.70216 36.6395 6.71059C35.6149 7.71728 34.276 8.54875 32.6237 9.20412C30.9703 9.86037 28.8856 10.1874 26.3703 10.1874C23.8548 10.1874 21.7711 9.86037 20.1187 9.20412C18.4654 8.54875 17.1255 7.71728 16.1019 6.71059C15.0774 5.70216 14.3315 4.60162 13.8662 3.40703C13.4009 2.21266 13.0981 1.0773 12.9578 0H20.9913C20.9913 0.562362 21.061 1.14798 21.2012 1.7568C21.3406 2.36556 21.596 2.93869 21.9695 3.47769C22.3418 4.01603 22.8885 4.45047 23.611 4.77772C24.3327 5.10672 25.2529 5.26947 26.3703 5.26947ZM56.7746 61.245H84.8369V67.9595H50.1255V22.426H82.1532V29.1406H56.7746V42.9791C58.1571 42.1739 59.56 41.6793 60.9838 41.4982C62.406 41.3173 63.8708 41.2252 65.3762 41.2252H75.3203V47.9397H65.3762C63.9124 47.9397 62.4572 48.0511 61.0138 48.2746C59.5705 48.4973 58.1571 48.9735 56.7746 49.7024V61.245Z" fill="black"/>
</g>
<defs>
<clipPath id="clip0_2374_81">
<rect width="449" height="70" fill="white"/>
</clipPath>
</defs>
</svg>
