<svg width="205" height="50" viewBox="0 0 205 50" fill="none" xmlns="http://www.w3.org/2000/svg">
<path fill-rule="evenodd" clip-rule="evenodd" d="M57.5084 33.7331C57.5084 34.7751 57.2721 35.7194 56.7986 36.5654C56.3251 37.4123 55.6745 38.1283 54.8485 38.7141C54.0221 39.2995 53.0424 39.7509 51.9099 40.0672C50.7774 40.3836 49.5517 40.5416 48.2336 40.5416C47.435 40.5416 46.6409 40.4429 45.852 40.246C45.0622 40.0491 44.2968 39.7677 43.5543 39.4017C42.8113 39.0354 42.1099 38.5854 41.4513 38.0508C40.7919 37.5163 40.2022 36.9141 39.6823 36.2446L41.855 34.2079C42.1333 34.5428 42.4677 34.9008 42.8573 35.2822C43.2473 35.6641 43.7075 36.0172 44.2362 36.3424C44.7654 36.6681 45.3595 36.938 46.0194 37.1517C46.6784 37.3659 47.4165 37.4725 48.2336 37.4725C48.9947 37.4725 49.7473 37.3986 50.4894 37.2499C51.2323 37.1017 51.8913 36.8752 52.4669 36.569C53.0424 36.2632 53.5071 35.8743 53.8596 35.4021C54.212 34.9291 54.3892 34.3689 54.3892 33.7203C54.3892 32.9238 54.2076 32.3127 53.8459 31.8862C53.4837 31.46 53.0141 31.1494 52.4391 30.9556C51.8631 30.7609 51.2036 30.645 50.4616 30.6083C49.7186 30.5711 48.9757 30.5525 48.2332 30.5525C45.7265 30.5525 43.8224 30.106 42.5229 29.2131C41.223 28.3202 40.5732 26.9719 40.5732 25.167C40.5732 24.3303 40.7636 23.5166 41.1448 22.7259C41.5247 21.9351 42.0542 21.2378 42.7323 20.6329C43.4098 20.0285 44.2173 19.5453 45.155 19.182C46.0927 18.8192 47.1188 18.6377 48.2327 18.6377C49.8105 18.6377 51.2867 18.8798 52.6612 19.3634C54.0354 19.8471 55.3441 20.7028 56.5884 21.9303L54.6944 24.1626C54.1374 23.7161 53.6122 23.3352 53.1206 23.0188C52.6285 22.7024 52.1321 22.4466 51.6307 22.2515C51.1294 22.0564 50.6042 21.917 50.057 21.8329C49.5093 21.7493 48.901 21.7073 48.2327 21.7073C47.6382 21.7073 47.0808 21.8006 46.5614 21.986C46.0415 22.1723 45.5865 22.4232 45.1965 22.7396C44.8065 23.0559 44.4999 23.4237 44.2773 23.8418C44.0547 24.2604 43.943 24.6927 43.943 25.1392C43.943 25.4555 44.0079 25.7578 44.1377 26.0458C44.2681 26.3348 44.4999 26.5901 44.8348 26.8135C45.1682 27.0365 45.6188 27.214 46.1855 27.3436C46.7517 27.4737 47.4805 27.5388 48.3723 27.5388C50.1912 27.5388 51.6913 27.6781 52.8702 27.9573C54.0491 28.2361 54.9819 28.6405 55.6692 29.1711C56.356 29.7012 56.834 30.3525 57.1038 31.1238C57.3728 31.8963 57.5076 32.7658 57.5076 33.7326M63.493 40.0668H60.4568V19.2519H63.493V34.7937L74.0492 19.2519H77.6977L70.8738 29.0459L74.6062 34.6548C75.2559 35.622 75.8456 36.2641 76.3748 36.58C76.9039 36.8964 77.3911 37.0362 77.8368 36.9986L78.7008 36.9707V40.0677H77.6142C77.131 40.0677 76.6716 40.0398 76.2352 39.9841C75.7988 39.9283 75.3673 39.7933 74.9397 39.5792C74.5126 39.3659 74.0766 39.0398 73.6305 38.6026C73.1853 38.1654 72.7206 37.5566 72.2378 36.7752L69.0903 31.7251L63.4917 40.0677L63.493 40.0668ZM88.6717 28.4034C89.9619 27.064 91.0993 25.6131 92.0834 24.0502C93.0675 22.4878 93.8564 20.8882 94.4509 19.2506H97.9324C96.9297 21.5944 95.7831 23.725 94.4924 25.6405C93.2018 27.5569 91.7671 29.3613 90.1894 31.0538V40.0664H87.1531V31.0538C85.5745 29.3613 84.1403 27.5569 82.8501 25.6405C81.559 23.725 80.4124 21.5949 79.4097 19.2506H82.8912C83.4857 20.8878 84.2746 22.4874 85.2591 24.0502C86.2428 25.6131 87.3802 27.0635 88.6713 28.4034H88.6717ZM147.291 40.0734V13.2301H151.207V36.1159H166.077V40.0743H147.292L147.291 40.0734ZM170.603 36.9557H183.697V40.092H167.5V18.8209H182.444V21.9577H170.603V28.4228C171.247 28.0463 171.903 27.8153 172.568 27.7308C173.23 27.6463 173.915 27.6034 174.616 27.6034H179.257V30.7397H174.616C173.933 30.7397 173.254 30.7919 172.581 30.8963C171.908 31.0007 171.247 31.2229 170.603 31.5636V36.9561V36.9557ZM196.091 40.092H192.419L183.651 18.82H187.01L194.269 36.6137L201.584 18.82H205L196.091 40.092ZM126.458 34.3862L126.456 34.3986L126.447 34.3862H126.458ZM123.424 26.2803L123.422 26.2932L123.413 26.2803H123.424H123.424ZM134.799 31.2919C135.059 31.4211 135.291 31.5795 135.51 31.7676L135.623 31.8831C135.688 31.9499 135.746 32.0216 135.795 32.1025C135.831 32.1627 135.86 32.1972 135.895 32.2525C136 32.4163 136.142 32.7804 136.197 32.9742C136.309 33.3645 136.262 33.2937 136.313 33.6326C136.329 33.7459 136.314 33.8764 136.311 33.9942L136.279 34.3433C136.26 34.5849 136.124 34.9105 136.017 35.1163C135.96 35.2256 135.883 35.3291 135.821 35.4327C135.709 35.6212 135.575 35.7128 135.468 35.8521C135.392 35.9508 135.291 36.0185 135.19 36.0858C135.05 36.1796 134.835 36.2694 134.674 36.3318C134.515 36.3942 134.185 36.4097 133.992 36.3822C133.915 36.3707 133.853 36.3601 133.78 36.3433C133.699 36.3243 133.644 36.3145 133.571 36.292C133.254 36.1911 132.909 36.0052 132.642 35.8057L132.431 35.6362C132.347 35.5659 132.256 35.4605 132.175 35.3805C132.018 35.2265 131.865 34.9605 131.775 34.757C131.729 34.6539 131.625 34.5203 131.601 34.4194C131.528 34.5034 131.478 34.6176 131.427 34.7136C131.518 34.7136 131.565 34.7238 131.633 34.7689C131.656 34.7849 131.663 34.784 131.666 34.8225C131.577 34.8242 131.478 34.8858 131.46 34.9535C131.516 34.9583 131.602 35.0048 131.64 35.034C131.686 35.0685 131.726 35.1189 131.758 35.1667C131.794 35.2207 131.814 35.2902 131.849 35.3371C131.882 35.3809 131.933 35.43 131.993 35.4442C131.989 35.4897 131.991 35.4765 131.956 35.4946L131.778 35.5561C131.7 35.5712 131.587 35.5844 131.547 35.6406C131.635 35.661 131.695 35.7442 131.75 35.807C131.775 35.8358 131.839 35.9508 131.749 35.8973C131.678 35.8544 131.62 35.8181 131.525 35.8256C131.457 35.8313 131.368 35.8738 131.326 35.9097C131.252 35.9734 131.244 36.0154 131.287 36.1181C131.352 36.2752 131.426 36.3291 131.563 36.4305C131.597 36.4566 131.605 36.4703 131.64 36.4946C131.8 36.6044 132 36.6185 132.179 36.684C132.396 36.7628 132.388 37.0721 132.478 37.2561C132.496 37.2929 132.501 37.3238 132.54 37.3358C132.58 37.3482 132.642 37.3393 132.667 37.3296C132.849 37.2575 132.879 37.0137 132.895 36.98C132.965 36.9818 132.967 37.0207 132.987 37.0827C133.036 37.2291 133.021 37.4106 132.949 37.5464C133.066 37.5464 133.174 37.5858 133.221 37.6553C133.18 37.6663 133.126 37.7084 133.101 37.742L133.003 37.8513C133.036 37.9004 133.069 37.9137 133.105 37.9783C133.203 38.1562 133.183 38.3486 133.166 38.5486H133.145C133.134 38.5035 133.112 38.484 133.069 38.4725C133.069 38.7177 132.923 39.0739 132.98 39.2588C132.999 39.3203 133.047 39.4133 133.112 39.4314V39.4641C133.041 39.481 132.979 39.4668 132.925 39.434C132.878 39.4053 132.849 39.3522 132.808 39.3225C132.803 39.3809 132.76 39.484 132.736 39.5332C132.718 39.569 132.703 39.5951 132.69 39.6287C132.677 39.6628 132.67 39.6956 132.656 39.7256C132.599 39.7243 132.596 39.7137 132.581 39.6699L132.547 39.5836C132.529 39.6619 132.468 39.7615 132.424 39.8203C132.374 39.8876 132.304 39.931 132.245 39.9898C132.224 40.0106 132.214 40.0168 132.193 40.0354C132.179 40.0487 132.165 40.0664 132.153 40.0818C132.096 40.1518 132.078 40.2367 132.04 40.3172C131.961 40.481 131.899 40.6257 131.725 40.7097C131.611 40.765 131.453 40.7478 131.332 40.7624C131.184 40.7801 131.241 40.9279 131.133 41C131.012 40.9358 131.033 40.8332 131.057 40.7274C131.018 40.669 130.99 40.6637 130.981 40.5642C130.923 40.5642 130.816 40.5575 130.778 40.5779C130.729 40.604 130.731 40.6575 130.676 40.6947C130.604 40.6752 130.622 40.5996 130.622 40.5093C130.579 40.4872 130.562 40.4841 130.557 40.4221C130.522 40.4389 130.497 40.4332 130.448 40.4332C130.43 40.3894 130.462 40.4314 130.437 40.3783C130.395 40.3894 130.385 40.4111 130.369 40.4518C130.351 40.4965 130.355 40.5075 130.296 40.5088C130.286 40.4686 130.279 40.4792 130.275 40.4327C130.266 40.3376 130.291 40.2942 130.309 40.2093C130.316 40.1779 130.312 40.0991 130.318 40.0518C130.336 39.9217 130.407 39.788 130.499 39.6995C130.561 39.6402 130.652 39.5987 130.733 39.5854C130.846 39.5668 130.954 39.5787 131.052 39.5986C131.155 39.619 131.235 39.6597 131.315 39.5584C131.341 39.527 131.405 39.3429 131.415 39.2991C131.453 39.1438 131.458 38.9703 131.459 38.8093C131.459 38.7367 131.449 38.7053 131.448 38.6464C131.445 38.5327 131.447 38.4287 131.399 38.3362C131.374 38.2889 131.366 38.2562 131.338 38.2119C131.199 38 130.986 37.8513 130.809 37.6734L130.426 37.3491C130.392 37.3278 130.36 37.2946 130.328 37.273C130.309 37.3544 130.247 37.4473 130.154 37.4473C130.13 37.3424 130.128 37.2491 130.048 37.1291C130.039 37.1168 130.031 37.1079 130.023 37.0986C130.023 37.1827 130.005 37.3358 129.936 37.3818C129.904 37.3327 129.895 37.2787 129.862 37.2269C129.771 37.0822 129.578 37.0057 129.545 36.8805H129.523C129.519 36.9305 129.46 37.0199 129.438 36.9561C129.432 36.9371 129.438 36.8756 129.435 36.8491C129.407 36.5968 129.127 36.5371 129.026 36.3322C128.995 36.2698 128.948 36.0902 128.947 36.0088C128.869 36.0982 128.903 36.1327 128.903 36.238C128.836 36.2322 128.79 36.1747 128.751 36.1287C128.751 36.2344 128.74 36.2623 128.718 36.3575H128.696C128.648 36.153 128.404 36.1349 128.252 36.2499C128.1 36.3637 128.034 36.5185 128.009 36.715C127.995 36.8256 127.983 36.9468 128.035 37.0314C128.173 37.261 128.531 37.534 128.609 37.1964C128.698 37.2619 128.616 37.4973 128.547 37.5592C128.511 37.5924 128.484 37.5849 128.457 37.6216C128.525 37.6393 128.59 37.7575 128.612 37.8269C128.637 37.9084 128.63 38.0469 128.65 38.1367C128.665 38.1986 128.687 38.2119 128.708 38.2548C128.718 38.2743 128.725 38.2951 128.7 38.3101C128.677 38.3243 128.668 38.3097 128.641 38.2995C128.524 38.2553 128.52 38.284 128.381 38.2101C128.395 38.373 128.463 38.4628 128.478 38.6035C128.487 38.6898 128.477 38.7655 128.453 38.827C128.434 38.8765 128.391 38.9332 128.349 38.9619C128.349 38.8955 128.338 38.8827 128.338 38.8203L128.32 38.857C128.315 38.8712 128.314 38.8756 128.309 38.8889C128.286 38.942 128.099 39.2836 128.077 39.2995C128.042 39.2146 128.091 39.0278 128.023 38.9292C127.983 39.0969 127.928 39.1947 127.813 39.3079C127.749 39.3717 127.669 39.4199 127.594 39.4694C127.486 39.542 127.456 39.6053 127.452 39.5447C127.444 39.4402 127.457 39.369 127.457 39.2885C127.32 39.3809 127.324 39.4827 127.272 39.5172C127.272 39.4106 127.282 39.2708 127.316 39.2013C127.291 39.2079 127.254 39.2354 127.237 39.2535L127.07 39.4456C127.032 39.4942 127.007 39.5358 126.971 39.5854C126.937 39.6332 126.912 39.6832 126.879 39.7327C126.814 39.8287 126.785 39.954 126.695 40.0279C126.535 40.1588 126.494 40.1407 126.427 40.1849C126.359 40.2296 126.431 40.2407 126.392 40.4106C126.336 40.4106 126.321 40.3973 126.291 40.3703C126.265 40.346 126.245 40.3248 126.22 40.2995C126.187 40.2659 126.185 40.2482 126.159 40.219C126.131 40.1876 126.1 40.188 126.05 40.1987C125.849 40.2429 125.884 40.315 125.598 40.2911C125.581 40.3611 125.568 40.4469 125.5 40.4655C125.453 40.431 125.441 40.3385 125.431 40.2615C125.417 40.1504 125.394 40.1783 125.324 40.1071C125.307 40.0885 125.316 40.0916 125.283 40.0827C125.269 40.0787 125.247 40.0765 125.228 40.0726C125.13 40.0526 125.055 39.9841 124.977 39.9314C124.918 39.9633 124.847 40.0075 124.759 40.0075C124.668 39.8699 124.786 39.8389 124.787 39.7464C124.789 39.6566 124.738 39.6535 124.796 39.4456C124.855 39.2363 124.971 39.1778 125.2 39.142C125.384 39.1137 125.557 39.1455 125.684 39.1146C125.813 39.0832 125.96 39.0318 126.064 38.9619C126.134 38.9155 126.2 38.8641 126.252 38.8017L126.406 38.596C126.566 38.3553 126.64 38.0327 126.582 37.746C126.541 37.5499 126.502 37.3707 126.426 37.1933C126.354 37.0207 126.26 36.8809 126.217 36.6955C126.12 36.7601 126.104 36.8681 126.076 36.8845C126.043 36.9039 126.027 36.8946 126.022 36.8601C126.017 36.826 126.037 36.8225 126.03 36.7637C126.019 36.6796 125.967 36.615 125.967 36.5212C125.878 36.542 125.783 36.6229 125.695 36.576C125.701 36.5008 125.756 36.4796 125.776 36.4066C125.817 36.2526 125.731 36.1004 125.781 35.9535C125.8 35.8951 125.856 35.8526 125.869 35.8026C125.819 35.7889 125.663 35.6159 125.717 35.5628C125.78 35.5331 125.822 35.6074 125.943 35.4946C126.019 35.4238 126.017 35.403 126.043 35.2902C125.97 35.292 125.823 35.3313 125.76 35.3008C125.766 35.2411 125.771 35.2782 125.809 35.2291C125.844 35.1835 125.863 35.1212 125.889 35.0703C125.904 35.0424 125.915 35.0229 125.931 34.992C125.972 34.911 126.024 34.8468 126.077 34.7796C126.215 34.6088 126.593 34.4689 126.685 34.3318C126.606 34.3384 126.543 34.3862 126.457 34.3862C126.471 34.3234 126.531 34.2813 126.584 34.2517C126.782 34.1433 126.691 34.1787 126.921 34.0888C126.956 34.0747 126.981 34.0676 127.016 34.053C127.055 34.0371 127.069 34.0234 127.098 34.0154C127.089 34.0096 126.876 33.9251 126.848 33.8194C126.893 33.8229 126.955 33.8424 127.002 33.8503C127.129 33.8725 127.381 33.8955 127.477 33.8167C127.547 33.7592 127.616 33.7163 127.69 33.6601C127.895 33.5056 127.896 33.4959 128.074 33.3154L128.379 32.9769C128.396 32.961 128.415 32.9486 128.426 32.9371C128.468 32.8932 128.499 32.7251 128.511 32.6623C128.521 32.6039 128.54 32.5654 128.521 32.5145C128.487 32.4264 128.433 32.2078 128.363 32.1273C128.33 32.0893 128.312 32.0618 128.281 32.0242C128.249 31.9857 128.219 31.9738 128.184 31.937C128.069 31.8202 127.85 31.7565 127.697 31.695C127.623 31.6654 127.612 31.6525 127.566 31.6831C127.545 31.6968 127.534 31.7039 127.512 31.7171C127.389 31.7932 127.403 31.772 127.446 31.6609C127.494 31.5366 127.295 31.5769 127.196 31.3901C127.121 31.4304 127.057 31.4441 126.972 31.4702C126.917 31.4875 126.497 31.5286 126.442 31.514C126.365 31.4941 126.288 31.464 126.221 31.4503C125.842 31.3742 125.536 31.1154 125.342 31.21C125.309 31.2255 125.283 31.2516 125.252 31.2724C125.215 31.2972 125.198 31.31 125.165 31.3366C124.938 31.5185 124.932 31.3866 124.884 31.6446C124.869 31.7295 124.881 31.826 124.865 31.9189C124.827 32.1286 124.815 32.1003 124.717 32.2286C124.649 32.3167 124.614 32.3941 124.525 32.4729C124.473 32.5194 124.467 32.6136 124.434 32.6755C124.373 32.6742 124.377 32.6618 124.354 32.614C124.337 32.5791 124.325 32.5534 124.311 32.5154C124.272 32.4025 124.232 31.9494 124.054 31.9344C124.054 32.0592 124.048 32.1521 124.043 32.2729C124.038 32.3888 123.994 32.4459 123.917 32.4946C123.797 32.5707 123.869 32.4932 123.785 32.7114C123.777 32.7335 123.769 32.7556 123.76 32.7738C123.749 32.7977 123.732 32.814 123.726 32.8264C123.699 32.8848 123.744 32.9034 123.683 32.9468C123.629 32.9848 123.552 33.0021 123.497 33.0056C123.492 33.0056 123.489 33.0061 123.486 33.0061L123.482 33.0074C123.449 33.0158 123.344 33.0941 123.156 33.1251L122.923 33.1552C122.831 33.1579 122.678 33.1959 122.64 33.1441C122.599 33.1742 122.627 33.1875 122.533 33.176C122.467 33.1676 122.354 33.1707 122.289 33.1468L122.244 33.1393C122.081 33.149 122.011 33.0778 121.986 33.0725C121.947 33.0654 121.946 33.0813 121.88 33.0556L121.705 32.9587C121.678 32.9388 121.651 32.9304 121.626 32.9074C121.557 32.8459 121.543 32.6999 121.501 32.6185C121.445 32.5105 121.409 32.6977 121.361 32.3658C121.353 32.3096 121.351 32.157 121.358 32.0985C121.375 31.96 121.401 32.0782 121.357 31.891C121.321 31.7401 121.321 31.5569 121.335 31.3892C121.348 31.218 121.338 31.0472 121.364 30.8729C121.376 30.7879 121.372 30.7061 121.384 30.6207C121.395 30.5397 121.416 30.4799 121.423 30.3981C121.341 30.3764 121.387 30.2198 121.39 30.1583C121.395 30.0591 121.395 29.9273 121.494 29.8799C121.549 29.8529 121.518 29.8649 121.536 29.76C121.55 29.6826 121.54 29.5755 121.608 29.5485C121.655 29.5304 121.717 29.5304 121.776 29.5202C121.864 29.5056 121.85 29.4959 121.912 29.5375C121.966 29.4644 122.2 29.5087 122.293 29.4498C122.336 29.4653 122.294 29.4516 122.336 29.4821C122.385 29.4463 122.328 29.4556 122.399 29.4366C122.427 29.4295 122.451 29.429 122.489 29.4277C122.589 29.4233 122.561 29.3959 122.641 29.4498C122.646 29.4007 122.635 29.4215 122.702 29.4131L122.956 29.4065C122.967 29.4445 122.96 29.4308 122.989 29.4498C123.006 29.4237 123.002 29.4383 123.011 29.4065C123.082 29.4065 123.336 29.429 123.359 29.5153H123.381C123.392 29.4892 123.413 29.491 123.442 29.4945C123.706 29.5299 123.642 29.5857 123.642 29.8529C123.693 29.8636 123.707 29.8445 123.736 29.9114C123.771 29.9937 123.777 30.0914 123.816 30.1684C123.835 30.2078 123.849 30.2401 123.849 30.2994C123.945 30.2353 124.013 30.1246 124.091 30.041C124.139 29.9892 124.161 29.9627 124.201 29.9012C124.221 29.8698 124.234 29.8512 124.252 29.8211C124.266 29.7972 124.28 29.7689 124.295 29.7445C124.326 29.6945 124.372 29.656 124.422 29.622C124.492 29.5746 124.517 29.5715 124.606 29.6069C124.964 29.7494 124.836 30.0122 124.921 30.0976C125.033 30.2114 125.274 30.2251 125.432 30.2609C125.582 30.2954 125.714 30.2835 125.787 30.2844C125.906 30.2861 126.001 30.2675 126.132 30.2675C126.124 30.1755 126.068 30.1091 126.021 30.0521C125.989 30.014 125.908 29.8967 125.903 29.8428C125.886 29.8543 125.885 29.8583 125.866 29.8702C125.806 29.9096 125.704 30.0224 125.643 30.0277L125.673 29.9494C125.734 29.7317 125.671 29.5622 125.629 29.3441C125.604 29.2136 125.59 29.1233 125.612 28.9724C125.619 28.9184 125.634 28.8578 125.649 28.8034C125.666 28.7489 125.685 28.7074 125.697 28.6547C125.64 28.6932 125.615 28.71 125.542 28.7388L125.371 28.8069C125.38 28.7706 125.402 28.76 125.428 28.7339C125.576 28.5892 125.676 28.3414 125.676 28.1317C125.623 28.1038 125.57 28.083 125.518 28.0489C125.47 28.0166 125.421 27.9861 125.379 27.9489C125.353 27.9259 125.345 27.914 125.323 27.8857L125.153 27.7065C125.21 27.6936 125.246 27.6954 125.316 27.6958C125.355 27.6958 125.454 27.7166 125.438 27.6635C125.394 27.5162 125.113 27.4542 124.96 27.3126C124.923 27.2795 124.873 27.2441 124.86 27.1945C124.899 27.1679 124.92 27.1821 124.965 27.1582C124.987 27.1467 124.983 27.1467 124.99 27.1396C124.94 27.1396 124.906 27.1458 124.871 27.129C124.875 27.0768 124.877 27.0958 124.913 27.0737C124.981 27.0321 125.002 26.9821 125.002 26.8896L124.823 26.7414C124.659 26.606 124.584 26.0905 124.338 25.8763C124.204 25.9657 124.092 26.0892 123.904 26.1281C123.838 26.1418 123.743 26.16 123.667 26.1458C123.556 26.1255 123.573 26.1086 123.425 26.279C123.423 26.2772 123.42 26.2759 123.418 26.2746L123.412 26.2706L123.406 26.2657L123.38 26.237C123.371 26.2193 123.37 26.1945 123.375 26.164C123.405 25.9476 123.443 26.0763 123.409 25.8808C123.396 25.802 123.413 25.7962 123.414 25.7343C123.335 25.7874 123.292 25.8082 123.166 25.7759C123.072 25.7516 123.026 25.733 122.957 25.6799C122.927 25.6573 122.906 25.6347 122.878 25.6064C122.843 25.571 122.842 25.5586 122.819 25.5126C122.782 25.4374 122.738 25.3936 122.696 25.3312C122.66 25.3485 122.553 25.3622 122.511 25.3418C122.466 25.2967 122.524 25.1998 122.607 25.1445C122.706 25.079 122.644 25.1117 122.705 25.0352C122.74 24.9905 122.833 24.9312 122.892 24.9175C122.88 24.8661 122.851 24.8157 122.88 24.7542C122.805 24.7365 122.784 24.7263 122.729 24.6887V24.6232C122.895 24.5117 122.865 24.5958 122.973 24.5666L122.991 24.5617L123.003 24.5577C123.007 24.556 123.027 24.5449 123.036 24.54C123.19 24.4617 123.386 24.4591 123.552 24.5613C123.601 24.5909 123.633 24.6223 123.676 24.6551C123.875 24.8033 124.297 24.4945 124.759 24.725C124.827 24.7586 124.99 24.9055 125.059 24.9692L125.224 25.1201C125.282 25.1657 125.284 25.1839 125.33 25.2312L125.765 25.6666C125.894 25.7971 126.42 26.2471 126.549 26.1418C126.622 26.0817 126.817 25.8507 126.931 25.7719L127.122 25.6476C127.083 25.6445 126.872 25.6002 126.796 25.6365C126.8 25.5909 126.791 25.6117 126.823 25.5874L127.123 25.3754C127.301 25.2821 127.527 25.3047 127.604 25.2688C127.887 25.1352 128.047 25.1631 128.336 25.2378C128.453 25.2684 128.47 25.2445 128.591 25.2445L128.525 25.2339C128.535 25.198 128.525 25.2157 128.556 25.1989C128.597 25.1763 128.627 25.1847 128.666 25.1246C128.248 25.1246 128.296 24.9856 128.013 24.9931C127.955 24.9949 127.9 25.0157 127.862 25.0378C127.771 25.09 127.663 25.1374 127.545 25.1131C127.474 25.0985 127.549 25.0436 127.568 25.0157C127.498 25.0321 127.309 25.0732 127.263 25.0046C127.293 24.9644 127.362 24.9701 127.4 24.9135C127.465 24.8188 127.442 24.6856 127.543 24.5984C127.568 24.5772 127.582 24.5737 127.609 24.5555C127.637 24.5383 127.648 24.5294 127.677 24.5139C127.677 24.4157 127.603 24.3675 127.66 24.279C127.675 24.2551 127.675 24.263 127.691 24.2343C127.73 24.1648 127.745 24.1546 127.84 24.1546C127.84 24.0542 127.847 23.9259 127.971 23.9259C128.003 23.9945 128.002 24.113 128.029 24.194C128.058 24.2772 128.133 24.3046 128.201 24.3489C128.483 24.533 128.749 24.5347 128.743 24.1546C128.741 24.0608 128.722 23.9714 128.663 23.9073C128.454 23.6759 128.416 23.7537 128.253 23.6754L128.24 23.6971C128.24 23.6971 128.222 23.7104 128.216 23.7144C128.149 23.7657 128.174 23.8502 128.068 23.8502C128.04 23.8073 128.008 23.7414 128.003 23.6759C127.956 23.6772 127.958 23.6856 127.906 23.6874C127.553 23.698 127.738 23.5524 127.631 23.4391C127.551 23.3546 127.562 23.313 127.554 23.2188C127.552 23.1918 127.538 23.1803 127.525 23.1427C127.488 23.0365 127.386 22.9648 127.583 22.8962C127.699 22.8559 127.759 22.8059 127.853 22.7418C128.113 22.5639 128.218 22.6166 128.513 22.6542C128.6 22.6652 128.894 22.7374 128.977 22.6794C129 22.663 128.995 22.6453 129.01 22.6139C129.033 22.5604 129.166 22.4374 129.213 22.3931C129.249 22.359 129.292 22.3374 129.337 22.3095C129.473 22.2263 129.604 22.1347 129.768 22.1099C130.293 22.0316 130.479 22.1918 130.834 22.2679C131.039 22.3121 131.267 22.3143 131.461 22.2365C131.493 22.2232 131.495 22.2139 131.528 22.2051C131.526 22.2581 131.502 22.294 131.478 22.3298C131.446 22.3781 131.421 22.3798 131.397 22.4126C131.555 22.4882 131.847 22.4427 132.006 22.7714C132.021 22.8028 132.033 22.8356 132.017 22.8697C131.967 22.8564 131.997 22.8444 131.937 22.8303C131.877 22.8157 131.688 22.848 131.604 22.848C131.654 22.9232 131.687 22.8913 131.811 23.109C131.976 23.3967 132.092 23.6037 132.324 23.8254C132.476 23.9706 132.564 24.0568 132.8 24.1117V24.1445C132.734 24.1445 132.686 24.1595 132.619 24.1697C132.564 24.1776 132.501 24.1768 132.43 24.1768C132.468 24.233 132.52 24.2861 132.554 24.3476C132.591 24.4153 132.617 24.4728 132.641 24.5542C132.714 24.8007 132.67 24.8896 132.67 25.0918L132.618 25.002C132.569 24.9299 132.499 24.8405 132.409 24.8192C132.576 25.0688 132.677 25.4839 132.573 25.7905C132.552 25.8547 132.504 26.0095 132.47 26.0688C132.446 26.1109 132.459 26.0772 132.439 26.1131C132.424 26.1387 132.41 26.194 132.402 26.229C132.362 26.4069 132.438 26.5321 132.517 26.6821C132.4 26.6547 132.317 26.6007 132.224 26.5511C132.224 26.7671 132.173 26.8175 132.131 26.9808C132.075 27.1989 132.226 27.4016 132.061 27.314C132.148 27.6892 131.894 27.8843 131.673 28.1339C131.546 28.2755 131.43 28.4317 131.43 28.6321C131.392 28.618 131.426 28.6463 131.397 28.5998C131.341 28.5104 131.31 28.4233 131.31 28.3051L131.254 28.3901C131.201 28.479 131.162 28.5728 131.136 28.6751C131.12 28.737 131.085 28.9547 131.093 29.0348C131.097 29.0861 131.113 29.0879 131.114 29.1441C131.087 29.1237 131.058 29.0697 131.036 29.037C130.955 28.9166 130.864 28.8463 130.864 28.6538C130.781 28.7494 130.619 28.9242 130.557 29.022C130.449 29.1932 130.472 29.4304 130.647 29.4711C130.604 29.5348 130.476 29.5189 130.407 29.5149C130.227 29.5047 130.276 29.472 130.179 29.4494C130.187 29.5401 130.307 29.8693 130.36 29.9649C130.439 30.1069 130.547 30.2375 130.644 30.3676C130.847 30.6406 131.023 30.8791 131.203 31.1795C131.248 31.2556 131.291 31.3211 131.332 31.3994C131.371 31.4755 131.416 31.5428 131.455 31.6242C131.495 31.707 131.525 31.7857 131.56 31.8676C131.594 31.9446 131.627 32.0308 131.657 32.1092C131.753 32.3671 131.835 32.63 131.9 32.9008C131.92 32.9884 131.932 33.0884 131.956 33.1822C132.122 33.8437 132.263 34.3583 132.612 34.9446L132.744 35.1495C132.914 35.3663 133.26 35.6681 133.492 35.7831C133.637 35.8552 133.801 35.9504 133.972 35.9889C134.02 35.9995 134.229 36.0225 134.285 36.015C134.501 35.9853 134.627 35.98 134.834 35.8778C135.059 35.7667 135.274 35.6393 135.427 35.4366C135.453 35.4021 135.442 35.4185 135.47 35.3928C135.505 35.3605 135.677 35.0769 135.706 35.0296C135.797 34.8778 135.855 34.7309 135.919 34.5574C135.946 34.488 135.991 34.3654 135.997 34.2866C136.001 34.2242 136.012 34.1977 136.022 34.1375C136.085 33.7534 136.051 33.4291 135.976 33.0543C135.947 32.9052 135.859 32.6822 135.798 32.5468L135.675 32.3317C135.651 32.2919 135.635 32.2596 135.608 32.2242C135.484 32.0565 135.27 31.8021 135.093 31.6946C134.836 31.5375 134.81 31.5335 134.516 31.4233L134.245 31.3463C134.079 31.3171 133.605 31.2968 133.482 31.376C133.406 31.4246 133.488 31.5242 133.346 31.7508C133.127 32.0972 132.641 32.145 132.278 32.0083C132.262 32.0025 132.228 31.9981 132.248 31.9614C132.267 31.9295 132.355 31.9446 132.397 31.9446V31.9224C132.162 31.9224 131.794 31.6596 131.686 31.4578C131.652 31.3937 131.638 31.3746 131.615 31.3008C131.592 31.2251 131.591 31.1711 131.601 31.0923C131.607 31.0463 131.604 31.0229 131.612 31.0021L131.617 30.9888L131.627 30.9667C131.636 30.9485 131.634 30.9499 131.647 30.9317C131.676 30.9525 131.69 30.9861 131.708 31.0224C131.743 31.0915 131.855 31.2092 131.923 31.2538C132.03 31.3242 132.228 31.4114 132.365 31.4114C132.308 31.3618 132.092 31.1667 132.136 31.0733C132.187 31.049 132.275 31.0999 132.33 31.118C132.406 31.1432 132.443 31.1556 132.543 31.1671C132.607 31.1742 132.703 31.1437 132.767 31.1388C132.952 31.1246 133.137 31.1671 133.249 31.1525C133.444 31.1269 133.521 31.1233 133.724 31.1171C133.779 31.1153 133.784 31.1061 133.843 31.1052C134.185 31.1007 134.509 31.1454 134.801 31.291L134.799 31.2919ZM121.029 36.8035C121.029 36.8035 120.648 36.8119 120.551 36.8119C119.276 36.8119 118.068 36.584 116.924 36.1287C115.779 35.6729 114.765 35.0437 113.88 34.2411C112.995 33.4379 112.294 32.4782 111.776 31.3605C111.258 30.2432 110.998 29.0339 110.998 27.7317C110.998 26.3648 111.241 25.1113 111.727 23.9723C112.213 22.8334 112.881 21.8458 113.734 21.0103C114.587 20.1745 115.596 19.5293 116.762 19.074C117.927 18.6187 119.179 18.39 120.518 18.39C121.857 18.39 123.194 18.651 124.403 19.1727C125.612 19.6944 126.67 20.4117 127.576 21.3245L129.843 18.651C128.656 17.4563 127.269 16.5151 125.683 15.8302C124.096 15.1457 122.385 14.8036 120.551 14.8036C118.823 14.8036 117.172 15.1187 115.597 15.7492C114.021 16.3802 112.634 17.2545 111.436 18.3745C110.238 19.494 109.288 20.8192 108.587 22.352C107.885 23.8838 107.534 25.5418 107.534 27.3237C107.534 29.1056 107.869 30.8614 108.538 32.4592C109.207 34.0565 110.125 35.4424 111.29 36.6163C112.456 37.7898 113.827 38.7141 115.402 39.3871C116.978 40.061 118.683 40.3982 120.518 40.3982C120.69 40.3982 121.029 40.3854 121.029 40.3854V36.8039L121.029 36.8035ZM119.756 11.4452C120.274 11.4452 120.7 11.3695 121.035 11.2173C121.369 11.0651 121.623 10.8642 121.796 10.6142C121.968 10.3642 122.087 10.0978 122.152 9.8155C122.217 9.53275 122.249 9.26107 122.249 9H125.973C125.908 9.50001 125.767 10.027 125.551 10.5814C125.335 11.1354 124.99 11.6465 124.515 12.1142C124.04 12.5815 123.419 12.9673 122.653 13.2717C121.887 13.5762 120.921 13.7279 119.755 13.7279C118.59 13.7279 117.623 13.5762 116.857 13.2717C116.091 12.9673 115.47 12.5819 114.996 12.1142C114.52 11.6465 114.175 11.1354 113.959 10.5814C113.743 10.027 113.603 9.50001 113.539 9H117.262C117.262 9.26107 117.295 9.53275 117.359 9.8155C117.424 10.0982 117.542 10.3646 117.715 10.6142C117.888 10.8646 118.141 11.0655 118.476 11.2173C118.81 11.3695 119.236 11.4452 119.755 11.4452H119.756ZM13.2943 36.3889C13.2943 36.3889 12.9193 36.3968 12.823 36.3968C11.5677 36.3968 10.3769 36.1725 9.25052 35.7238C8.12286 35.2751 7.12374 34.6552 6.25226 33.8645C5.38035 33.0733 4.68953 32.1278 4.17892 31.0269C3.66832 29.926 3.41346 28.7348 3.41346 27.452C3.41346 26.1055 3.65286 24.871 4.13122 23.7484C4.60958 22.6267 5.2686 21.6542 6.10871 20.8307C6.94838 20.0077 7.94265 19.3718 9.09107 18.9231C10.239 18.4749 11.4723 18.2497 12.7907 18.2497C14.1092 18.2497 15.4273 18.5063 16.6181 19.0209C17.8089 19.5347 18.8509 20.2409 19.7435 21.1404L21.9763 18.5068C20.8067 17.3298 19.4405 16.4032 17.8778 15.7289C16.3146 15.0541 14.6291 14.7173 12.8225 14.7173C11.1211 14.7173 9.49434 15.028 7.94221 15.6488C6.39007 16.27 5.0239 17.1315 3.84323 18.2342C2.66345 19.3373 1.72749 20.6426 1.03667 22.1524C0.34541 23.6617 0 25.2949 0 27.0503C0 28.8056 0.329508 30.5348 0.988966 32.1092C1.64798 33.6826 2.55214 35.0477 3.70012 36.2044C4.84854 37.3601 6.19838 38.2708 7.75095 38.9336C9.30264 39.5973 10.9829 39.9296 12.7903 39.9296C12.9595 39.9296 13.2938 39.9168 13.2938 39.9168V36.3889H13.2943ZM12.0399 11.4089C12.55 11.4089 12.9696 11.3345 13.3 11.1841C13.6291 11.0345 13.8791 10.8363 14.0496 10.5898C14.2192 10.3434 14.3363 10.081 14.4003 9.80311C14.4639 9.52479 14.4962 9.25708 14.4962 9H18.164C18.1004 9.49248 17.9617 10.012 17.7488 10.5575C17.5364 11.1031 17.1958 11.6067 16.7285 12.0677C16.2607 12.5279 15.6494 12.908 14.895 13.2076C14.1401 13.5076 13.1883 13.6571 12.0399 13.6571C10.8914 13.6571 9.94002 13.5076 9.18559 13.2076C8.43073 12.908 7.81897 12.5279 7.35165 12.0677C6.88389 11.6067 6.54334 11.1036 6.33088 10.5575C6.11843 10.0115 5.98018 9.49248 5.91613 9H9.584C9.584 9.25708 9.61581 9.52479 9.67985 9.80311C9.74346 10.0814 9.86007 10.3434 10.0306 10.5898C10.2006 10.8359 10.4502 11.0345 10.7801 11.1841C11.1096 11.3345 11.5297 11.4089 12.0399 11.4089ZM25.9216 36.9977H38.734V40.0672H22.8858V19.2519H37.5087V22.3214H25.9216V28.6476C26.5528 28.2795 27.1933 28.0534 27.8434 27.9706C28.4927 27.8879 29.1615 27.8458 29.8488 27.8458H34.389V30.9153H29.8488C29.1805 30.9153 28.5161 30.9662 27.8571 31.0684C27.1981 31.1702 26.5528 31.3879 25.9216 31.7211V36.9982V36.9977Z" fill="black"/>
</svg>
