<svg width="91" height="50" viewBox="0 0 91 50" fill="none" xmlns="http://www.w3.org/2000/svg">
<path d="M47.9436 15.2279C47.3074 14.9101 46.5813 14.7512 45.7514 14.7512H42.2799V22.3854H45.7514C46.5813 22.3854 47.3143 22.2265 47.9436 21.9087C48.5798 21.5909 49.0708 21.1487 49.4304 20.5753C49.79 20.0019 49.9629 19.3317 49.9629 18.5649C49.9629 17.798 49.7831 17.1209 49.4304 16.5544C49.0708 15.981 48.5798 15.5388 47.9436 15.221V15.2279ZM47.8606 19.8291C47.6532 20.1884 47.3627 20.4647 46.9893 20.6582C46.6159 20.8516 46.1733 20.9484 45.6615 20.9484H44.0572V16.1952H45.6615C46.1733 16.1952 46.6159 16.2919 46.9893 16.4853C47.3627 16.6788 47.6532 16.9551 47.8606 17.3075C48.0681 17.6667 48.1718 18.0882 48.1718 18.5718C48.1718 19.0554 48.0681 19.4699 47.8606 19.8291Z" fill="#1C1C1C"/>
<path d="M55.4234 16.8069C54.96 16.5582 54.4414 16.4338 53.8674 16.4338C53.2934 16.4338 52.7333 16.5651 52.2561 16.8207C51.7789 17.0764 51.4055 17.4356 51.1427 17.8916C50.8799 18.3476 50.7416 18.8726 50.7416 19.453C50.7416 20.0333 50.8799 20.5514 51.1566 21.0074C51.4332 21.4634 51.8204 21.8226 52.3253 22.0783C52.8301 22.3408 53.411 22.4721 54.0818 22.4721C54.7526 22.4721 55.0845 22.3892 55.4925 22.2233C55.9005 22.0575 56.2394 21.8226 56.5091 21.5187L55.6032 20.5376C55.4095 20.7242 55.1882 20.8692 54.9531 20.966C54.718 21.0627 54.4483 21.111 54.1371 21.111C53.8259 21.111 53.4732 21.0489 53.2173 20.9176C52.9615 20.7932 52.7609 20.6067 52.6157 20.3649C52.5327 20.2336 52.4774 20.0886 52.4428 19.9297H56.8825C56.8894 19.8537 56.8963 19.7777 56.9033 19.6948C56.9102 19.6119 56.9171 19.5359 56.9171 19.4737C56.9171 18.8381 56.7857 18.2992 56.516 17.8501C56.2463 17.4011 55.8798 17.0487 55.4164 16.8L55.4234 16.8069ZM53.1067 17.9192C53.328 17.7949 53.5839 17.7258 53.8743 17.7258C54.1648 17.7258 54.4206 17.788 54.635 17.9192C54.8563 18.0436 55.0223 18.2232 55.1467 18.4512C55.2297 18.6032 55.2781 18.769 55.3058 18.9555H52.4221C52.4497 18.7759 52.5051 18.6101 52.5811 18.4581C52.7056 18.2301 52.8785 18.0505 53.0998 17.9261L53.1067 17.9192Z" fill="#1C1C1C"/>
<path d="M62.3087 16.8069C61.8453 16.5582 61.3267 16.4338 60.7527 16.4338C60.1787 16.4338 59.6186 16.5651 59.1414 16.8207C58.6642 17.0764 58.2908 17.4356 58.028 17.8916C57.7652 18.3476 57.6269 18.8726 57.6269 19.453C57.6269 20.0333 57.7652 20.5514 58.0418 21.0074C58.3185 21.4634 58.7057 21.8226 59.2105 22.0783C59.7154 22.3408 60.2963 22.4721 60.9671 22.4721C61.6379 22.4721 61.9698 22.3892 62.3778 22.2233C62.7858 22.0575 63.1247 21.8226 63.3944 21.5187L62.4885 20.5376C62.2948 20.7242 62.0735 20.8692 61.8384 20.966C61.6033 21.0627 61.3336 21.111 61.0224 21.111C60.7112 21.111 60.3585 21.0489 60.1026 20.9176C59.8468 20.7932 59.6462 20.6067 59.501 20.3649C59.418 20.2336 59.3627 20.0886 59.3281 19.9297H63.7678C63.7747 19.8537 63.7816 19.7777 63.7885 19.6948C63.7955 19.6119 63.8024 19.5359 63.8024 19.4737C63.8024 18.8381 63.671 18.2992 63.4013 17.8501C63.1316 17.4011 62.7651 17.0487 62.3017 16.8L62.3087 16.8069ZM59.992 17.9192C60.2133 17.7949 60.4692 17.7258 60.7596 17.7258C61.05 17.7258 61.3059 17.788 61.5203 17.9192C61.7416 18.0436 61.9076 18.2232 62.032 18.4512C62.115 18.6032 62.1634 18.769 62.1911 18.9555H59.3074C59.335 18.7759 59.3904 18.6101 59.4664 18.4581C59.5909 18.2301 59.7638 18.0505 59.9851 17.9261L59.992 17.9192Z" fill="#1C1C1C"/>
<path d="M69.9123 16.8131C69.4697 16.5644 68.9718 16.44 68.4117 16.44C67.8515 16.44 67.4712 16.5506 67.0977 16.7647C66.8972 16.8822 66.7243 17.0273 66.5791 17.2069V16.5229H64.9539V24.5025H66.6551V21.7597C66.7934 21.9117 66.9525 22.043 67.1254 22.1466C67.4988 22.3677 67.9276 22.4713 68.4117 22.4713C68.8957 22.4713 69.4697 22.347 69.9123 22.0983C70.3549 21.8496 70.7007 21.4972 70.9634 21.0481C71.2193 20.5991 71.3507 20.0671 71.3507 19.4522C71.3507 18.8374 71.2193 18.3123 70.9634 17.8632C70.7076 17.4142 70.3549 17.0618 69.9123 16.8131ZM69.4213 20.3227C69.2899 20.5645 69.1101 20.7511 68.8888 20.8823C68.6675 21.0136 68.4117 21.0758 68.1281 21.0758C67.8446 21.0758 67.5887 21.0136 67.3674 20.8823C67.1392 20.7511 66.9594 20.5645 66.828 20.3227C66.6966 20.0809 66.6275 19.7908 66.6275 19.4591C66.6275 19.1275 66.6966 18.8235 66.828 18.5886C66.9594 18.3468 67.1461 18.1672 67.3674 18.0359C67.5956 17.9116 67.8446 17.8425 68.1281 17.8425C68.4117 17.8425 68.6675 17.9047 68.8888 18.0359C69.1101 18.1603 69.2899 18.3468 69.4213 18.5886C69.5527 18.8304 69.6218 19.1206 69.6218 19.4591C69.6218 19.7977 69.5527 20.0809 69.4213 20.3227Z" fill="#1C1C1C"/>
<path d="M42.2799 27.5436H44.716V33.7069H46.4826V27.5436H48.9187V26.1129H42.2799V27.5436Z" fill="#1C1C1C"/>
<path d="M53.8358 30.7748C53.8358 31.1256 53.7737 31.4145 53.6564 31.6415C53.5391 31.8754 53.3735 32.0473 53.1733 32.1643C52.9732 32.2812 52.7386 32.3362 52.4763 32.3362C52.0968 32.3362 51.8069 32.2193 51.5999 31.9923C51.3929 31.7653 51.2894 31.4076 51.2894 30.9124V27.872H49.5917V31.1737C49.5917 31.7653 49.6952 32.2606 49.9092 32.6526C50.1231 33.0447 50.4129 33.3336 50.7925 33.5194C51.172 33.7051 51.6068 33.8014 52.0968 33.8014C52.5868 33.8014 52.9594 33.6982 53.339 33.4918C53.5598 33.368 53.753 33.2098 53.9186 33.0241V33.7188H55.5335V27.8789H53.8427V30.7748H53.8358Z" fill="#1C1C1C"/>
<path d="M59.7264 32.4523C59.5055 32.4523 59.333 32.3835 59.2088 32.2459C59.0846 32.1084 59.0156 31.9158 59.0156 31.6681V29.1712H60.4648V27.8711H59.0156V26.5779H57.3041V27.8711H56.4001V29.1712H57.3041V31.7025C57.3041 32.3973 57.4973 32.92 57.8838 33.2709C58.2703 33.6217 58.8085 33.8005 59.4986 33.8005C60.1887 33.8005 60.0093 33.773 60.2578 33.7111C60.4993 33.6492 60.7063 33.5598 60.8719 33.4359L60.4234 32.2391C60.237 32.3835 60.0024 32.4592 59.7264 32.4592V32.4523Z" fill="#1C1C1C"/>
<path d="M66.1052 28.1737C65.6152 27.9192 65.0631 27.7885 64.442 27.7885C63.8209 27.7885 63.2758 27.9192 62.7927 28.1737C62.3096 28.4282 61.9301 28.7859 61.654 29.2399C61.378 29.6938 61.24 30.2097 61.24 30.8013C61.24 31.3929 61.378 31.895 61.654 32.349C61.9301 32.803 62.3096 33.1607 62.7927 33.4152C63.2758 33.6766 63.8278 33.8073 64.442 33.8073C65.0562 33.8073 65.6221 33.6766 66.1052 33.4152C66.5882 33.1538 66.9747 32.803 67.2507 32.349C67.5268 31.9019 67.6648 31.386 67.6648 30.7944C67.6648 30.2029 67.5268 29.687 67.2507 29.233C66.9747 28.779 66.5951 28.4282 66.1052 28.1668V28.1737ZM65.7394 31.6611C65.6083 31.9088 65.4289 32.0945 65.208 32.2183C64.9872 32.3421 64.7319 32.4109 64.442 32.4109C64.1522 32.4109 63.9176 32.349 63.6898 32.2183C63.4621 32.0945 63.2827 31.9019 63.1515 31.6611C63.0204 31.4135 62.9514 31.1246 62.9514 30.7944C62.9514 30.4643 63.0204 30.1616 63.1515 29.9277C63.2827 29.687 63.469 29.5081 63.6898 29.3774C63.9176 29.2536 64.166 29.1848 64.4489 29.1848C64.7319 29.1848 64.9872 29.2467 65.208 29.3774C65.4289 29.5012 65.6083 29.687 65.7394 29.9277C65.8705 30.1685 65.9395 30.4574 65.9395 30.7944C65.9395 31.1315 65.8705 31.4204 65.7394 31.6611Z" fill="#1C1C1C"/>
<path d="M70.4205 28.6414V27.871H68.7988V33.711H70.4964V30.9526C70.4964 30.3955 70.6413 29.9827 70.9243 29.7145C71.2072 29.4462 71.5868 29.3155 72.0699 29.3155C72.5529 29.3155 72.1872 29.3155 72.2493 29.3293C72.3114 29.3362 72.3735 29.3499 72.4425 29.3637V27.7885C71.8904 27.7885 71.4212 27.8985 71.0347 28.1118C70.7863 28.2493 70.5861 28.4282 70.4274 28.6483L70.4205 28.6414Z" fill="#1C1C1C"/>
<path d="M75.0636 25.4203C74.8635 25.2484 74.6082 25.1658 74.2976 25.1658C73.9871 25.1658 73.7179 25.2553 73.5247 25.4341C73.3315 25.6129 73.228 25.8399 73.228 26.1082C73.228 26.3765 73.3246 26.6035 73.5247 26.7823C73.7179 26.9612 73.9802 27.0506 74.2976 27.0506C74.6151 27.0506 74.8773 26.9612 75.0705 26.7754C75.2638 26.5897 75.3673 26.3558 75.3673 26.0738C75.3673 25.7918 75.2707 25.5854 75.0705 25.4203H75.0636Z" fill="#1C1C1C"/>
<path d="M75.1416 27.872H73.444V33.712H75.1416V27.872Z" fill="#1C1C1C"/>
<path d="M81.5391 28.0636C81.1734 27.8779 80.7593 27.7885 80.29 27.7885C79.8208 27.7885 79.3446 27.8916 78.9512 28.1049C78.7166 28.2287 78.5234 28.3869 78.3509 28.5726V27.8779H76.7291V33.7178H78.4268V30.8288C78.4268 30.4574 78.4889 30.1616 78.6062 29.9415C78.7235 29.7145 78.896 29.5494 79.11 29.4325C79.3239 29.3155 79.5654 29.2605 79.8346 29.2605C80.1037 29.2605 80.504 29.3706 80.711 29.5975C80.918 29.8245 81.0215 30.1685 81.0215 30.6431V33.7247H82.7192V30.3817C82.7192 29.7901 82.6157 29.3018 82.4017 28.9234C82.1878 28.5451 81.9049 28.2631 81.5391 28.0774V28.0636Z" fill="#1C1C1C"/>
<path d="M88.7251 27.871V28.6139C88.5525 28.3938 88.3455 28.2149 88.0971 28.0842C87.7244 27.8848 87.2828 27.7885 86.7721 27.7885C86.2614 27.7885 85.7576 27.9054 85.3091 28.1393C84.8674 28.3731 84.5155 28.6964 84.2532 29.1229C83.991 29.5494 83.8599 30.0447 83.8599 30.6156C83.8599 31.1865 83.991 31.6749 84.2532 32.0945C84.5155 32.521 84.8674 32.8443 85.3091 33.085C85.7507 33.3189 86.2407 33.4358 86.7721 33.4358C87.3035 33.4358 87.7244 33.3326 88.0971 33.1332C88.3041 33.0231 88.4904 32.8718 88.6492 32.6929V32.9612C88.6492 33.4908 88.5111 33.8898 88.2351 34.1581C87.9591 34.4263 87.5243 34.557 86.9308 34.557C86.3373 34.557 86.1648 34.4951 85.7921 34.3782C85.4195 34.2613 85.102 34.0962 84.8467 33.8829L84.1704 35.1073C84.5086 35.3756 84.9364 35.5751 85.4471 35.7126C85.9578 35.8433 86.4892 35.9121 87.0412 35.9121C88.104 35.9121 88.9114 35.6507 89.4842 35.1348C90.0501 34.6189 90.333 33.821 90.333 32.7411V27.8779H88.7182L88.7251 27.871ZM88.4628 31.3585C88.3317 31.5786 88.1523 31.7437 87.9176 31.8675C87.683 31.9913 87.4208 32.0532 87.124 32.0532C86.8273 32.0532 86.572 31.9913 86.3373 31.8675C86.1027 31.7437 85.9164 31.5717 85.7852 31.3585C85.6541 31.1384 85.5851 30.8907 85.5851 30.6087C85.5851 30.3267 85.6541 30.0653 85.7852 29.8521C85.9164 29.6388 86.1027 29.4737 86.3373 29.3568C86.572 29.2399 86.8342 29.1848 87.124 29.1848C87.4139 29.1848 87.6899 29.2399 87.9176 29.3568C88.1523 29.4737 88.3317 29.6388 88.4628 29.8521C88.594 30.0653 88.6561 30.3198 88.6561 30.6087C88.6561 30.8976 88.594 31.1384 88.4628 31.3585Z" fill="#1C1C1C"/>
<path d="M36.7754 11.1845L36.4914 9.46097L18.6448 5L0.764466 9.46773L0.521011 11.1845C0.480436 11.4278 -0.418993 17.2474 2.11023 27.6563C3.12462 31.8199 5.31571 35.6725 8.4468 38.7952C11.1045 41.4447 14.425 43.5468 17.7995 44.7094L18.6516 45L19.5037 44.7094C22.8782 43.5468 26.1987 41.4447 28.8564 38.7952C31.9875 35.6725 34.1786 31.8199 35.193 27.6563C37.7222 17.2474 36.8227 11.4278 36.7822 11.1845H36.7754ZM32.6502 27.0345C30.8716 34.3478 25.421 39.2954 20.2611 41.6002V32.4687H26.6923V29.2514H10.6041V32.4687H17.0421V41.607C11.8754 39.3089 6.42478 34.3545 4.64621 27.0412C2.21167 17.0311 3.08404 11.5225 3.08404 11.5225C3.08404 11.5225 4.97758 11.0493 10.3403 9.6705C16.0209 8.20379 18.6448 7.67658 18.6448 7.67658C18.6448 7.67658 21.262 8.20379 26.9493 9.6705C32.3188 11.0561 34.2732 11.5495 34.2732 11.5495C34.2732 11.5495 35.0848 17.0243 32.6502 27.0345Z" fill="#1C1C1C"/>
<path d="M26.6923 20.2213C26.6923 20.2349 26.6923 20.2416 26.6923 20.2551C26.6923 20.2416 26.6923 20.2281 26.6923 20.2213C26.6923 19.8293 26.6585 19.4373 26.5909 19.0655C26.6585 19.4441 26.6923 19.8293 26.6923 20.2213Z" fill="#1C1C1C"/>
<path d="M10.6041 13.4555V26.9804L14.1342 20.2551L10.6041 13.4555Z" fill="#1C1C1C"/>
<path d="M15.2027 25.054L10.6041 26.9736H19.5307C19.5848 26.9736 19.6389 26.9736 19.6998 26.9736C19.7133 26.9736 19.7268 26.9736 19.7404 26.9736C19.808 26.9736 19.8689 26.9736 19.9365 26.9736C23.1352 26.9736 25.82 24.7499 26.5233 21.7692C26.5503 21.6475 26.5774 21.5191 26.5977 21.3906C26.6044 21.3501 26.6112 21.3095 26.618 21.269C26.6247 21.2149 26.6315 21.1541 26.645 21.1C26.645 21.0527 26.6585 21.0121 26.6585 20.9648C26.6585 20.9513 26.6585 20.9378 26.6585 20.9243C26.6788 20.7012 26.6923 20.4782 26.6923 20.2484L15.2094 25.0473L15.2027 25.054Z" fill="#1C1C1C"/>
<path d="M26.5909 19.0588C26.0431 15.8753 23.2705 13.4555 19.9297 13.4555C16.589 13.4555 19.8012 13.4555 19.7336 13.4555C19.666 13.4555 19.5984 13.4555 19.524 13.4555H10.5973L26.6856 20.2551C26.6856 20.2416 26.6856 20.2349 26.6856 20.2213C26.6856 19.8293 26.6518 19.4373 26.5841 19.0655L26.5909 19.0588Z" fill="#1C1C1C"/>
</svg>
