<svg width="43" height="50" viewBox="0 0 43 50" fill="none" xmlns="http://www.w3.org/2000/svg">
<path d="M9.37594 21.7317L15.8258 18.9121L15.8292 15.1139L10.0193 17.3139L10.3636 14.9273L16.7632 12.1204L16.0662 6.92721L5.74705 10.298L0 23.9941L1.63709 31.4534L8.75441 26.0001L9.37594 21.7317Z" fill="black"/>
<path d="M10.5465 32.5419L14.2969 29.4286L15.2065 35.1925L10.5465 32.5419ZM15.9185 21.0478L10.9581 24.6812L12.1072 25.705L2.10716 33.1371L3.87752 38.1392L7.73616 34.8749L15.8935 39.5472L16.7539 45L24.0927 43.6295L20.1921 24.3251L15.9185 21.0478Z" fill="black"/>
<path d="M26.7153 8.28203L18.6792 12.5774L20.3395 19.4805L35.2219 13.2869L26.7153 8.28203Z" fill="black"/>
<path d="M25.7352 7.52991L21.608 5L17.2942 6.51271L18.3077 11.0776L25.7352 7.52991Z" fill="black"/>
<path d="M43 24.6589L40.1926 20.5293L28.0157 24.7184L27.5956 23.0524L38.6533 18.1273L36.1598 14.3876L23.96 20.2302L22.1736 24.4608L24.9513 33.1059L34.4897 28.5761L34.941 30.3L24.5726 36.8762L25.6828 43.2819L41.0728 32.1362L43 24.6589Z" fill="black"/>
</svg>
