<svg width="76" height="70" viewBox="0 0 76 70" fill="none" xmlns="http://www.w3.org/2000/svg">
<g clip-path="url(#clip0_2374_75)">
<path d="M16.7795 28.9556L28.3224 24.0122L28.3285 17.3531L17.9309 21.2102L18.5471 17.026L30 12.1048L28.7526 3L10.2851 8.90976L0 32.9221L2.92979 46L15.6672 36.4391L16.7795 28.9556Z" fill="black"/>
<path d="M18.9705 48.1548L25.6233 42.6957L27.2368 52.8026L18.9705 48.1548ZM28.4998 28L19.7006 34.3711L21.739 36.1664L4 49.1985L7.14043 57.9696L13.9852 52.2457L28.4555 60.4386L29.9818 70L43 67.5968L36.0808 33.7467L28.4998 28Z" fill="black"/>
<path d="M47.0876 6L33 13.2878L35.9106 25L62 14.4916L47.0876 6Z" fill="black"/>
<path d="M45 4.57895L38.1547 0L31 2.73789L32.681 11L45 4.57895Z" fill="black"/>
<path d="M76 34.1294L71.0124 26.8404L49.379 34.2344L48.6327 31.2938L68.2777 22.6008L63.8478 16L42.1737 26.3125L39 33.7797L43.9348 49.0388L60.8807 41.0435L61.6825 44.0862L43.262 55.6936L45.2344 67L72.5762 47.3272L76 34.1294Z" fill="black"/>
</g>
<defs>
<clipPath id="clip0_2374_75">
<rect width="76" height="70" fill="white"/>
</clipPath>
</defs>
</svg>
