<svg width="40" height="58" viewBox="0 0 40 58" fill="none" xmlns="http://www.w3.org/2000/svg">
<path d="M0.25 27.8806H3.97381V20.3547H12.7672V16.5893H3.97381V12.8239H18.8642V9.05853H0.25V27.8806Z" fill="black"/>
<path d="M15.1404 44.7322C12.5984 44.0933 10.3313 42.752 8.3488 40.7035C5.43053 37.7282 3.97381 34.3579 3.97381 30.2803H0.25C0.25 35.3724 2.06849 39.6304 5.70547 43.3568C9.34245 47.0832 13.7271 49 18.8642 49V16.5893H15.1404V44.7322Z" fill="black"/>
<path d="M33.1082 11.0388C32.0905 10.3803 30.9762 9.87306 29.8089 9.55115C28.2654 9.12194 26.6591 9.00975 25.0673 9C24.7924 9 21.358 9.01951 21.2374 9.01951V49H25.1156V35.8601H27.2476C31.7335 35.8601 35.9928 33.2068 37.9415 29.1097C38.419 28.1099 38.7567 27.0417 38.9641 25.9492C39.842 21.2961 38.7132 16.2918 35.3705 12.8873C34.6904 12.1899 33.9283 11.5704 33.1034 11.0388H33.1082Z" fill="black"/>
</svg>
