<svg width="159" height="70" viewBox="0 0 159 70" fill="none" xmlns="http://www.w3.org/2000/svg">
<g clip-path="url(#clip0_2374_65)">
<path d="M101.171 68.4747C97.7979 69.328 94.6307 69.2853 91.435 68.5316C84.3478 66.8462 79.6821 60.8516 79.6821 53.5556C79.6821 46.2525 84.3478 40.272 91.4279 38.5725C94.6165 37.8045 97.7908 37.8116 100.979 38.5796C108.052 40.2791 112.732 46.2525 112.718 53.5556C112.711 60.7093 108.244 66.6898 101.157 68.4818L101.171 68.4747ZM96.5907 59.7067C100.141 59.5147 102.307 56.8125 102.314 53.5556C102.329 50.0996 99.8857 47.4827 96.406 47.376C92.7275 47.2693 90.0999 49.936 90.1071 53.5485C90.1142 57.1609 92.6849 59.9129 96.5907 59.7067Z" fill="black"/>
<path d="M90.2523 15.7438C93.1284 17.3722 94.7759 19.9038 94.6765 22.8976C94.5771 26.0478 92.7946 28.5509 89.8333 29.9162C88.1929 30.478 86.3536 30.9189 84.5285 30.9189L67.5845 30.8976V1.05225L84.8765 1.08069C87.4969 1.08069 89.8688 2.11891 91.8004 3.70469C94.9038 7.31713 94.499 12.7429 90.2452 15.7438H90.2523ZM82.6253 12.2878C83.2148 12.1669 83.7829 10.7376 83.7474 10.1474C83.5485 7.26736 79.7351 8.12069 77.5407 8.04247L77.5265 12.5367C79.2308 12.6362 80.5872 12.7002 82.6324 12.2878H82.6253ZM82.8881 23.6514C84.1593 23.4878 84.493 21.7385 84.2658 20.7998C84.0953 20.0816 83.0372 19.1571 82.1211 19.1571H77.5194L77.5549 23.8505C79.3729 23.8718 80.9565 23.9002 82.8881 23.6442V23.6514Z" fill="black"/>
<path d="M14.7071 19.6904L14.6929 13.4966H32.2122C32.624 17.685 32.0204 21.6815 29.6485 25.0806C24.6207 32.2912 14.2455 33.2584 7.17245 29.1339C2.32926 26.3108 0.0496984 21.1268 0.113611 15.6299C0.198829 8.35524 4.85738 2.41746 11.973 0.881463C20.0474 -0.853648 29.4213 2.4388 31.7364 11.3917H21.3753C18.7478 8.3908 13.8975 8.17746 11.3268 11.2921C9.20347 13.8592 9.14666 18.0904 11.341 20.6859C14.0467 23.8859 19.7349 23.8006 21.8796 19.8397L14.7071 19.6832V19.6904Z" fill="black"/>
<path d="M158.646 30.8979L147.348 30.9192L143.946 23.2605C143.314 23.0187 142.185 22.9761 141.404 23.0899L141.362 30.9263L131.143 30.8836L131.157 1.04541L146.333 1.05963C148.122 1.05963 149.99 1.54319 151.63 2.05519C155.316 3.54141 157.595 6.69874 157.986 10.6454C158.377 14.5921 157.084 18.4961 153.704 20.8996L158.632 30.8979H158.646ZM146.162 14.9334C147.426 14.4641 147.781 12.921 147.739 11.897C147.597 8.60452 143.698 8.85341 141.22 9.06674L141.241 15.3387C142.995 15.4099 144.607 15.5094 146.155 14.9334H146.162Z" fill="black"/>
<path d="M75.9185 68.3537L65.6356 68.5102L65.5717 58.0213L58.6336 58.0142L58.6052 68.4675L48.3152 68.4889L48.3081 38.672L58.5839 38.5938L58.6478 48.592H65.5788L65.6143 38.6364L75.9043 38.6151L75.9185 68.3537Z" fill="black"/>
<path d="M52.6573 27.2354L43.9581 27.1928L42.5591 30.919L31.8501 30.8976L42.8858 1.09498L53.6516 1.03809L64.7369 30.8408L53.9782 30.9474L52.6502 27.2354H52.6573ZM51.0098 20.295L48.2829 12.1528L45.6056 20.3519L51.0098 20.295Z" fill="black"/>
<path d="M116.215 27.2354L107.516 27.1928L106.117 30.919L95.4082 30.8976L106.444 1.09498L117.21 1.03809L128.295 30.8408L117.536 30.9474L116.208 27.2354H116.215ZM114.568 20.295L111.841 12.1528L109.164 20.3519L114.568 20.295Z" fill="black"/>
<path d="M134.086 61.2072C131.707 61.641 129.676 61.6126 126.957 61.6339L126.836 68.4748H116.574V38.6152L130.855 38.6366C133.256 38.6366 135.613 39.3335 137.687 40.3148C141.309 42.3557 143.063 45.9468 143.134 50.0286C143.233 55.5468 139.803 60.1619 134.093 61.2072H134.086ZM131.438 52.9086C132.453 52.4037 132.879 50.8535 132.808 49.9503C132.751 49.1681 132.155 47.7957 131.338 47.4615C129.811 46.8286 128.363 46.8499 126.687 46.9423L126.672 53.4917C128.285 53.5983 129.868 53.6979 131.445 52.9157L131.438 52.9086Z" fill="black"/>
<path d="M43.9333 62.3095C42.0301 69.4206 31.5341 70.1602 25.4198 68.0624C21.308 66.6544 18.7373 62.914 19.0214 58.6686H28.5515C28.8711 59.4437 29.212 60.4748 29.6167 60.9157C30.128 61.4633 31.5199 61.7122 32.3437 61.6126C33.2314 61.506 34.1546 60.7948 34.2611 60.1122C34.9215 56.1371 26.4921 57.8935 21.7128 53.6553C19.2557 51.4793 18.7089 48.2295 19.4333 45.0153C21.0453 37.8544 31.2501 36.8162 37.3431 39.0775C41.2489 40.5282 43.7912 43.9415 43.7273 48.2082H34.3179C33.9983 47.3406 33.7214 46.4233 33.3379 46.018C32.8337 45.4988 31.5199 45.2855 30.7033 45.378C29.7588 45.4846 28.9208 46.2242 28.8143 46.9993C28.7291 47.6393 29.4108 48.8908 30.1351 49.0757L35.305 50.4126C37.8118 51.0597 40.3612 51.9202 42.2005 53.7762C44.4304 56.0304 44.7499 59.2162 43.9262 62.3095H43.9333Z" fill="black"/>
</g>
<defs>
<clipPath id="clip0_2374_65">
<rect width="159" height="70" fill="white"/>
</clipPath>
</defs>
</svg>
