<svg width="321" height="315" viewBox="0 0 321 315" fill="none" xmlns="http://www.w3.org/2000/svg">
<path d="M96.2929 51.2212H54.2214V92.4678C54.2214 92.4678 10.5001 85.3184 10.5 115.291C10.4999 145.263 54.2214 135.639 54.2214 135.639V180.185C54.2214 180.185 96.2929 176.886 96.2929 203.559C96.2929 230.231 54.2214 225.282 54.2214 225.282V267.078H96.2929C96.2929 267.078 91.8634 305.3 115.816 305.3C142.764 305.3 137.814 267.078 137.814 267.078H181.811C181.811 267.078 177.411 225.282 205.184 225.282C232.956 225.282 226.907 267.078 226.907 267.078H267.329V225.282C267.329 225.282 310.5 225.282 310.5 203.559C310.5 175.511 267.329 180.185 267.329 180.185V135.639C267.329 135.639 226.907 139.764 226.907 115.291C226.907 90.8179 267.329 92.4678 267.329 92.4678V51.2212H226.907C226.907 51.2212 233.782 9.69969 205.184 9.69971C176.586 9.69973 181.811 51.2212 181.811 51.2212H137.814C137.814 51.2212 142.489 92.4678 115.816 92.4678C91.8934 92.4678 96.2929 51.2212 96.2929 51.2212Z" stroke="black" stroke-width="10"/>
</svg>
