<svg width="104" height="50" viewBox="0 0 104 50" fill="none" xmlns="http://www.w3.org/2000/svg">
<path d="M51.7829 22.647C51.0653 22.3702 50.1268 22.2872 49.1056 22.2872H43.4192V20.5155H53.1907V17.4705H39.4168V30.6472H48.7466C50.0441 30.6472 51.0099 30.5364 51.7278 30.2595C53.246 29.6781 54.2672 28.2664 54.2672 26.4117C54.2672 24.5295 53.3011 23.2284 51.7829 22.647ZM49.7955 27.2145C49.5747 27.2976 49.2711 27.3252 48.8845 27.3252H43.4192V25.2214H48.8845C49.3263 25.2214 49.685 25.2493 49.9612 25.3876C50.2923 25.5537 50.458 25.8582 50.458 26.2456C50.458 26.6331 50.2648 27.0484 49.7955 27.2145Z" fill="black"/>
<path d="M65.4895 17.4705H59.6378L54.2552 30.6472H58.7822L59.5274 28.7371H65.5999L66.3729 30.6472H70.8723L65.4895 17.4705ZM60.521 25.8304L62.4258 20.5155H62.7293L64.6339 25.8304H60.521Z" fill="black"/>
<path d="M76.024 25.7475V30.6471H72.0217V17.4705H76.024V22.2872H82.4555V17.4705H86.458V30.6471H82.4555V25.7475H76.024Z" fill="black"/>
<path d="M92.7932 25.6644V30.6471H88.7907V17.4705H92.7932V22.4256H93.8974L98.7279 17.4705H103.751L97.3477 23.782L104 30.6471H98.6726L93.8974 25.6644H92.7932Z" fill="black"/>
<path fill-rule="evenodd" clip-rule="evenodd" d="M31.9087 9H0V25.0937C0 29.2194 2.19462 33.0318 5.75727 35.0949L15.9543 41L26.1514 35.0949C29.714 33.0318 31.9087 29.2194 31.9087 25.0937V9ZM8.75713 22.476V17.4705H23.1515V22.476C22.4689 21.703 21.228 21.1799 19.8091 21.1799H18.2672V27.0017C18.2672 28.5478 18.6856 29.9011 19.3066 30.6471H12.5996C13.222 29.9018 13.6414 28.5468 13.6414 26.9987V21.1799H12.0995C10.6806 21.1799 9.43965 21.703 8.75713 22.476Z" fill="black"/>
</svg>
