<svg width="87" height="50" viewBox="0 0 87 50" fill="none" xmlns="http://www.w3.org/2000/svg">
<path d="M79.5262 12.1373C78.2235 14.2288 77.5721 17.617 77.5721 22.302V41H78.6177C81.5661 41 83.7088 39.9542 85.0459 37.8627C86.3486 35.7712 87 32.383 87 27.698V9L85.9544 9C83.006 9 80.8633 10.0458 79.5262 12.1373Z" fill="black"/>
<path d="M73.3708 36.2215V24.4806C73.3708 21.8415 71.2603 19.7021 68.6569 19.7021C66.0534 19.7021 63.9429 21.8415 63.9429 24.4806V36.2215C63.9429 38.8606 66.0534 41 68.6569 41C71.2603 41 73.3708 38.8606 73.3708 36.2215Z" fill="black"/>
<path d="M68.8496 17.4842C65.5785 17.4842 63.9429 16.0423 63.9429 13.1585C63.9429 11.6818 64.3333 10.623 65.114 9.98217C65.8947 9.32739 67.0855 9 68.6865 9C70.2875 9 71.4684 9.32739 72.2294 9.98217C72.9903 10.623 73.3708 11.6888 73.3708 13.1794C73.3708 14.6562 73.0151 15.7428 72.3035 16.4394C71.6019 17.1359 70.4505 17.4842 68.8496 17.4842Z" fill="black"/>
<path d="M48.214 36.2215V24.4594C48.214 21.8203 46.1034 19.6809 43.5 19.6809C40.8965 19.6809 38.786 21.8203 38.786 24.4594V36.2215C38.786 38.8606 40.8965 41 43.5 41C46.1034 41 48.214 38.8606 48.214 36.2215Z" fill="black"/>
<path d="M57.1387 19.6809C52.5897 19.6809 50.3153 21.6593 50.3153 25.6163V30.3341L50.3137 30.3404H52.9167C57.4656 30.3404 59.7401 28.3619 59.7401 24.405V19.6876L59.7416 19.6809H57.1387Z" fill="black"/>
<path d="M34.5851 36.2215V24.4806C34.5851 21.8415 32.4746 19.7021 29.8711 19.7021C27.2677 19.7021 25.1572 21.8415 25.1572 24.4806V36.2215C25.1572 38.8606 27.2677 41 29.8711 41C32.4746 41 34.5851 38.8606 34.5851 36.2215Z" fill="black"/>
<path d="M30.0639 17.4842C26.7927 17.4842 25.1572 16.0423 25.1572 13.1585C25.1572 11.6818 25.5475 10.623 26.3283 9.98217C27.109 9.32739 28.2998 9 29.9008 9C31.5018 9 32.6827 9.32739 33.4437 9.98217C34.2046 10.623 34.5851 11.6888 34.5851 13.1794C34.5851 14.6562 34.2293 15.7428 33.5178 16.4394C32.8161 17.1359 31.6648 17.4842 30.0639 17.4842Z" fill="black"/>
<path d="M13.482 12.1373C12.1793 14.2288 11.5279 17.617 11.5279 22.302V41C17.8102 41 20.9556 33.0011 20.9556 25.0021V9L19.91 9C16.9617 9 14.819 10.0458 13.482 12.1373Z" fill="black"/>
<path d="M7.47375 12.1373C8.77647 14.2288 9.42789 17.617 9.42789 22.302V41C3.14544 41 0 33.0011 0 25.0021V9L1.04564 9C3.99393 9 6.13674 10.0458 7.47375 12.1373Z" fill="black"/>
</svg>
