<svg width="191" height="70" viewBox="0 0 191 70" fill="none" xmlns="http://www.w3.org/2000/svg">
<g clip-path="url(#clip0_2374_55)">
<path d="M174.353 6.86284C171.451 11.438 170 18.8497 170 29.0981V70H172.329C178.896 70 183.669 67.7123 186.647 63.1372C189.549 58.562 191 51.1503 191 40.9019V0H188.671C182.104 0 177.331 2.28769 174.353 6.86284Z" fill="black"/>
<path d="M161 59.4549V33.5451C161 27.7212 156.299 23 150.5 23C144.701 23 140 27.7212 140 33.5451V59.4549C140 65.2788 144.701 70 150.5 70C156.299 70 161 65.2788 161 59.4549Z" fill="black"/>
<path d="M150.929 19C143.643 19 140 15.7709 140 9.31278C140 6.00577 140.87 3.63464 142.609 2.19953C144.347 0.733176 147 0 150.566 0C154.132 0 156.763 0.733176 158.458 2.19953C160.152 3.63464 161 6.02145 161 9.35959C161 12.6668 160.208 15.1002 158.623 16.6602C157.06 18.22 154.495 19 150.929 19Z" fill="black"/>
<path d="M106 59.4653V33.5347C106 27.7165 101.299 23 95.5 23C89.7009 23 85 27.7165 85 33.5347V59.4653C85 65.2835 89.7009 70 95.5 70C101.299 70 106 65.2835 106 59.4653Z" fill="black"/>
<path d="M125.202 23C115.07 23 110.004 27.4544 110.004 36.3636V46.9858L110 47H115.798C125.93 47 130.997 42.5454 130.997 33.6364V23.0151L131 23H125.202Z" fill="black"/>
<path d="M76 59.4549V33.5451C76 27.7212 71.299 23 65.4999 23C59.701 23 55 27.7212 55 33.5451V59.4549C55 65.2788 59.701 70 65.4999 70C71.299 70 76 65.2788 76 59.4549Z" fill="black"/>
<path d="M65.9293 19C58.643 19 55 15.7709 55 9.31278C55 6.00577 55.8694 3.63464 57.6085 2.19953C59.3475 0.733176 61.9999 0 65.566 0C69.1322 0 71.7625 0.733176 73.4576 2.19953C75.1525 3.63464 76 6.02145 76 9.35959C76 12.6668 75.2075 15.1002 73.6227 16.6602C72.0597 18.22 69.4952 19 65.9293 19Z" fill="black"/>
<path d="M30.1454 6.86284C27.3819 11.438 26 18.8497 26 29.0981V70C39.3273 70 46 52.5024 46 35.0046V0H43.7819C37.5273 0 32.9818 2.28769 30.1454 6.86284Z" fill="black"/>
<path d="M16.6473 6.86284C19.549 11.438 21 18.8497 21 29.0981V70C7.00626 70 0 52.5024 0 35.0046V0H2.32909C8.89621 0 13.6692 2.28769 16.6473 6.86284Z" fill="black"/>
</g>
<defs>
<clipPath id="clip0_2374_55">
<rect width="191" height="70" fill="white"/>
</clipPath>
</defs>
</svg>
