<svg width="49" height="18" viewBox="0 0 49 18" fill="none" xmlns="http://www.w3.org/2000/svg">
<path fill-rule="evenodd" clip-rule="evenodd" d="M37.535 0C39.5508 0 41.31 0.380381 42.8123 1.14105C44.3337 1.90175 45.5129 2.93832 46.3497 4.25053C47.1864 5.56273 47.605 7.03664 47.605 8.67211C47.605 10.0984 47.3482 11.3915 46.8347 12.5516C46.3403 13.6926 45.6365 14.672 44.7237 15.4897C43.8299 16.2884 42.7935 16.9066 41.6145 17.344C40.4544 17.7814 39.2276 18 37.9344 18C37.3829 18 36.6982 17.9715 35.8805 17.9145C35.0818 17.8574 34.3401 17.829 33.6555 17.829C33.0279 17.829 32.4192 17.8384 31.8297 17.8574C31.2592 17.8764 30.7458 17.8861 30.2894 17.8861C30.2514 17.8861 30.2323 17.8288 30.2323 17.7147C30.2323 17.6007 30.2514 17.5437 30.2894 17.5437C30.974 17.5437 31.4971 17.4961 31.8584 17.4011C32.2197 17.306 32.4574 17.1158 32.5715 16.8305C32.6856 16.5453 32.7426 16.1268 32.7426 15.5753V2.36763C32.7426 1.81616 32.6856 1.40729 32.5715 1.14105C32.4574 0.855803 32.2197 0.665619 31.8584 0.570527C31.5161 0.456422 31.0025 0.39948 30.3179 0.39948C30.2799 0.399424 30.2607 0.342203 30.2607 0.228155C30.2608 0.114144 30.2799 0.057165 30.3179 0.0571084C30.7743 0.0571084 31.2879 0.0761821 31.8584 0.114217C32.4289 0.133233 33.0279 0.142632 33.6555 0.142632C34.283 0.142632 34.9581 0.123554 35.6808 0.0855233C36.4034 0.0284744 37.0215 4.19121e-06 37.535 0ZM37.7918 0.427895C36.6508 0.427895 35.8331 0.542077 35.3387 0.770267C34.8442 0.998478 34.5968 1.54993 34.5968 2.42474V15.2616C34.5968 16.0603 34.787 16.6499 35.1673 17.0303C35.5667 17.3916 36.394 17.5721 37.6492 17.5721C39.1706 17.5721 40.5112 17.2583 41.6713 16.6308C42.8313 15.9842 43.7444 15.043 44.41 13.8069C45.0946 12.5707 45.4368 11.0681 45.4368 9.29947C45.4368 7.64503 45.123 6.15224 44.4955 4.82106C43.8679 3.47084 42.9836 2.40577 41.8426 1.62606C40.7206 0.827319 39.3703 0.427895 37.7918 0.427895Z" fill="black"/>
<path d="M26.5579 0.0571084C26.6149 0.0571084 26.6437 0.114087 26.6437 0.228155C26.6437 0.34226 26.615 0.39948 26.5579 0.39948C25.9114 0.399504 25.3219 0.608538 24.7895 1.02684C24.276 1.4262 23.8384 2.08242 23.4771 2.99526L17.6579 17.8574C17.6389 17.9334 17.5341 17.9716 17.344 17.9716C17.1728 17.9716 17.0683 17.9334 17.0303 17.8574L13.3188 9.8583L10.2124 17.8574C10.1934 17.9334 10.0888 17.9716 9.89869 17.9716C9.72753 17.9716 9.62277 17.9334 9.58473 17.8574L2.42474 2.42474C2.19653 1.89225 1.96821 1.48342 1.73999 1.19816C1.5308 0.912907 1.29308 0.713044 1.02684 0.598941C0.779629 0.465866 0.465806 0.39948 0.0855233 0.39948C0.0285077 0.399443 0 0.342223 0 0.228155C9.3592e-06 0.114125 0.0285171 0.0571455 0.0855233 0.0571084C0.332751 0.0571084 0.561073 0.066506 0.770267 0.0855233C0.979415 0.104536 1.20757 0.123619 1.45473 0.142632H3.96527C4.40263 0.123616 4.78305 0.104539 5.10632 0.0855233C5.42958 0.0665104 5.72431 0.0571084 5.99053 0.0571084C6.04757 0.0571084 6.07604 0.114087 6.07605 0.228155C6.07605 0.34226 6.04758 0.39948 5.99053 0.39948C5.22983 0.39948 4.74499 0.542112 4.5358 0.827375C4.34564 1.09363 4.44072 1.6545 4.82106 2.51026L10.6152 14.8916L12.9285 9.01672L9.87 2.42474C9.56574 1.74017 9.24256 1.23619 8.90027 0.912898C8.577 0.570608 8.1681 0.399506 7.67369 0.39948C7.61664 0.39948 7.58789 0.34226 7.58789 0.228155C7.5879 0.114087 7.61665 0.0571084 7.67369 0.0571084C7.92088 0.0571112 8.1396 0.0665088 8.32974 0.0855233C8.53892 0.104539 8.7576 0.123616 8.98579 0.142632H9.81317C10.5738 0.142631 11.1444 0.133233 11.5247 0.114217C11.924 0.0761931 12.2758 0.057113 12.58 0.0571084C12.637 0.0571084 12.6658 0.114087 12.6658 0.228155C12.6658 0.34226 12.6371 0.39948 12.58 0.39948C12.0095 0.399496 11.7054 0.523054 11.6674 0.770267C11.6484 1.01752 11.848 1.5975 12.2663 2.51026L14.0932 6.41424L15.4897 2.85263C15.8321 1.99684 15.9556 1.37877 15.8605 0.998421C15.7654 0.59907 15.4232 0.39948 14.8337 0.39948C14.7957 0.39948 14.7766 0.34226 14.7766 0.228155C14.7766 0.114087 14.7957 0.0571084 14.8337 0.0571084C15.0429 0.0571084 15.2046 0.066506 15.3187 0.0855233C15.4518 0.104538 15.6135 0.123617 15.8037 0.142632H16.7163C17.2108 0.142632 17.6199 0.133234 17.9432 0.114217C18.2665 0.0761898 18.6563 0.0571084 19.1126 0.0571084C19.1507 0.0571084 19.1697 0.114087 19.1697 0.228155C19.1697 0.34226 19.1507 0.39948 19.1126 0.39948C18.4851 0.39948 17.9336 0.589656 17.4582 0.970007C16.9827 1.35036 16.5548 2.02539 16.1745 2.99526L14.4849 7.25137L18.0599 14.89L22.7355 2.99526C23.0588 2.15851 23.0779 1.52134 22.7926 1.08394C22.5264 0.627533 21.9368 0.399489 21.024 0.39948C20.9669 0.39948 20.9384 0.34226 20.9384 0.228155C20.9384 0.114087 20.9669 0.0571084 21.024 0.0571084C21.4804 0.0571099 21.9274 0.0761836 22.3648 0.114217C22.8021 0.133231 23.3537 0.142632 24.0192 0.142632C24.5707 0.142631 25.008 0.133231 25.3313 0.114217C25.6736 0.0761851 26.0825 0.0571113 26.5579 0.0571084Z" fill="black"/>
</svg>
