<svg width="170" height="24" viewBox="0 0 170 24" fill="none" xmlns="http://www.w3.org/2000/svg">
<path fill-rule="evenodd" clip-rule="evenodd" d="M114.953 6.16532C114.988 6.16544 115.015 6.22723 115.033 6.35059C115.068 6.47407 115.086 6.60639 115.086 6.7475C115.086 6.94155 115.059 7.15334 115.006 7.38267C114.971 7.59423 114.918 7.68249 114.847 7.64728C114.688 7.57671 114.449 7.49723 114.131 7.40902C113.831 7.30319 113.477 7.25036 113.071 7.25036C112.841 7.25037 112.629 7.26781 112.435 7.30308C112.432 7.30346 112.43 7.30373 112.428 7.30411C112.637 7.5183 112.807 7.75596 112.938 8.01757C113.203 8.52915 113.336 9.04965 113.336 9.57886C113.336 10.1963 113.168 10.7696 112.832 11.2988C112.496 11.828 112.01 12.2601 111.374 12.5952C110.756 12.9128 110.022 13.0717 109.174 13.0717C108.529 13.0717 107.956 12.9797 107.455 12.7965C107.125 13.075 106.885 13.3342 106.735 13.5743C106.558 13.8566 106.47 14.1653 106.47 14.5005C106.47 14.8886 106.593 15.1886 106.841 15.4002C107.088 15.6119 107.495 15.7619 108.06 15.8501C108.626 15.9207 109.377 15.9648 110.314 15.9824C110.756 15.9824 111.233 15.9911 111.745 16.0088C112.275 16.0264 112.788 16.1146 113.283 16.2734C113.778 16.4145 114.184 16.6704 114.502 17.0409C114.821 17.4113 114.98 17.9493 114.98 18.6549C114.98 19.3957 114.794 20.0837 114.423 20.7188C114.069 21.3714 113.583 21.9448 112.965 22.4387C112.346 22.9326 111.639 23.3119 110.844 23.5765C110.049 23.8587 109.236 24 108.405 24C107.168 24 106.204 23.7177 105.515 23.1532C104.826 22.6064 104.481 21.9184 104.481 21.0893C104.481 20.2426 104.835 19.431 105.542 18.6549C105.99 18.1734 106.557 17.6956 107.241 17.2212C106.61 17.1639 106.106 16.9982 105.727 16.7233C105.338 16.4587 105.144 16.0353 105.144 15.4532C105.144 14.8535 105.338 14.3329 105.727 13.8919C106.062 13.497 106.508 13.0761 107.066 12.6288C107.044 12.6177 107.022 12.6068 107 12.5952C106.399 12.2777 105.939 11.8544 105.621 11.3252C105.303 10.796 105.144 10.2316 105.144 9.63184C105.144 8.97914 105.321 8.39684 105.674 7.88527C106.028 7.35609 106.523 6.94143 107.159 6.64156C107.795 6.34169 108.529 6.19194 109.359 6.19193C110.314 6.19193 111.082 6.36834 111.666 6.72115C111.825 6.81287 111.973 6.91232 112.108 7.01857C112.491 6.79992 112.865 6.62106 113.23 6.4829C113.742 6.27124 114.317 6.16532 114.953 6.16532ZM107.852 17.2783C107.697 17.3726 107.545 17.4699 107.397 17.5701C106.973 17.87 106.629 18.2228 106.363 18.6285C106.116 19.0519 105.992 19.5811 105.992 20.2162C105.992 20.8159 106.125 21.3362 106.39 21.7772C106.673 22.2358 107.07 22.5887 107.583 22.8356C108.113 23.0826 108.749 23.2062 109.492 23.2062C110.711 23.2062 111.71 22.8885 112.487 22.2534C113.265 21.6184 113.654 20.754 113.654 19.6603C113.654 18.9195 113.469 18.3902 113.097 18.0727C112.744 17.7551 112.249 17.5523 111.613 17.4641C110.994 17.3936 110.269 17.3582 109.439 17.3582C108.878 17.3455 108.349 17.3186 107.852 17.2783ZM108.723 6.58884C108.14 6.58884 107.663 6.77397 107.291 7.14442C106.938 7.51487 106.761 8.13229 106.761 8.99667C106.761 9.82577 106.911 10.5137 107.212 11.0606C107.512 11.6074 107.884 12.0133 108.325 12.2779C108.767 12.5425 109.218 12.6748 109.677 12.6748C110.243 12.6748 110.711 12.4807 111.082 12.0926C111.471 11.7046 111.666 11.0607 111.666 10.1611C111.666 9.40251 111.533 8.75842 111.268 8.22921C111.003 7.70003 110.649 7.29435 110.208 7.01211C109.766 6.72988 109.271 6.58886 108.723 6.58884Z" fill="black"/>
<path fill-rule="evenodd" clip-rule="evenodd" d="M31.9078 6.13896C32.9329 6.13897 33.7193 6.39467 34.2672 6.90617C34.8327 7.41772 35.1156 8.16752 35.1156 9.15533C35.1156 9.38466 35.0891 9.57004 35.0361 9.71117C35.0008 9.83462 34.9211 9.89644 34.7974 9.89644H33.5516L28.29 9.9197C28.263 10.1885 28.2494 10.4719 28.2494 10.7696C28.2494 11.7751 28.4084 12.6659 28.7265 13.442C29.0446 14.2006 29.513 14.7916 30.1315 15.215C30.7501 15.6383 31.5013 15.8501 32.385 15.8501C32.9682 15.8501 33.4455 15.7706 33.8167 15.6119C34.2055 15.4531 34.6032 15.259 35.0097 15.0297C35.045 14.9945 35.0893 15.0209 35.1423 15.109C35.213 15.1796 35.2304 15.2414 35.1951 15.2943C34.5588 15.8764 33.9137 16.291 33.2598 16.538C32.6059 16.785 31.9253 16.9086 31.2184 16.9086C30.1227 16.9085 29.2037 16.6703 28.4614 16.1941C27.7191 15.7001 27.1534 15.065 26.7646 14.2888C26.3934 13.5127 26.208 12.6834 26.208 11.8014C26.208 10.743 26.4554 9.79042 26.9502 8.9437C27.4628 8.07933 28.152 7.40009 29.018 6.90617C29.8841 6.39459 30.8474 6.13896 31.9078 6.13896ZM31.0064 6.66817C30.1404 6.66819 29.4598 7.03869 28.965 7.77958C28.6601 8.25288 28.4532 8.83065 28.3431 9.51271L32.9851 9.43002C32.9902 8.59908 32.8435 7.95183 32.544 7.48836C32.2081 6.94155 31.6956 6.66817 31.0064 6.66817Z" fill="black"/>
<path fill-rule="evenodd" clip-rule="evenodd" d="M75.1989 6.13896C76.2063 6.13898 76.9662 6.40358 77.4788 6.93278C78.0089 7.46198 78.2741 8.20281 78.2741 9.15533C78.2741 9.3846 78.2476 9.56107 78.1946 9.68455C78.1593 9.79039 78.0796 9.84347 77.9559 9.84347H76.8691L71.4076 9.86724C71.3725 10.1669 71.3548 10.4854 71.3548 10.8226C71.3548 11.828 71.5138 12.7189 71.8319 13.495C72.1501 14.2712 72.6184 14.8799 73.237 15.3209C73.8556 15.7619 74.6067 15.9824 75.4904 15.9824C76.0913 15.9824 76.5861 15.8942 76.9749 15.7178C77.3638 15.5414 77.7527 15.3383 78.1415 15.109C78.1769 15.0738 78.2211 15.1004 78.2741 15.1886C78.3447 15.2591 78.3624 15.3207 78.3272 15.3736C77.7086 15.9205 77.0722 16.3174 76.4183 16.5644C75.782 16.7937 75.128 16.9086 74.4564 16.9086C73.396 16.9085 72.5035 16.6703 71.7789 16.1941C71.0542 15.7001 70.5063 15.065 70.1351 14.2888C69.7817 13.5127 69.6049 12.6924 69.6049 11.828C69.6049 10.752 69.8523 9.79044 70.3472 8.9437C70.842 8.07931 71.5138 7.4001 72.3622 6.90617C73.2282 6.39462 74.1738 6.13896 75.1989 6.13896ZM74.3238 6.66817C73.3872 6.6682 72.6537 7.0387 72.1235 7.77958C71.7991 8.24853 71.5774 8.82702 71.4584 9.51504L76.4869 9.42666C76.4949 8.56003 76.331 7.90513 75.9942 7.462C75.6054 6.93278 75.0485 6.66817 74.3238 6.66817Z" fill="black"/>
<path fill-rule="evenodd" clip-rule="evenodd" d="M140.985 6.13896C141.992 6.13897 142.752 6.40358 143.265 6.93278C143.795 7.46198 144.06 8.20281 144.06 9.15533C144.06 9.3846 144.034 9.56107 143.981 9.68455C143.945 9.79039 143.866 9.84347 143.742 9.84347H142.655L137.194 9.86724C137.158 10.1669 137.141 10.4854 137.141 10.8226C137.141 11.828 137.3 12.7189 137.618 13.495C137.936 14.2712 138.404 14.8799 139.023 15.3209C139.641 15.7619 140.393 15.9824 141.276 15.9824C141.877 15.9824 142.372 15.8942 142.761 15.7178C143.15 15.5414 143.539 15.3383 143.927 15.109C143.963 15.0738 144.007 15.1004 144.06 15.1886C144.131 15.2591 144.148 15.3207 144.113 15.3736C143.494 15.9205 142.858 16.3174 142.204 16.5644C141.568 16.7937 140.914 16.9086 140.242 16.9086C139.182 16.9085 138.289 16.6703 137.565 16.1941C136.84 15.7001 136.292 15.065 135.921 14.2888C135.568 13.5127 135.391 12.6924 135.391 11.828C135.391 10.752 135.638 9.79044 136.133 8.9437C136.628 8.07931 137.3 7.4001 138.148 6.90617C139.014 6.39462 139.96 6.13896 140.985 6.13896ZM140.11 6.66817C139.173 6.6682 138.44 7.0387 137.909 7.77958C137.585 8.24853 137.363 8.82702 137.244 9.51504L142.273 9.42666C142.281 8.56003 142.117 7.90513 141.78 7.462C141.391 6.93278 140.834 6.66817 140.11 6.66817Z" fill="black"/>
<path d="M87.1872 6.05963C87.523 6.05963 87.85 6.08604 88.1681 6.13896C88.4862 6.19188 88.8043 6.29779 89.1224 6.45654C89.2815 6.50946 89.3611 6.60638 89.3611 6.7475C89.3611 7.02975 89.3524 7.32975 89.3347 7.64728C89.3171 7.94713 89.3081 8.29106 89.3081 8.67909C89.3081 8.71437 89.2551 8.73206 89.1491 8.73206C89.043 8.73206 88.9899 8.71437 88.9899 8.67909C88.9899 8.27339 88.8486 7.91181 88.5658 7.5943C88.283 7.27678 87.9295 7.02986 87.5053 6.85345C87.0812 6.65941 86.657 6.56223 86.2329 6.56223C85.8087 6.56223 85.4552 6.67688 85.1724 6.90617C84.9073 7.13549 84.7748 7.49728 84.7748 7.99121C84.7748 8.44981 84.8896 8.83783 85.1193 9.15533C85.3668 9.47286 85.6673 9.74645 86.0208 9.97577C86.3919 10.1874 86.7807 10.399 87.1872 10.6107C87.6467 10.84 88.0798 11.0872 88.4863 11.3518C88.8928 11.5987 89.2286 11.9075 89.4937 12.2779C89.7588 12.6307 89.8914 13.0982 89.8914 13.6803C89.8913 14.2448 89.7501 14.774 89.4673 15.2679C89.1845 15.7442 88.7601 16.1322 88.1945 16.4321C87.6467 16.7319 86.9663 16.8819 86.1534 16.8819C85.7115 16.8819 85.2871 16.8201 84.8806 16.6967C84.4742 16.5908 84.05 16.388 83.6082 16.0881C83.5728 16.0528 83.5376 16.0087 83.5023 15.9558C83.4669 15.9029 83.4492 15.8411 83.4492 15.7705L83.3961 13.7066C83.3962 13.6538 83.4403 13.6273 83.5287 13.6273C83.6347 13.6097 83.6966 13.6274 83.7143 13.6803C83.9264 14.28 84.1915 14.7829 84.5096 15.1886C84.8277 15.5766 85.19 15.8764 85.5965 16.0881C86.003 16.2822 86.4361 16.3793 86.8956 16.3793C87.4612 16.3793 87.8941 16.238 88.1945 15.9558C88.5127 15.6736 88.6629 15.259 88.6453 14.7121C88.6276 14.2006 88.495 13.7862 88.2476 13.4687C88.0002 13.1511 87.6909 12.8865 87.3197 12.6748C86.9662 12.4455 86.595 12.2337 86.2062 12.0397C85.7644 11.828 85.3402 11.6075 84.9337 11.3781C84.5449 11.1312 84.2179 10.8225 83.9528 10.452C83.7053 10.0816 83.5818 9.59642 83.5818 8.99667C83.5818 8.3087 83.7585 7.75307 84.112 7.32969C84.4655 6.88868 84.916 6.571 85.4639 6.37695C86.0118 6.16527 86.5863 6.05963 87.1872 6.05963Z" fill="black"/>
<path fill-rule="evenodd" clip-rule="evenodd" d="M55.357 0C57.2304 0 58.8653 0.352839 60.2615 1.05843C61.6755 1.76405 62.7714 2.72557 63.549 3.94276C64.3267 5.15994 64.7156 6.52713 64.7156 8.04419C64.7156 9.36718 64.477 10.5667 63.9998 11.6428C63.5402 12.7012 62.8862 13.6096 62.0378 14.3682C61.2072 15.109 60.244 15.6824 59.1483 16.0881C58.0702 16.4938 56.9301 16.6967 55.7282 16.6967C55.2157 16.6967 54.5794 16.6703 53.8194 16.6173C53.0771 16.5644 52.3878 16.538 51.7516 16.538C51.1683 16.538 50.6027 16.5467 50.0548 16.5644C49.5246 16.582 49.0475 16.591 48.6233 16.591C48.588 16.591 48.5702 16.5379 48.5702 16.4321C48.5703 16.3263 48.588 16.2734 48.6233 16.2734C49.2596 16.2734 49.7456 16.2293 50.0814 16.1411C50.4172 16.0529 50.6382 15.8765 50.7442 15.6119C50.8502 15.3473 50.9032 14.9591 50.9032 14.4475V2.19619C50.9032 1.68466 50.8502 1.30539 50.7442 1.05843C50.6382 0.793836 50.4172 0.617423 50.0814 0.529216C49.7633 0.423373 49.286 0.370555 48.6497 0.370555C48.6144 0.370502 48.5967 0.317425 48.5967 0.211635C48.5967 0.105879 48.6144 0.0530258 48.6497 0.0529733C49.0739 0.0529733 49.5512 0.070666 50.0814 0.105947C50.6116 0.123586 51.1684 0.132304 51.7516 0.132304C52.3348 0.132304 52.9622 0.114608 53.6338 0.0793307C54.3053 0.0264126 54.8798 3.88774e-06 55.357 0ZM55.5957 0.396912C54.5353 0.396912 53.7754 0.502827 53.3158 0.714493C52.8563 0.92618 52.6264 1.4377 52.6264 2.24917V14.1565C52.6264 14.8974 52.8031 15.4443 53.1566 15.7972C53.5278 16.1323 54.2966 16.2998 55.4631 16.2998C56.877 16.2998 58.123 16.0087 59.2011 15.4266C60.2792 14.8268 61.1277 13.9537 61.7463 12.8071C62.3826 11.6605 62.7006 10.2667 62.7006 8.62612C62.7006 7.09147 62.409 5.70677 61.8258 4.47198C61.2426 3.21952 60.4207 2.23158 59.3603 1.50832C58.3176 0.767415 57.0626 0.396912 55.5957 0.396912Z" fill="black"/>
<path d="M24.6818 0.0529733C24.7348 0.0529733 24.7615 0.105827 24.7615 0.211635C24.7615 0.317478 24.7348 0.370555 24.6818 0.370555C24.0809 0.370577 23.5331 0.564475 23.0383 0.952486C22.5611 1.32294 22.1544 1.93164 21.8186 2.77838L16.4105 16.5644C16.3928 16.6349 16.2955 16.6703 16.1187 16.6703C15.9597 16.6703 15.8625 16.6349 15.8272 16.5644L12.3779 9.14448L9.49093 16.5644C9.47326 16.6349 9.37612 16.6703 9.19941 16.6703C9.04034 16.6703 8.94298 16.6349 8.90763 16.5644L2.25345 2.24917C2.04136 1.75523 1.82916 1.37601 1.61707 1.11141C1.42266 0.846806 1.20173 0.661414 0.954297 0.555573C0.724553 0.432134 0.4329 0.370555 0.0794816 0.370555C0.0264938 0.37052 0 0.317443 0 0.211635C8.69804e-06 0.105861 0.0265026 0.0530078 0.0794816 0.0529733C0.309245 0.0529733 0.521437 0.0616904 0.715852 0.0793307C0.910225 0.096967 1.12226 0.114668 1.35196 0.132304H3.68515C4.09161 0.114665 4.44516 0.0969695 4.74559 0.0793307C5.04601 0.0616946 5.31993 0.0529733 5.56734 0.0529733C5.62035 0.0529733 5.64681 0.105827 5.64682 0.211635C5.64682 0.317478 5.62036 0.370555 5.56734 0.370555C4.86037 0.370555 4.40979 0.502859 4.21537 0.767467C4.03865 1.01444 4.12701 1.5347 4.48048 2.3285L9.8653 13.8134L12.0152 8.36384L9.17275 2.24917C8.88998 1.61416 8.58963 1.14668 8.27152 0.846797C7.97109 0.529291 7.59108 0.370578 7.1316 0.370555C7.07857 0.370555 7.05186 0.317478 7.05186 0.211635C7.05186 0.105827 7.07858 0.0529733 7.1316 0.0529733C7.36132 0.0529759 7.56459 0.0616931 7.7413 0.0793307C7.9357 0.0969696 8.13893 0.114665 8.351 0.132304H9.11993C9.82684 0.132303 10.3571 0.123586 10.7106 0.105947C11.0817 0.0706762 11.4086 0.0529776 11.6913 0.0529733C11.7443 0.0529733 11.771 0.105827 11.771 0.211635C11.771 0.317478 11.7443 0.370555 11.6913 0.370555C11.1611 0.37057 10.8785 0.485181 10.8432 0.714493C10.8255 0.943841 11.011 1.48183 11.3998 2.3285L13.0976 5.9498L14.3955 2.64608C14.7136 1.85226 14.8285 1.27894 14.7401 0.926128C14.6517 0.555692 14.3337 0.370555 13.7858 0.370555C13.7504 0.370555 13.7327 0.317478 13.7327 0.211635C13.7327 0.105827 13.7504 0.0529733 13.7858 0.0529733C13.9802 0.0529733 14.1305 0.0616904 14.2365 0.0793307C14.3602 0.096969 14.5105 0.114666 14.6873 0.132304H15.5354C15.9949 0.132304 16.3751 0.123587 16.6756 0.105947C16.976 0.070673 17.3383 0.0529733 17.7625 0.0529733C17.7978 0.0529733 17.8155 0.105827 17.8155 0.211635C17.8155 0.317478 17.7978 0.370555 17.7625 0.370555C17.1792 0.370555 16.6667 0.546961 16.2249 0.899771C15.783 1.25258 15.3853 1.87874 15.0319 2.77838L13.4616 6.72632L16.7841 13.8118L21.1294 2.77838C21.4299 2.00222 21.4476 1.41119 21.1825 1.00546C20.9351 0.582095 20.3871 0.370563 19.5388 0.370555C19.4857 0.370555 19.4593 0.317478 19.4593 0.211635C19.4593 0.105827 19.4857 0.0529733 19.5388 0.0529733C19.9629 0.0529747 20.3783 0.0706674 20.7848 0.105947C21.1913 0.123584 21.7039 0.132304 22.3224 0.132304C22.8349 0.132303 23.2414 0.123584 23.5418 0.105947C23.8599 0.0706687 24.2399 0.052976 24.6818 0.0529733Z" fill="black"/>
<path d="M98.16 6.13896C98.1954 6.13901 98.2396 6.16542 98.2926 6.21829C98.3456 6.25356 98.3721 6.2977 98.3721 6.35059C98.3721 6.49172 98.3631 6.83581 98.3454 7.38267C98.3277 7.9295 98.319 8.62625 98.319 9.47292V14.4475C98.319 15.1884 98.4161 15.6825 98.6105 15.9295C98.8226 16.1588 99.2822 16.2734 99.9891 16.2734C100.042 16.2734 100.069 16.3263 100.069 16.4321C100.069 16.5379 100.042 16.591 99.9891 16.591C99.671 16.591 99.2998 16.582 98.8756 16.5644C98.4692 16.5467 98.0362 16.538 97.5767 16.538C97.1172 16.538 96.6753 16.5467 96.2512 16.5644C95.8447 16.582 95.4735 16.591 95.1377 16.591C95.1023 16.591 95.0846 16.5379 95.0846 16.4321C95.0846 16.3263 95.1023 16.2734 95.1377 16.2734C95.8269 16.2734 96.2775 16.1587 96.4896 15.9295C96.7194 15.6825 96.8345 15.1884 96.8345 14.4475V9.49953C96.8345 8.88211 96.7726 8.43212 96.6488 8.14988C96.5251 7.85 96.2952 7.69999 95.9594 7.69999C95.818 7.70001 95.6502 7.7354 95.4558 7.80594C95.2614 7.85886 95.0315 7.94706 94.7664 8.07054C94.6957 8.08813 94.634 8.05276 94.581 7.9646C94.5457 7.85879 94.5544 7.78824 94.6074 7.75296L98.0539 6.16532C98.1069 6.14768 98.1424 6.13896 98.16 6.13896Z" fill="black"/>
<path d="M126.494 6.03301C127.466 6.03303 128.217 6.30661 128.747 6.85345C129.295 7.38267 129.569 8.18528 129.569 9.26128V14.4475C129.569 15.1884 129.666 15.6825 129.86 15.9295C130.073 16.1588 130.523 16.2734 131.213 16.2734C131.266 16.2734 131.292 16.3263 131.292 16.4321C131.292 16.5379 131.266 16.5909 131.213 16.591C130.912 16.591 130.55 16.582 130.126 16.5644C129.719 16.5467 129.286 16.538 128.827 16.538C128.367 16.538 127.925 16.5467 127.501 16.5644C127.077 16.582 126.715 16.591 126.414 16.591C126.361 16.5909 126.335 16.5378 126.335 16.4321C126.335 16.3264 126.361 16.2735 126.414 16.2734C127.103 16.2734 127.545 16.1587 127.74 15.9295C127.952 15.6825 128.058 15.1884 128.058 14.4475V10.1611C128.058 9.10262 127.863 8.3352 127.474 7.85891C127.086 7.36499 126.467 7.11806 125.619 7.11806C124.982 7.11808 124.329 7.3209 123.657 7.72661C123.207 7.99866 122.8 8.33835 122.437 8.74524V14.4475C122.437 15.1884 122.535 15.6825 122.729 15.9295C122.941 16.1587 123.392 16.2734 124.081 16.2734C124.134 16.2734 124.161 16.3263 124.161 16.4321C124.161 16.5379 124.134 16.591 124.081 16.591C123.781 16.591 123.418 16.582 122.994 16.5644C122.588 16.5467 122.155 16.538 121.695 16.538C121.236 16.538 120.794 16.5467 120.37 16.5644C119.945 16.582 119.583 16.591 119.283 16.591C119.23 16.591 119.203 16.5379 119.203 16.4321C119.203 16.3263 119.23 16.2734 119.283 16.2734C119.972 16.2734 120.414 16.1588 120.608 15.9295C120.82 15.6825 120.926 15.1884 120.926 14.4475V9.20831C120.926 8.6262 120.856 8.20284 120.714 7.93824C120.59 7.65605 120.352 7.515 119.999 7.51497C119.822 7.51497 119.61 7.5501 119.362 7.62066C119.132 7.69122 118.867 7.7884 118.567 7.91188C118.496 7.92951 118.434 7.89413 118.381 7.80594C118.346 7.71774 118.364 7.65594 118.434 7.62066L121.509 6.16532C121.563 6.14768 121.616 6.13896 121.669 6.13896C121.792 6.13901 121.951 6.32416 122.146 6.69453C122.34 7.06498 122.437 7.60317 122.437 8.3088V8.31448C123.008 7.65212 123.573 7.13838 124.134 6.77386C124.912 6.27995 125.698 6.03301 126.494 6.03301Z" fill="black"/>
<path d="M155.2 6.13896C155.571 6.13897 155.933 6.24486 156.287 6.45654C156.658 6.66821 156.844 6.92388 156.844 7.22375C156.844 7.45307 156.764 7.64717 156.605 7.80594C156.464 7.9647 156.252 8.04419 155.969 8.04419C155.739 8.04417 155.545 7.9734 155.386 7.83229C155.227 7.69117 155.059 7.55887 154.882 7.43538C154.705 7.31194 154.475 7.25038 154.193 7.25036C154.034 7.25036 153.866 7.29446 153.689 7.38267C153.512 7.47088 153.274 7.67371 152.973 7.99121C152.784 8.18029 152.545 8.43945 152.257 8.76876V14.4475C152.257 14.9414 152.319 15.3296 152.443 15.6119C152.567 15.8765 152.814 16.0529 153.185 16.1411C153.556 16.2293 154.104 16.2734 154.829 16.2734C154.9 16.2734 154.935 16.3263 154.935 16.4321C154.935 16.5379 154.9 16.591 154.829 16.591C154.405 16.591 153.901 16.582 153.318 16.5644C152.752 16.5467 152.151 16.538 151.515 16.538C151.055 16.538 150.614 16.5467 150.189 16.5644C149.765 16.582 149.403 16.591 149.103 16.591C149.05 16.591 149.023 16.5379 149.023 16.4321C149.023 16.3263 149.05 16.2734 149.103 16.2734C149.792 16.2734 150.234 16.1588 150.428 15.9295C150.64 15.6825 150.746 15.1884 150.746 14.4475V9.20831C150.746 8.6262 150.675 8.20284 150.534 7.93824C150.41 7.65604 150.172 7.515 149.818 7.51497C149.642 7.51497 149.429 7.5501 149.182 7.62066C148.952 7.69122 148.687 7.7884 148.387 7.91188C148.316 7.92951 148.254 7.89413 148.201 7.80594C148.166 7.71774 148.183 7.65594 148.254 7.62066L151.329 6.16532C151.382 6.14768 151.436 6.13896 151.489 6.13896C151.612 6.13901 151.771 6.32416 151.966 6.69453C152.16 7.06498 152.257 7.60317 152.257 8.3088V8.34239C152.622 7.92027 152.941 7.57377 153.212 7.30308C153.636 6.86214 153.998 6.56233 154.299 6.40357C154.617 6.22716 154.917 6.13896 155.2 6.13896Z" fill="black"/>
<path d="M162.232 5.60974C162.25 5.57446 162.312 5.56549 162.418 5.58313C162.524 5.58313 162.559 5.60087 162.524 5.6361C162.453 5.93593 162.515 6.13879 162.709 6.24465C162.922 6.33285 163.284 6.37695 163.797 6.37695H169.417C169.488 6.37698 169.549 6.4124 169.602 6.4829C169.655 6.55344 169.664 6.62399 169.629 6.69453L163.372 16.0088C163.302 16.1322 163.346 16.194 163.505 16.1941C164.724 16.1941 165.696 16.1676 166.421 16.1147C167.163 16.0618 167.738 15.9559 168.144 15.7972C168.551 15.6208 168.86 15.3561 169.072 15.0033C169.302 14.6505 169.514 14.1741 169.708 13.5743C169.726 13.5391 169.779 13.5214 169.867 13.5214C169.956 13.5214 170 13.5391 170 13.5743L169.947 16.2998C169.947 16.3703 169.92 16.4411 169.867 16.5116C169.832 16.5645 169.779 16.591 169.708 16.591H161.516C161.446 16.5909 161.384 16.5555 161.331 16.485C161.296 16.4145 161.296 16.344 161.331 16.2734L167.694 6.90617C167.764 6.78279 167.72 6.72117 167.561 6.72115C166.271 6.72115 165.228 6.78268 164.433 6.90617C163.637 7.01201 163.019 7.23253 162.577 7.56769C162.153 7.90285 161.835 8.40569 161.623 9.076C161.605 9.12893 161.543 9.14662 161.437 9.12898C161.349 9.0937 161.313 9.05831 161.331 9.02303L162.232 5.60974Z" fill="black"/>
<path d="M97.3647 0.820182C97.7181 0.820201 97.992 0.917379 98.1864 1.11141C98.3808 1.30544 98.4779 1.57882 98.478 1.93159C98.478 2.67245 98.1069 3.04296 97.3647 3.04299C97.0113 3.04299 96.7284 2.94603 96.5163 2.75203C96.3042 2.55798 96.1981 2.2844 96.1981 1.93159C96.1981 1.5788 96.3042 1.30544 96.5163 1.11141C96.7284 0.91736 97.0112 0.820182 97.3647 0.820182Z" fill="black"/>
</svg>
