<svg width="816" height="816" viewBox="0 0 816 816" fill="none" xmlns="http://www.w3.org/2000/svg">
<path d="M499.039 705.49C488.579 705.49 478.199 701.83 469.249 694.68C461.149 688.21 454.919 679.52 451.229 669.54C447.989 660.79 446.939 651.57 448.119 642.56C441.979 642.56 432.649 642.56 422.479 642.58C399.649 642.6 371.239 642.62 362.599 642.56C360.089 642.54 357.749 641.41 356.179 639.45C354.599 637.49 353.999 634.94 354.519 632.47C357.369 619.01 353.539 603.89 344.509 593.02C337.309 584.35 327.879 579.62 317.869 579.62C317.599 579.62 317.339 579.62 317.069 579.62H316.919H316.769C306.419 579.36 296.669 584.15 289.289 593.06C280.299 603.9 276.469 618.99 279.309 632.45C279.829 634.92 279.219 637.46 277.639 639.42C276.069 641.37 273.729 642.5 271.219 642.52C256.929 642.61 187.769 642.59 182.719 642.55H182.479C180.119 642.44 177.949 641.44 176.049 639.59C175.629 639.19 175.279 638.77 174.979 638.32C174.689 637.9 173.419 635.9 173.269 633.57C173.269 633.44 173.249 633.32 173.249 633.22C173.059 630.73 173.099 623.46 173.249 606.18C173.409 587.33 173.629 562.4 173.119 549.87C160.809 551.17 147.839 548.68 137.579 542.91L137.379 542.8C125.399 535.5 116.959 525.73 112.979 514.56C109.299 504.23 109.469 493.19 113.479 482.64C117.839 471.16 126.399 461.38 137.569 455.12C148.239 449.13 160.489 446.73 173.249 448.07C173.249 440.65 173.249 428.67 173.229 416.16C173.209 393.04 173.179 366.84 173.229 360.5V360.44C173.169 357.78 174.529 356.14 175.369 355.38C176.249 354.59 178.169 353.34 181.109 353.83H181.159C181.689 353.93 182.219 354.05 182.759 354.16C183.139 354.24 183.529 354.32 183.909 354.4L184.069 354.43C200.059 357.78 217.699 351.66 227.959 339.22C233.029 333.06 240.459 320.15 233.179 302.85C226.219 285.98 203.059 275.11 183.589 279.55L182.949 279.67C181.359 280.02 177.629 280.85 174.899 277.84C173.639 276.46 173.049 274.66 173.209 272.84C173.119 265.6 173.179 246.34 173.239 227.7C173.299 208.43 173.369 186.63 173.239 183.16C172.949 179.96 174.909 177.39 175.809 176.4C176.979 175.11 178.489 174.23 180.189 173.86C185.159 172.77 200.769 172.9 225.829 173.2C240.939 173.38 256.479 173.56 265.749 173.23C263.309 153.45 271.769 132.76 287.739 120.48C302.809 108.89 321.699 107.1 338.289 115.68C349.489 121.4 358.429 131.41 363.419 143.86C367.109 152.75 368.509 163.45 367.389 173.37C372.859 173.37 381.019 173.29 390.059 173.2C413.779 172.95 443.299 172.65 453.809 173.61C456.139 173.82 458.279 175.02 459.689 176.88C461.099 178.75 461.659 181.14 461.219 183.45C459.189 194.19 460.549 205.02 465.039 213.96C470.779 225.6 481.129 233.68 492.749 235.64L492.879 235.66C504.409 237.85 516.039 233.7 524.779 224.29C535.299 212.96 539.609 196.28 535.739 181.82L535.649 181.44C535.179 179.1 535.649 177.09 537.019 175.47C537.749 174.61 539.359 173.21 541.989 173.21H542.039H542.299C542.509 173.21 542.719 173.21 542.929 173.21C543.259 173.21 543.579 173.21 543.929 173.21H544.009C549.069 173.36 562.269 173.28 576.239 173.2C607.289 173.02 629.669 172.95 634.909 173.76C636.439 174 637.859 174.65 639.019 175.65C641.519 177.81 642.809 180.58 642.589 183.25C642.589 185.86 642.589 196.53 642.589 209.67C642.589 228.75 642.589 253.86 642.589 266.15C644.839 265.85 647.229 265.63 649.679 265.73H649.819C669.919 265.73 688.529 275.82 698.379 292.08C708.589 308.92 707.739 328.55 696.119 344.6C683.939 361.42 662.909 370.27 642.449 367.62C642.449 373.42 642.509 382.13 642.589 391.8C642.779 415.46 643.009 444.91 642.319 453.92C642.139 456.28 640.959 458.46 639.069 459.9C637.189 461.34 634.769 461.91 632.439 461.46C628.569 460.71 625.009 460.4 621.579 460.51C593.239 461.79 580.349 480.56 580.139 498.59C579.939 516.49 592.389 535.4 620.659 537.3C624.809 537.58 628.949 536.99 632.809 536.32C635.199 535.9 637.649 536.55 639.519 538.09C641.399 539.63 642.499 541.91 642.559 544.34C642.629 547.51 642.609 550.7 642.589 554.39C642.569 557.6 642.549 561.24 642.589 565.49V565.59C642.529 573.32 642.569 586.89 642.599 600.01C642.639 614.34 642.679 627.88 642.589 633.09C642.589 636.03 640.969 638.98 638.309 640.82C636.999 641.72 635.469 642.23 633.879 642.28C620.909 642.72 591.439 642.64 567.769 642.58C560.969 642.56 554.799 642.54 549.599 642.54C550.189 647.71 550.119 652.87 549.409 657.97C546.849 676.64 535.339 693.02 519.349 700.69C512.789 703.89 505.889 705.46 499.019 705.46L499.039 705.49ZM447.099 629.89C451.679 629.89 454.729 629.89 455.589 629.91C457.599 629.95 459.429 630.85 460.629 632.4L461.539 633.58L461.839 635.04C462.149 636.56 461.909 637.88 461.529 639.59L461.429 640.03C457.619 656.25 463.929 674.24 477.139 684.79C488.219 693.64 501.589 695.29 513.839 689.32C526.069 683.45 534.869 670.8 536.859 656.28C537.679 650.39 537.409 644.38 536.049 638.4L535.999 638.15C535.979 638.02 535.959 637.9 535.939 637.8C535.559 635.63 536.149 633.53 537.569 631.99C538.379 631.12 540.119 629.74 542.899 629.93H542.949C549.199 629.91 557.819 629.93 567.799 629.96C589.419 630.02 615.889 630.09 629.949 629.77C629.989 623.38 629.959 612.02 629.929 600.1C629.889 586.98 629.859 573.41 629.919 565.6C629.879 561.28 629.909 557.61 629.919 554.37C629.929 552.7 629.939 551.13 629.939 549.63C626.769 550.02 623.349 550.24 619.819 550C583.479 547.55 567.209 521.58 567.479 498.49C567.629 485.65 572.559 473.56 581.379 464.43C591.139 454.33 604.859 448.61 621.069 447.88H621.149C624.019 447.78 626.909 447.91 629.919 448.27C630.279 436.44 630.089 412.07 629.919 391.94C629.809 378.64 629.719 367.16 629.819 362.31C629.869 359.93 630.929 357.67 632.749 356.12C634.429 354.68 636.619 353.98 638.799 354.18H639.229L639.899 354.34C657.079 358.33 675.539 351.44 685.849 337.21C694.509 325.25 695.119 311.21 687.539 298.7C679.969 286.2 665.509 278.45 649.769 278.45H649.239C646.809 278.33 644.149 278.76 641.329 279.2C640.709 279.3 640.089 279.4 639.479 279.49C637.079 279.85 634.649 279.15 632.809 277.57C630.969 275.99 629.919 273.69 629.909 271.27C629.899 262.62 629.909 232.04 629.909 209.71C629.909 199.42 629.909 190.65 629.909 186.08C620.419 185.64 594.349 185.8 576.319 185.9C565.589 185.96 555.919 186.02 549.429 185.99C551.509 202.74 545.929 220.18 534.069 232.95C522.309 245.61 506.469 251.15 490.589 248.16C474.989 245.52 461.199 234.86 453.699 219.64C448.679 209.63 446.709 197.83 448.049 185.97C435.319 185.43 409.629 185.69 390.209 185.9C377.669 186.03 366.829 186.14 362.119 186.02C359.749 185.96 357.529 184.89 355.999 183.08C354.519 181.33 353.829 179.03 354.069 176.74V176.41L354.189 175.85C355.999 167.15 355.049 156.75 351.709 148.71L351.679 148.63C347.889 139.15 340.899 131.26 332.509 126.98C320.189 120.61 306.699 121.92 295.469 130.56C281.969 140.94 275.349 159.01 278.989 175.52C279.509 177.87 278.989 180.34 277.559 182.27C276.139 184.2 273.959 185.42 271.579 185.62C263.139 186.34 244.099 186.11 225.679 185.9C211.069 185.73 193.449 185.52 185.969 185.95C186.029 192.56 185.989 207.01 185.929 227.77C185.879 242.24 185.839 257.09 185.859 266.32C196.709 264.93 208.159 266.81 218.639 271.75C230.989 277.58 240.309 286.9 244.889 298.01C252.079 315.1 249.479 333.09 237.749 347.32C225.309 362.42 205.339 370.11 185.889 367.62C185.869 378.52 185.889 398.28 185.909 416.18C185.919 432.16 185.939 447.25 185.929 453.15C185.929 455.62 184.829 457.94 182.939 459.52C181.039 461.1 178.549 461.76 176.109 461.31C149.789 456.53 131.339 471.37 125.329 487.18C118.879 504.16 125.809 520.89 143.879 531.94C152.969 537.01 164.819 538.8 175.609 536.72C177.929 536.27 180.329 536.83 182.209 538.25C184.079 539.67 185.279 541.82 185.479 544.17C186.379 554.54 186.129 583.25 185.919 606.31C185.839 615.74 185.749 625.42 185.809 629.9C198.839 629.93 247.179 629.94 266.069 629.88C264.319 614.13 269.259 597.34 279.529 584.97C289.409 573.07 302.669 566.67 316.909 566.96C317.239 566.96 317.569 566.95 317.899 566.95C331.729 566.95 344.609 573.3 354.259 584.93C364.569 597.33 369.529 614.15 367.759 629.91C379.609 629.94 403.059 629.92 422.469 629.91C432.359 629.91 441.069 629.89 447.109 629.89H447.099ZM366.669 178.17C366.669 178.17 366.669 178.2 366.669 178.21C366.669 178.2 366.669 178.18 366.669 178.17Z" fill="#1A1A1A"/>
</svg>
