<svg width="1618" height="816" viewBox="0 0 1618 816" fill="none" xmlns="http://www.w3.org/2000/svg">
<path d="M887.21 242.37H847.12V288.25H825.67V178.64H847.12V223.27H887.21V178.64H908.66V288.25H887.21V242.37Z" fill="#1A1A1A"/>
<path d="M989.769 281.51C986.639 284.02 982.379 286.13 977.009 287.85C971.629 289.57 965.919 290.43 959.859 290.43C947.229 290.43 937.989 286.75 932.139 279.39C926.289 272.03 923.369 261.93 923.369 249.09C923.369 235.31 926.659 224.98 933.229 218.09C939.809 211.2 949.049 207.76 960.949 207.76C964.919 207.76 968.779 208.28 972.539 209.33C976.299 210.37 979.639 212.1 982.559 214.5C985.479 216.9 987.829 220.14 989.609 224.21C991.379 228.28 992.269 233.35 992.269 239.4C992.269 241.59 992.139 243.94 991.879 246.45C991.619 248.96 991.229 251.57 990.709 254.28H943.889C944.199 260.86 945.889 265.82 948.959 269.16C952.029 272.5 956.999 274.17 963.859 274.17C968.119 274.17 971.949 273.52 975.329 272.21C978.709 270.91 981.289 269.57 983.049 268.22L989.759 281.53L989.769 281.51ZM960.719 224.05C955.419 224.05 951.499 225.64 948.959 228.83C946.419 232.02 944.889 236.27 944.369 241.59H973.339C973.759 235.95 972.899 231.62 970.769 228.59C968.639 225.56 965.289 224.05 960.719 224.05Z" fill="#1A1A1A"/>
<path d="M1052.56 257.4H1027.04V288.25H1006.68V209.96H1027.04V239.4H1052.56V209.96H1072.92V288.25H1052.56V257.4Z" fill="#1A1A1A"/>
<path d="M1090.3 214.49C1094.47 212.61 1099.43 211.12 1105.18 210.03C1110.92 208.93 1116.92 208.39 1123.19 208.39C1128.62 208.39 1133.16 209.04 1136.81 210.35C1140.46 211.66 1143.36 213.51 1145.5 215.91C1147.64 218.31 1149.15 221.18 1150.04 224.52C1150.93 227.86 1151.37 231.62 1151.37 235.79C1151.37 240.38 1151.21 245 1150.9 249.65C1150.59 254.3 1150.4 258.86 1150.35 263.35C1150.3 267.84 1150.43 272.2 1150.74 276.43C1151.05 280.66 1151.84 284.65 1153.09 288.41H1136.49L1133.2 277.61H1132.42C1130.33 280.85 1127.43 283.64 1123.73 285.99C1120.02 288.34 1115.25 289.51 1109.4 289.51C1105.74 289.51 1102.46 288.96 1099.53 287.87C1096.61 286.77 1094.1 285.21 1092.01 283.17C1089.92 281.13 1088.3 278.73 1087.16 275.97C1086.01 273.21 1085.44 270.1 1085.44 266.65C1085.44 261.85 1086.51 257.8 1088.65 254.51C1090.79 251.22 1093.87 248.56 1097.89 246.52C1101.91 244.48 1106.71 243.08 1112.3 242.29C1117.88 241.51 1124.12 241.27 1131.01 241.59C1131.74 235.74 1131.32 231.54 1129.76 228.98C1128.19 226.42 1124.7 225.14 1119.27 225.14C1115.2 225.14 1110.89 225.56 1106.35 226.39C1101.81 227.23 1098.08 228.32 1095.15 229.68L1090.3 214.49ZM1116.14 272.74C1120.21 272.74 1123.45 271.83 1125.85 270C1128.25 268.17 1130.02 266.22 1131.17 264.13V253.95C1127.93 253.64 1124.83 253.59 1121.85 253.79C1118.87 254 1116.24 254.47 1113.94 255.2C1111.64 255.93 1109.81 256.98 1108.46 258.33C1107.1 259.69 1106.42 261.41 1106.42 263.5C1106.42 266.42 1107.28 268.69 1109 270.31C1110.72 271.93 1113.1 272.74 1116.12 272.74H1116.14Z" fill="#1A1A1A"/>
<path d="M1168.44 288.25V209.96H1188.8V270.25H1208.37V209.96H1228.73V270.25H1248.3V209.96H1268.66V288.25H1168.44Z" fill="#1A1A1A"/>
<path d="M1349.14 281.51C1346.01 284.02 1341.75 286.13 1336.38 287.85C1331 289.57 1325.29 290.43 1319.23 290.43C1306.6 290.43 1297.36 286.75 1291.51 279.39C1285.66 272.03 1282.74 261.93 1282.74 249.09C1282.74 235.31 1286.03 224.98 1292.6 218.09C1299.18 211.2 1308.42 207.76 1320.32 207.76C1324.29 207.76 1328.15 208.28 1331.91 209.33C1335.67 210.37 1339.01 212.1 1341.93 214.5C1344.85 216.9 1347.2 220.14 1348.98 224.21C1350.75 228.28 1351.64 233.35 1351.64 239.4C1351.64 241.59 1351.51 243.94 1351.25 246.45C1350.99 248.96 1350.6 251.57 1350.08 254.28H1303.26C1303.57 260.86 1305.26 265.82 1308.33 269.16C1311.4 272.5 1316.37 274.17 1323.23 274.17C1327.49 274.17 1331.32 273.52 1334.7 272.21C1338.08 270.91 1340.66 269.57 1342.42 268.22L1349.13 281.53L1349.14 281.51ZM1320.08 224.05C1314.78 224.05 1310.86 225.64 1308.32 228.83C1305.78 232.02 1304.25 236.27 1303.73 241.59H1332.7C1333.12 235.95 1332.26 231.62 1330.13 228.59C1328 225.56 1324.65 224.05 1320.08 224.05Z" fill="#1A1A1A"/>
<path d="M1366.05 210.109C1369.7 209.799 1374.11 209.479 1379.28 209.169C1384.45 208.859 1390.01 208.699 1395.96 208.699C1407.44 208.699 1415.61 210.339 1420.47 213.629C1425.32 216.919 1427.75 221.849 1427.75 228.429C1427.75 232.089 1426.71 235.629 1424.62 239.079C1422.53 242.519 1419.24 245.029 1414.75 246.599V247.229C1420.39 248.479 1424.46 250.699 1426.96 253.879C1429.47 257.069 1430.72 261.159 1430.72 266.169C1430.72 273.999 1427.72 279.849 1421.72 283.709C1415.72 287.569 1406.09 289.499 1392.83 289.499C1388.45 289.499 1383.8 289.369 1378.89 289.109C1373.98 288.849 1369.7 288.509 1366.05 288.089V210.109ZM1396.74 241.899C1400.08 241.899 1402.82 241.089 1404.96 239.469C1407.1 237.849 1408.17 235.789 1408.17 233.279C1408.17 230.569 1407.26 228.499 1405.43 227.089C1403.6 225.679 1400.29 224.979 1395.49 224.979C1393.09 224.979 1391.18 225.029 1389.77 225.139C1388.36 225.249 1387.08 225.349 1385.93 225.449V241.889H1396.73L1396.74 241.899ZM1385.94 272.589C1387.4 272.799 1388.76 272.959 1390.01 273.059C1391.26 273.169 1392.83 273.219 1394.71 273.219C1400.35 273.219 1404.36 272.439 1406.77 270.869C1409.17 269.299 1410.37 266.899 1410.37 263.669C1410.37 260.959 1409.35 258.739 1407.32 257.009C1405.28 255.289 1401.66 254.429 1396.44 254.429H1385.95V272.589H1385.94Z" fill="#1A1A1A"/>
<path d="M1444.65 214.49C1448.82 212.61 1453.78 211.12 1459.53 210.03C1465.27 208.93 1471.27 208.39 1477.54 208.39C1482.97 208.39 1487.51 209.04 1491.16 210.35C1494.81 211.66 1497.71 213.51 1499.85 215.91C1501.99 218.31 1503.5 221.18 1504.39 224.52C1505.28 227.86 1505.72 231.62 1505.72 235.79C1505.72 240.38 1505.56 245 1505.25 249.65C1504.94 254.3 1504.75 258.86 1504.7 263.35C1504.65 267.84 1504.78 272.2 1505.09 276.43C1505.4 280.66 1506.19 284.65 1507.44 288.41H1490.84L1487.55 277.61H1486.77C1484.68 280.85 1481.78 283.64 1478.08 285.99C1474.37 288.34 1469.6 289.51 1463.75 289.51C1460.09 289.51 1456.81 288.96 1453.88 287.87C1450.96 286.77 1448.45 285.21 1446.36 283.17C1444.27 281.13 1442.65 278.73 1441.51 275.97C1440.36 273.21 1439.79 270.1 1439.79 266.65C1439.79 261.85 1440.86 257.8 1443 254.51C1445.14 251.22 1448.22 248.56 1452.24 246.52C1456.26 244.48 1461.06 243.08 1466.65 242.29C1472.23 241.51 1478.47 241.27 1485.36 241.59C1486.09 235.74 1485.67 231.54 1484.11 228.98C1482.54 226.42 1479.05 225.14 1473.62 225.14C1469.55 225.14 1465.24 225.56 1460.7 226.39C1456.16 227.23 1452.43 228.32 1449.5 229.68L1444.65 214.49ZM1470.49 272.74C1474.56 272.74 1477.8 271.83 1480.2 270C1482.6 268.17 1484.37 266.22 1485.52 264.13V253.95C1482.28 253.64 1479.18 253.59 1476.2 253.79C1473.22 254 1470.59 254.47 1468.29 255.2C1465.99 255.93 1464.16 256.98 1462.81 258.33C1461.46 259.68 1460.77 261.41 1460.77 263.5C1460.77 266.42 1461.63 268.69 1463.35 270.31C1465.07 271.93 1467.45 272.74 1470.47 272.74H1470.49Z" fill="#1A1A1A"/>
<path d="M862.31 391.65L865.44 405.9H866.38L868.89 391.18L885.33 343.26H907.41L878.28 419.05C875.98 425 873.76 430.17 871.63 434.55C869.49 438.93 867.19 442.56 864.74 445.43C862.29 448.3 859.55 450.44 856.52 451.85C853.49 453.26 849.94 453.96 845.87 453.96C842.43 453.96 839.63 453.73 837.49 453.26C835.35 452.79 833.03 451.77 830.52 450.21L836 432.83C837.77 433.77 839.39 434.34 840.85 434.55C842.31 434.76 843.88 434.86 845.55 434.86C850.46 434.86 853.9 431 855.88 423.27L814.85 343.25H840.06L862.3 391.64L862.31 391.65Z" fill="#1A1A1A"/>
<path d="M974.27 417.01L975.52 400.72H974.74L968.48 414.19L953.76 438.46H946.4L930.27 414.19L924.32 400.72H923.38L925.42 416.85V452.86H907.26V374.57H928.4L946.41 404.01L950.79 413.87H951.42L955.96 403.69L972.56 374.56H993.86V452.85H974.29V416.99L974.27 417.01Z" fill="#1A1A1A"/>
<path d="M1011.07 379.12C1015.24 377.24 1020.2 375.75 1025.95 374.66C1031.69 373.56 1037.69 373.02 1043.96 373.02C1049.39 373.02 1053.93 373.67 1057.58 374.98C1061.23 376.29 1064.13 378.14 1066.27 380.54C1068.41 382.94 1069.92 385.81 1070.81 389.15C1071.7 392.49 1072.14 396.25 1072.14 400.42C1072.14 405.01 1071.98 409.63 1071.67 414.28C1071.36 418.93 1071.17 423.49 1071.12 427.98C1071.07 432.47 1071.2 436.83 1071.51 441.06C1071.82 445.29 1072.61 449.28 1073.86 453.04H1057.26L1053.97 442.24H1053.19C1051.1 445.48 1048.2 448.27 1044.5 450.62C1040.79 452.97 1036.02 454.14 1030.17 454.14C1026.51 454.14 1023.23 453.59 1020.3 452.5C1017.38 451.4 1014.87 449.84 1012.78 447.8C1010.69 445.76 1009.07 443.36 1007.93 440.6C1006.78 437.84 1006.21 434.73 1006.21 431.28C1006.21 426.48 1007.28 422.43 1009.42 419.14C1011.56 415.85 1014.64 413.19 1018.66 411.15C1022.68 409.11 1027.48 407.71 1033.07 406.92C1038.65 406.14 1044.89 405.9 1051.78 406.22C1052.51 400.37 1052.09 396.17 1050.53 393.61C1048.96 391.05 1045.47 389.77 1040.04 389.77C1035.97 389.77 1031.66 390.19 1027.12 391.02C1022.58 391.86 1018.85 392.95 1015.92 394.31L1011.07 379.12ZM1036.91 437.37C1040.98 437.37 1044.22 436.46 1046.62 434.63C1049.02 432.8 1050.79 430.85 1051.94 428.76V418.58C1048.7 418.27 1045.6 418.22 1042.62 418.42C1039.64 418.63 1037.01 419.1 1034.71 419.83C1032.41 420.56 1030.58 421.61 1029.23 422.96C1027.88 424.31 1027.19 426.04 1027.19 428.13C1027.19 431.05 1028.05 433.32 1029.77 434.94C1031.49 436.56 1033.87 437.37 1036.89 437.37H1036.91Z" fill="#1A1A1A"/>
<path d="M921.819 637.07H906.629L904.279 617.5H833.819L831.469 637.07H816.279V598.39H827.869C828.599 597.24 829.799 594.69 831.469 590.72C833.139 586.75 834.809 581.14 836.479 573.89C838.149 566.64 839.559 557.55 840.709 546.64C841.859 535.73 842.379 522.81 842.279 507.88H907.889V598.39H921.829V637.07H921.819ZM886.429 598.39V526.99H862.159C861.529 545.57 860.049 560.79 857.699 572.64C855.349 584.49 852.979 593.07 850.579 598.4H886.439L886.429 598.39Z" fill="#1A1A1A"/>
<path d="M993.38 610.77C990.25 613.28 985.99 615.389 980.62 617.109C975.24 618.829 969.53 619.69 963.47 619.69C950.84 619.69 941.6 616.01 935.75 608.65C929.9 601.29 926.98 591.189 926.98 578.349C926.98 564.569 930.271 554.239 936.841 547.349C943.421 540.459 952.66 537.02 964.56 537.02C968.53 537.02 972.391 537.54 976.151 538.59C979.911 539.63 983.25 541.36 986.17 543.76C989.09 546.16 991.44 549.399 993.22 553.469C994.99 557.539 995.88 562.609 995.88 568.659C995.88 570.849 995.75 573.2 995.49 575.71C995.23 578.22 994.84 580.829 994.32 583.539H947.5C947.81 590.119 949.5 595.079 952.57 598.419C955.64 601.759 960.61 603.43 967.47 603.43C971.73 603.43 975.56 602.779 978.94 601.469C982.32 600.169 984.9 598.829 986.66 597.479L993.37 610.789L993.38 610.77ZM964.32 553.299C959.02 553.299 955.1 554.89 952.56 558.08C950.02 561.27 948.49 565.52 947.97 570.84H976.94C977.36 565.2 976.5 560.87 974.37 557.84C972.24 554.81 968.89 553.299 964.32 553.299Z" fill="#1A1A1A"/>
<path d="M1051.16 557.209H1035.66C1035.03 564.619 1034.3 571.979 1033.47 579.289C1032.63 586.599 1031.3 593.149 1029.48 598.939C1027.65 604.729 1025.17 609.429 1022.04 613.029C1018.91 616.629 1014.84 618.429 1009.83 618.429C1003.77 618.429 999.5 617.659 996.99 616.119L999.5 599.479C1001.17 600.109 1002.73 600.419 1004.2 600.419C1006.29 600.419 1008.11 599.529 1009.68 597.749C1011.25 595.969 1012.58 592.769 1013.67 588.149C1014.77 583.529 1015.65 577.259 1016.33 569.339C1017.01 561.419 1017.5 551.369 1017.82 539.199H1071.53V617.489H1051.17V557.199L1051.16 557.209Z" fill="#1A1A1A"/>
<path d="M1085.45 578.35C1085.45 565.09 1088.68 554.89 1095.16 547.74C1101.63 540.59 1110.71 537.01 1122.41 537.01C1128.67 537.01 1134.1 538 1138.69 539.99C1143.28 541.97 1147.09 544.77 1150.12 548.37C1153.15 551.97 1155.42 556.33 1156.93 561.45C1158.44 566.57 1159.2 572.2 1159.2 578.36C1159.2 591.62 1155.99 601.82 1149.57 608.97C1143.15 616.12 1134.09 619.7 1122.4 619.7C1116.14 619.7 1110.71 618.71 1106.11 616.73C1101.52 614.75 1097.68 611.95 1094.6 608.35C1091.52 604.75 1089.22 600.39 1087.71 595.27C1086.2 590.16 1085.44 584.52 1085.44 578.36L1085.45 578.35ZM1106.43 578.35C1106.43 581.79 1106.74 584.98 1107.37 587.9C1108 590.82 1108.94 593.38 1110.19 595.57C1111.44 597.76 1113.09 599.46 1115.12 600.66C1117.16 601.86 1119.58 602.46 1122.4 602.46C1127.72 602.46 1131.69 600.53 1134.3 596.67C1136.91 592.81 1138.21 586.7 1138.21 578.35C1138.21 571.15 1137.01 565.33 1134.61 560.89C1132.21 556.45 1128.14 554.23 1122.4 554.23C1117.39 554.23 1113.47 556.11 1110.66 559.87C1107.85 563.63 1106.43 569.79 1106.43 578.35Z" fill="#1A1A1A"/>
<path d="M497.699 705.175C487.239 705.175 476.859 701.515 467.909 694.365C459.809 687.895 453.579 679.205 449.889 669.225C446.649 660.475 445.599 651.255 446.779 642.245C440.639 642.245 431.309 642.245 421.139 642.265C398.309 642.285 369.899 642.305 361.259 642.245C358.749 642.225 356.409 641.095 354.839 639.135C353.259 637.175 352.659 634.625 353.179 632.155C356.029 618.695 352.199 603.575 343.169 592.705C335.969 584.035 326.539 579.305 316.529 579.305C316.259 579.305 315.999 579.305 315.729 579.305H315.579H315.429C305.079 579.045 295.329 583.835 287.949 592.745C278.959 603.585 275.129 618.675 277.969 632.135C278.489 634.605 277.879 637.145 276.299 639.105C274.729 641.055 272.389 642.185 269.879 642.205C255.589 642.295 186.429 642.275 181.379 642.235H181.139C178.779 642.125 176.609 641.125 174.709 639.275C174.289 638.875 173.939 638.455 173.639 638.005C173.349 637.585 172.079 635.585 171.929 633.255C171.929 633.125 171.909 633.005 171.909 632.905C171.719 630.415 171.759 623.145 171.909 605.865C172.069 587.015 172.289 562.085 171.779 549.555C159.469 550.855 146.499 548.365 136.239 542.595L136.039 542.485C124.059 535.185 115.619 525.415 111.639 514.245C107.959 503.915 108.129 492.875 112.139 482.325C116.499 470.845 125.059 461.065 136.229 454.805C146.899 448.815 159.149 446.415 171.909 447.755C171.909 440.335 171.909 428.355 171.889 415.845C171.869 392.725 171.839 366.525 171.889 360.185V360.125C171.829 357.465 173.189 355.825 174.029 355.065C174.909 354.275 176.829 353.025 179.769 353.515H179.819C180.349 353.615 180.879 353.735 181.419 353.845C181.799 353.925 182.189 354.005 182.569 354.085L182.729 354.115C198.719 357.465 216.359 351.345 226.619 338.905C231.689 332.745 239.119 319.835 231.839 302.535C224.879 285.665 201.719 274.795 182.249 279.235L181.609 279.355C180.019 279.705 176.289 280.535 173.559 277.525C172.299 276.145 171.709 274.345 171.869 272.525C171.779 265.285 171.839 246.025 171.899 227.385C171.959 208.115 172.029 186.315 171.899 182.845C171.609 179.645 173.569 177.075 174.469 176.085C175.639 174.795 177.149 173.915 178.849 173.545C183.819 172.455 199.429 172.585 224.489 172.885C239.599 173.065 255.139 173.245 264.409 172.915C261.969 153.135 270.429 132.445 286.399 120.165C301.469 108.575 320.359 106.785 336.949 115.365C348.149 121.085 357.089 131.095 362.079 143.545C365.769 152.435 367.169 163.135 366.049 173.055C371.519 173.055 379.679 172.975 388.719 172.885C412.439 172.635 441.959 172.335 452.469 173.295C454.799 173.505 456.939 174.705 458.349 176.565C459.759 178.435 460.319 180.825 459.879 183.135C457.849 193.875 459.209 204.705 463.699 213.645C469.439 225.285 479.789 233.365 491.409 235.325L491.539 235.345C503.069 237.535 514.699 233.385 523.439 223.975C533.959 212.645 538.269 195.965 534.399 181.505L534.309 181.125C533.839 178.785 534.309 176.775 535.679 175.155C536.409 174.295 538.019 172.895 540.649 172.895H540.699H540.959C541.169 172.895 541.379 172.895 541.589 172.895C541.919 172.895 542.239 172.895 542.589 172.895H542.669C547.729 173.045 560.929 172.965 574.899 172.885C605.949 172.705 628.329 172.635 633.569 173.445C635.099 173.685 636.519 174.335 637.679 175.335C640.179 177.495 641.469 180.265 641.249 182.935C641.249 185.545 641.249 196.215 641.249 209.355C641.249 228.435 641.249 253.545 641.249 265.835C643.499 265.535 645.889 265.315 648.339 265.415H648.479C668.579 265.415 687.189 275.505 697.039 291.765C707.249 308.605 706.399 328.235 694.779 344.285C682.599 361.105 661.569 369.955 641.109 367.305C641.109 373.105 641.169 381.815 641.249 391.485C641.439 415.145 641.669 444.595 640.979 453.605C640.799 455.965 639.619 458.145 637.729 459.585C635.849 461.025 633.429 461.595 631.099 461.145C627.229 460.395 623.669 460.085 620.239 460.195C591.899 461.475 579.009 480.245 578.799 498.275C578.599 516.175 591.049 535.085 619.319 536.985C623.469 537.265 627.609 536.675 631.469 536.005C633.859 535.585 636.309 536.235 638.179 537.775C640.059 539.315 641.159 541.595 641.219 544.025C641.289 547.195 641.269 550.385 641.249 554.075C641.229 557.285 641.209 560.925 641.249 565.175V565.275C641.189 573.005 641.229 586.575 641.259 599.695C641.299 614.025 641.339 627.565 641.249 632.775C641.249 635.715 639.629 638.665 636.969 640.505C635.659 641.405 634.129 641.915 632.539 641.965C619.569 642.405 590.099 642.325 566.429 642.265C559.629 642.245 553.459 642.225 548.259 642.225C548.849 647.395 548.779 652.555 548.069 657.655C545.509 676.325 533.999 692.705 518.009 700.375C511.449 703.575 504.549 705.145 497.679 705.145L497.699 705.175Z" fill="#D8A31A"/>
</svg>
