<svg width="816" height="816" viewBox="0 0 816 816" fill="none" xmlns="http://www.w3.org/2000/svg">
<path d="M499.039 705.49C488.579 705.49 478.199 701.83 469.249 694.68C461.149 688.21 454.919 679.52 451.229 669.54C447.989 660.79 446.939 651.57 448.119 642.56C441.979 642.56 432.649 642.56 422.479 642.58C399.649 642.6 371.239 642.62 362.599 642.56C360.089 642.54 357.749 641.41 356.179 639.45C354.599 637.49 353.999 634.94 354.519 632.47C357.369 619.01 353.539 603.89 344.509 593.02C337.309 584.35 327.879 579.62 317.869 579.62C317.599 579.62 317.339 579.62 317.069 579.62H316.919H316.769C306.419 579.36 296.669 584.15 289.289 593.06C280.299 603.9 276.469 618.99 279.309 632.45C279.829 634.92 279.219 637.46 277.639 639.42C276.069 641.37 273.729 642.5 271.219 642.52C256.929 642.61 187.769 642.59 182.719 642.55H182.479C180.119 642.44 177.949 641.44 176.049 639.59C175.629 639.19 175.279 638.77 174.979 638.32C174.689 637.9 173.419 635.9 173.269 633.57C173.269 633.44 173.249 633.32 173.249 633.22C173.059 630.73 173.099 623.46 173.249 606.18C173.409 587.33 173.629 562.4 173.119 549.87C160.809 551.17 147.839 548.68 137.579 542.91L137.379 542.8C125.399 535.5 116.959 525.73 112.979 514.56C109.299 504.23 109.469 493.19 113.479 482.64C117.839 471.16 126.399 461.38 137.569 455.12C148.239 449.13 160.489 446.73 173.249 448.07C173.249 440.65 173.249 428.67 173.229 416.16C173.209 393.04 173.179 366.84 173.229 360.5V360.44C173.169 357.78 174.529 356.14 175.369 355.38C176.249 354.59 178.169 353.34 181.109 353.83H181.159C181.689 353.93 182.219 354.05 182.759 354.16C183.139 354.24 183.529 354.32 183.909 354.4L184.069 354.43C200.059 357.78 217.699 351.66 227.959 339.22C233.029 333.06 240.459 320.15 233.179 302.85C226.219 285.98 203.059 275.11 183.589 279.55L182.949 279.67C181.359 280.02 177.629 280.85 174.899 277.84C173.639 276.46 173.049 274.66 173.209 272.84C173.119 265.6 173.179 246.34 173.239 227.7C173.299 208.43 173.369 186.63 173.239 183.16C172.949 179.96 174.909 177.39 175.809 176.4C176.979 175.11 178.489 174.23 180.189 173.86C185.159 172.77 200.769 172.9 225.829 173.2C240.939 173.38 256.479 173.56 265.749 173.23C263.309 153.45 271.769 132.76 287.739 120.48C302.809 108.89 321.699 107.1 338.289 115.68C349.489 121.4 358.429 131.41 363.419 143.86C367.109 152.75 368.509 163.45 367.389 173.37C372.859 173.37 381.019 173.29 390.059 173.2C413.779 172.95 443.299 172.65 453.809 173.61C456.139 173.82 458.279 175.02 459.689 176.88C461.099 178.75 461.659 181.14 461.219 183.45C459.189 194.19 460.549 205.02 465.039 213.96C470.779 225.6 481.129 233.68 492.749 235.64L492.879 235.66C504.409 237.85 516.039 233.7 524.779 224.29C535.299 212.96 539.609 196.28 535.739 181.82L535.649 181.44C535.179 179.1 535.649 177.09 537.019 175.47C537.749 174.61 539.359 173.21 541.989 173.21H542.039H542.299C542.509 173.21 542.719 173.21 542.929 173.21C543.259 173.21 543.579 173.21 543.929 173.21H544.009C549.069 173.36 562.269 173.28 576.239 173.2C607.289 173.02 629.669 172.95 634.909 173.76C636.439 174 637.859 174.65 639.019 175.65C641.519 177.81 642.809 180.58 642.589 183.25C642.589 185.86 642.589 196.53 642.589 209.67C642.589 228.75 642.589 253.86 642.589 266.15C644.839 265.85 647.229 265.63 649.679 265.73H649.819C669.919 265.73 688.529 275.82 698.379 292.08C708.589 308.92 707.739 328.55 696.119 344.6C683.939 361.42 662.909 370.27 642.449 367.62C642.449 373.42 642.509 382.13 642.589 391.8C642.779 415.46 643.009 444.91 642.319 453.92C642.139 456.28 640.959 458.46 639.069 459.9C637.189 461.34 634.769 461.91 632.439 461.46C628.569 460.71 625.009 460.4 621.579 460.51C593.239 461.79 580.349 480.56 580.139 498.59C579.939 516.49 592.389 535.4 620.659 537.3C624.809 537.58 628.949 536.99 632.809 536.32C635.199 535.9 637.649 536.55 639.519 538.09C641.399 539.63 642.499 541.91 642.559 544.34C642.629 547.51 642.609 550.7 642.589 554.39C642.569 557.6 642.549 561.24 642.589 565.49V565.59C642.529 573.32 642.569 586.89 642.599 600.01C642.639 614.34 642.679 627.88 642.589 633.09C642.589 636.03 640.969 638.98 638.309 640.82C636.999 641.72 635.469 642.23 633.879 642.28C620.909 642.72 591.439 642.64 567.769 642.58C560.969 642.56 554.799 642.54 549.599 642.54C550.189 647.71 550.119 652.87 549.409 657.97C546.849 676.64 535.339 693.02 519.349 700.69C512.789 703.89 505.889 705.46 499.019 705.46L499.039 705.49Z" fill="#D8A31A"/>
</svg>
