<?xml version="1.0" encoding="UTF-8"?>
<svg id="_Слой_1" data-name="Слой 1" xmlns="http://www.w3.org/2000/svg" viewBox="0 0 1617.63 815.71">
  <defs>
    <style>
      .cls-1 {
        fill: #1a1a1a;
      }
    </style>
  </defs>
  <g>
    <path class="cls-1" d="M887.21,242.37h-40.09v45.88h-21.45v-109.61h21.45v44.63h40.09v-44.63h21.45v109.61h-21.45v-45.88Z"/>
    <path class="cls-1" d="M989.77,281.51c-3.13,2.51-7.39,4.62-12.76,6.34-5.38,1.72-11.09,2.58-17.15,2.58-12.63,0-21.87-3.68-27.72-11.04-5.85-7.36-8.77-17.46-8.77-30.3,0-13.78,3.29-24.11,9.86-31,6.58-6.89,15.82-10.33,27.72-10.33,3.97,0,7.83.52,11.59,1.57,3.76,1.04,7.1,2.77,10.02,5.17,2.92,2.4,5.27,5.64,7.05,9.71,1.77,4.07,2.66,9.14,2.66,15.19,0,2.19-.13,4.54-.39,7.05s-.65,5.12-1.17,7.83h-46.82c.31,6.58,2,11.54,5.07,14.88,3.07,3.34,8.04,5.01,14.9,5.01,4.26,0,8.09-.65,11.47-1.96,3.38-1.3,5.96-2.64,7.72-3.99l6.71,13.31ZM960.72,224.05c-5.3,0-9.22,1.59-11.76,4.78-2.54,3.19-4.07,7.44-4.59,12.76h28.97c.42-5.64-.44-9.97-2.57-13-2.13-3.03-5.48-4.54-10.05-4.54Z"/>
    <path class="cls-1" d="M1052.56,257.4h-25.52v30.85h-20.36v-78.29h20.36v29.44h25.52v-29.44h20.36v78.29h-20.36v-30.85Z"/>
    <path class="cls-1" d="M1090.3,214.49c4.17-1.88,9.13-3.37,14.88-4.46,5.74-1.1,11.74-1.64,18.01-1.64,5.43,0,9.97.65,13.62,1.96,3.65,1.31,6.55,3.16,8.69,5.56,2.14,2.4,3.65,5.27,4.54,8.61.89,3.34,1.33,7.1,1.33,11.27,0,4.59-.16,9.21-.47,13.86-.31,4.65-.5,9.21-.55,13.7-.05,4.49.08,8.85.39,13.08s1.1,8.22,2.35,11.98h-16.6l-3.29-10.8h-.78c-2.09,3.24-4.99,6.03-8.69,8.38-3.71,2.35-8.48,3.52-14.33,3.52-3.66,0-6.94-.55-9.87-1.64-2.92-1.1-5.43-2.66-7.52-4.7-2.09-2.04-3.71-4.44-4.85-7.2-1.15-2.76-1.72-5.87-1.72-9.32,0-4.8,1.07-8.85,3.21-12.14,2.14-3.29,5.22-5.95,9.24-7.99,4.02-2.04,8.82-3.44,14.41-4.23,5.58-.78,11.82-1.02,18.71-.7.73-5.85.31-10.05-1.25-12.61-1.57-2.56-5.06-3.84-10.49-3.84-4.07,0-8.38.42-12.92,1.25-4.54.84-8.27,1.93-11.2,3.29l-4.85-15.19ZM1116.14,272.74c4.07,0,7.31-.91,9.71-2.74,2.4-1.83,4.17-3.78,5.32-5.87v-10.18c-3.24-.31-6.34-.36-9.32-.16-2.98.21-5.61.68-7.91,1.41-2.3.73-4.13,1.78-5.48,3.13-1.36,1.36-2.04,3.08-2.04,5.17,0,2.92.86,5.19,2.58,6.81,1.72,1.62,4.1,2.43,7.12,2.43Z"/>
    <path class="cls-1" d="M1168.44,288.25v-78.29h20.36v60.29h19.57v-60.29h20.36v60.29h19.57v-60.29h20.36v78.29h-100.22Z"/>
    <path class="cls-1" d="M1349.14,281.51c-3.13,2.51-7.39,4.62-12.76,6.34-5.38,1.72-11.09,2.58-17.15,2.58-12.63,0-21.87-3.68-27.72-11.04-5.85-7.36-8.77-17.46-8.77-30.3,0-13.78,3.29-24.11,9.86-31,6.58-6.89,15.82-10.33,27.72-10.33,3.97,0,7.83.52,11.59,1.57,3.76,1.04,7.1,2.77,10.02,5.17,2.92,2.4,5.27,5.64,7.05,9.71,1.77,4.07,2.66,9.14,2.66,15.19,0,2.19-.13,4.54-.39,7.05s-.65,5.12-1.17,7.83h-46.82c.31,6.58,2,11.54,5.07,14.88,3.07,3.34,8.04,5.01,14.9,5.01,4.26,0,8.09-.65,11.47-1.96,3.38-1.3,5.96-2.64,7.72-3.99l6.71,13.31ZM1320.08,224.05c-5.3,0-9.22,1.59-11.76,4.78-2.54,3.19-4.07,7.44-4.59,12.76h28.97c.42-5.64-.44-9.97-2.57-13-2.13-3.03-5.48-4.54-10.05-4.54Z"/>
    <path class="cls-1" d="M1366.05,210.11c3.65-.31,8.06-.63,13.23-.94s10.73-.47,16.68-.47c11.48,0,19.65,1.64,24.51,4.93,4.85,3.29,7.28,8.22,7.28,14.8,0,3.66-1.04,7.2-3.13,10.65-2.09,3.44-5.38,5.95-9.87,7.52v.63c5.64,1.25,9.71,3.47,12.21,6.65,2.51,3.19,3.76,7.28,3.76,12.29,0,7.83-3,13.68-9,17.54-6,3.86-15.63,5.79-28.89,5.79-4.38,0-9.03-.13-13.94-.39-4.91-.26-9.19-.6-12.84-1.02v-77.98ZM1396.74,241.9c3.34,0,6.08-.81,8.22-2.43,2.14-1.62,3.21-3.68,3.21-6.19,0-2.71-.91-4.78-2.74-6.19-1.83-1.41-5.14-2.11-9.94-2.11-2.4,0-4.31.05-5.72.16-1.41.11-2.69.21-3.84.31v16.44h10.8ZM1385.94,272.59c1.46.21,2.82.37,4.07.47,1.25.11,2.82.16,4.7.16,5.64,0,9.65-.78,12.06-2.35,2.4-1.57,3.6-3.97,3.6-7.2,0-2.71-1.02-4.93-3.05-6.66-2.04-1.72-5.66-2.58-10.88-2.58h-10.49v18.16Z"/>
    <path class="cls-1" d="M1444.65,214.49c4.17-1.88,9.13-3.37,14.88-4.46,5.74-1.1,11.74-1.64,18.01-1.64,5.43,0,9.97.65,13.62,1.96,3.65,1.31,6.55,3.16,8.69,5.56,2.14,2.4,3.65,5.27,4.54,8.61.89,3.34,1.33,7.1,1.33,11.27,0,4.59-.16,9.21-.47,13.86-.31,4.65-.5,9.21-.55,13.7-.05,4.49.08,8.85.39,13.08.31,4.23,1.1,8.22,2.35,11.98h-16.6l-3.29-10.8h-.78c-2.09,3.24-4.99,6.03-8.69,8.38-3.71,2.35-8.48,3.52-14.33,3.52-3.66,0-6.94-.55-9.87-1.64-2.92-1.1-5.43-2.66-7.52-4.7-2.09-2.04-3.71-4.44-4.85-7.2-1.15-2.76-1.72-5.87-1.72-9.32,0-4.8,1.07-8.85,3.21-12.14,2.14-3.29,5.22-5.95,9.24-7.99,4.02-2.04,8.82-3.44,14.41-4.23,5.58-.78,11.82-1.02,18.71-.7.73-5.85.31-10.05-1.25-12.61-1.57-2.56-5.06-3.84-10.49-3.84-4.07,0-8.38.42-12.92,1.25-4.54.84-8.27,1.93-11.2,3.29l-4.85-15.19ZM1470.49,272.74c4.07,0,7.31-.91,9.71-2.74,2.4-1.83,4.17-3.78,5.32-5.87v-10.18c-3.24-.31-6.34-.36-9.32-.16-2.98.21-5.61.68-7.91,1.41-2.3.73-4.13,1.78-5.48,3.13s-2.04,3.08-2.04,5.17c0,2.92.86,5.19,2.58,6.81,1.72,1.62,4.1,2.43,7.12,2.43Z"/>
    <path class="cls-1" d="M862.31,391.65l3.13,14.25h.94l2.51-14.72,16.44-47.92h22.08l-29.13,75.79c-2.3,5.95-4.52,11.12-6.65,15.5-2.14,4.38-4.44,8.01-6.89,10.88-2.45,2.87-5.19,5.01-8.22,6.42-3.03,1.41-6.58,2.11-10.65,2.11-3.44,0-6.24-.23-8.38-.7-2.14-.47-4.46-1.49-6.97-3.05l5.48-17.38c1.77.94,3.39,1.51,4.85,1.72,1.46.21,3.03.31,4.7.31,4.91,0,8.35-3.86,10.33-11.59l-41.03-80.02h25.21l22.24,48.39Z"/>
    <path class="cls-1" d="M974.27,417.01l1.25-16.29h-.78l-6.26,13.47-14.72,24.27h-7.36l-16.13-24.27-5.95-13.47h-.94l2.04,16.13v36.01h-18.16v-78.29h21.14l18.01,29.44,4.38,9.86h.63l4.54-10.18,16.6-29.13h21.3v78.29h-19.57v-35.86Z"/>
    <path class="cls-1" d="M1011.07,379.12c4.17-1.88,9.13-3.37,14.88-4.46,5.74-1.1,11.74-1.64,18.01-1.64,5.43,0,9.97.65,13.62,1.96,3.65,1.31,6.55,3.16,8.69,5.56,2.14,2.4,3.65,5.27,4.54,8.61.89,3.34,1.33,7.1,1.33,11.27,0,4.59-.16,9.21-.47,13.86-.31,4.65-.5,9.21-.55,13.7-.05,4.49.08,8.85.39,13.08.31,4.23,1.1,8.22,2.35,11.98h-16.6l-3.29-10.8h-.78c-2.09,3.24-4.99,6.03-8.69,8.38-3.71,2.35-8.48,3.52-14.33,3.52-3.66,0-6.94-.55-9.87-1.64-2.92-1.1-5.43-2.66-7.52-4.7-2.09-2.04-3.71-4.44-4.85-7.2-1.15-2.76-1.72-5.87-1.72-9.32,0-4.8,1.07-8.85,3.21-12.14,2.14-3.29,5.22-5.95,9.24-7.99,4.02-2.04,8.82-3.44,14.41-4.23,5.58-.78,11.82-1.02,18.71-.7.73-5.85.31-10.05-1.25-12.61-1.57-2.56-5.06-3.84-10.49-3.84-4.07,0-8.38.42-12.92,1.25-4.54.84-8.27,1.93-11.2,3.29l-4.85-15.19ZM1036.91,437.37c4.07,0,7.31-.91,9.71-2.74,2.4-1.83,4.17-3.78,5.32-5.87v-10.18c-3.24-.31-6.34-.36-9.32-.16-2.98.21-5.61.68-7.91,1.41-2.3.73-4.13,1.78-5.48,3.13s-2.04,3.08-2.04,5.17c0,2.92.86,5.19,2.58,6.81,1.72,1.62,4.1,2.43,7.12,2.43Z"/>
    <path class="cls-1" d="M921.82,637.07h-15.19l-2.35-19.57h-70.46l-2.35,19.57h-15.19v-38.68h11.59c.73-1.15,1.93-3.7,3.6-7.67,1.67-3.97,3.34-9.58,5.01-16.83,1.67-7.25,3.08-16.34,4.23-27.25,1.15-10.91,1.67-23.83,1.57-38.76h65.61v90.51h13.94v38.68ZM886.43,598.39v-71.4h-24.27c-.63,18.58-2.11,33.8-4.46,45.65-2.35,11.85-4.72,20.43-7.12,25.76h35.86Z"/>
    <path class="cls-1" d="M993.38,610.77c-3.13,2.51-7.39,4.62-12.76,6.34-5.38,1.72-11.09,2.58-17.15,2.58-12.63,0-21.87-3.68-27.72-11.04-5.85-7.36-8.77-17.46-8.77-30.3,0-13.78,3.29-24.11,9.86-31,6.58-6.89,15.82-10.33,27.72-10.33,3.97,0,7.83.52,11.59,1.57,3.76,1.04,7.1,2.77,10.02,5.17,2.92,2.4,5.27,5.64,7.05,9.71,1.77,4.07,2.66,9.14,2.66,15.19,0,2.19-.13,4.54-.39,7.05-.26,2.51-.65,5.12-1.17,7.83h-46.82c.31,6.58,2,11.54,5.07,14.88,3.07,3.34,8.04,5.01,14.9,5.01,4.26,0,8.09-.65,11.47-1.96,3.38-1.3,5.96-2.64,7.72-3.99l6.71,13.31ZM964.32,553.3c-5.3,0-9.22,1.59-11.76,4.78-2.54,3.19-4.07,7.44-4.59,12.76h28.97c.42-5.64-.44-9.97-2.57-13-2.13-3.03-5.48-4.54-10.05-4.54Z"/>
    <path class="cls-1" d="M1051.16,557.21h-15.5c-.63,7.41-1.36,14.77-2.19,22.08-.84,7.31-2.17,13.86-3.99,19.65-1.83,5.79-4.31,10.49-7.44,14.09-3.13,3.6-7.2,5.4-12.21,5.4-6.06,0-10.33-.77-12.84-2.31l2.51-16.64c1.67.63,3.23.94,4.7.94,2.09,0,3.91-.89,5.48-2.67,1.57-1.78,2.9-4.98,3.99-9.6,1.1-4.62,1.98-10.89,2.66-18.81.68-7.92,1.17-17.97,1.49-30.14h53.71v78.29h-20.36v-60.29Z"/>
    <path class="cls-1" d="M1085.45,578.35c0-13.26,3.23-23.46,9.71-30.61,6.47-7.15,15.55-10.73,27.25-10.73,6.26,0,11.69.99,16.28,2.98,4.59,1.98,8.4,4.78,11.43,8.38,3.03,3.6,5.3,7.96,6.81,13.08,1.51,5.12,2.27,10.75,2.27,16.91,0,13.26-3.21,23.46-9.63,30.61-6.42,7.15-15.48,10.73-27.17,10.73-6.26,0-11.69-.99-16.29-2.97-4.59-1.98-8.43-4.78-11.51-8.38-3.08-3.6-5.38-7.96-6.89-13.08-1.51-5.11-2.27-10.75-2.27-16.91ZM1106.43,578.35c0,3.44.31,6.63.94,9.55.63,2.92,1.57,5.48,2.82,7.67,1.25,2.19,2.9,3.89,4.93,5.09,2.04,1.2,4.46,1.8,7.28,1.8,5.32,0,9.29-1.93,11.9-5.79,2.61-3.86,3.91-9.97,3.91-18.32,0-7.2-1.2-13.02-3.6-17.46-2.4-4.44-6.47-6.66-12.21-6.66-5.01,0-8.93,1.88-11.74,5.64s-4.23,9.92-4.23,18.48Z"/>
  </g>
  <path class="cls-1" d="M498.56,705.43c-10.46,0-20.84-3.66-29.79-10.81-8.1-6.47-14.33-15.16-18.02-25.14-3.24-8.75-4.29-17.97-3.11-26.98-6.14,0-15.47,0-25.64.02-22.83.02-51.24.04-59.88-.02-2.51-.02-4.85-1.15-6.42-3.11-1.58-1.96-2.18-4.51-1.66-6.98,2.85-13.46-.98-28.58-10.01-39.45-7.2-8.67-16.63-13.4-26.64-13.4-.27,0-.53,0-.8,0h-.15s-.15,0-.15,0c-10.35-.26-20.1,4.53-27.48,13.44-8.99,10.84-12.82,25.93-9.98,39.39.52,2.47-.09,5.01-1.67,6.97-1.57,1.95-3.91,3.08-6.42,3.1-14.29.09-83.45.07-88.5.03h-.24c-2.36-.11-4.53-1.11-6.43-2.96-.42-.4-.77-.82-1.07-1.27-.29-.42-1.56-2.42-1.71-4.75,0-.13-.02-.25-.02-.35-.19-2.49-.15-9.76,0-27.04.16-18.85.38-43.78-.13-56.31-12.31,1.3-25.28-1.19-35.54-6.96l-.2-.11c-11.98-7.3-20.42-17.07-24.4-28.24-3.68-10.33-3.51-21.37.5-31.92,4.36-11.48,12.92-21.26,24.09-27.52,10.67-5.99,22.92-8.39,35.68-7.05,0-7.42,0-19.4-.02-31.91-.02-23.12-.05-49.32,0-55.66v-.06c-.06-2.66,1.3-4.3,2.14-5.06.88-.79,2.8-2.04,5.74-1.55h.05c.53.1,1.06.22,1.6.33.38.08.77.16,1.15.24l.16.03c15.99,3.35,33.63-2.77,43.89-15.21,5.07-6.16,12.5-19.07,5.22-36.37-6.96-16.87-30.12-27.74-49.59-23.3l-.64.12c-1.59.35-5.32,1.18-8.05-1.83-1.26-1.38-1.85-3.18-1.69-5-.09-7.24-.03-26.5.03-45.14.06-19.27.13-41.07,0-44.54-.29-3.2,1.67-5.77,2.57-6.76,1.17-1.29,2.68-2.17,4.38-2.54,4.97-1.09,20.58-.96,45.64-.66,15.11.18,30.65.36,39.92.03-2.44-19.78,6.02-40.47,21.99-52.75,15.07-11.59,33.96-13.38,50.55-4.8,11.2,5.72,20.14,15.73,25.13,28.18,3.69,8.89,5.09,19.59,3.97,29.51,5.47,0,13.63-.08,22.67-.17,23.72-.25,53.24-.55,63.75.41,2.33.21,4.47,1.41,5.88,3.27,1.41,1.87,1.97,4.26,1.53,6.57-2.03,10.74-.67,21.57,3.82,30.51,5.74,11.64,16.09,19.72,27.71,21.68l.13.02c11.53,2.19,23.16-1.96,31.9-11.37,10.52-11.33,14.83-28.01,10.96-42.47l-.09-.38c-.47-2.34,0-4.35,1.37-5.97.73-.86,2.34-2.26,4.97-2.26h.05s.26,0,.26,0c.21,0,.42,0,.63,0,.33,0,.65,0,1,0h.08c5.06.15,18.26.07,32.23-.01,31.05-.18,53.43-.25,58.67.56,1.53.24,2.95.89,4.11,1.89,2.5,2.16,3.79,4.93,3.57,7.6,0,2.61,0,13.28,0,26.42,0,19.08,0,44.19,0,56.48,2.25-.3,4.64-.52,7.09-.42h.14c20.1,0,38.71,10.09,48.56,26.35,10.21,16.84,9.36,36.47-2.26,52.52-12.18,16.82-33.21,25.67-53.67,23.02,0,5.8.06,14.51.14,24.18.19,23.66.42,53.11-.27,62.12-.18,2.36-1.36,4.54-3.25,5.98-1.88,1.44-4.3,2.01-6.63,1.56-3.87-.75-7.43-1.06-10.86-.95-28.34,1.28-41.23,20.05-41.44,38.08-.2,17.9,12.25,36.81,40.52,38.71,4.15.28,8.29-.31,12.15-.98,2.39-.42,4.84.23,6.71,1.77,1.88,1.54,2.98,3.82,3.04,6.25.07,3.17.05,6.36.03,10.05-.02,3.21-.04,6.85,0,11.1v.1c-.06,7.73-.02,21.3.01,34.42.04,14.33.08,27.87-.01,33.08,0,2.94-1.62,5.89-4.28,7.73-1.31.9-2.84,1.41-4.43,1.46-12.97.44-42.44.36-66.11.3-6.8-.02-12.97-.04-18.17-.04.59,5.17.52,10.33-.19,15.43-2.56,18.67-14.07,35.05-30.06,42.72-6.56,3.2-13.46,4.77-20.33,4.77ZM446.62,629.83c4.58,0,7.63,0,8.49.02,2.01.04,3.84.94,5.04,2.49l.91,1.18.3,1.46c.31,1.52.07,2.84-.31,4.55l-.1.44c-3.81,16.22,2.5,34.21,15.71,44.76,11.08,8.85,24.45,10.5,36.7,4.53,12.23-5.87,21.03-18.52,23.02-33.04.82-5.89.55-11.9-.81-17.88l-.05-.25c-.02-.13-.04-.25-.06-.35-.38-2.17.21-4.27,1.63-5.81.81-.87,2.55-2.25,5.33-2.06h.05c6.25-.02,14.87,0,24.85.03,21.62.06,48.09.13,62.15-.19.04-6.39.01-17.75-.02-29.67-.04-13.12-.07-26.69-.01-34.5-.04-4.32-.01-7.99,0-11.23.01-1.67.02-3.24.02-4.74-3.17.39-6.59.61-10.12.37-36.34-2.45-52.61-28.42-52.34-51.51.15-12.84,5.08-24.93,13.9-34.06,9.76-10.1,23.48-15.82,39.69-16.55h.08c2.87-.1,5.76.03,8.77.39.36-11.83.17-36.2,0-56.33-.11-13.3-.2-24.78-.1-29.63.05-2.38,1.11-4.64,2.93-6.19,1.68-1.44,3.87-2.14,6.05-1.94h.43s.67.16.67.16c17.18,3.99,35.64-2.9,45.95-17.13,8.66-11.96,9.27-26,1.69-38.51-7.57-12.5-22.03-20.25-37.77-20.25h-.53c-2.43-.12-5.09.31-7.91.75-.62.1-1.24.2-1.85.29-2.4.36-4.83-.34-6.67-1.92-1.84-1.58-2.89-3.88-2.9-6.3-.01-8.65,0-39.23,0-61.56,0-10.29,0-19.06,0-23.63-9.49-.44-35.56-.28-53.59-.18-10.73.06-20.4.12-26.89.09,2.08,16.75-3.5,34.19-15.36,46.96-11.76,12.66-27.6,18.2-43.48,15.21-15.6-2.64-29.39-13.3-36.89-28.52-5.02-10.01-6.99-21.81-5.65-33.67-12.73-.54-38.42-.28-57.84-.07-12.54.13-23.38.24-28.09.12-2.37-.06-4.59-1.13-6.12-2.94-1.48-1.75-2.17-4.05-1.93-6.34v-.33s.12-.56.12-.56c1.81-8.7.86-19.1-2.48-27.14l-.03-.08c-3.79-9.48-10.78-17.37-19.17-21.65-12.32-6.37-25.81-5.06-37.04,3.58-13.5,10.38-20.12,28.45-16.48,44.96.52,2.35,0,4.82-1.43,6.75-1.42,1.93-3.6,3.15-5.98,3.35-8.44.72-27.48.49-45.9.28-14.61-.17-32.23-.38-39.71.05.06,6.61.02,21.06-.04,41.82-.05,14.47-.09,29.32-.07,38.55,10.85-1.39,22.3.49,32.78,5.43,12.35,5.83,21.67,15.15,26.25,26.26,7.19,17.09,4.59,35.08-7.14,49.31-12.44,15.1-32.41,22.79-51.86,20.3-.02,10.9,0,30.66.02,48.56.01,15.98.03,31.07.02,36.97,0,2.47-1.1,4.79-2.99,6.37-1.9,1.58-4.39,2.24-6.83,1.79-26.32-4.78-44.77,10.06-50.78,25.87-6.45,16.98.48,33.71,18.55,44.76,9.09,5.07,20.94,6.86,31.73,4.78,2.32-.45,4.72.11,6.6,1.53,1.87,1.42,3.07,3.57,3.27,5.92.9,10.37.65,39.08.44,62.14-.08,9.43-.17,19.11-.11,23.59,13.03.03,61.37.04,80.26-.02-1.75-15.75,3.19-32.54,13.46-44.91,9.88-11.9,23.14-18.3,37.38-18.01.33,0,.66-.01.99-.01,13.83,0,26.71,6.35,36.36,17.98,10.31,12.4,15.27,29.22,13.5,44.98,11.85.03,35.3.01,54.71,0,9.89,0,18.6-.02,24.64-.02ZM182.22,279.65h-.02s.02,0,.02,0ZM366.19,178.11s0,.03,0,.04c0-.01,0-.03,0-.04Z"/>
</svg>