<?xml version="1.0" encoding="UTF-8"?>
<svg id="_Слой_1" data-name="Слой 1" xmlns="http://www.w3.org/2000/svg" viewBox="0 0 85.04 85.04">
  <defs>
    <style>
      .cls-1 {
        fill: #fff;
      }
    </style>
  </defs>
  <path class="cls-1" d="M12.47,20.88c10.93.65,23.44-1.14,34.19-.08,4.27.42,6.5,3.01,6.88,7.19.69,7.52.47,20.19.02,27.85-.07,1.23-.3,3.67-.78,4.73-.87,1.96-3.4,3.49-5.5,3.68-11.1.99-23.65-.78-34.9,0-3.5-.35-5.67-2.85-5.96-6.27-.85-9.94.64-21.12.04-31.19.59-3.12,2.83-5.48,6.02-5.91Z"/>
  <path class="cls-1" d="M56.64,52.58l.09-19.86c2.81-1.27,3.58.7,5.22,2.39l11.26-7.64c1.88-.46,4.69-.68,5.28,1.59-.32,8.56.93,18.35.16,26.79-.14,1.54-1,2.69-2.64,2.88-2.12.25-5.68-2.35-7.44-3.54-1.02-.69-5.19-4.21-5.76-4.37-1.49-.41-3.88,3.48-6.16,1.75Z"/>
</svg>