<?xml version="1.0" encoding="UTF-8"?>
<svg id="_Слой_1" data-name="Слой 1" xmlns="http://www.w3.org/2000/svg" viewBox="0 0 85.04 85.04">
  <defs>
    <style>
      .cls-1 {
        fill: #fff;
      }
    </style>
  </defs>
  <path class="cls-1" d="M36.15,5.36c.97,1.12-.31,2.71-.19,3.43.11.66.98.93.86,2.49s-1.34,1.5-1.25,3.99c.17,5.01.98,10.71,2.63,15.43,1.2,3.46,3.1,6.64,4.2,10.18,3.53,11.33,1.03,24.9,1.68,36.73-.31,1.16-.95,1.92-2.21,2.07l-22.28-.08c-1.02-.28-1.73-1.16-1.75-2.22.71-11.69-1.6-24.66,1.69-35.96,1.4-4.8,4.09-9.1,5.33-13.95.77-2.99,2.05-10.55,1.89-13.44-.07-1.34-1.79-1.64-1.19-4.22.12-.54.74-1.03.75-1.29.03-.53-1.19-1.79-.06-2.91l9.91-.25ZM39.56,50.91h-17.44v19.28h17.44v-19.28Z"/>
  <path class="cls-1" d="M50.1,25.95l16.54.47c.82.81.38,5.46.44,6.9.42,9.53,1.29,18.19-6.56,25.24l-.09,15.38c.5,1.72,4.54,1.48,5.76,2.81,1.05,1.14.55,2.44-.84,2.85l-15.87-.22c-2.93-4.46,5.55-2.83,6-6.28.57-4.29-.4-9.9-.07-14.34-9.67-7.63-7.4-20.41-6.97-31.26l1.66-1.55Z"/>
</svg>