<?xml version="1.0" encoding="UTF-8"?>
<svg id="_Слой_1" data-name="Слой 1" xmlns="http://www.w3.org/2000/svg" viewBox="0 0 85.04 85.04">
  <defs>
    <style>
      .cls-1 {
        fill: #fff;
      }
    </style>
  </defs>
  <path class="cls-1" d="M41.19,31.23l-1.96,5.75c1.61.99,3.52,1.29,5.07,2.57,1.81,1.48,2.43,3.56,3.54,5.5,3.77-1.74,7.85-2.94,11.28-5.35.31-.65-2.62-4.52-2.71-5.79-.13-1.8,1.22-3.37,3-2.41,5.64,4.59,13.18,8.23,18.46,13.13,1.51,1.4,2.93,2.77,2.47,5.02-.57,2.77-6.49,8.36-8.87,10.03-1.21.84-2.6,1.4-3.76,2.31,1.25-.03,2.53.66,3.77.56,1.95-.17,5.71-3.5,6.54-.85s-4.73,4.42-6.78,4.54c-3.62.2-5.82-2.01-8.48-2.01-2.41,0-5.27,2.03-7.9,2.02-2.34,0-4.67-1.87-6.76-2.01-2.59-.18-5.18,1.85-7.9,2-3.49.19-5.48-1.84-8.18-2-2.53-.15-4.85,1.74-7.35,1.98-4.01.39-6.8-2.48-10.31-1.84-1.56.28-4.31,2.27-5.62,1.13-2.78-2.44,3.82-4.68,5.52-4.9,3.66-.49,6.02,1.89,9.3,1.96s5.41-2.43,9.22-1.91c2.55.35,5.04,2.55,7.65,1.01.39-.23,2.2-1.92,1.87-2.21-1.24-.04-2.5.09-3.73-.07-3.19-.43-4.88-2.55-8.69-1.78-1.52.31-3.33,1.66-4.91,1.86-4.05.5-6.28-2.52-10.42-1.96-1.91.26-4.18,2.22-5.81.12-1.01-1.29-.77-3.98.38-5.13,1.47-1.47,4.11-.62,6.09-1.95.69-.46,5.18-6.31,5.08-6.72-.79-.77-2.53-1.21-2.55-2.56-.01-1.1.89-1.95,1.93-2.07s5.75.84,6.75,1.31c1.69.8,2.68,2.57,4.41,3.48,2.05,1.09,7.34,1.94,8.33,3.52,1.21,1.93.59,3.49,3.99,2.92.06-.49-.03-.88-.22-1.33-.3-.71-2.25-4.21-2.74-4.6-1.44-1.15-5.51-1.46-7.57-2.58-1.62-.88-3.22-2.67-3.24-4.6-.01-1.84,3.65-11.27,4.79-12.93,1.38-2.03,3.22-2.89,5.59-2.01,3.45,1.28,3.75,5.35,8.68,6.27,1.94.36,5.56-.1,5.7,3.05.21,4.87-7.79,2.77-10.33,1.3-.43-.25-2.37-1.98-2.62-1.75Z"/>
  <circle class="cls-1" cx="42.77" cy="15.41" r="6.43"/>
</svg>