<?xml version="1.0" encoding="UTF-8"?>
<svg id="_Слой_1" data-name="Слой 1" xmlns="http://www.w3.org/2000/svg" viewBox="0 0 85.04 85.04">
  <defs>
    <style>
      .cls-1 {
        fill: #fff;
      }
    </style>
  </defs>
  <path class="cls-1" d="M9.62,56.44c-.13-15.84,13.68-29.75,29.19-31.13,1.4-.68-1.44-2.45-1.41-3.61-.22-.89-.07-2.02.3-2.92,3.1-6.5,14.03-.79,8.54,5.24-.44.58-.5.98,0,1.22,14.77,1.63,27.71,14.08,29.06,29.1,0,.76.36,2.3-.13,2.6-2.88.01-34.5,0-52.73,0-6.64,0-11.51,0-12.56,0-.21-.02-.2-.15-.25-.43v-.09Z"/>
  <path class="cls-1" d="M80.23,61.24c1.67,3.47-6.17,5.19-8.42,6.63-.78.34-1.65,1.01-2.19,1.04-3.85.02-50.06.2-53.91.22-1.27-.28-2.27-1.02-3.92-1.69-2.65-1.5-8.23-2.87-7.04-5.88.37-.8,1.28-1.16,1.71-1.24,1.77-.14,8.86,0,19.45-.05,15.01,0,39.01,0,52.18,0,.64.07,1.37.21,2.05.86l.1.12Z"/>
</svg>