<?xml version="1.0" encoding="UTF-8"?>
<svg id="_Лого" data-name="Лого" xmlns="http://www.w3.org/2000/svg" viewBox="0 0 198.62 73.31">
  <defs>
    <style>
      .cls-1 {
        fill: #fff;
      }
    </style>
  </defs>
  <g>
    <path class="cls-1" d="M183.18,70.68h-2.88l-2.39-8.17h-.05l-2.39,8.17h-2.9l-3.43-12.07h3.14l1.91,8.03h.05l2.15-8.03h3.03l2.17,8.03h.05l1.94-8.03h3.03l-3.44,12.07Z"/>
    <path class="cls-1" d="M169.15,64.77c0,3.39-2.75,6.14-6.14,6.14s-6.16-2.75-6.16-6.14,2.75-6.16,6.16-6.16,6.14,2.76,6.14,6.16M166.45,64.77c0-1.9-1.55-3.47-3.45-3.47s-3.47,1.56-3.47,3.47,1.55,3.45,3.47,3.45,3.45-1.54,3.45-3.45"/>
    <path class="cls-1" d="M148.65,70.68v-12.07h2.93v9.53h4.67v2.54h-7.6Z"/>
    <path class="cls-1" d="M142.06,61.1v2.49h4.67v2.4h-4.67v4.69h-2.88v-12.07h7.94v2.49h-5.06Z"/>
  </g>
  <g>
    <path class="cls-1" d="M127.1,19.51v18.63l-5.11,5.15v-23.78h5.11ZM142.47,45.1v5.15h-20.48l5.11-5.15h15.37Z"/>
    <polygon class="cls-1" points="155.99 45.1 150.88 50.25 150.88 19.51 155.99 24.58 155.99 45.1"/>
    <path class="cls-1" d="M170.18,34.88l15.37,15.37h-7.22l-13.29-13.22-2.15-2.11,2.15-2.15,13.29-13.26h7.22l-15.37,15.37ZM165.03,32.76l13.29-13.26-13.29,13.26ZM178.32,50.25l-13.29-13.22,13.29,13.22Z"/>
    <path class="cls-1" d="M111.36,28.46c0-1.23-.23-2.38-.69-3.46-.46-1.11-1.11-2.04-1.92-2.84-.81-.84-1.77-1.46-2.88-1.96-1.12-.46-2.27-.69-3.46-.69h-25.62c1.41,1.62,2.71,3.34,3.88,5.15h16.84c5.39,0,5.89.08,6.35.27.5.19.92.46,1.27.84.34.35.61.77.81,1.23.19.46.31.96.31,1.46,0,.54-.12,1.04-.31,1.5-.19.46-.46.88-.81,1.23-.35.39-.77.65-1.27.85-.46.23-.96.31-1.46.31h-17.68c.69,1.66,1.27,3.36,1.77,5.11h15.92c.54,0,1.04.12,1.54.31.46.19.85.5,1.19.84.34.35.61.77.81,1.23.19.46.31.96.31,1.46s-.12,1-.31,1.46c-.19.46-.46.88-.81,1.23-.35.38-.77.65-1.27.85-.46.19-.96.27-1.46.27h-14.42c.18,1.69.29,3.41.29,5.15h14.14c1.23,0,2.38-.23,3.46-.69,1.11-.5,2.07-1.11,2.88-1.96.81-.81,1.46-1.73,1.92-2.84.46-1.08.69-2.23.69-3.46,0-2.54-.89-4.69-2.69-6.42,1.8-1.77,2.69-3.92,2.69-6.42"/>
    <path class="cls-1" d="M19.69,61.54c-6.58-4.5-11.27-11.53-12.69-19.68-2.49-1.6-4.83-3.42-7-5.43,0,.08,0,.15,0,.22,0,17.17,11.86,31.61,27.82,35.57-3.16-3.17-5.9-6.76-8.13-10.68"/>
    <path class="cls-1" d="M19.68,11.78c2.23-3.92,4.97-7.52,8.13-10.69C13.93,4.53,3.16,15.91.6,30.11c1.82,2,3.83,3.82,5.98,5.47.35-9.88,5.45-18.56,13.11-23.81"/>
    <path class="cls-1" d="M73.3,36.65c0-1.71-.13-3.39-.35-5.03-1.89,2.27-3.98,4.37-6.23,6.28-.66,16.04-13.88,28.89-30.07,28.89-2.84,0-5.58-.42-8.18-1.16,2.39,2.88,5.12,5.46,8.13,7.68.02,0,.04,0,.05,0,20.21,0,36.65-16.44,36.65-36.65"/>
    <path class="cls-1" d="M36.65,0s-.07,0-.11,0c-3.02,2.22-5.76,4.81-8.14,7.69,2.63-.75,5.39-1.18,8.25-1.18,14.9,0,27.28,10.88,29.68,25.12,1.91-1.91,3.65-4,5.2-6.23C66.77,10.68,52.94,0,36.65,0"/>
    <path class="cls-1" d="M192.75,18.49c-.55-.22-.97-.53-1.38-.91-.36-.39-.67-.83-.89-1.36-.22-.53-.33-1.08-.33-1.61,0-1.16.47-2.19,1.22-3.05.42-.36.83-.66,1.38-.89.5-.22,1.08-.33,1.61-.33.58,0,1.14.11,1.66.33.53.22.97.53,1.36.89.39.42.69.86.92,1.39.22.5.33,1.08.33,1.66,0,.53-.11,1.08-.33,1.61-.22.53-.53.97-.92,1.36-.39.39-.83.69-1.36.91-.53.22-1.08.33-1.66.33-.53,0-1.11-.11-1.61-.33M190.7,14.61c0,1.99,1.66,3.66,3.66,3.66s3.71-1.66,3.71-3.66-1.66-3.71-3.71-3.71-3.66,1.66-3.66,3.71M196.1,15.96c-.39.53-1.11.83-1.75.83-1.16,0-2.19-1.05-2.19-2.19,0-1.22.94-2.24,2.19-2.24.66,0,1.3.36,1.77.83l-.86.72c-.22-.28-.55-.47-.94-.47-.61,0-1.11.5-1.11,1.16,0,.61.5,1.08,1.11,1.08.36,0,.72-.17.91-.44l.86.72Z"/>
  </g>
</svg>