<?xml version="1.0" encoding="UTF-8"?>
<svg id="_Слой_1" data-name="Слой 1" xmlns="http://www.w3.org/2000/svg" viewBox="0 0 85.04 85.04">
  <defs>
    <style>
      .cls-1 {
        fill: #fff;
      }
    </style>
  </defs>
  <path class="cls-1" d="M82.25,38.78c-2.58,3.81-10.62,11.76-14.87,13.43-7.26,2.85-8.66-1.56-14.54-1.08-2.29.19-4.37,1.74-6.48,2.08-3.79.6-6.16-2.15-9.72-2.09-3.06.05-5.76,2.3-8.87,2.18s-5.71-2.43-8.57-2.4c-3.04.03-5.59,2.55-8.88,2.4-2.79-.13-5.19-2.4-8.09-2.47-.26-.37,2.9-7.47,3.4-8.37.26-.48.5-1.18,1.09-1.36l37.27-.06c1.57-.35,3.3-.77,4.43-1.99l-34.27-.15c-.08-.44.09-.76.24-1.14.31-.82,3.47-6.9,3.9-7.42.58-.7,1.33-.71,2.17-.89,10.24.39,21.01-.64,31.19-.05,5.49.32,10.74,1.79,14.11,6.39l16.33.19.6.31c.78.95.1,1.68-.44,2.48ZM30.67,33.41l-2.85.05-1.42,1.94c1.99,1.18,4.28.59,4.28-1.99ZM39.85,33.41l-3.32.05-.96,2.4c2.29.22,3.78.04,4.28-2.44ZM49.03,33.41l-3.62.05-.96,2.4c2.36.16,4.07.23,4.59-2.44Z"/>
  <path class="cls-1" d="M3.66,55.18c1.27-.38,2.77,1.02,3.98,1.41,5.17,1.66,7.65-1.82,12.49-1.47,3.15.22,4.87,2.21,8.87,1.86,2.09-.18,3.74-1.49,5.57-1.77,4.69-.74,6.85,1.95,10.94,1.89,2.67-.04,4.79-1.72,7.34-1.96,4.16-.39,6.49,2.11,10.72,1.85s6.17-3.1,11.15-1.38c1.68.58,5.53,2.41,3.39,4.6-1.14,1.16-3.38-.76-4.83-1.01-4.13-.71-6.59,2.1-10.33,2.1-3.01,0-5.38-1.91-7.95-2.17-3.51-.35-6.15,2.12-9.49,2.17s-6.35-2.52-9.79-2.17c-2.5.26-5,2.21-7.95,2.17s-5.79-2.36-8.89-2.18c-2.85.17-5.25,2.33-8.56,2.17-2.09-.1-9.75-2.43-7.33-5.52.19-.24.36-.48.67-.57Z"/>
  <path class="cls-1" d="M52.4,26.98h-31.82c.34-1.52,3.2-5.81,4.74-5.81h6.73c.89-.8-.15-3-1.15-3.44-.9-.4-3.13-.21-2.22-2.07.63-1.29,5.34-1.08,6.61-.79,3.67.85,3.9,6.01,7.52,6.19.82.04,1.62-.28,2.67-.16,3.02.32,5.32,3.81,6.92,6.08Z"/>
</svg>