<?xml version="1.0" encoding="UTF-8"?>
<svg id="_Слой_1" data-name="Слой 1" xmlns="http://www.w3.org/2000/svg" xmlns:xlink="http://www.w3.org/1999/xlink" viewBox="0 0 3663.71 3663.71">
  <defs>
    <style>
      .cls-1 {
        fill: #1d1d1b;
        fill-rule: evenodd;
      }

      .cls-2 {
        fill: none;
      }

      .cls-3 {
        fill: url(#_Водяной_знак_НУД);
        stroke: #1a1a1a;
        stroke-miterlimit: 10;
        stroke-width: 2px;
      }

      .cls-4 {
        fill: #1a1a1a;
      }
    </style>
    <pattern id="_Водяной_знак_НУД" data-name="Водяной знак НУД" x="0" y="0" width="447.83" height="448.15" patternTransform="translate(1509.46 1509.46)" patternUnits="userSpaceOnUse" viewBox="0 0 447.83 448.15">
      <g>
        <rect class="cls-2" width="447.83" height="448.15"/>
        <g>
          <g>
            <path class="cls-4" d="M237.34,191.46l3.41-3.41-17.42-17.42-3.41,3.41,7.09,7.09-6.37,6.37-7.09-7.09-3.41,3.41,17.42,17.42,3.41-3.41-7.29-7.29,6.37-6.37,7.29,7.29Z"/>
            <path class="cls-4" d="M249.39,173.04c-.07.5-.26,1.12-.59,1.86-.33.75-.83,1.46-1.51,2.13-1.09,1.09-2.15,1.62-3.17,1.57-1.02-.04-2.08-.56-3.17-1.56l7.44-7.44c-.35-.51-.7-.99-1.06-1.43s-.71-.83-1.06-1.18c-.96-.96-1.91-1.63-2.84-1.99-.93-.36-1.82-.51-2.66-.42-.85.08-1.65.34-2.41.77-.76.43-1.46.96-2.09,1.59-1.89,1.89-2.81,3.91-2.76,6.05.05,2.14,1.17,4.31,3.36,6.5,2.04,2.04,4.11,3.18,6.21,3.42,2.1.24,4.15-.64,6.16-2.65.96-.96,1.73-2.01,2.31-3.14.58-1.13.92-2.14,1.02-3.04l-3.18-1.05ZM241.14,168.69c.82.14,1.64.7,2.47,1.66l-4.6,4.6c-.76-.93-1.2-1.85-1.3-2.76-.1-.91.27-1.79,1.11-2.63.73-.73,1.5-1.02,2.32-.87Z"/>
            <path class="cls-4" d="M263.62,165.17l3.24-3.24-12.44-12.44-3.24,3.24,4.68,4.68-4.06,4.06-4.68-4.68-3.24,3.24,12.44,12.44,3.24-3.24-4.9-4.9,4.06-4.06,4.9,4.9Z"/>
            <path class="cls-4" d="M261.08,149.1c.25-.68.67-1.45,1.26-2.3.59-.85,1.21-1.61,1.85-2.25.86-.86,1.62-1.22,2.28-1.06.66.16,1.39.76,2.2,1.8-1.14,1.05-2.1,2.07-2.86,3.09-.76,1.01-1.3,2-1.62,2.96-.32.96-.38,1.88-.2,2.74.18.86.66,1.68,1.42,2.44.55.55,1.13.95,1.75,1.21.62.26,1.26.38,1.92.37.66,0,1.3-.16,1.94-.45.64-.29,1.25-.73,1.83-1.31.93-.93,1.5-1.87,1.72-2.84.22-.96.23-1.87.05-2.71l.12-.12,2.24,1.19,2.64-2.64c-.8-.4-1.56-.91-2.28-1.53s-1.44-1.29-2.14-2.02c-.71-.72-1.4-1.48-2.09-2.27-.69-.79-1.4-1.55-2.13-2.28-.66-.66-1.33-1.19-2-1.58-.67-.39-1.37-.61-2.09-.65-.72-.04-1.48.12-2.26.5-.79.37-1.61.99-2.48,1.85-1,1-1.86,2.04-2.6,3.12-.74,1.09-1.29,2.11-1.66,3.07l3.19,1.64ZM269.75,153.35c-.53.02-1.03-.21-1.49-.67-.33-.33-.5-.71-.5-1.14,0-.43.12-.89.37-1.37.25-.48.59-.97,1.03-1.48.44-.51.94-.99,1.51-1.46l1.62,1.62c.15.51.18,1.11.09,1.78-.09.67-.46,1.33-1.11,1.98-.48.48-.99.73-1.52.75Z"/>
            <path class="cls-4" d="M297.97,130.83l-12.44-12.44-3.24,3.24,9.58,9.58-3.11,3.11-9.58-9.58-3.24,3.24,9.58,9.58-3.11,3.11-9.58-9.58-3.24,3.24,12.44,12.44,15.93-15.93Z"/>
            <path class="cls-4" d="M306.51,115.91c-.07.5-.26,1.12-.59,1.86-.33.75-.83,1.46-1.51,2.13-1.09,1.09-2.15,1.62-3.17,1.57-1.02-.04-2.08-.56-3.17-1.56l7.44-7.44c-.35-.51-.7-.99-1.06-1.43s-.71-.83-1.06-1.18c-.96-.96-1.91-1.63-2.84-1.99-.93-.36-1.82-.51-2.66-.42-.85.08-1.65.34-2.41.77-.76.43-1.46.96-2.09,1.59-1.89,1.89-2.81,3.91-2.76,6.05.05,2.14,1.17,4.31,3.36,6.5,2.04,2.04,4.11,3.18,6.21,3.42,2.1.24,4.15-.64,6.16-2.65.96-.96,1.73-2.01,2.31-3.14.58-1.13.92-2.14,1.02-3.04l-3.18-1.05ZM298.26,111.57c.82.14,1.64.7,2.47,1.66l-4.6,4.6c-.76-.93-1.2-1.85-1.3-2.76-.1-.91.27-1.79,1.11-2.63.73-.73,1.5-1.02,2.32-.87Z"/>
            <path class="cls-4" d="M313.43,115.32c.65-.51,1.38-1.14,2.2-1.88.82-.74,1.58-1.46,2.28-2.15,2.11-2.11,3.33-3.94,3.67-5.51.34-1.57-.11-2.97-1.36-4.22-.8-.8-1.65-1.25-2.55-1.36-.9-.11-1.9.19-3,.88l-.1-.1c.46-.96.59-1.88.37-2.76-.22-.88-.61-1.61-1.19-2.19-1.05-1.05-2.22-1.44-3.51-1.19-1.29.25-2.85,1.29-4.68,3.11-.95.95-1.8,1.85-2.58,2.73s-1.42,1.62-1.95,2.25l12.4,12.4ZM309.25,104.82l-2.61-2.61c.17-.2.35-.42.56-.66.21-.24.5-.55.88-.93.76-.76,1.4-1.18,1.92-1.24.51-.07.99.12,1.42.55.4.4.56.9.47,1.49-.08.6-.39,1.16-.92,1.69l-1.72,1.72ZM311.24,106.81l1.67-1.67c.83-.83,1.54-1.27,2.14-1.32.6-.05,1.11.14,1.54.57.51.51.71,1.09.57,1.72-.13.63-.65,1.39-1.54,2.29-.3.3-.56.54-.77.72-.22.18-.46.37-.72.57l-2.89-2.89Z"/>
            <path class="cls-4" d="M317.41,92.77c.25-.68.67-1.45,1.26-2.3.59-.85,1.21-1.61,1.85-2.25.86-.86,1.62-1.22,2.28-1.06.66.16,1.39.76,2.2,1.8-1.14,1.05-2.1,2.07-2.86,3.09-.76,1.01-1.3,2-1.62,2.96-.32.96-.38,1.88-.2,2.74.18.86.66,1.68,1.42,2.44.55.55,1.13.95,1.75,1.21.62.26,1.26.38,1.92.37.66,0,1.3-.16,1.94-.45.64-.29,1.25-.73,1.83-1.31.93-.93,1.5-1.87,1.72-2.84.22-.96.23-1.87.05-2.71l.12-.12,2.24,1.19,2.64-2.64c-.8-.4-1.56-.91-2.28-1.53s-1.44-1.29-2.14-2.02c-.71-.72-1.4-1.48-2.09-2.27-.69-.79-1.4-1.55-2.13-2.28-.66-.66-1.33-1.19-2-1.58-.67-.39-1.37-.61-2.09-.65-.72-.04-1.48.12-2.26.5-.79.37-1.61.99-2.48,1.85-1,1-1.86,2.04-2.6,3.12-.74,1.09-1.29,2.11-1.66,3.07l3.19,1.64ZM326.07,97.03c-.53.02-1.03-.21-1.49-.67-.33-.33-.5-.71-.5-1.14s.12-.89.37-1.37c.25-.48.59-.97,1.03-1.48.44-.51.94-.99,1.51-1.46l1.62,1.62c.15.51.18,1.11.09,1.78-.09.67-.46,1.33-1.11,1.98-.48.48-.99.73-1.52.75Z"/>
            <path class="cls-4" d="M238.59,207.69l-4.01,4.01,19.24,6.2c.91,1.54.98,2.7.2,3.48-.27.27-.53.5-.8.7-.27.2-.61.37-1.05.5l1.89,3.63c.65-.15,1.18-.36,1.59-.62.41-.27.9-.67,1.44-1.22.65-.65,1.1-1.32,1.36-2.03.26-.71.35-1.48.29-2.33-.07-.85-.28-1.79-.63-2.83-.36-1.04-.83-2.21-1.41-3.52l-7.42-16.68-3.51,3.51,5,10.23,1.94,2.74-.15.15-2.76-1.77-11.23-4.16Z"/>
            <path class="cls-4" d="M277.35,203.79l3.11-3.11-12.44-12.44-3.39,3.39,1.99,7.27.9,2.34-.1.1-2.26-.87-7.54-1.82-3.36,3.36,12.44,12.44,2.89-2.89-5.72-5.72-2.89-2.24.15-.15,3.09,1.19,6.42,1.29,1.17-1.17-1.52-6.2-1.15-3.14.12-.12,2.39,2.79,5.7,5.7Z"/>
            <path class="cls-4" d="M274.66,187.86c.25-.68.67-1.45,1.26-2.3.59-.85,1.21-1.61,1.85-2.25.86-.86,1.62-1.22,2.28-1.06.66.16,1.39.76,2.2,1.8-1.14,1.05-2.1,2.07-2.86,3.09-.76,1.01-1.3,2-1.62,2.96-.32.96-.38,1.88-.2,2.74.18.86.66,1.68,1.42,2.44.55.55,1.13.95,1.75,1.21.62.26,1.26.38,1.92.37.66,0,1.3-.16,1.94-.45.64-.29,1.25-.73,1.83-1.31.93-.93,1.5-1.87,1.72-2.84.22-.96.23-1.87.05-2.71l.12-.12,2.24,1.19,2.64-2.64c-.8-.4-1.56-.91-2.28-1.53s-1.44-1.29-2.14-2.02c-.71-.72-1.4-1.48-2.09-2.27-.69-.79-1.4-1.55-2.13-2.28-.66-.66-1.33-1.19-2-1.58-.67-.39-1.37-.61-2.09-.65-.72-.04-1.48.12-2.26.5-.79.37-1.61.99-2.48,1.85-1,1-1.86,2.04-2.6,3.12-.74,1.09-1.29,2.11-1.66,3.07l3.19,1.64ZM283.32,192.11c-.53.02-1.03-.21-1.49-.67-.33-.33-.5-.71-.5-1.14s.12-.89.37-1.37c.25-.48.59-.97,1.03-1.48.44-.51.94-.99,1.51-1.46l1.62,1.62c.15.51.18,1.11.09,1.78-.09.67-.46,1.33-1.11,1.98-.48.48-.99.73-1.52.75Z"/>
            <path class="cls-4" d="M292.14,235.26l-2.22,2.22-14.39-14.39-10.43,10.43c2.39,2.36,4.36,4.49,5.91,6.41,1.55,1.92,2.77,3.58,3.66,5,.89,1.42,1.51,2.58,1.88,3.47.37.9.58,1.49.65,1.79l-1.84,1.84,6.15,6.15,2.41-2.41-2.74-3.48,11.2-11.2,3.48,2.74,2.41-2.41-6.15-6.15ZM280.81,246.58c-.46-1.23-1.45-2.97-2.96-5.23-1.51-2.26-3.69-4.91-6.55-7.96l3.86-3.86,11.35,11.35-5.7,5.7Z"/>
            <path class="cls-4" d="M302.3,224.8c-.07.5-.26,1.12-.59,1.86-.33.75-.83,1.46-1.51,2.13-1.09,1.09-2.15,1.62-3.17,1.57-1.02-.04-2.08-.56-3.17-1.56l7.44-7.44c-.35-.51-.7-.99-1.06-1.43s-.71-.83-1.06-1.18c-.96-.96-1.91-1.63-2.84-1.99-.93-.36-1.82-.51-2.66-.42-.85.08-1.65.34-2.41.77-.76.43-1.46.96-2.09,1.59-1.89,1.89-2.81,3.91-2.76,6.05.05,2.14,1.17,4.31,3.36,6.5,2.04,2.04,4.11,3.18,6.21,3.42,2.1.24,4.15-.64,6.16-2.65.96-.96,1.73-2.01,2.31-3.14.58-1.13.92-2.14,1.02-3.04l-3.18-1.05ZM294.05,220.46c.82.14,1.64.7,2.47,1.66l-4.6,4.6c-.76-.93-1.2-1.85-1.3-2.76-.1-.91.27-1.79,1.11-2.63.73-.73,1.5-1.02,2.32-.87Z"/>
            <path class="cls-4" d="M315.74,217.73l3.24-3.24-12.44-12.44-8.54,8.54c1.89,1.98,3.4,3.66,4.55,5.03,1.15,1.37,2.01,2.5,2.57,3.41s.86,1.63.89,2.16c.03.53-.11.96-.45,1.3-.23.23-.53.43-.9.6l2.25,3.04c.64-.15,1.45-.71,2.41-1.67.8-.8,1.16-1.73,1.08-2.8-.07-1.07-.43-2.21-1.06-3.42-.63-1.21-1.46-2.46-2.49-3.76-1.03-1.29-2.08-2.58-3.16-3.86l2.46-2.46,9.58,9.58Z"/>
            <path class="cls-4" d="M318.01,208.39c1.05.57,2.11.9,3.17.98,1.06.08,2.12-.08,3.16-.5,1.04-.41,2.07-1.12,3.06-2.12,1.86-1.86,2.73-3.87,2.61-6.02-.12-2.16-1.23-4.29-3.34-6.4-.98-.98-2-1.75-3.05-2.33-1.05-.57-2.11-.9-3.16-1-1.05-.09-2.1.07-3.15.49-1.05.42-2.07,1.12-3.06,2.12-1.86,1.86-2.73,3.87-2.63,6.04.11,2.17,1.22,4.3,3.32,6.41.98.98,2,1.76,3.05,2.33ZM316.03,199.12c-.15-1.05.17-1.97.97-2.76.91-.91,1.91-1.21,3-.88,1.09.32,2.2,1.06,3.35,2.2,1.33,1.33,2.09,2.51,2.29,3.53.2,1.03-.12,1.97-.97,2.81-.45.45-.93.74-1.44.87-.51.13-1.05.12-1.59-.02s-1.1-.41-1.67-.77c-.56-.36-1.12-.82-1.67-1.37-1.36-1.36-2.12-2.56-2.27-3.61Z"/>
          </g>
          <path class="cls-4" d="M244.35,315.56c1.32-3.76.55-8.19-2.01-11.57-.7-.92-1.51-1.75-2.42-2.48.83-.83,1.81-1.8,2.89-2.88,3.77-3.75,8.47-8.42,10.46-10.56.25-.26.41-.59.47-.94.13-.71-.08-1.44-.55-1.91-.82-.84-2.97-2.99-5.26-5.26-2.09-2.08-4.25-4.23-5.47-5.47l-.02-.02c-.68-.67-1.26-1.25-1.76-1.76-.58-.59-1.09-1.1-1.6-1.59-.39-.38-.93-.56-1.48-.51-.54.05-1.03.34-1.35.79-.51.72-1.07,1.47-1.77,2.09-4.8,4.19-9.78,3.16-12.59.29-2.83-2.9-3.77-7.93.53-12.64.53-.56,1.14-1.08,1.88-1.58.44-.3.74-.77.81-1.3.07-.53-.09-1.06-.43-1.47-1.32-1.54-6.04-6.19-9.83-9.92-1.55-1.52-2.94-2.9-3.87-3.82,3.67-2.83,5.61-7.58,4.87-12.19-.7-4.4-3.69-7.65-7.99-8.71-4.15-1.02-8.71.34-11.91,3.53l-.02.02c-.41.37-.75.79-1.06,1.19-1.95-1.95-5.94-5.94-8.98-8.98-2.09-2.09-3.79-3.79-4.2-4.2-.39-.46-1.04-.7-1.78-.64-.34.03-.67.15-.95.35-.96.7-4.51,4.27-9.41,9.24-2.21,2.23-4.29,4.34-5.12,5.13h-.01c-.06.07-.11.12-.16.17-.03.03-.07.07-.1.1l-.04.04h0s0,0,0,0c-.42.42-.45.9-.43,1.15.04.48.28.87.73,1.17l.08.05c2.91,1.69,4.88,5.02,5.01,8.49.11,2.89-1.08,5.39-3.26,6.88l-.02.02c-2.16,1.54-5.09,1.9-7.85.96-2.13-.71-4.07-2.21-5.46-4.24-.3-.44-.77-.73-1.29-.8-.52-.07-1.05.08-1.45.41-1.82,1.52-6.47,6.26-10.2,10.07-1.42,1.45-2.71,2.76-3.58,3.63-1.4-1.75-3.32-3.23-5.32-4.06-2.77-1.18-5.78-1.36-8.47-.48-4,1.27-6.72,4.56-7.27,8.8-.59,4.49,1.36,9.12,4.89,11.88-1.42,1.53-3.92,3.97-6.35,6.34-4.03,3.94-6.53,6.4-7.15,7.36-.21.33-.31.71-.29,1.1.02.3.11,1.02.67,1.48.57.53,4.03,4.01,7.08,7.08,2.95,2.97,6.01,6.04,7.17,7.18.26.31.64.51,1.06.53.91.04,1.37-.68,1.57-.99l.08-.12c2.39-3.8,7.8-5.75,11.59-4.18,3.91,1.59,4.78,4.83,4.95,6.61.35,3.61-1.48,7.39-4.56,9.39l-.03.02c-.07.05-.15.1-.22.15-.1.07-.21.13-.3.2h0c-.55.39-.65.9-.67,1.17-.01.25.03.73.46,1.14h0c1,1.03,5.17,5.19,8.85,8.86,1.99,1.99,3.9,3.89,5.08,5.07-2.24,1.81-3.81,4.14-4.55,6.79-.78,2.77-.59,5.69.54,8.2,1.04,2.32,2.77,4.1,4.99,5.15,2.41,1.14,5.3,1.35,8.37.61h.05c2.55-.73,5.01-2.39,6.76-4.56,2.07,1.91,6,5.91,8.97,8.93,2.72,2.77,3.87,3.93,4.3,4.3.02.02.04.03.06.05.39.34.91.46,1.03.48.12.02.24.03.37.03.6,0,1.1-.19,1.49-.55l.04-.04c.81-.8,11.81-11.79,14.06-14.07.4-.4.59-.95.53-1.51-.06-.56-.37-1.06-.84-1.37-2.59-1.69-4.38-4.7-4.68-7.85-.24-2.59.55-4.9,2.23-6.5l.02-.02.02-.02s.08-.09.13-.13c1.59-1.59,3.84-2.34,6.37-2.1,3.16.29,6.18,2.09,7.86,4.68.31.48.81.78,1.37.85.56.06,1.11-.13,1.51-.53,1.38-1.36,5.9-5.88,9.52-9.51,1.62-1.62,3.1-3.1,4.07-4.08,1.24,1.62,2.88,2.92,4.78,3.79,2.17,1,4.54,1.39,6.86,1.13,2.56-.29,4.79-1.35,6.45-3.02,1.09-1.09,1.94-2.44,2.47-3.99ZM217.69,319.7c-3.08,3.09-6.81,6.82-8.7,8.7-2.22-2.78-5.69-4.67-9.3-5-3.38-.31-6.44.72-8.64,2.92-.05.05-.1.11-.15.16-2.31,2.22-3.4,5.34-3.08,8.8.33,3.6,2.22,7.05,5,9.28-2.99,3.01-10.68,10.69-12.75,12.76-.72-.7-2.25-2.26-3.73-3.77-3.63-3.7-8.16-8.3-9.95-9.81-.4-.34-.94-.49-1.46-.42-.52.07-1,.37-1.29.81-1.38,2.04-3.55,3.64-5.8,4.28-4.63,1.11-8.39-.44-10.06-4.17-1.56-3.47-.98-8.76,3.96-12.18.46-.32.75-.82.8-1.37.05-.55-.15-1.09-.54-1.49-.94-.94-3.34-3.34-5.88-5.87-2.85-2.84-5.99-5.98-7.72-7.72,3.49-2.7,5.44-7.09,5.02-11.47-.4-4.13-2.84-7.4-6.7-8.97-2.49-1.04-5.46-1.04-8.35,0-2.45.88-4.57,2.4-6.07,4.35-1.47-1.46-3.82-3.83-6.12-6.14-3.29-3.31-5.58-5.61-6.64-6.65,1.12-1.26,3.95-4.03,6.3-6.32,2.96-2.89,6.03-5.88,7.25-7.34.35-.41.5-.95.42-1.48-.08-.53-.39-1.01-.85-1.3-3.2-2.05-5.02-5.97-4.53-9.77.41-3.16,2.35-5.51,5.32-6.46,2.01-.65,4.38-.51,6.49.39h.02c1.81.75,3.61,2.26,4.71,3.93l.07.11.05.05c.32.4.8.66,1.31.7.53.05,1.05-.14,1.44-.51.77-.73,2.47-2.47,4.45-4.49,3.05-3.12,7.1-7.24,9.21-9.18,1.67,2.1,3.86,3.66,6.25,4.45,3.61,1.23,7.5.73,10.4-1.33,3-2.05,4.64-5.45,4.49-9.33-.15-3.92-2.03-7.57-5.02-9.91,1.04-1.03,2.56-2.57,4.26-4.29,2.85-2.88,6.97-7.05,8.55-8.49.73.73,2.12,2.12,3.76,3.76,3.55,3.55,8.41,8.41,9.79,9.78.39.38.92.58,1.46.54.54-.04,1.04-.32,1.37-.75.08-.11.16-.22.25-.34.38-.52.73-1.01,1.14-1.38l.07-.06.02-.02c2.5-2.5,6.03-3.57,9.22-2.79,3.2.78,5.33,3.11,5.85,6.39.62,3.9-1.22,7.93-4.58,10.03l-.13.08-.07.07c-.38.32-.61.77-.65,1.27-.04.53.15,1.06.52,1.45.76.79,2.6,2.6,4.73,4.69,3.23,3.17,7.13,7.02,8.95,8.95-.53.42-1.02.86-1.46,1.33h-.01c-2.46,2.7-3.73,5.79-3.68,8.95.05,2.85,1.19,5.56,3.2,7.62,3.63,3.71,10.34,5.25,16.51-.13.6-.52,1.11-1.1,1.55-1.67.24.24.49.49.75.76.51.52,1.09,1.11,1.78,1.79,1.23,1.25,3.39,3.4,5.49,5.48,1.9,1.89,3.71,3.69,4.72,4.71-2.18,2.29-6.4,6.48-9.85,9.91-1.59,1.58-2.97,2.95-3.96,3.95h0c-.47.42-.53.92-.52,1.18.02.47.26.9.66,1.18.02.01.04.03.07.05l.05.03c1.17.74,2.17,1.65,2.97,2.71,1.99,2.62,2.6,6.04,1.59,8.91-1,2.9-3.39,4.76-6.55,5.11-3.78.42-7.64-1.43-9.61-4.62l-.05-.08c-.21-.33-.38-.58-.67-.77l-.28-.19-.33-.04c-.44-.05-.87.09-1.2.41-.14.14-.62.62-1.35,1.35-.96.96-2.34,2.35-3.91,3.92ZM123.91,302.15h0s0,0,0,0ZM137.02,256.78s0,0,0,0c0,0,0,0,0,0Z"/>
        </g>
        <g>
          <g>
            <polygon class="cls-2" points="289.96 311.49 309.48 331.01 330.69 309.8 311.17 290.27 289.96 311.49"/>
            <polygon class="cls-1" points="315.77 314.59 313.65 316.71 317.27 320.33 319.39 318.21 315.77 314.59"/>
            <polygon class="cls-1" points="309.27 308.09 307.15 310.21 310.77 313.83 312.89 311.71 309.27 308.09"/>
            <polygon class="cls-1" points="302.79 301.61 300.67 303.73 304.29 307.35 306.42 305.23 302.79 301.61"/>
          </g>
          <g>
            <polygon class="cls-2" points="309.48 331.01 329 350.53 350.22 329.32 330.69 309.8 309.48 331.01"/>
            <polygon class="cls-1" points="335.29 334.11 333.17 336.23 336.8 339.86 338.92 337.73 335.29 334.11"/>
            <polygon class="cls-1" points="328.79 327.61 326.67 329.73 330.3 333.36 332.42 331.23 328.79 327.61"/>
            <polygon class="cls-1" points="322.32 321.13 320.19 323.25 323.82 326.88 325.94 324.76 322.32 321.13"/>
          </g>
          <g>
            <polygon class="cls-2" points="329 350.53 348.53 370.06 369.74 348.85 350.22 329.32 329 350.53"/>
            <polygon class="cls-1" points="354.82 353.63 352.7 355.76 356.32 359.38 358.44 357.26 354.82 353.63"/>
            <polygon class="cls-1" points="348.32 347.13 346.2 349.26 349.82 352.88 351.94 350.76 348.32 347.13"/>
            <polygon class="cls-1" points="341.84 340.66 339.72 342.78 343.34 346.4 345.46 344.28 341.84 340.66"/>
          </g>
          <g>
            <polygon class="cls-2" points="348.53 370.06 368.05 389.58 389.26 368.37 369.74 348.85 348.53 370.06"/>
            <polygon class="cls-1" points="374.34 373.16 372.22 375.28 375.84 378.9 377.96 376.78 374.34 373.16"/>
            <polygon class="cls-1" points="367.84 366.66 365.72 368.78 369.34 372.4 371.46 370.28 367.84 366.66"/>
            <polygon class="cls-1" points="361.36 360.18 359.24 362.3 362.87 365.93 364.99 363.8 361.36 360.18"/>
          </g>
          <g>
            <polygon class="cls-2" points="368.05 389.58 387.57 409.1 408.79 387.89 389.26 368.37 368.05 389.58"/>
            <polygon class="cls-1" points="393.86 392.68 391.74 394.8 395.37 398.43 397.49 396.31 393.86 392.68"/>
            <polygon class="cls-1" points="387.36 386.18 385.24 388.3 388.87 391.93 390.99 389.81 387.36 386.18"/>
            <polygon class="cls-1" points="380.89 379.7 378.77 381.82 382.39 385.45 384.51 383.33 380.89 379.7"/>
          </g>
          <g>
            <polygon class="cls-2" points="387.57 409.1 407.1 428.63 428.31 407.42 408.79 387.89 387.57 409.1"/>
            <polygon class="cls-1" points="413.39 412.2 411.27 414.33 414.89 417.95 417.01 415.83 413.39 412.2"/>
            <polygon class="cls-1" points="406.89 405.71 404.77 407.83 408.39 411.45 410.51 409.33 406.89 405.71"/>
            <polygon class="cls-1" points="400.41 399.23 398.29 401.35 401.91 404.97 404.03 402.85 400.41 399.23"/>
          </g>
          <g>
            <polygon class="cls-2" points="407.1 428.63 426.62 448.15 447.83 426.94 428.31 407.42 407.1 428.63"/>
            <polygon class="cls-1" points="432.91 431.73 430.79 433.85 434.41 437.47 436.54 435.35 432.91 431.73"/>
            <polygon class="cls-1" points="426.41 425.23 424.29 427.35 427.91 430.97 430.04 428.85 426.41 425.23"/>
            <polygon class="cls-1" points="419.93 418.75 417.81 420.87 421.44 424.5 423.56 422.37 419.93 418.75"/>
          </g>
        </g>
        <g>
          <g>
            <polygon class="cls-2" points="4.75 26.28 24.93 46.46 46.14 25.25 25.96 5.06 4.75 26.28"/>
            <polygon class="cls-1" points="31.05 29.87 28.93 31.99 32.68 35.74 34.8 33.61 31.05 29.87"/>
            <polygon class="cls-1" points="24.33 23.15 22.21 25.27 25.96 29.02 28.08 26.89 24.33 23.15"/>
            <polygon class="cls-1" points="17.63 16.45 15.51 18.57 19.26 22.32 21.38 20.2 17.63 16.45"/>
          </g>
          <g>
            <polygon class="cls-2" points="24.93 46.46 45.12 66.65 66.33 45.44 46.14 25.25 24.93 46.46"/>
            <polygon class="cls-1" points="51.24 50.05 49.11 52.17 52.86 55.92 54.98 53.8 51.24 50.05"/>
            <polygon class="cls-1" points="44.52 43.33 42.39 45.45 46.14 49.2 48.26 47.08 44.52 43.33"/>
            <polygon class="cls-1" points="37.82 36.63 35.7 38.76 39.44 42.5 41.56 40.38 37.82 36.63"/>
          </g>
          <g>
            <polygon class="cls-2" points="45.12 66.65 65.3 86.83 86.51 65.62 66.33 45.44 45.12 66.65"/>
            <polygon class="cls-1" points="71.42 70.24 69.3 72.36 73.05 76.11 75.17 73.98 71.42 70.24"/>
            <polygon class="cls-1" points="64.7 63.52 62.58 65.64 66.33 69.39 68.45 67.26 64.7 63.52"/>
            <polygon class="cls-1" points="58 56.82 55.88 58.94 59.63 62.69 61.75 60.57 58 56.82"/>
          </g>
          <g>
            <polygon class="cls-2" points="65.3 86.83 85.49 107.02 106.7 85.81 86.51 65.62 65.3 86.83"/>
            <polygon class="cls-1" points="91.61 90.42 89.48 92.54 93.23 96.29 95.35 94.17 91.61 90.42"/>
            <polygon class="cls-1" points="84.89 83.7 82.76 85.82 86.51 89.57 88.63 87.45 84.89 83.7"/>
            <polygon class="cls-1" points="78.19 77.01 76.07 79.13 79.81 82.87 81.93 80.75 78.19 77.01"/>
          </g>
          <g>
            <polygon class="cls-2" points="85.49 107.02 105.67 127.2 126.88 105.99 106.7 85.81 85.49 107.02"/>
            <polygon class="cls-1" points="111.79 110.61 109.67 112.73 113.42 116.48 115.54 114.36 111.79 110.61"/>
            <polygon class="cls-1" points="105.07 103.89 102.95 106.01 106.7 109.76 108.82 107.64 105.07 103.89"/>
            <polygon class="cls-1" points="98.37 97.19 96.25 99.31 100 103.06 102.12 100.94 98.37 97.19"/>
          </g>
          <g>
            <polygon class="cls-2" points="105.67 127.2 125.86 147.39 147.07 126.18 126.88 105.99 105.67 127.2"/>
            <polygon class="cls-1" points="131.98 130.79 129.86 132.91 133.6 136.66 135.72 134.54 131.98 130.79"/>
            <polygon class="cls-1" points="125.26 124.07 123.14 126.2 126.88 129.94 129 127.82 125.26 124.07"/>
            <polygon class="cls-1" points="118.56 117.38 116.44 119.5 120.18 123.24 122.31 121.12 118.56 117.38"/>
          </g>
          <g>
            <polygon class="cls-2" points="125.86 147.39 146.04 167.57 167.26 146.36 147.07 126.18 125.86 147.39"/>
            <polygon class="cls-1" points="152.16 150.98 150.04 153.1 153.79 156.85 155.91 154.73 152.16 150.98"/>
            <polygon class="cls-1" points="145.44 144.26 143.32 146.38 147.07 150.13 149.19 148.01 145.44 144.26"/>
            <polygon class="cls-1" points="138.74 137.56 136.62 139.68 140.37 143.43 142.49 141.31 138.74 137.56"/>
          </g>
          <g>
            <polygon class="cls-2" points="146.04 167.57 166.23 187.76 187.44 166.55 167.26 146.36 146.04 167.57"/>
            <polygon class="cls-1" points="172.35 171.16 170.23 173.29 173.97 177.03 176.09 174.91 172.35 171.16"/>
            <polygon class="cls-1" points="165.63 164.44 163.51 166.57 167.25 170.31 169.37 168.19 165.63 164.44"/>
            <polygon class="cls-1" points="158.93 157.75 156.81 159.87 160.55 163.61 162.68 161.49 158.93 157.75"/>
          </g>
        </g>
        <g>
          <g>
            <path class="cls-2" d="M97.17,324.29c-6.65,6.5-13.21,13.05-19.72,19.63l21.33,21.09c6.42-6.48,12.85-12.91,19.34-19.25l-20.95-21.47Z"/>
            <polygon class="cls-1" points="93.91 350.14 91.78 348.02 88.17 351.65 90.3 353.76 93.91 350.14"/>
            <polygon class="cls-1" points="100.4 343.66 98.28 341.53 94.65 345.14 96.77 347.26 100.4 343.66"/>
            <polygon class="cls-1" points="106.9 337.24 104.8 335.1 101.15 338.69 103.26 340.83 106.9 337.24"/>
          </g>
          <g>
            <polygon class="cls-2" points="77.46 343.91 58.09 363.66 79.56 384.61 98.78 365.01 77.46 343.91"/>
            <polygon class="cls-1" points="74.58 369.76 72.44 367.66 68.86 371.32 71.01 373.42 74.58 369.76"/>
            <polygon class="cls-1" points="81 363.21 78.86 361.11 75.28 364.76 77.42 366.86 81 363.21"/>
            <polygon class="cls-1" points="87.41 356.69 85.27 354.58 81.68 358.23 83.82 360.33 87.41 356.69"/>
          </g>
          <g>
            <polygon class="cls-2" points="58.09 363.66 38.87 383.31 60.25 404.35 79.56 384.61 58.09 363.66"/>
            <polygon class="cls-1" points="55.33 389.47 53.19 387.37 49.61 391.02 51.75 393.12 55.33 389.47"/>
            <polygon class="cls-1" points="61.74 382.91 59.6 380.82 56.02 384.47 58.17 386.57 61.74 382.91"/>
            <polygon class="cls-1" points="68.13 376.37 65.98 374.27 62.41 377.93 64.56 380.03 68.13 376.37"/>
          </g>
          <g>
            <path class="cls-2" d="M38.87,383.31c-6.41,6.5-12.82,12.98-19.3,19.34l21.05,21.37c6.63-6.51,13.14-13.09,19.62-19.67l-21.38-21.04Z"/>
            <polygon class="cls-1" points="35.93 409.06 33.82 406.93 30.19 410.52 32.29 412.66 35.93 409.06"/>
            <polygon class="cls-1" points="42.42 402.57 40.29 400.45 36.68 404.07 38.8 406.19 42.42 402.57"/>
            <polygon class="cls-1" points="48.85 396.06 46.72 393.96 43.12 397.59 45.25 399.7 48.85 396.06"/>
          </g>
          <g>
            <path class="cls-2" d="M19.58,402.65c-6.47,6.37-12.99,12.65-19.58,18.82l20.48,21.92c6.82-6.39,13.53-12.85,20.15-19.37l-21.05-21.37Z"/>
            <polygon class="cls-1" points="16.17 428.29 14.11 426.12 10.39 429.62 12.45 431.81 16.17 428.29"/>
            <polygon class="cls-1" points="22.8 421.94 20.72 419.79 17.04 423.32 19.11 425.49 22.8 421.94"/>
            <polygon class="cls-1" points="29.36 415.56 27.26 413.42 23.6 416.98 25.69 419.13 29.36 415.56"/>
          </g>
        </g>
        <g>
          <g>
            <path class="cls-2" d="M421.46,0c-5.52,5.58-11.1,11.13-16.71,16.68l21.12,21.31c5.64-5.59,11.28-11.21,16.9-16.88L421.46,0Z"/>
            <polygon class="cls-1" points="420.43 23.75 418.32 21.62 415.19 24.72 417.3 26.85 420.43 23.75"/>
            <polygon class="cls-1" points="426.03 18.16 423.91 16.04 420.79 19.15 422.91 21.28 426.03 18.16"/>
            <polygon class="cls-1" points="431.6 12.58 429.47 10.47 426.36 13.59 428.49 15.71 431.6 12.58"/>
          </g>
          <g>
            <polygon class="cls-2" points="404.75 16.68 387.88 33.38 408.98 54.7 425.87 37.99 404.75 16.68"/>
            <polygon class="cls-1" points="403.55 40.46 401.45 38.32 398.31 41.42 400.42 43.56 403.55 40.46"/>
            <polygon class="cls-1" points="409.18 34.9 407.07 32.77 403.93 35.87 406.04 38 409.18 34.9"/>
            <polygon class="cls-1" points="414.78 29.36 412.67 27.23 409.54 30.33 411.65 32.46 414.78 29.36"/>
          </g>
          <g>
            <polygon class="cls-2" points="387.88 33.38 370.97 50.23 392.25 71.37 408.98 54.7 387.88 33.38"/>
            <polygon class="cls-1" points="386.71 57.19 384.59 55.07 381.47 58.19 383.6 60.31 386.71 57.19"/>
            <polygon class="cls-1" points="392.31 51.61 390.19 49.48 387.06 52.59 389.18 54.72 392.31 51.61"/>
            <polygon class="cls-1" points="397.9 46.06 395.79 43.93 392.65 47.03 394.77 49.16 397.9 46.06"/>
          </g>
          <g>
            <path class="cls-2" d="M370.97,50.23c-5.62,5.66-11.23,11.37-16.79,17.16l21.63,20.78c5.41-5.63,10.89-11.22,16.43-16.79l-21.28-21.14Z"/>
            <polygon class="cls-1" points="370.04 74.08 367.89 71.99 364.82 75.17 366.98 77.25 370.04 74.08"/>
            <polygon class="cls-1" points="375.56 68.43 373.42 66.33 370.34 69.48 372.48 71.58 375.56 68.43"/>
            <polygon class="cls-1" points="381.1 62.83 378.97 60.71 375.86 63.85 378 65.96 381.1 62.83"/>
          </g>
        </g>
      </g>
    </pattern>
  </defs>
  <rect class="cls-3" x="1" y="1" width="3661.71" height="3661.71"/>
</svg>